<svg width="16" height="16" viewBox="0 0 16 16" fill="none" xmlns="http://www.w3.org/2000/svg">
<path fill-rule="evenodd" clip-rule="evenodd" d="M8 0.499908C6.01085 0.499908 4.10318 1.29009 2.69664 2.69664C1.29009 4.10318 0.499908 6.01085 0.499908 8C0.499908 9.98915 1.29009 11.8968 2.69664 13.3034C4.10318 14.7099 6.01085 15.5001 8 15.5001C9.98915 15.5001 11.8968 14.7099 13.3034 13.3034C14.7099 11.8968 15.5001 9.98915 15.5001 8C15.5001 6.01085 14.7099 4.10318 13.3034 2.69664C11.8968 1.29009 9.98915 0.499908 8 0.499908ZM3.40374 3.40374C4.62275 2.18474 6.27607 1.49991 8 1.49991C9.72394 1.49991 11.3773 2.18474 12.5963 3.40374C13.8153 4.62275 14.5001 6.27607 14.5001 8C14.5001 9.72394 13.8153 11.3773 12.5963 12.5963C11.3773 13.8153 9.72394 14.5001 8 14.5001C6.27607 14.5001 4.62275 13.8153 3.40374 12.5963C2.18474 11.3773 1.49991 9.72394 1.49991 8C1.49991 6.27607 2.18474 4.62275 3.40374 3.40374ZM7.99991 4.69987C8.27605 4.69987 8.49991 4.92372 8.49991 5.19987V7.49991H10.7999C11.0761 7.49991 11.2999 7.72376 11.2999 7.99991C11.2999 8.27605 11.0761 8.49991 10.7999 8.49991H8.49991V10.7999C8.49991 11.0761 8.27605 11.2999 7.99991 11.2999C7.72376 11.2999 7.49991 11.0761 7.49991 10.7999V8.49991H5.19987C4.92372 8.49991 4.69987 8.27605 4.69987 7.99991C4.69987 7.72376 4.92372 7.49991 5.19987 7.49991H7.49991V5.19987C7.49991 4.92372 7.72376 4.69987 7.99991 4.69987Z" fill="#141414"/>
</svg>
