<svg width="16" height="16" viewBox="0 0 16 16" fill="none" xmlns="http://www.w3.org/2000/svg">
<path fill-rule="evenodd" clip-rule="evenodd" d="M3.54292 0.65289C3.767 0.491519 4.07948 0.542358 4.24085 0.766442L5.26914 2.19435C6.07649 1.74198 7.00786 1.48416 7.99997 1.48416C8.99084 1.48416 9.92222 1.74239 10.73 2.19546L11.7591 0.766442C11.9205 0.542358 12.2329 0.491519 12.457 0.65289C12.6811 0.814262 12.732 1.12674 12.5706 1.35082L11.5552 2.76074C12.7975 3.78566 13.5904 5.33684 13.5904 7.07455V7.09264C14.6454 7.32188 15.4414 8.26128 15.4414 9.39021V13.0923C15.4414 13.3685 15.2176 13.5923 14.9414 13.5923C14.6653 13.5923 14.4414 13.3685 14.4414 13.0923V9.39021C14.4414 8.82052 14.0878 8.33399 13.5904 8.1351V14.0178C13.5904 14.7999 12.9469 15.4434 12.1648 15.4434H3.83511C3.04468 15.4434 2.40958 14.7978 2.40958 14.0178V8.13413C1.91018 8.33223 1.55853 8.81889 1.55853 9.39021V13.0923C1.55853 13.3685 1.33468 13.5923 1.05853 13.5923C0.78239 13.5923 0.558533 13.3685 0.558533 13.0923V9.39021C0.558533 8.26145 1.35015 7.32085 2.40958 7.09222V7.07455C2.40958 5.33623 3.20111 3.78439 4.44375 2.75941L3.42937 1.35082C3.268 1.12674 3.31884 0.814262 3.54292 0.65289ZM5.37962 3.30375C4.1979 4.12594 3.42199 5.48974 3.40973 7.03731H12.5902C12.5779 5.48377 11.7936 4.11519 10.6036 3.29399C10.5924 3.28722 10.5815 3.27997 10.5707 3.27223C10.5672 3.26966 10.5636 3.26704 10.5601 3.26439C9.82836 2.77164 8.94728 2.48416 7.99997 2.48416C7.05809 2.48416 6.18296 2.76702 5.45481 3.25253C5.44654 3.25932 5.43801 3.26589 5.4292 3.27223C5.4131 3.28383 5.39654 3.29433 5.37962 3.30375ZM3.40958 8.03916V14.0178C3.40958 14.2498 3.60129 14.4434 3.83511 14.4434H12.1648C12.3947 14.4434 12.5904 14.2476 12.5904 14.0178V8.03916H3.40958ZM10.2685 5.18158C10.3215 5.12806 10.3473 5.0588 10.3473 4.99395C10.3473 4.84865 10.2296 4.72533 10.0787 4.72533C9.99693 4.72533 9.93002 4.76024 9.88667 4.80398C9.84395 4.84709 9.81009 4.91285 9.81009 4.99395C9.81009 5.15038 9.93909 5.26257 10.0787 5.26257C10.1443 5.26257 10.2148 5.23577 10.2685 5.18158ZM9.34733 4.99395C9.34733 4.59263 9.66553 4.26257 10.0787 4.26257C10.4651 4.26257 10.8101 4.57221 10.8101 4.99395C10.8101 5.38918 10.4856 5.72533 10.0787 5.72533C9.66866 5.72533 9.34733 5.39223 9.34733 4.99395ZM6.1073 5.18158C6.16032 5.12807 6.18616 5.0588 6.18616 4.99396C6.18616 4.84866 6.06845 4.72534 5.91754 4.72534C5.83576 4.72534 5.76885 4.76024 5.7255 4.80399C5.68278 4.8471 5.64892 4.91286 5.64892 4.99396C5.64892 5.15039 5.77793 5.26258 5.91754 5.26258C5.98312 5.26258 6.05361 5.23577 6.1073 5.18158ZM5.18616 4.99396C5.18616 4.59264 5.50437 4.26258 5.91754 4.26258C6.30396 4.26258 6.64892 4.57222 6.64892 4.99396C6.64892 5.38919 6.32447 5.72534 5.91754 5.72534C5.50749 5.72534 5.18616 5.39224 5.18616 4.99396Z" fill="#141414"/>
</svg>
