<svg width="16" height="16" viewBox="0 0 16 16" fill="none" xmlns="http://www.w3.org/2000/svg">
<path d="M6.17623 15.5267C5.08623 15.5267 4.35623 14.4667 3.86623 13.7567C2.62623 12.0167 1.91623 9.01674 3.05623 7.01673C3.34852 6.48785 3.77312 6.04393 4.28847 5.7284C4.80383 5.41288 5.39228 5.23657 5.99623 5.21673H6.08623C6.55988 5.25216 7.02362 5.37063 7.45623 5.56674C7.64056 5.6548 7.83551 5.71866 8.03623 5.75673C8.22608 5.71886 8.41072 5.65843 8.58623 5.57673C9.16784 5.30594 9.805 5.17577 10.4462 5.19673C10.9698 5.21288 11.4822 5.35156 11.9424 5.60165C12.4027 5.85173 12.7978 6.20625 13.0962 6.63673C13.1361 6.69252 13.1638 6.75606 13.1776 6.82324C13.1914 6.89042 13.1909 6.95975 13.1762 7.02674C13.1617 7.09426 13.1339 7.15822 13.0944 7.21487C13.0549 7.27153 13.0046 7.31976 12.9462 7.35674C12.6155 7.55684 12.3417 7.83842 12.1508 8.17457C11.96 8.51072 11.8586 8.8902 11.8562 9.27674C11.8669 9.70418 11.9997 10.1196 12.2389 10.4741C12.4781 10.8285 12.8138 11.107 13.2062 11.2767C13.2654 11.2989 13.3196 11.3326 13.3657 11.3758C13.4119 11.4191 13.449 11.471 13.475 11.5286C13.501 11.5862 13.5154 11.6484 13.5173 11.7115C13.5193 11.7747 13.5087 11.8377 13.4862 11.8967C13.2671 12.5532 12.9574 13.1759 12.5662 13.7467C12.0762 14.4667 11.3962 15.4567 10.2862 15.4767C9.88392 15.4773 9.48692 15.3849 9.12623 15.2067C8.8481 15.0759 8.54355 15.0108 8.23623 15.0167C7.92007 15.0196 7.60878 15.0949 7.32623 15.2367C6.98449 15.3999 6.61428 15.495 6.23623 15.5167L6.17623 15.5267ZM5.99623 6.22673C5.57073 6.24608 5.15723 6.37382 4.79495 6.59784C4.43268 6.82185 4.13365 7.13471 3.92623 7.50673C2.92623 9.23673 3.77623 11.8667 4.68623 13.1867C5.14623 13.8467 5.68623 14.5867 6.20623 14.5267C6.46074 14.5111 6.70928 14.443 6.93623 14.3267C7.34233 14.1326 7.78614 14.0302 8.23623 14.0267C8.67983 14.0309 9.11699 14.1333 9.51623 14.3267C9.7483 14.4469 10.0049 14.5119 10.2662 14.5167C10.8262 14.5167 11.2662 13.9267 11.7462 13.2267C11.998 12.8432 12.2155 12.4384 12.3962 12.0167C11.9239 11.7279 11.5341 11.3221 11.2643 10.8387C10.9945 10.3552 10.854 9.81036 10.8562 9.25673C10.8663 8.79749 10.973 8.34552 11.1695 7.93028C11.3659 7.51504 11.6476 7.14584 11.9962 6.84673C11.5794 6.44944 11.0317 6.21826 10.4562 6.19673C9.95156 6.19104 9.45225 6.30048 8.99623 6.51673C8.70978 6.65246 8.40181 6.73706 8.08623 6.76673C7.73954 6.74355 7.4003 6.65535 7.08623 6.50673C6.75 6.34789 6.38717 6.25295 6.01623 6.22673H5.99623Z" fill="#141414"/>
<path d="M7.99622 4.74674C7.87026 4.74714 7.74879 4.69999 7.65609 4.61471C7.56339 4.52942 7.5063 4.41229 7.49622 4.28674C7.4559 3.81923 7.51137 3.34842 7.65924 2.90309C7.80711 2.45776 8.04427 2.04727 8.35622 1.69674C8.65781 1.34471 9.02596 1.05572 9.43954 0.846362C9.85311 0.637 10.304 0.511388 10.7662 0.476737C10.8329 0.468498 10.9006 0.474972 10.9645 0.495704C11.0285 0.516436 11.0871 0.550922 11.1362 0.596737C11.1858 0.639228 11.2263 0.691193 11.2555 0.74958C11.2847 0.807966 11.302 0.871598 11.3062 0.936737C11.3691 1.88367 11.0646 2.81841 10.4562 3.54674C10.1619 3.91784 9.78812 4.21826 9.36241 4.42592C8.9367 4.63358 8.46987 4.74321 7.99622 4.74674ZM9.06622 2.41674C8.7588 2.77195 8.56389 3.21052 8.50622 3.67674C8.96986 3.5605 9.38154 3.29308 9.67622 2.91674L9.72622 2.84674C10.0241 2.48171 10.2176 2.04285 10.2862 1.57674C9.82901 1.72918 9.42136 2.00209 9.10622 2.36674L9.06622 2.41674Z" fill="#141414"/>
</svg>
