<svg width="16" height="16" viewBox="0 0 16 16" fill="none" xmlns="http://www.w3.org/2000/svg">
<path fill-rule="evenodd" clip-rule="evenodd" d="M0.849823 8.1008C0.849823 7.82466 1.07368 7.6008 1.34982 7.6008H14.5493C14.8255 7.6008 15.0493 7.82466 15.0493 8.1008C15.0493 8.37694 14.8255 8.6008 14.5493 8.6008H1.34982C1.07368 8.6008 0.849823 8.37694 0.849823 8.1008Z" fill="black"/>
<path fill-rule="evenodd" clip-rule="evenodd" d="M9.24645 2.79662C9.44171 2.60136 9.7583 2.60136 9.95356 2.79662L14.9034 7.74644C15.0986 7.9417 15.0986 8.25828 14.9034 8.45355L9.95356 13.4034C9.7583 13.5986 9.44171 13.5986 9.24645 13.4034C9.05119 13.2081 9.05119 12.8915 9.24645 12.6963L13.8427 8.09999L9.24645 3.50373C9.05119 3.30847 9.05119 2.99189 9.24645 2.79662Z" fill="black"/>
</svg>
