<svg width="16" height="16" viewBox="0 0 16 16" fill="none" xmlns="http://www.w3.org/2000/svg">
<path d="M12.9791 2.31274L2.64593 12.6459C2.45067 12.8411 2.45067 13.1577 2.64593 13.353C2.84119 13.5483 3.15777 13.5483 3.35303 13.353L13.6862 3.01985C13.8814 2.82458 13.8814 2.508 13.6862 2.31274C13.4909 2.11748 13.1743 2.11748 12.9791 2.31274Z" fill="#161616"/>
<path d="M12.8336 10.6661C12.8336 10.9421 13.0576 11.1659 13.3336 11.166C13.6097 11.166 13.8335 10.9422 13.8335 10.6661L13.8342 2.66624C13.8342 2.39024 13.6102 2.16652 13.3343 2.16629H5.33376L5.23294 2.17596C5.00508 2.22257 4.83381 2.4246 4.83381 2.66624C4.83381 2.90787 5.00508 3.10991 5.23294 3.15652L5.33376 3.16618L12.833 3.16618L12.8336 10.6661Z" fill="#161616"/>
</svg>
