<svg width="16" height="16" viewBox="0 0 16 16" fill="none" xmlns="http://www.w3.org/2000/svg">
<path fill-rule="evenodd" clip-rule="evenodd" d="M7.94897 15.2C8.22512 15.2 8.44897 14.9761 8.44897 14.7V1.50047C8.44897 1.22433 8.22512 1.00047 7.94897 1.00047C7.67283 1.00047 7.44897 1.22433 7.44897 1.50047V14.7C7.44897 14.9761 7.67283 15.2 7.94897 15.2Z" fill="black"/>
<path fill-rule="evenodd" clip-rule="evenodd" d="M2.64645 6.80335C2.84171 6.99861 3.15829 6.99861 3.35355 6.80335L7.94982 2.20709L12.5461 6.80335C12.7413 6.99861 13.0579 6.99861 13.2532 6.80335C13.4484 6.60809 13.4484 6.29151 13.2532 6.09625L8.30337 1.14643C8.10811 0.951168 7.79152 0.951168 7.59626 1.14643L2.64645 6.09625C2.45118 6.29151 2.45118 6.60809 2.64645 6.80335Z" fill="black"/>
</svg>
