<svg width="24" height="24" viewBox="0 0 24 24" fill="none" xmlns="http://www.w3.org/2000/svg">
<g clip-path="url(#clip0_15610_14377)">
<g clip-path="url(#clip1_15610_14377)">
<path d="M6.85875 19.3125C6.75107 19.2324 6.67897 19.1133 6.65783 18.9808C6.63669 18.8482 6.66818 18.7127 6.74559 18.603C6.823 18.4934 6.94019 18.4183 7.07216 18.3939C7.20414 18.3694 7.34044 18.3975 7.452 18.4721C12.6244 22.1138 19.9084 18.4373 19.9084 12C19.9081 10.7574 19.615 9.53236 19.0529 8.42418C18.4908 7.31599 17.6755 6.35586 16.673 5.62162C15.6706 4.88737 14.5092 4.39968 13.2831 4.19808C12.0569 3.99648 10.8006 4.08664 9.61578 4.46126C8.431 4.83587 7.35117 5.4844 6.46383 6.35427C5.57649 7.22413 4.90661 8.29085 4.5085 9.46794C4.11039 10.645 3.99525 11.8994 4.17242 13.1293C4.3496 14.3592 4.81409 15.53 5.52825 16.5469C5.60035 16.6585 5.62643 16.7937 5.60101 16.9242C5.57559 17.0546 5.50066 17.1701 5.39192 17.2465C5.28317 17.3229 5.14908 17.3542 5.01775 17.3339C4.88642 17.3136 4.76806 17.2432 4.6875 17.1375C3.87988 15.9884 3.35447 14.6651 3.15387 13.2749C2.95327 11.8848 3.08314 10.4669 3.53293 9.13636C3.98272 7.80579 4.73978 6.59996 5.74271 5.61666C6.74564 4.63336 7.9662 3.90028 9.3054 3.47687C10.6446 3.05347 12.0647 2.95165 13.4507 3.17969C14.8366 3.40772 16.1492 3.95919 17.2822 4.78936C18.4151 5.61953 19.3364 6.70503 19.9714 7.95783C20.6064 9.21063 20.9372 10.5955 20.937 12C20.937 19.2566 12.7237 23.4428 6.85875 19.3125Z" fill="black"/>
<path d="M12 24C9.62663 24 7.30655 23.2962 5.33316 21.9776C3.35977 20.6591 1.8217 18.7849 0.913451 16.5922C0.00519937 14.3995 -0.232441 11.9867 0.230582 9.65892C0.693605 7.33115 1.83649 5.19295 3.51472 3.51472C5.19295 1.83649 7.33115 0.693605 9.65892 0.230582C11.9867 -0.232441 14.3995 0.00519937 16.5922 0.913451C18.7849 1.8217 20.6591 3.35977 21.9776 5.33316C23.2962 7.30655 24 9.62663 24 12C23.9964 15.1815 22.731 18.2317 20.4813 20.4813C18.2317 22.731 15.1815 23.9964 12 24ZM12 1.02863C9.83007 1.02863 7.70887 1.67209 5.90464 2.87764C4.1004 4.08319 2.69417 5.79669 1.86378 7.80144C1.03338 9.8062 0.816109 12.0122 1.23944 14.1404C1.66278 16.2687 2.7077 18.2236 4.24207 19.7579C5.77645 21.2923 7.73136 22.3372 9.8596 22.7606C11.9878 23.1839 14.1938 22.9666 16.1986 22.1362C18.2033 21.3058 19.9168 19.8996 21.1224 18.0954C22.3279 16.2911 22.9714 14.1699 22.9714 12C22.968 9.09125 21.811 6.3026 19.7542 4.2458C17.6974 2.189 14.9088 1.032 12 1.02863Z" fill="black"/>
<path d="M13.1486 17.8744C13.0122 17.8742 12.8815 17.8199 12.785 17.7235C12.6886 17.627 12.6343 17.4963 12.6341 17.3599V16.5941C12.6341 16.5275 12.6077 16.4636 12.5605 16.4165C12.5134 16.3693 12.4495 16.3429 12.3829 16.3429H10.8514C10.7847 16.3429 10.7208 16.3693 10.6737 16.4165C10.6266 16.4636 10.6001 16.5275 10.6001 16.5941V17.3599C10.602 17.4286 10.59 17.497 10.565 17.561C10.54 17.625 10.5024 17.6834 10.4545 17.7326C10.4066 17.7819 10.3492 17.821 10.2859 17.8478C10.2226 17.8745 10.1545 17.8883 10.0858 17.8883C10.0171 17.8883 9.94904 17.8745 9.88571 17.8478C9.82239 17.821 9.76507 17.7819 9.71712 17.7326C9.66918 17.6834 9.6316 17.625 9.60658 17.561C9.58157 17.497 9.56964 17.4286 9.5715 17.3599V16.5941C9.5714 16.5275 9.54484 16.4635 9.49766 16.4164C9.45049 16.3693 9.38654 16.3429 9.31987 16.3429H8.5545C8.48579 16.3447 8.4174 16.3328 8.35338 16.3078C8.28936 16.2828 8.231 16.2452 8.18175 16.1972C8.13249 16.1493 8.09334 16.092 8.06661 16.0287C8.03988 15.9653 8.02611 15.8973 8.02611 15.8286C8.02611 15.7598 8.03988 15.6918 8.06661 15.6285C8.09334 15.5651 8.13249 15.5078 8.18175 15.4599C8.231 15.4119 8.28936 15.3744 8.35338 15.3493C8.4174 15.3243 8.48579 15.3124 8.5545 15.3143H9.31987C9.38654 15.3143 9.45049 15.2878 9.49766 15.2407C9.54484 15.1936 9.5714 15.1297 9.5715 15.063V8.937C9.5714 8.87033 9.54484 8.80642 9.49766 8.75932C9.45049 8.71221 9.38654 8.68575 9.31987 8.68575H8.5545C8.48579 8.68761 8.4174 8.67568 8.35338 8.65066C8.28936 8.62565 8.231 8.58806 8.18175 8.54012C8.13249 8.49218 8.09334 8.43486 8.06661 8.37153C8.03988 8.30821 8.02611 8.24017 8.02611 8.17144C8.02611 8.1027 8.03988 8.03467 8.06661 7.97134C8.09334 7.90802 8.13249 7.8507 8.18175 7.80275C8.231 7.75481 8.28936 7.71722 8.35338 7.69221C8.4174 7.6672 8.48579 7.65527 8.5545 7.65713H9.31987C9.38654 7.65713 9.45049 7.63067 9.49766 7.58356C9.54484 7.53645 9.5714 7.47255 9.5715 7.40588V6.64013C9.56964 6.57142 9.58157 6.50303 9.60658 6.43901C9.6316 6.37499 9.66918 6.31663 9.71712 6.26737C9.76507 6.21812 9.82239 6.17897 9.88571 6.15224C9.94904 6.12551 10.0171 6.11174 10.0858 6.11174C10.1545 6.11174 10.2226 6.12551 10.2859 6.15224C10.3492 6.17897 10.4066 6.21812 10.4545 6.26737C10.5024 6.31663 10.54 6.37499 10.565 6.43901C10.59 6.50303 10.602 6.57142 10.6001 6.64013V7.40588C10.6001 7.47251 10.6266 7.53642 10.6737 7.58354C10.7208 7.63065 10.7847 7.65713 10.8514 7.65713H12.3829C12.4495 7.65713 12.5134 7.63065 12.5605 7.58354C12.6077 7.53642 12.6341 7.47251 12.6341 7.40588V6.64013C12.6341 6.50367 12.6883 6.37281 12.7848 6.27632C12.8813 6.17983 13.0122 6.12563 13.1486 6.12563C13.2851 6.12563 13.4159 6.17983 13.5124 6.27632C13.6089 6.37281 13.6631 6.50367 13.6631 6.64013V7.67438C13.6631 7.72176 13.6765 7.76819 13.7017 7.80832C13.7269 7.84845 13.7629 7.88066 13.8056 7.90125C14.1273 8.05126 14.4117 8.2706 14.6386 8.54352C14.8655 8.81645 15.0291 9.1362 15.1179 9.47985C15.2066 9.82349 15.2181 10.1825 15.1517 10.5311C15.0853 10.8798 14.9426 11.2094 14.7337 11.4964C14.7136 11.5243 14.6994 11.5561 14.6921 11.5897C14.6848 11.6233 14.6844 11.6581 14.6911 11.6919C14.6978 11.7256 14.7113 11.7577 14.7309 11.786C14.7505 11.8143 14.7757 11.8382 14.805 11.8564C15.2281 12.117 15.5606 12.5017 15.7571 12.9582C15.9537 13.4146 16.0048 13.9205 15.9034 14.407C15.8021 14.8935 15.5533 15.3369 15.1908 15.6769C14.8284 16.0168 14.37 16.2368 13.878 16.3069C13.8183 16.3155 13.7637 16.3454 13.7242 16.3911C13.6847 16.4368 13.663 16.4951 13.6631 16.5555V17.3599C13.6629 17.4963 13.6087 17.627 13.5122 17.7235C13.4158 17.8199 13.285 17.8742 13.1486 17.8744ZM10.8514 12.5145C10.7847 12.5145 10.7208 12.541 10.6737 12.5881C10.6266 12.6352 10.6001 12.6991 10.6001 12.7658V15.063C10.6001 15.1296 10.6266 15.1935 10.6737 15.2407C10.7208 15.2878 10.7847 15.3143 10.8514 15.3143H13.5315C13.9028 15.3143 14.2588 15.1668 14.5214 14.9042C14.7839 14.6417 14.9314 14.2856 14.9314 13.9144C14.9314 13.5431 14.7839 13.187 14.5214 12.9245C14.2588 12.662 13.9028 12.5145 13.5315 12.5145H10.8514ZM10.8514 8.68575C10.7847 8.68575 10.7208 8.71222 10.6737 8.75934C10.6266 8.80646 10.6001 8.87037 10.6001 8.937V11.2343C10.6001 11.3009 10.6266 11.3648 10.6737 11.4119C10.7208 11.459 10.7847 11.4855 10.8514 11.4855H12.7657C13.137 11.4855 13.4931 11.338 13.7556 11.0755C14.0181 10.813 14.1656 10.4569 14.1656 10.0856C14.1656 9.71436 14.0181 9.35829 13.7556 9.09576C13.4931 8.83324 13.137 8.68575 12.7657 8.68575H10.8514Z" fill="black"/>
</g>
</g>
<defs>
<clipPath id="clip0_15610_14377">
<rect width="24" height="24" fill="white"/>
</clipPath>
<clipPath id="clip1_15610_14377">
<rect width="24" height="24" fill="white"/>
</clipPath>
</defs>
</svg>
