<svg width="16" height="16" viewBox="0 0 16 16" fill="none" xmlns="http://www.w3.org/2000/svg">
<g id="Color=Purple">
<g id="Outlined">
<g id="secondary">
<path d="M10.8686 6.5705C10.3042 6.5705 9.74525 6.68167 9.22378 6.89767C8.70231 7.11367 8.22849 7.43026 7.82938 7.82938C7.43026 8.22849 7.11367 8.70231 6.89767 9.22378C6.68167 9.74525 6.5705 10.3042 6.5705 10.8686C6.5705 11.433 6.68167 11.9919 6.89767 12.5134C7.11367 13.0349 7.43026 13.5087 7.82938 13.9078C8.22849 14.3069 8.70231 14.6235 9.22378 14.8395C9.74525 15.0555 10.3042 15.1667 10.8686 15.1667C11.433 15.1667 11.9919 15.0555 12.5134 14.8395C13.0349 14.6235 13.5087 14.3069 13.9078 13.9078C14.3069 13.5087 14.6235 13.0349 14.8395 12.5134C15.0555 11.9919 15.1667 11.433 15.1667 10.8686C15.1667 10.3042 15.0555 9.74525 14.8395 9.22378C14.6235 8.70231 14.3069 8.22849 13.9078 7.82938C13.5087 7.43026 13.0349 7.11367 12.5134 6.89767C11.9919 6.68167 11.433 6.5705 10.8686 6.5705Z" fill="#F5EFF9"/>
<path d="M6.81246 12.3013H14.9247H6.81246Z" fill="#F5EFF9"/>
<path d="M6.81246 9.43588H14.9247H6.81246Z" fill="#F5EFF9"/>
<path d="M9.93893 6.6711C9.16209 9.45372 9.2767 12.4083 10.2637 15.1208L9.93893 6.6711Z" fill="#F5EFF9"/>
<path d="M11.7957 6.6711V6.67046C12.1268 7.88029 12.2987 9.12833 12.2987 10.3891V10.3885C12.2987 11.9995 12.0186 13.6041 11.471 15.1196" fill="#F5EFF9"/>
<path d="M14.2115 5.1378V1.86488C14.2052 1.29181 13.7467 0.833344 13.18 0.833344H1.85852C1.29181 0.833344 0.833344 1.29181 0.833344 1.85215V11.7346C0.833344 12.3013 1.29181 12.7597 1.85852 12.7597H4.6475" fill="#F5EFF9"/>
<path d="M0.839711 3.7051H14.2115H0.839711Z" fill="#F5EFF9"/>
<path d="M4.66024 0.839706V3.7051V0.839706Z" fill="#F5EFF9"/>
<path d="M7.52563 0.839706V3.7051V0.839706Z" fill="#F5EFF9"/>
</g>
<path id="primary" fill-rule="evenodd" clip-rule="evenodd" d="M0.333344 1.85215C0.333344 1.01364 1.01769 0.333344 1.85852 0.333344H13.18C14.0259 0.333344 14.7022 1.01751 14.7115 1.85933L14.7116 1.86488L14.7115 5.1378C14.7115 5.41394 14.4877 5.6378 14.2115 5.6378C13.9354 5.6378 13.7115 5.41394 13.7115 5.1378V4.2051H7.52727C7.52672 4.2051 7.52617 4.2051 7.52563 4.2051C7.52508 4.2051 7.52454 4.2051 7.52399 4.2051H4.66187C4.66133 4.2051 4.66078 4.2051 4.66024 4.2051C4.65969 4.2051 4.65914 4.2051 4.6586 4.2051H1.33334V11.7346C1.33334 12.0251 1.56795 12.2597 1.85852 12.2597H4.6475C4.92364 12.2597 5.1475 12.4836 5.1475 12.7597C5.1475 13.0359 4.92364 13.2597 4.6475 13.2597H1.85852C1.01566 13.2597 0.333344 12.5774 0.333344 11.7346V1.85215ZM1.33334 3.2051H4.16024V1.33334H1.85852C1.56592 1.33334 1.33334 1.56997 1.33334 1.85215V3.2051ZM5.16024 1.33334V3.2051H7.02563V1.33334H5.16024ZM8.02563 1.33334V3.2051H13.7115V1.86811C13.707 1.56491 13.4668 1.33334 13.18 1.33334H8.02563ZM9.86734 6.17613C10.1957 6.10607 10.5312 6.0705 10.8686 6.0705C11.2082 6.0705 11.546 6.10654 11.8764 6.17753C11.8944 6.18048 11.9121 6.1844 11.9295 6.18926C12.1938 6.24918 12.4532 6.33153 12.7047 6.43573C13.2869 6.67686 13.8158 7.03028 14.2614 7.47582C14.7069 7.92137 15.0603 8.4503 15.3014 9.03244C15.3258 9.0912 15.3489 9.15039 15.3709 9.20997C15.3901 9.24792 15.4047 9.28865 15.4138 9.33141C15.581 9.82593 15.6667 10.3451 15.6667 10.8686C15.6667 11.392 15.581 11.9113 15.4138 12.4058C15.4047 12.4485 15.3901 12.4892 15.3709 12.5272C15.3489 12.5868 15.3258 12.646 15.3014 12.7047C15.0603 13.2869 14.7069 13.8158 14.2614 14.2613C13.8158 14.7069 13.2869 15.0603 12.7047 15.3014C12.1226 15.5426 11.4987 15.6667 10.8686 15.6667C10.2385 15.6667 9.61457 15.5426 9.03244 15.3014C8.45031 15.0603 7.92137 14.7069 7.47583 14.2613C7.03028 13.8158 6.67686 13.2869 6.43573 12.7047C6.41139 12.646 6.38824 12.5868 6.36629 12.5272C6.34704 12.4892 6.33248 12.4485 6.32339 12.4058C6.15615 11.9112 6.0705 11.392 6.0705 10.8686C6.0705 10.3451 6.15615 9.82594 6.32339 9.33143C6.33248 9.28866 6.34704 9.24791 6.3663 9.20995C6.38825 9.15038 6.41139 9.09119 6.43573 9.03244C6.67686 8.4503 7.03028 7.92137 7.47583 7.47582C7.92137 7.03028 8.45031 6.67686 9.03244 6.43573C9.28021 6.3331 9.53555 6.25167 9.79571 6.19198C9.81906 6.18498 9.843 6.17966 9.86734 6.17613ZM9.2367 7.43895C8.84602 7.62484 8.48953 7.87633 8.18293 8.18293C7.95695 8.40891 7.76091 8.66199 7.59901 8.93588H9.00354C9.05467 8.43445 9.13236 7.93476 9.2367 7.43895ZM10.0091 8.93588C10.0765 8.32183 10.1867 7.71086 10.34 7.10745C10.5148 7.0829 10.6914 7.0705 10.8686 7.0705C11.0444 7.0705 11.2196 7.0827 11.3929 7.10686C11.5431 7.70883 11.6526 8.31955 11.7197 8.93588H10.0091ZM8.9368 9.93588H7.1868C7.10974 10.2401 7.0705 10.5534 7.0705 10.8686C7.0705 11.1838 7.10974 11.4971 7.1868 11.8013H8.99929C8.93797 11.1816 8.91708 10.5585 8.9368 9.93588ZM10.0045 11.8013C9.93861 11.1819 9.91613 10.5586 9.93734 9.93588H11.7911C11.7962 10.0867 11.7987 10.2378 11.7987 10.3891C11.7987 10.8612 11.7738 11.3327 11.7242 11.8013H10.0045ZM9.13393 12.8013H7.599C7.76091 13.0752 7.95695 13.3283 8.18293 13.5542C8.53562 13.9069 8.95432 14.1867 9.41512 14.3776C9.44529 14.3901 9.47559 14.4022 9.50603 14.4138C9.35064 13.8825 9.22657 13.3441 9.13393 12.8013ZM10.6316 14.6593C10.4257 14.05 10.2649 13.429 10.1495 12.8013H11.5803C11.4654 13.4307 11.3056 14.052 11.1018 14.6595C11.0242 14.6643 10.9465 14.6667 10.8686 14.6667C10.7894 14.6667 10.7104 14.6642 10.6316 14.6593ZM12.2256 14.416C12.2579 14.4036 12.29 14.3908 12.3221 14.3776C12.7829 14.1867 13.2016 13.9069 13.5542 13.5542C13.7802 13.3283 13.9763 13.0752 14.1382 12.8013H12.5956C12.5033 13.3458 12.3798 13.8851 12.2256 14.416ZM12.7294 11.8013H14.5504C14.6274 11.4971 14.6667 11.1838 14.6667 10.8686C14.6667 10.5534 14.6274 10.2401 14.5504 9.93588H12.7916C12.7963 10.0867 12.7987 10.2378 12.7987 10.3891C12.7987 10.861 12.7755 11.3324 12.7294 11.8013ZM12.7252 8.93588H14.1382C13.9763 8.66199 13.7802 8.40891 13.5542 8.18293C13.2459 7.87456 12.887 7.62193 12.4937 7.43573C12.5967 7.93111 12.6741 8.43167 12.7252 8.93588Z" fill="#8449BF"/>
</g>
</g>
</svg>
