<svg width="16" height="16" viewBox="0 0 16 16" fill="none" xmlns="http://www.w3.org/2000/svg">
<path fill-rule="evenodd" clip-rule="evenodd" d="M1.5 2.83333C1.22386 2.83333 1 3.05719 1 3.33333C1 3.60947 1.22386 3.83333 1.5 3.83333H14.5C14.7761 3.83333 15 3.60947 15 3.33333C15 3.05719 14.7761 2.83333 14.5 2.83333H1.5ZM1 8C1 7.72385 1.22386 7.5 1.5 7.5H14.5C14.7761 7.5 15 7.72385 15 8C15 8.27614 14.7761 8.5 14.5 8.5H1.5C1.22386 8.5 1 8.27614 1 8ZM1 12.6667C1 12.3905 1.22386 12.1667 1.5 12.1667H14.5C14.7761 12.1667 15 12.3905 15 12.6667C15 12.9428 14.7761 13.1667 14.5 13.1667H1.5C1.22386 13.1667 1 12.9428 1 12.6667Z" fill="#141414"/>
</svg>
