<svg width="16" height="16" viewBox="0 0 16 16" fill="none" xmlns="http://www.w3.org/2000/svg">
<g clip-path="url(#clip0)">
<path fill-rule="evenodd" clip-rule="evenodd" d="M1.50284 2.85771C1.50284 2.10113 2.11617 1.48779 2.87275 1.48779H13.1573C13.9139 1.48779 14.5272 2.10113 14.5272 2.85771V13.1422C14.5272 13.8988 13.9139 14.5122 13.1573 14.5122H2.87275C2.11617 14.5122 1.50284 13.8988 1.50284 13.1422V2.85771ZM2.87275 0.487793C1.56389 0.487793 0.502838 1.54884 0.502838 2.85771V13.1422C0.502838 14.4511 1.56389 15.5122 2.87275 15.5122H13.1573C14.4662 15.5122 15.5272 14.4511 15.5272 13.1422V2.85771C15.5272 1.54884 14.4662 0.487793 13.1573 0.487793H2.87275ZM6.16538 4.50401C6.25008 4.33462 6.42321 4.22762 6.61259 4.22762H9.41747C9.60685 4.22762 9.77998 4.33462 9.86468 4.50401L10.1933 5.16118L11.2664 5.15635L11.2687 5.15634C12.0538 5.15634 12.7036 5.79565 12.7036 6.5913V10.3311C12.7036 11.1132 12.0644 11.7576 11.2841 11.766L11.2749 11.7661H11.2687H4.73021C3.9453 11.7661 3.2937 11.1201 3.30149 10.3284V6.59753C3.30149 5.80405 3.94296 5.16258 4.73645 5.16258H4.74268H5.8361L6.16538 4.50401ZM4.30149 10.3311V10.3374L4.30143 10.345C4.30306 10.5707 4.49668 10.7661 4.73021 10.7661H11.2687C11.5037 10.7661 11.7036 10.5661 11.7036 10.3311V6.5913C11.7036 6.35257 11.5063 6.15685 11.2696 6.15634L11.2687 6.15634L9.8872 6.16257C9.697 6.16343 9.52279 6.0563 9.43773 5.88618L9.10845 5.22762H6.92161L6.59233 5.88618C6.50763 6.05558 6.3345 6.16258 6.14511 6.16258H4.74268H4.73645C4.49524 6.16258 4.30149 6.35633 4.30149 6.59753V10.3311ZM6.83506 7.05377C7.14801 6.74082 7.57245 6.56502 8.01501 6.56502C8.45758 6.56502 8.88202 6.74082 9.19496 7.05377C9.5079 7.36671 9.68371 7.79115 9.68371 8.23371C9.68371 8.67628 9.5079 9.10072 9.19496 9.41366C8.88202 9.7266 8.45758 9.90241 8.01501 9.90241C7.57245 9.90241 7.14801 9.7266 6.83506 9.41366C6.52212 9.10072 6.34631 8.67628 6.34631 8.23371C6.34631 7.79115 6.52212 7.36671 6.83506 7.05377ZM8.01501 7.56502C7.83766 7.56502 7.66757 7.63547 7.54217 7.76087C7.41677 7.88628 7.34631 8.05636 7.34631 8.23371C7.34631 8.41106 7.41677 8.58115 7.54217 8.70655C7.66757 8.83196 7.83766 8.90241 8.01501 8.90241C8.19236 8.90241 8.36245 8.83196 8.48785 8.70655C8.61326 8.58115 8.68371 8.41106 8.68371 8.23371C8.68371 8.05636 8.61326 7.88628 8.48785 7.76087C8.36245 7.63547 8.19236 7.56502 8.01501 7.56502Z" fill="#141414"/>
</g>
<defs>
<clipPath id="clip0">
<rect width="16" height="16" fill="white" transform="translate(0.0150146)"/>
</clipPath>
</defs>
</svg>
