<svg width="16" height="16" viewBox="0 0 16 16" fill="none" xmlns="http://www.w3.org/2000/svg">
<path fill-rule="evenodd" clip-rule="evenodd" d="M3.12461 5.12219H1.09998C1.04475 5.12219 0.999976 5.16696 0.999976 5.22219V10.3427C0.999976 10.3979 1.04475 10.4427 1.09998 10.4427H3.12461C3.17984 10.4427 3.22461 10.3979 3.22461 10.3427V5.22219C3.22461 5.16696 3.17984 5.12219 3.12461 5.12219ZM1.09998 4.22219C0.547691 4.22219 0.0999756 4.6699 0.0999756 5.22219V10.3427C0.0999756 10.895 0.547691 11.3427 1.09998 11.3427H3.12461C3.6769 11.3427 4.12461 10.895 4.12461 10.3427V5.22219C4.12461 4.6699 3.6769 4.22219 3.12461 4.22219H1.09998Z" fill="#161616"/>
<path fill-rule="evenodd" clip-rule="evenodd" d="M8.87406 8.4801H6.84943C6.7942 8.4801 6.74943 8.52487 6.74943 8.5801V13.1072C6.74943 13.1625 6.7942 13.2072 6.84943 13.2072H8.87406C8.92929 13.2072 8.97406 13.1625 8.97406 13.1072V8.5801C8.97406 8.52487 8.92929 8.4801 8.87406 8.4801ZM6.84943 7.5801C6.29714 7.5801 5.84943 8.02781 5.84943 8.5801V13.1072C5.84943 13.6595 6.29714 14.1072 6.84943 14.1072H8.87406C9.42635 14.1072 9.87406 13.6595 9.87406 13.1072V8.5801C9.87406 8.02781 9.42635 7.5801 8.87406 7.5801H6.84943Z" fill="#161616"/>
<path fill-rule="evenodd" clip-rule="evenodd" d="M7.32513 15.8881V14.108H8.22513V15.8881H7.32513Z" fill="#161616"/>
<path fill-rule="evenodd" clip-rule="evenodd" d="M7.32513 7.5801V5.79998H8.22513L8.22513 7.5801H7.32513Z" fill="#161616"/>
<path fill-rule="evenodd" clip-rule="evenodd" d="M1.57566 4.22074L1.57566 1.84724L2.47566 1.84724V4.22074H1.57566Z" fill="#161616"/>
<path fill-rule="evenodd" clip-rule="evenodd" d="M14.911 2.7801H12.8864C12.8312 2.7801 12.7864 2.82487 12.7864 2.8801V9.78073C12.7864 9.83596 12.8312 9.88073 12.8864 9.88073H14.911C14.9663 9.88073 15.011 9.83596 15.011 9.78073V2.8801C15.011 2.82487 14.9663 2.7801 14.911 2.7801ZM12.8864 1.8801C12.3341 1.8801 11.8864 2.32781 11.8864 2.8801V9.78073C11.8864 10.333 12.3341 10.7807 12.8864 10.7807H14.911C15.4633 10.7807 15.911 10.333 15.911 9.78073V2.8801C15.911 2.32781 15.4633 1.8801 14.911 1.8801H12.8864Z" fill="#161616"/>
<path fill-rule="evenodd" clip-rule="evenodd" d="M13.3621 1.8801V0.0999756L14.2621 0.0999756L14.2621 1.8801H13.3621Z" fill="#161616"/>
<path fill-rule="evenodd" clip-rule="evenodd" d="M13.3621 12.5609V10.7807H14.2621L14.2621 12.5609H13.3621Z" fill="#161616"/>
<path fill-rule="evenodd" clip-rule="evenodd" d="M1.57566 13.7162L1.57566 11.3427H2.47566V13.7162H1.57566Z" fill="#161616"/>
</svg>
