<svg width="16" height="16" viewBox="0 0 16 16" fill="none" xmlns="http://www.w3.org/2000/svg">
<path fill-rule="evenodd" clip-rule="evenodd" d="M1.5238 1.95396C1.5238 1.71542 1.71542 1.5238 1.95396 1.5238H8.46509C8.6996 1.5238 8.89525 1.71758 8.89525 1.95396V3.81429C8.89525 4.09043 9.11911 4.31429 9.39525 4.31429C9.67139 4.31429 9.89525 4.09043 9.89525 3.81429V1.95396C9.89525 1.16097 9.24755 0.523804 8.46509 0.523804H1.95396C1.16313 0.523804 0.523804 1.16313 0.523804 1.95396V6.60477C0.523804 7.38723 1.16097 8.03493 1.95396 8.03493H2.38412V10.3254C2.38412 10.5276 2.50595 10.71 2.69278 10.7873C2.87962 10.8647 3.09468 10.822 3.23768 10.679L5.098 8.81864C5.29326 8.62338 5.29326 8.3068 5.098 8.11154C4.90274 7.91627 4.58615 7.91627 4.39089 8.11154L3.38412 9.1183V7.53493C3.38412 7.25879 3.16027 7.03493 2.88412 7.03493H1.95396C1.71758 7.03493 1.5238 6.83928 1.5238 6.60477V1.95396ZM7.53492 6.17458C7.29637 6.17458 7.10476 6.3662 7.10476 6.60474V11.2555C7.10476 11.4901 7.29854 11.6857 7.53492 11.6857H10.3254C10.458 11.6857 10.5852 11.7384 10.679 11.8322L12.6159 13.7691V12.1857C12.6159 11.9096 12.8397 11.6857 13.1159 11.6857H14.046C14.2784 11.6857 14.4762 11.4879 14.4762 11.2555V6.60474C14.4762 6.36836 14.2806 6.17458 14.046 6.17458H7.53492ZM6.10476 6.60474C6.10476 5.81391 6.74409 5.17458 7.53492 5.17458H14.046C14.8285 5.17458 15.4762 5.81175 15.4762 6.60474V11.2555C15.4762 12.0402 14.8307 12.6857 14.046 12.6857H13.6159V14.9762C13.6159 15.1784 13.4941 15.3607 13.3072 15.4381C13.1204 15.5155 12.9053 15.4727 12.7623 15.3297L10.1183 12.6857H7.53492C6.74192 12.6857 6.10476 12.038 6.10476 11.2555V6.60474Z" fill="#141414"/>
</svg>
