<svg width="16" height="16" viewBox="0 0 16 16" fill="none" xmlns="http://www.w3.org/2000/svg">
<path fill-rule="evenodd" clip-rule="evenodd" d="M2.6966 2.69664C4.10315 1.29009 6.01082 0.499908 7.99997 0.499908C9.98912 0.499908 11.8968 1.29009 13.3033 2.69664C14.7099 4.10318 15.5001 6.01085 15.5001 8C15.5001 9.98915 14.7099 11.8968 13.3033 13.3034C11.8968 14.7099 9.98912 15.5001 7.99997 15.5001C6.01082 15.5001 4.10315 14.7099 2.6966 13.3034C1.29006 11.8968 0.499878 9.98915 0.499878 8C0.499878 6.01085 1.29006 4.10318 2.6966 2.69664ZM7.99997 1.49991C6.27604 1.49991 4.62272 2.18474 3.40371 3.40374C2.18471 4.62275 1.49988 6.27607 1.49988 8C1.49988 9.72394 2.18471 11.3773 3.40371 12.5963C4.62272 13.8153 6.27604 14.5001 7.99997 14.5001C9.7239 14.5001 11.3772 13.8153 12.5962 12.5963C13.8152 11.3773 14.5001 9.72394 14.5001 8C14.5001 6.27607 13.8152 4.62275 12.5962 3.40374C11.3772 2.18474 9.7239 1.49991 7.99997 1.49991ZM8.00002 4.5C8.27616 4.50001 8.50001 4.72388 8.5 5.00002L8.49989 7.79279L11.4802 10.7731C11.6754 10.9683 11.6754 11.2849 11.4802 11.4802C11.2849 11.6754 10.9683 11.6754 10.7731 11.4802L7.64917 8.35629C7.6379 8.3452 7.62716 8.33358 7.61698 8.32147C7.59016 8.28961 7.56795 8.25519 7.55035 8.21908C7.51802 8.1529 7.49987 8.07851 7.49988 7.99989L7.5 4.99998C7.50001 4.72384 7.72388 4.49999 8.00002 4.5Z" fill="#141414"/>
</svg>
