<svg width="12" height="12" viewBox="0 0 12 12" fill="none" xmlns="http://www.w3.org/2000/svg">
<path fill-rule="evenodd" clip-rule="evenodd" d="M10.4419 2.44194C10.686 2.19786 10.686 1.80214 10.4419 1.55806C10.1979 1.31398 9.80214 1.31398 9.55806 1.55806L6 5.11612L2.44194 1.55806C2.19786 1.31398 1.80214 1.31398 1.55806 1.55806C1.31398 1.80214 1.31398 2.19786 1.55806 2.44194L5.11612 6L1.55806 9.55806C1.31398 9.80214 1.31398 10.1979 1.55806 10.4419C1.80214 10.686 2.19786 10.686 2.44194 10.4419L6 6.88388L9.55806 10.4419C9.80214 10.686 10.1979 10.686 10.4419 10.4419C10.686 10.1979 10.686 9.80214 10.4419 9.55806L6.88388 6L10.4419 2.44194Z" fill="black"/>
</svg>
