<svg width="16" height="15" viewBox="0 0 16 15" fill="none" xmlns="http://www.w3.org/2000/svg">
<path fill-rule="evenodd" clip-rule="evenodd" d="M13.9614 8.97336L13.9667 8.97333C14.7874 8.97333 15.4667 9.64169 15.4667 10.4733V13.4733C15.4667 14.2908 14.7983 14.9645 13.9827 14.9732C13.9796 14.9733 13.9765 14.9733 13.9734 14.9733H1.97339C1.15291 14.9733 0.471828 14.2978 0.480054 13.4706V10.4867C0.480054 9.65719 1.15058 8.98666 1.98005 8.98666H4.55205C4.73086 8.98666 4.89605 9.08214 4.9853 9.23707C5.29566 9.77581 5.73923 10.2243 6.27962 10.5323L6.28029 10.5326C7.94074 11.4823 10.0619 10.9052 11.0114 9.24509C11.115 9.06389 11.3189 8.96777 11.5217 8.99916L13.9614 8.97336ZM11.7218 9.9971C10.4331 11.9388 7.83613 12.5742 5.78415 11.4009C5.17134 11.0516 4.65816 10.5645 4.27395 9.98666H1.98005C1.70286 9.98666 1.48005 10.2095 1.48005 10.4867V13.48C1.48005 13.4827 1.48003 13.4853 1.47999 13.488C1.48164 13.7489 1.70457 13.9733 1.97339 13.9733H13.9667C14.2372 13.9733 14.4667 13.7439 14.4667 13.4733V10.4733C14.4667 10.199 14.2406 9.97453 13.9689 9.97333L11.7218 9.9971Z" fill="white"/>
<path fill-rule="evenodd" clip-rule="evenodd" d="M8 0C8.27614 0 8.5 0.223858 8.5 0.5V7.5C8.5 7.77614 8.27614 8 8 8C7.72386 8 7.5 7.77614 7.5 7.5V0.5C7.5 0.223858 7.72386 0 8 0Z" fill="white"/>
<path fill-rule="evenodd" clip-rule="evenodd" d="M5.10958 5.18767C5.28209 4.97204 5.59673 4.93708 5.81237 5.10958L8.00002 6.85971L10.1877 5.10958C10.4033 4.93708 10.7179 4.97204 10.8905 5.18767C11.063 5.4033 11.028 5.71795 10.8124 5.89045L8.31237 7.89045C8.12976 8.03654 7.87028 8.03654 7.68767 7.89045L5.18767 5.89045C4.97204 5.71795 4.93708 5.4033 5.10958 5.18767Z" fill="white"/>
</svg>
