<svg width="16" height="16" viewBox="0 0 16 16" fill="none" xmlns="http://www.w3.org/2000/svg">
<path fill-rule="evenodd" clip-rule="evenodd" d="M4.00002 6.99999C4.7364 6.99999 5.33335 6.40304 5.33335 5.66666C5.33335 4.93028 4.7364 4.33333 4.00002 4.33333C3.26364 4.33333 2.66669 4.93028 2.66669 5.66666C2.66669 6.40304 3.26364 6.99999 4.00002 6.99999ZM8.00002 6.99999C8.7364 6.99999 9.33335 6.40304 9.33335 5.66666C9.33335 4.93028 8.7364 4.33333 8.00002 4.33333C7.26364 4.33333 6.66669 4.93028 6.66669 5.66666C6.66669 6.40304 7.26364 6.99999 8.00002 6.99999ZM13.3334 5.66666C13.3334 6.40304 12.7364 6.99999 12 6.99999C11.2636 6.99999 10.6667 6.40304 10.6667 5.66666C10.6667 4.93028 11.2636 4.33333 12 4.33333C12.7364 4.33333 13.3334 4.93028 13.3334 5.66666ZM4.00002 11.6667C4.7364 11.6667 5.33335 11.0697 5.33335 10.3333C5.33335 9.59695 4.7364 8.99999 4.00002 8.99999C3.26364 8.99999 2.66669 9.59695 2.66669 10.3333C2.66669 11.0697 3.26364 11.6667 4.00002 11.6667ZM9.33335 10.3333C9.33335 11.0697 8.7364 11.6667 8.00002 11.6667C7.26364 11.6667 6.66669 11.0697 6.66669 10.3333C6.66669 9.59695 7.26364 8.99999 8.00002 8.99999C8.7364 8.99999 9.33335 9.59695 9.33335 10.3333ZM12 11.6667C12.7364 11.6667 13.3334 11.0697 13.3334 10.3333C13.3334 9.59695 12.7364 8.99999 12 8.99999C11.2636 8.99999 10.6667 9.59695 10.6667 10.3333C10.6667 11.0697 11.2636 11.6667 12 11.6667Z" fill="#BABABA"/>
</svg>
