<svg width="16" height="16" viewBox="0 0 16 16" fill="none" xmlns="http://www.w3.org/2000/svg">
<path d="M14 3.16667H2C1.44772 3.16667 1 3.61439 1 4.16667V12.1667C1 12.719 1.44772 13.1667 2 13.1667H14C14.5523 13.1667 15 12.719 15 12.1667V4.16667C15 3.61439 14.5523 3.16667 14 3.16667Z" fill="#F1EDF7"/>
<path fill-rule="evenodd" clip-rule="evenodd" d="M2 3.66667C1.72386 3.66667 1.5 3.89053 1.5 4.16667V12.1667C1.5 12.4428 1.72386 12.6667 2 12.6667H14C14.2761 12.6667 14.5 12.4428 14.5 12.1667V4.16667C14.5 3.89053 14.2761 3.66667 14 3.66667H2ZM0.5 4.16667C0.5 3.33824 1.17157 2.66667 2 2.66667H14C14.8284 2.66667 15.5 3.33824 15.5 4.16667V12.1667C15.5 12.9951 14.8284 13.6667 14 13.6667H2C1.17157 13.6667 0.5 12.9951 0.5 12.1667V4.16667Z" fill="#522974"/>
<path fill-rule="evenodd" clip-rule="evenodd" d="M2 3.66667C1.72386 3.66667 1.5 3.89053 1.5 4.16667V12.1667C1.5 12.4428 1.72386 12.6667 2 12.6667H14C14.2761 12.6667 14.5 12.4428 14.5 12.1667V4.16667C14.5 3.89053 14.2761 3.66667 14 3.66667H2ZM0.5 4.16667C0.5 3.33824 1.17157 2.66667 2 2.66667H14C14.8284 2.66667 15.5 3.33824 15.5 4.16667V12.1667C15.5 12.9951 14.8284 13.6667 14 13.6667H2C1.17157 13.6667 0.5 12.9951 0.5 12.1667V4.16667Z" fill="#522974"/>
<path fill-rule="evenodd" clip-rule="evenodd" d="M0.817125 3.21502C0.985559 2.9962 1.2995 2.95535 1.51832 3.12378L6.95107 7.30549C6.95128 7.30565 6.95148 7.30581 6.95169 7.30596C7.56571 7.77506 8.4231 7.7749 9.03695 7.30549C9.0561 7.29084 9.0761 7.27773 9.09676 7.26618L14.4693 3.1369C14.6883 2.96862 15.0022 3.00969 15.1704 3.22864C15.3387 3.44758 15.2976 3.76149 15.0787 3.92977L9.64537 8.10577C9.62324 8.12278 9.59997 8.13773 9.57584 8.1506C8.60886 8.8432 7.29358 8.82629 6.34362 8.09984L6.34236 8.09888L0.908365 3.91622C0.68954 3.74778 0.64869 3.43385 0.817125 3.21502Z" fill="#522974"/>
</svg>
