<svg width="20" height="20" viewBox="0 0 20 20" fill="none" xmlns="http://www.w3.org/2000/svg">
<path fill-rule="evenodd" clip-rule="evenodd" d="M17.7958 1.61091C17.7926 1.61096 17.7894 1.61098 17.7862 1.61098H2.21395C1.89109 1.61098 1.61901 1.88308 1.62296 2.21069L1.623 2.2179V17.7902C1.623 18.1094 1.88592 18.3834 2.22609 18.3891H11.0691C11.1366 18.3631 11.2093 18.3492 11.2842 18.3492C11.4514 18.3492 11.6048 18.2876 11.7227 18.1739C11.7401 18.157 11.7583 18.1414 11.7773 18.1271L18.197 11.709C18.3173 11.5828 18.3772 11.4275 18.3772 11.2818V2.20992C18.3772 1.87742 18.1058 1.61289 17.7958 1.61091ZM19.575 2.20992C19.575 1.22174 18.7685 0.403229 17.775 0.413114H2.21395C1.22846 0.413114 0.415314 1.22493 0.425137 2.22115V17.7902C0.425137 18.7797 1.23074 19.5751 2.21472 19.5869L2.22194 19.587H11.3169C11.4131 19.587 11.5056 19.564 11.5881 19.5221C11.9129 19.4682 12.2188 19.3278 12.4741 19.109C12.5053 19.0879 12.5348 19.0636 12.5621 19.0363L19.0482 12.5518L19.0556 12.5443C19.3763 12.2121 19.5701 11.7691 19.575 11.2999C19.575 11.2965 19.575 11.2931 19.575 11.2898V2.20992Z" fill="#522974"/>
<path fill-rule="evenodd" clip-rule="evenodd" d="M13.0028 12.3838C12.6799 12.3838 12.4078 12.6559 12.4118 12.9835L12.4118 12.9907V18.8762C12.4118 19.207 12.1437 19.4752 11.8129 19.4752C11.4821 19.4752 11.214 19.207 11.214 18.8762V12.9939C11.2041 11.9977 12.0173 11.1859 13.0028 11.1859H18.8843C19.2151 11.1859 19.4832 11.4541 19.4832 11.7848C19.4832 12.1156 19.2151 12.3838 18.8843 12.3838H13.0028Z" fill="#522974"/>
</svg>
