<svg width="16" height="16" viewBox="0 0 16 16" fill="none" xmlns="http://www.w3.org/2000/svg">
<path d="M14.0667 7.53336H1.93335V14.0667C1.93335 14.5769 2.35024 15 2.86668 15H13.1334C13.6436 15 14.0667 14.5769 14.0667 14.0667V7.53336Z" stroke="#141414" stroke-width="0.99999" stroke-linecap="round" stroke-linejoin="round"/>
<path d="M14.0667 4.73334H1.93333C1.41689 4.73334 1 5.15023 1 5.66667V7.06667C1 7.32178 1.20533 7.53334 1.46667 7.53334H14.5333C14.7884 7.53334 15 7.32178 15 7.06667V5.66667C15 5.15023 14.5769 4.73334 14.0667 4.73334Z" stroke="#141414" stroke-width="0.99999" stroke-linecap="round" stroke-linejoin="round"/>
<path d="M7.53331 4.73333C5.47127 4.73333 3.33331 3.06204 3.33331 1" stroke="#141414" stroke-width="0.99999" stroke-linecap="round" stroke-linejoin="round"/>
<path d="M3.33331 1C5.39536 1 7.53331 2.67129 7.53331 4.73333" stroke="#141414" stroke-width="0.99999" stroke-linecap="round" stroke-linejoin="round"/>
<path d="M8.46664 4.73333C10.5287 4.73333 12.6666 3.06204 12.6666 1" stroke="#141414" stroke-width="0.99999" stroke-linecap="round" stroke-linejoin="round"/>
<path d="M12.6666 1C10.6046 1 8.46664 2.67129 8.46664 4.73333" stroke="#141414" stroke-width="0.99999" stroke-linecap="round" stroke-linejoin="round"/>
<path d="M6.60001 4.73334H9.40001V15H6.60001V4.73334Z" stroke="#141414" stroke-width="0.99999" stroke-linecap="round" stroke-linejoin="round"/>
<path fill-rule="evenodd" clip-rule="evenodd" d="M1.43335 7.53335C1.43335 7.25721 1.6572 7.03336 1.93334 7.03336H14.0667C14.3428 7.03336 14.5667 7.25721 14.5667 7.53335V14.0667C14.5667 14.853 13.9197 15.5 13.1333 15.5H2.86668C2.07193 15.5 1.43335 14.8509 1.43335 14.0667V7.53335ZM2.43334 8.03335V14.0667C2.43334 14.3029 2.62854 14.5 2.86668 14.5H13.1333C13.3674 14.5 13.5667 14.3008 13.5667 14.0667V8.03335H2.43334Z" fill="#141414"/>
<path fill-rule="evenodd" clip-rule="evenodd" d="M0.5 5.66667C0.5 4.87408 1.14074 4.23334 1.93333 4.23334H14.0667C14.8509 4.23334 15.5 4.87192 15.5 5.66667V7.06667C15.5 7.59792 15.0646 8.03333 14.5333 8.03333H1.46666C0.924854 8.03333 0.5 7.59356 0.5 7.06667V5.66667ZM1.93333 5.23333C1.69302 5.23333 1.49999 5.42636 1.49999 5.66667V7.03334H14.5V5.66667C14.5 5.42853 14.3029 5.23333 14.0667 5.23333H1.93333Z" fill="#141414"/>
<path fill-rule="evenodd" clip-rule="evenodd" d="M3.33331 0.5C3.60945 0.5 3.8333 0.723855 3.8333 0.999995C3.8333 1.85131 4.27552 2.65493 4.98447 3.25948C5.6943 3.86478 6.6314 4.23333 7.53331 4.23333C7.80945 4.23333 8.0333 4.45719 8.0333 4.73333C8.0333 5.00947 7.80945 5.23332 7.53331 5.23332C6.37318 5.23332 5.21028 4.76624 4.33562 4.02038C3.46008 3.27377 2.83331 2.21072 2.83331 0.999995C2.83331 0.723855 3.05717 0.5 3.33331 0.5Z" fill="#141414"/>
<path fill-rule="evenodd" clip-rule="evenodd" d="M2.83331 0.999995C2.83331 0.723855 3.05717 0.5 3.33331 0.5C4.49344 0.5 5.65634 0.967088 6.531 1.71294C7.40654 2.45955 8.0333 3.5226 8.0333 4.73333C8.0333 5.00947 7.80945 5.23332 7.53331 5.23332C7.25717 5.23332 7.03331 5.00947 7.03331 4.73333C7.03331 3.88201 6.5911 3.0784 5.88215 2.47385C5.17232 1.86855 4.23522 1.49999 3.33331 1.49999C3.05717 1.49999 2.83331 1.27613 2.83331 0.999995Z" fill="#141414"/>
<path fill-rule="evenodd" clip-rule="evenodd" d="M12.6666 0.5C12.9428 0.5 13.1666 0.723855 13.1666 0.999995C13.1666 2.21072 12.5399 3.27377 11.6643 4.02038C10.7897 4.76624 9.62677 5.23332 8.46664 5.23332C8.1905 5.23332 7.96664 5.00947 7.96664 4.73333C7.96664 4.45719 8.1905 4.23333 8.46664 4.23333C9.36855 4.23333 10.3057 3.86478 11.0155 3.25948C11.7244 2.65493 12.1666 1.85131 12.1666 0.999995C12.1666 0.723855 12.3905 0.5 12.6666 0.5Z" fill="#141414"/>
<path fill-rule="evenodd" clip-rule="evenodd" d="M9.46895 1.71294C10.3436 0.967088 11.5065 0.5 12.6666 0.5C12.9428 0.5 13.1666 0.723855 13.1666 0.999995C13.1666 1.27613 12.9428 1.49999 12.6666 1.49999C11.7647 1.49999 10.8276 1.86855 10.1178 2.47385C9.40885 3.0784 8.96663 3.88201 8.96663 4.73333C8.96663 5.00947 8.74278 5.23332 8.46664 5.23332C8.1905 5.23332 7.96664 5.00947 7.96664 4.73333C7.96664 3.5226 8.59341 2.45955 9.46895 1.71294Z" fill="#141414"/>
<path fill-rule="evenodd" clip-rule="evenodd" d="M6.10001 4.73333C6.10001 4.45719 6.32386 4.23334 6.6 4.23334H9.4C9.67614 4.23334 9.9 4.45719 9.9 4.73333V15C9.9 15.2761 9.67614 15.5 9.4 15.5H6.6C6.32386 15.5 6.10001 15.2761 6.10001 15V4.73333ZM7.1 5.23333V14.5H8.90001V5.23333H7.1Z" fill="#141414"/>
</svg>
