<svg width="16" height="16" viewBox="0 0 16 16" fill="none" xmlns="http://www.w3.org/2000/svg">
<path fill-rule="evenodd" clip-rule="evenodd" d="M6.88947 1.69864L2.70105 5.89061C2.66989 5.91518 2.64172 5.94337 2.61718 5.97456L0.651302 7.9421C0.456122 8.13744 0.456256 8.45403 0.651601 8.64921C0.846946 8.84439 1.16353 8.84425 1.35871 8.64891L2.51034 7.4963V14.2902C2.51034 14.5663 2.73419 14.7902 3.01034 14.7902H5.94176C5.96418 14.7932 5.98707 14.7948 6.01034 14.7948C6.0336 14.7948 6.0565 14.7932 6.07892 14.7902H9.94175C9.96418 14.7932 9.98707 14.7948 10.0103 14.7948C10.0336 14.7948 10.0565 14.7932 10.0789 14.7902H13.0103C13.2865 14.7902 13.5103 14.5663 13.5103 14.2902V7.51375L14.6415 8.64446C14.8368 8.83968 15.1534 8.83962 15.3486 8.64431C15.5439 8.44901 15.5438 8.13243 15.3485 7.93721L13.4187 6.00821C13.3858 5.9618 13.3452 5.92123 13.2988 5.88838L9.05522 1.64662L9.05515 1.64654C8.46823 1.05971 7.51601 1.05535 6.93178 1.64965C6.91649 1.6652 6.90238 1.68157 6.88947 1.69864ZM10.5103 13.7902H12.5103V6.51418L8.34819 2.3538L8.34812 2.35372C8.16105 2.16665 7.87345 2.15862 7.68238 2.31632C7.67186 2.3292 7.66063 2.34164 7.64871 2.35357L3.51034 6.49545V13.7902H5.51034V11.2948C5.51034 9.91203 6.62753 8.79483 8.01033 8.79483C9.38539 8.79483 10.5103 9.91094 10.5103 11.2948V13.7902ZM6.51034 13.7902H9.51033V11.2948C9.51033 10.4654 8.83528 9.79483 8.01033 9.79483C7.17981 9.79483 6.51034 10.4643 6.51034 11.2948V13.7902Z" fill="#141414"/>
</svg>
