<svg width="16" height="16" viewBox="0 0 16 16" fill="none" xmlns="http://www.w3.org/2000/svg">
<path d="M9.03095 1.63468C8.75697 1.07426 8.07823 0.84386 7.52403 1.11785C7.29986 1.2237 7.11928 1.40428 7.0072 1.62845L1.10406 13.6402H1.09784C0.861215 14.1072 1.06048 14.6739 1.5275 14.9043C1.65204 14.9665 1.79525 14.9977 1.9447 14.9977H14.0561C14.5792 14.9977 15.0026 14.5743 15.0026 14.0512C15.0026 13.9017 14.9652 13.7585 14.903 13.6278L9.03095 1.63468Z" fill="#FBEBEB"/>
<path fill-rule="evenodd" clip-rule="evenodd" d="M7.30645 0.667651C8.10902 0.273584 9.08555 0.607941 9.48015 1.41507L15.3544 13.4128C15.4441 13.6011 15.5026 13.8174 15.5026 14.0512C15.5026 14.8504 14.8553 15.4977 14.0561 15.4977H1.9447C1.72733 15.4977 1.50657 15.4526 1.30509 15.3521C0.597204 15.0021 0.285758 14.1367 0.651822 13.4142C0.662285 13.3936 0.674066 13.3739 0.687031 13.3552L6.55998 1.40484C6.71935 1.08608 6.97864 0.823602 7.30645 0.667651ZM8.58176 1.85428C8.42905 1.5419 8.0507 1.41523 7.74563 1.56606L7.73757 1.57004C7.61938 1.62585 7.51924 1.72311 7.45508 1.85072C7.45486 1.85117 7.45464 1.85161 7.45441 1.85205L1.55281 13.8607C1.54419 13.8783 1.53464 13.8951 1.52422 13.9113C1.44967 14.114 1.53917 14.3525 1.74871 14.4559L1.75111 14.457C1.79838 14.4807 1.86362 14.4977 1.9447 14.4977H14.0561C14.303 14.4977 14.5026 14.2981 14.5026 14.0512C14.5026 13.9866 14.4867 13.9172 14.4525 13.8448L8.58176 1.85428Z" fill="#B50B0B"/>
<path fill-rule="evenodd" clip-rule="evenodd" d="M7.99165 11.705C8.41011 11.6951 8.74017 12.0338 8.74017 12.4384C8.74017 12.8583 8.40213 13.156 8.03475 13.1744C8.02643 13.1748 8.0181 13.175 8.00978 13.175C7.5941 13.175 7.27938 12.8364 7.27938 12.4446C7.27938 12.0963 7.5135 11.8276 7.81276 11.7426C7.86801 11.7197 7.92831 11.7065 7.99165 11.705Z" fill="#B50B0B"/>
<path fill-rule="evenodd" clip-rule="evenodd" d="M8.02219 5.17596C8.29834 5.17596 8.52219 5.39982 8.52219 5.67596V10.3462C8.52219 10.6223 8.29834 10.8462 8.02219 10.8462C7.74605 10.8462 7.52219 10.6223 7.52219 10.3462V5.67596C7.52219 5.39982 7.74605 5.17596 8.02219 5.17596Z" fill="#B50B0B"/>
<path fill-rule="evenodd" clip-rule="evenodd" d="M7.30645 0.667651C8.10902 0.273584 9.08555 0.607941 9.48015 1.41507L15.3544 13.4128C15.4441 13.6011 15.5026 13.8174 15.5026 14.0512C15.5026 14.8504 14.8553 15.4977 14.0561 15.4977H1.9447C1.72733 15.4977 1.50657 15.4526 1.30509 15.3521C0.597204 15.0021 0.285758 14.1367 0.651822 13.4142C0.662285 13.3936 0.674066 13.3739 0.687031 13.3552L6.55998 1.40484C6.71935 1.08608 6.97864 0.823602 7.30645 0.667651ZM8.58176 1.85428C8.42905 1.5419 8.0507 1.41523 7.74563 1.56606L7.73757 1.57004C7.61938 1.62585 7.51924 1.72311 7.45508 1.85072C7.45486 1.85117 7.45464 1.85161 7.45441 1.85205L1.55281 13.8607C1.54419 13.8783 1.53464 13.8951 1.52422 13.9113C1.44967 14.114 1.53917 14.3525 1.74871 14.4559L1.75111 14.457C1.79838 14.4807 1.86362 14.4977 1.9447 14.4977H14.0561C14.303 14.4977 14.5026 14.2981 14.5026 14.0512C14.5026 13.9866 14.4867 13.9172 14.4525 13.8448L8.58176 1.85428Z" fill="#B50B0B"/>
</svg>
