<svg width="49" height="49" viewBox="0 0 49 49" fill="none" xmlns="http://www.w3.org/2000/svg">
<path d="M29.65 3.87211L48.5097 42.3913L48.5168 42.406C48.799 42.9988 48.9825 43.6781 48.9825 44.4109C48.9825 46.9194 46.9509 48.9509 44.4425 48.9509H5.54246C4.85859 48.9509 4.16588 48.809 3.53499 48.4942C1.31257 47.3953 0.336128 44.6793 1.48441 42.413C1.517 42.3487 1.55384 42.2874 1.5945 42.2294L20.4608 3.84009C20.9627 2.83635 21.7788 2.01064 22.8097 1.52036C25.3346 0.280245 28.408 1.33257 29.65 3.87211Z" fill="#FBF6E9"/>
<path fill-rule="evenodd" clip-rule="evenodd" d="M29.5876 3.86118L48.4472 42.3804L48.4543 42.3951C48.7366 42.9879 48.92 43.6671 48.92 44.4C48.92 46.9084 46.8885 48.94 44.38 48.94H5.48002C4.79615 48.94 4.10345 48.798 3.47255 48.4833C1.25013 47.3844 0.273689 44.6684 1.42197 42.4021C1.45456 42.3377 1.4914 42.2765 1.53206 42.2185L20.3984 3.82916C20.9002 2.82542 21.7163 1.99972 22.7473 1.50943C25.2721 0.269319 28.3455 1.32164 29.5876 3.86118ZM26.8924 5.17881C26.3762 4.12295 25.0974 3.69414 24.0648 4.20465L24.0405 4.21637C23.6385 4.40624 23.2999 4.73651 23.0837 5.16686L23.0817 5.17082L4.12624 43.7416C4.0987 43.7976 4.06794 43.8514 4.03426 43.9028C3.7682 44.6078 4.0791 45.4373 4.80366 45.7948L4.81085 45.7983C4.97906 45.8825 5.20511 45.94 5.48002 45.94H44.38C45.2316 45.94 45.92 45.2516 45.92 44.4C45.92 44.1749 45.8645 43.9364 45.7488 43.6914L26.8924 5.17881Z" fill="#CB7307"/>
<path fill-rule="evenodd" clip-rule="evenodd" d="M24.9043 36.9704C26.1874 36.9399 27.2 37.9787 27.2 39.22C27.2 40.5073 26.1635 41.4217 25.0349 41.4781C25.01 41.4794 24.985 41.48 24.96 41.48C23.6853 41.48 22.72 40.4419 22.72 39.24C22.72 38.1698 23.4411 37.3439 24.3628 37.0851C24.5299 37.0154 24.7125 36.975 24.9043 36.9704Z" fill="#CB7307"/>
<path fill-rule="evenodd" clip-rule="evenodd" d="M25 16C25.8284 16 26.5 16.6716 26.5 17.5V32.5C26.5 33.3285 25.8284 34 25 34C24.1716 34 23.5 33.3285 23.5 32.5V17.5C23.5 16.6716 24.1716 16 25 16Z" fill="#CB7307"/>
</svg>
