<svg width="48" height="48" viewBox="0 0 48 48" fill="none" xmlns="http://www.w3.org/2000/svg">
<path d="M7.02944 7.02944C11.5303 2.52856 17.6348 0 24 0C30.3652 0 36.4697 2.52856 40.9706 7.02944C45.4714 11.5303 48 17.6348 48 24C48 30.3652 45.4714 36.4697 40.9706 40.9706C36.4697 45.4714 30.3652 48 24 48C17.6348 48 11.5303 45.4714 7.02944 40.9706C2.52856 36.4697 0 30.3652 0 24C0 17.6348 2.52856 11.5303 7.02944 7.02944Z" fill="#FBEBEB"/>
<path fill-rule="evenodd" clip-rule="evenodd" d="M7.02944 7.02944C11.5303 2.52856 17.6348 0 24 0C30.3652 0 36.4697 2.52856 40.9706 7.02944C45.4714 11.5303 48 17.6348 48 24C48 30.3652 45.4714 36.4697 40.9706 40.9706C36.4697 45.4714 30.3652 48 24 48C17.6348 48 11.5303 45.4714 7.02944 40.9706C2.52856 36.4697 0 30.3652 0 24C0 17.6348 2.52856 11.5303 7.02944 7.02944ZM24 3C18.4305 3 13.089 5.21249 9.15076 9.15076C5.21249 13.089 3 18.4305 3 24C3 29.5695 5.21249 34.911 9.15076 38.8492C13.089 42.7875 18.4305 45 24 45C29.5695 45 34.911 42.7875 38.8492 38.8492C42.7875 34.911 45 29.5695 45 24C45 18.4305 42.7875 13.089 38.8492 9.15076C34.911 5.21249 29.5695 3 24 3Z" fill="#A50000"/>
<path fill-rule="evenodd" clip-rule="evenodd" d="M32.4853 15.5147C33.071 16.1005 33.0029 17.1184 32.3331 17.7882L17.7882 32.3331C17.1184 33.0029 16.1005 33.071 15.5147 32.4853C14.9289 31.8995 14.997 30.8816 15.6669 30.2118L30.2118 15.6669C30.8816 14.997 31.8995 14.9289 32.4853 15.5147Z" fill="#A50000"/>
<path fill-rule="evenodd" clip-rule="evenodd" d="M15.5147 15.5147C16.1005 14.9289 17.1184 14.997 17.7882 15.6669L32.3331 30.2118C33.0029 30.8816 33.071 31.8995 32.4853 32.4853C31.8995 33.071 30.8816 33.0029 30.2118 32.3331L15.6669 17.7882C14.997 17.1184 14.9289 16.1005 15.5147 15.5147Z" fill="#A50000"/>
</svg>
