<svg width="20" height="20" viewBox="0 0 20 20" fill="none" xmlns="http://www.w3.org/2000/svg">
<g clip-path="url(#clip0_4530_680)">
<path fill-rule="evenodd" clip-rule="evenodd" d="M0.740723 15.5556L6.91356 9.38273V5.06174L8.76541 1.97532L12.4691 0.740753L16.1728 1.35804L18.642 4.44446L19.2592 8.76544L16.1728 12.4691L11.8518 13.0864H9.99998L8.76541 14.321H7.53085L6.91356 16.1729H6.29628L5.67899 16.7901H4.44443V18.642L3.20986 19.2593H0.740723V15.5556ZM14.9383 6.29631C15.6201 6.29631 16.1728 5.74357 16.1728 5.06174C16.1728 4.37991 15.6201 3.82717 14.9383 3.82717C14.2564 3.82717 13.7037 4.37991 13.7037 5.06174C13.7037 5.74357 14.2564 6.29631 14.9383 6.29631Z" fill="#F5EFF9"/>
<path fill-rule="evenodd" clip-rule="evenodd" d="M3.91891 19.8217L4.88882 18.8531C5.00343 18.7386 5.0678 18.5833 5.0678 18.4214V17.3536H6.13384C6.47066 17.3536 6.74371 17.0805 6.74371 16.7436V16.3902H7.09707C7.43386 16.3902 7.70695 16.1171 7.70695 15.7802V14.8568H8.63022C8.79197 14.8568 8.94707 14.7925 9.06146 14.6781L10.5529 13.1864C11.2999 13.4606 12.0844 13.5994 12.8908 13.5994C16.6395 13.5994 19.6892 10.5491 19.6892 6.79965C19.6892 3.05026 16.6396 0 12.8909 0C9.14211 0 6.09245 3.05026 6.09245 6.79973C6.09245 7.60592 6.23104 8.39052 6.50493 9.1375L0.178622 15.4655C0.0642834 15.5799 0 15.735 0 15.8968V19.39C0 19.7269 0.273044 20 0.609873 20H3.48802C3.64958 20 3.80454 19.9359 3.91891 19.8217ZM12.8909 12.3794C12.1116 12.3794 11.3584 12.222 10.6516 11.9117L10.3163 11.8615L9.97501 12.0392L9.49242 12.5446L8.37767 13.6368H7.09715C6.76032 13.6368 6.48728 13.9099 6.48728 14.2468V15.1703H6.13391C5.79713 15.1703 5.52404 15.4433 5.52404 15.7802V16.1336H4.45797C4.12118 16.1336 3.84809 16.4067 3.84809 16.7436V18.1684L3.23567 18.78H1.21982V18.267V18.0371V17.5V17.0117V16.6793V16.1495L7.65217 9.71546L7.6586 9.70866C7.8256 9.53628 7.8821 9.27329 7.77944 9.03915C7.46945 8.33224 7.31231 7.57897 7.31231 6.79977C7.31231 3.7232 9.815 1.22002 12.891 1.22002C15.9669 1.22002 18.4695 3.72316 18.4695 6.79977C18.4695 9.87626 15.9667 12.3794 12.8909 12.3794Z" fill="#8449BF"/>
<path fill-rule="evenodd" clip-rule="evenodd" d="M14.9222 2.8219C13.8494 2.8219 12.9767 3.69468 12.9767 4.76777C12.9767 5.84085 13.8494 6.71364 14.9222 6.71364C15.9951 6.71364 16.8677 5.84085 16.8677 4.76777C16.8677 3.69469 15.9952 2.8219 14.9222 2.8219ZM14.9222 5.49366C14.5222 5.49366 14.1965 5.16791 14.1965 4.76777C14.1965 4.36763 14.5222 4.04188 14.9222 4.04188C15.3223 4.04188 15.648 4.36763 15.648 4.76777C15.648 5.16791 15.3223 5.49366 14.9222 5.49366Z" fill="#8449BF"/>
</g>
<defs>
<clipPath id="clip0_4530_680">
<rect width="20" height="20" fill="white"/>
</clipPath>
</defs>
</svg>
