<svg width="16" height="16" viewBox="0 0 16 16" fill="none" xmlns="http://www.w3.org/2000/svg">
<g clip-path="url(#clip0_5829_117)">
<path fill-rule="evenodd" clip-rule="evenodd" d="M3.13513 15.8574L3.91105 15.0825C4.00274 14.9909 4.05424 14.8666 4.05424 14.7371V13.8829H4.90707C5.17653 13.8829 5.39497 13.6644 5.39497 13.3949V13.1122H5.67766C5.94709 13.1122 6.16556 12.8937 6.16556 12.6242V11.8854H6.90418C7.03358 11.8854 7.15766 11.834 7.24917 11.7425L8.44232 10.5491C9.03989 10.7685 9.66755 10.8795 10.3126 10.8795C13.3116 10.8795 15.7513 8.4393 15.7513 5.43972C15.7514 2.44021 13.3117 0 10.3127 0C7.31369 0 4.87396 2.44021 4.87396 5.43978C4.87396 6.08473 4.98484 6.71241 5.20394 7.31L0.142897 12.3724C0.0514267 12.4639 0 12.588 0 12.7174V15.512C0 15.7815 0.218436 16 0.487899 16H2.79041C2.91966 16 3.04363 15.9487 3.13513 15.8574ZM10.3127 9.90352C9.68924 9.90352 9.08672 9.77763 8.52128 9.52935L8.25303 9.4892L7.98001 9.63132L7.59394 10.0357L6.70214 10.9094H5.67772C5.40826 10.9094 5.18982 11.1279 5.18982 11.3974V12.1362H4.90713C4.6377 12.1362 4.41923 12.3547 4.41923 12.6242V12.9069H3.56637C3.29695 12.9069 3.07847 13.1254 3.07847 13.3949V14.5347L2.58854 15.024H0.975859V14.6136V14.4297V14V13.6094V13.3435V12.9196L6.12173 7.77237L6.12688 7.76692C6.26048 7.62903 6.30568 7.41863 6.22356 7.23132C5.97556 6.66579 5.84985 6.06317 5.84985 5.43981C5.84985 2.97856 7.852 0.976018 10.3128 0.976018C12.7735 0.976018 14.7756 2.97853 14.7756 5.43981C14.7756 7.90101 12.7734 9.90352 10.3127 9.90352Z" fill="black"/>
<path fill-rule="evenodd" clip-rule="evenodd" d="M11.9378 2.25752C11.0795 2.25752 10.3814 2.95575 10.3814 3.81421C10.3814 4.67268 11.0795 5.37091 11.9378 5.37091C12.7961 5.37091 13.4942 4.67268 13.4942 3.81421C13.4942 2.95575 12.7961 2.25752 11.9378 2.25752ZM11.9378 4.39492C11.6177 4.39492 11.3572 4.13433 11.3572 3.81421C11.3572 3.4941 11.6177 3.2335 11.9378 3.2335C12.2578 3.2335 12.5184 3.4941 12.5184 3.81421C12.5184 4.13433 12.2578 4.39492 11.9378 4.39492Z" fill="black"/>
</g>
<defs>
<clipPath id="clip0_5829_117">
<rect width="16" height="16" fill="white"/>
</clipPath>
</defs>
</svg>
