<svg width="16" height="16" viewBox="0 0 16 16" fill="none" xmlns="http://www.w3.org/2000/svg">
<g id="Type=Purple">
<g id="Outlined">
<path id="secondary" d="M7.53492 12.1857C7.02023 12.1857 6.60476 11.764 6.60476 11.2556V6.60475C6.60476 6.09006 7.02023 5.67459 7.53492 5.67459H14.046C14.5545 5.67459 14.9762 6.09006 14.9762 6.60475V11.2556C14.9762 11.764 14.5545 12.1857 14.046 12.1857H13.1159V14.9762L10.3254 12.1857H7.53492Z" fill="#F5EFF9"/>
<path id="primary" fill-rule="evenodd" clip-rule="evenodd" d="M1.5238 1.95396C1.5238 1.71542 1.71542 1.5238 1.95396 1.5238H8.46509C8.6996 1.5238 8.89525 1.71758 8.89525 1.95396V3.81429C8.89525 4.09043 9.11911 4.31429 9.39525 4.31429C9.67139 4.31429 9.89525 4.09043 9.89525 3.81429V1.95396C9.89525 1.16097 9.24755 0.523804 8.46509 0.523804H1.95396C1.16313 0.523804 0.523804 1.16313 0.523804 1.95396V6.60477C0.523804 7.38723 1.16097 8.03493 1.95396 8.03493H2.38412V10.3254C2.38412 10.5276 2.50595 10.71 2.69278 10.7873C2.87962 10.8647 3.09468 10.822 3.23768 10.679L5.098 8.81864C5.29326 8.62338 5.29326 8.3068 5.098 8.11154C4.90274 7.91627 4.58615 7.91627 4.39089 8.11154L3.38412 9.1183V7.53493C3.38412 7.25879 3.16027 7.03493 2.88412 7.03493H1.95396C1.71758 7.03493 1.5238 6.83928 1.5238 6.60477V1.95396ZM3.84918 3.81428C3.84918 3.57573 4.0408 3.38411 4.27934 3.38411C4.51386 3.38411 4.7095 3.57789 4.7095 3.81428V4.24443H3.84918V3.81428ZM2.84918 4.74443V3.81428C2.84918 3.02344 3.48851 2.38411 4.27934 2.38411C5.0618 2.38411 5.7095 3.02128 5.7095 3.81428V4.74443V5.6746C5.7095 5.95074 5.48565 6.1746 5.2095 6.1746C4.93336 6.1746 4.7095 5.95074 4.7095 5.6746V5.24443H3.84918V5.6746C3.84918 5.95074 3.62532 6.1746 3.34918 6.1746C3.07304 6.1746 2.84918 5.95074 2.84918 5.6746V4.74443ZM10.7905 6.56982C11.0666 6.56982 11.2905 6.79368 11.2905 7.06982V7.5H11.709C11.7167 7.49982 11.7244 7.49982 11.7322 7.5H12.6508C12.9269 7.5 13.1508 7.72386 13.1508 8C13.1508 8.27614 12.9269 8.5 12.6508 8.5H12.0632C12.0451 8.54323 12.0251 8.58975 12.0031 8.63908C11.8792 8.9179 11.6918 9.29346 11.439 9.67259L11.4187 9.70293C11.7466 10.0446 12.1965 10.2571 12.6835 10.2891C12.959 10.3071 13.1678 10.5452 13.1497 10.8207C13.1316 11.0963 12.8936 11.305 12.6181 11.2869C11.9205 11.2412 11.2697 10.95 10.7773 10.4757C10.3072 10.9276 9.6936 11.2905 8.93016 11.2905C8.65401 11.2905 8.43016 11.0666 8.43016 10.7905C8.43016 10.5143 8.65401 10.2905 8.93016 10.2905C9.48692 10.2905 9.97524 9.93608 10.3806 9.42878C10.3915 9.41317 10.4033 9.39819 10.416 9.38392C10.4819 9.29893 10.5456 9.20995 10.607 9.11789C10.7486 8.90548 10.8675 8.69149 10.9633 8.5H8.93016C8.65401 8.5 8.43016 8.27614 8.43016 8C8.43016 7.72386 8.65401 7.5 8.93016 7.5H10.2905V7.06982C10.2905 6.79368 10.5143 6.56982 10.7905 6.56982ZM7.53492 6.17458C7.29637 6.17458 7.10476 6.3662 7.10476 6.60474V11.2555C7.10476 11.4901 7.29854 11.6857 7.53492 11.6857H10.3254C10.458 11.6857 10.5852 11.7384 10.679 11.8322L12.6159 13.7691V12.1857C12.6159 11.9096 12.8397 11.6857 13.1159 11.6857H14.046C14.2784 11.6857 14.4762 11.4879 14.4762 11.2555V6.60474C14.4762 6.36836 14.2806 6.17458 14.046 6.17458H7.53492ZM6.10476 6.60474C6.10476 5.81391 6.74409 5.17458 7.53492 5.17458H14.046C14.8285 5.17458 15.4762 5.81175 15.4762 6.60474V11.2555C15.4762 12.0402 14.8307 12.6857 14.046 12.6857H13.6159V14.9762C13.6159 15.1784 13.4941 15.3607 13.3072 15.4381C13.1204 15.5155 12.9053 15.4727 12.7623 15.3297L10.1183 12.6857H7.53492C6.74192 12.6857 6.10476 12.038 6.10476 11.2555V6.60474Z" fill="#8449BF"/>
</g>
</g>
</svg>
