<svg width="16" height="16" viewBox="0 0 16 16" fill="none" xmlns="http://www.w3.org/2000/svg">
<path d="M11.64 15.36H3.42C3.0442 15.3574 2.68454 15.2069 2.4188 14.9412C2.15307 14.6755 2.00262 14.3158 2 13.94V7.55C2.00262 7.17421 2.15307 6.81454 2.4188 6.54881C2.68454 6.28307 3.0442 6.13262 3.42 6.13H11.64C12.0158 6.13262 12.3755 6.28307 12.6412 6.54881C12.9069 6.81454 13.0574 7.17421 13.06 7.55V13.94C13.0574 14.3158 12.9069 14.6755 12.6412 14.9412C12.3755 15.2069 12.0158 15.3574 11.64 15.36ZM3.42 7.13C3.30861 7.13 3.20178 7.17425 3.12302 7.25302C3.04425 7.33179 3 7.43861 3 7.55V13.94C3 14.0514 3.04425 14.1582 3.12302 14.237C3.20178 14.3158 3.30861 14.36 3.42 14.36H11.64C11.7514 14.36 11.8582 14.3158 11.937 14.237C12.0157 14.1582 12.06 14.0514 12.06 13.94V7.55C12.06 7.43861 12.0157 7.33179 11.937 7.25302C11.8582 7.17425 11.7514 7.13 11.64 7.13H3.42Z" fill="#141414"/>
<path d="M4.33 7.13C4.19739 7.13 4.07021 7.07732 3.97645 6.98355C3.88268 6.88978 3.83 6.76261 3.83 6.63V4.35C3.82868 3.86327 3.92342 3.38106 4.10877 2.931C4.29412 2.48094 4.56646 2.07187 4.91016 1.72724C5.25387 1.3826 5.6622 1.10917 6.11176 0.922599C6.56132 0.736031 7.04327 0.639998 7.53 0.639999C8.50783 0.645285 9.44381 1.03744 10.1334 1.73075C10.8229 2.42406 11.21 3.36215 11.21 4.34V6.62C11.21 6.75261 11.1573 6.87978 11.0636 6.97355C10.9698 7.06732 10.8426 7.12 10.71 7.12C10.5774 7.12 10.4502 7.06732 10.3564 6.97355C10.2627 6.87978 10.21 6.75261 10.21 6.62V4.34C10.2121 3.98597 10.1442 3.63501 10.0104 3.30725C9.87654 2.97949 9.67931 2.68137 9.43 2.43C9.18163 2.17874 8.8857 1.97948 8.55948 1.84384C8.23326 1.7082 7.88329 1.6389 7.53 1.64C6.813 1.64265 6.12626 1.92933 5.6202 2.43727C5.11414 2.9452 4.83 3.63299 4.83 4.35V6.63C4.83 6.76261 4.77732 6.88978 4.68355 6.98355C4.58979 7.07732 4.46261 7.13 4.33 7.13Z" fill="#141414"/>
<path d="M7.53 12.16C7.39739 12.16 7.27021 12.1073 7.17645 12.0136C7.08268 11.9198 7.03 11.7926 7.03 11.66V9.83C7.03 9.69739 7.08268 9.57022 7.17645 9.47645C7.27021 9.38268 7.39739 9.33 7.53 9.33C7.66261 9.33 7.78978 9.38268 7.88355 9.47645C7.97732 9.57022 8.03 9.69739 8.03 9.83V11.66C8.03 11.7926 7.97732 11.9198 7.88355 12.0136C7.78978 12.1073 7.66261 12.16 7.53 12.16Z" fill="#141414"/>
</svg>
