<svg width="16" height="16" viewBox="0 0 16 16" fill="none" xmlns="http://www.w3.org/2000/svg">
<g id="Type=Purple">
<g id="Outlined">
<path id="secondary" d="M12.14 6.63001H3.92C3.68124 6.6378 3.45487 6.73815 3.28877 6.90985C3.12267 7.08155 3.02987 7.31112 3.03 7.55001V13.94C3.03 14.184 3.12693 14.418 3.29946 14.5905C3.47199 14.7631 3.706 14.86 3.95 14.86H12.17C12.414 14.86 12.648 14.7631 12.8205 14.5905C12.9931 14.418 13.09 14.184 13.09 13.94V7.55001C13.0901 7.42662 13.0653 7.30449 13.0172 7.19087C12.9691 7.07725 12.8987 6.97446 12.81 6.88863C12.7214 6.80279 12.6164 6.73566 12.5013 6.69123C12.3862 6.64681 12.2633 6.62598 12.14 6.63001Z" fill="#F5EFF9"/>
<path id="primary" d="M12.14 15.36H3.92C3.5442 15.3574 3.18454 15.2069 2.9188 14.9412C2.65307 14.6755 2.50262 14.3158 2.5 13.94V7.55C2.50262 7.17421 2.65307 6.81454 2.9188 6.54881C3.18454 6.28307 3.5442 6.13262 3.92 6.13H12.14C12.5158 6.13262 12.8755 6.28307 13.1412 6.54881C13.4069 6.81454 13.5574 7.17421 13.56 7.55V13.94C13.5574 14.3158 13.4069 14.6755 13.1412 14.9412C12.8755 15.2069 12.5158 15.3574 12.14 15.36ZM3.92 7.13C3.80861 7.13 3.70178 7.17425 3.62302 7.25302C3.54425 7.33179 3.5 7.43861 3.5 7.55V13.94C3.5 14.0514 3.54425 14.1582 3.62302 14.237C3.70178 14.3158 3.80861 14.36 3.92 14.36H12.14C12.2514 14.36 12.3582 14.3158 12.437 14.237C12.5157 14.1582 12.56 14.0514 12.56 13.94V7.55C12.56 7.43861 12.5157 7.33179 12.437 7.25302C12.3582 7.17425 12.2514 7.13 12.14 7.13H3.92Z" fill="#8449BF"/>
<path id="primary_2" d="M4.83 7.13C4.69739 7.13 4.57021 7.07732 4.47645 6.98355C4.38268 6.88978 4.33 6.76261 4.33 6.63V4.35C4.32868 3.86327 4.42342 3.38106 4.60877 2.931C4.79412 2.48094 5.06646 2.07187 5.41016 1.72724C5.75387 1.3826 6.1622 1.10917 6.61176 0.922599C7.06132 0.736031 7.54327 0.639998 8.03 0.639999C9.00783 0.645285 9.94381 1.03744 10.6334 1.73075C11.3229 2.42406 11.71 3.36215 11.71 4.34V6.62C11.71 6.75261 11.6573 6.87978 11.5636 6.97355C11.4698 7.06732 11.3426 7.12 11.21 7.12C11.0774 7.12 10.9502 7.06732 10.8564 6.97355C10.7627 6.87978 10.71 6.75261 10.71 6.62V4.34C10.7121 3.98597 10.6442 3.63501 10.5104 3.30725C10.3765 2.97949 10.1793 2.68137 9.93 2.43C9.68163 2.17874 9.3857 1.97948 9.05948 1.84384C8.73326 1.7082 8.38329 1.6389 8.03 1.64C7.313 1.64265 6.62626 1.92933 6.1202 2.43727C5.61414 2.9452 5.33 3.63299 5.33 4.35V6.63C5.33 6.76261 5.27732 6.88978 5.18355 6.98355C5.08979 7.07732 4.96261 7.13 4.83 7.13Z" fill="#8449BF"/>
<path id="primary_3" d="M8.03 12.16C7.89739 12.16 7.77021 12.1073 7.67645 12.0136C7.58268 11.9198 7.53 11.7926 7.53 11.66V9.83C7.53 9.69739 7.58268 9.57022 7.67645 9.47645C7.77021 9.38268 7.89739 9.33 8.03 9.33C8.16261 9.33 8.28978 9.38268 8.38355 9.47645C8.47732 9.57022 8.53 9.69739 8.53 9.83V11.66C8.53 11.7926 8.47732 11.9198 8.38355 12.0136C8.28978 12.1073 8.16261 12.16 8.03 12.16Z" fill="#8449BF"/>
</g>
</g>
</svg>
