<svg width="16" height="16" viewBox="0 0 16 16" fill="none" xmlns="http://www.w3.org/2000/svg">
<path fill-rule="evenodd" clip-rule="evenodd" d="M14.0988 1.45982L14.1064 1.45976C14.3319 1.4614 14.5309 1.65442 14.5309 1.89809V8.89806H10.352C9.56302 8.89806 8.91218 9.54779 8.91996 10.3453V14.5164C8.8897 14.5217 8.8602 14.5297 8.83178 14.5402H1.91375H1.91104C1.66118 14.5359 1.46922 14.3347 1.46922 14.102V1.90435H1.46925L1.46918 1.89833C1.4663 1.65898 1.66545 1.45982 1.90124 1.45982H14.0926H14.0988ZM9.41092 15.4526C9.41393 15.4526 9.41694 15.4527 9.41996 15.4527C9.57345 15.4527 9.71078 15.3835 9.80249 15.2747C9.85598 15.24 9.90748 15.2016 9.95665 15.1595C9.98217 15.1421 10.0063 15.1222 10.0287 15.0998L15.1092 10.0206L15.1092 10.0207L15.1153 10.0143C15.1972 9.92958 15.2687 9.83577 15.3283 9.7351C15.3965 9.66041 15.4423 9.56495 15.4552 9.45933C15.5028 9.31925 15.5291 9.17126 15.5308 9.01978L15.5309 9.01024V9.00398V1.89809C15.5309 1.10731 14.8855 0.451983 14.0899 0.459817H1.90124C1.11228 0.459817 0.461435 1.10955 0.469216 1.90705V14.102C0.469216 14.8943 1.11418 15.5307 1.90147 15.5402L1.90147 15.5402H1.90749H1.91375H9.03152C9.11012 15.5402 9.18586 15.5218 9.25362 15.4882C9.30676 15.4792 9.35927 15.4673 9.41092 15.4526ZM13.8174 9.89806L9.91996 13.7945V10.3426H9.92L9.91993 10.3366C9.91705 10.0972 10.1162 9.89806 10.352 9.89806H13.8174Z" fill="#141414"/>
</svg>
