<svg width="16" height="16" viewBox="0 0 16 16" fill="none" xmlns="http://www.w3.org/2000/svg">
<g clip-path="url(#clip0)">
<path d="M5.69195 9.53V2.38595C5.68571 1.60535 6.31643 0.974625 7.09079 0.974625H13.6478H13.6416C14.4159 0.96838 15.0467 1.5991 15.0467 2.37346V13.6141C15.0467 14.3884 14.4159 15.0192 13.6416 15.0192H7.08454L7.0783 15.0185C6.2977 15.0123 5.67322 14.3878 5.67322 13.6072V12.821" fill="#F1EDF7"/>
<path fill-rule="evenodd" clip-rule="evenodd" d="M6.60865 9.46546C6.59614 9.47709 6.58296 9.48813 6.56916 9.49852L5.52441 10.2854C5.30383 10.4515 4.99034 10.4074 4.82421 10.1868C4.65808 9.96619 4.70222 9.6527 4.92281 9.48657L5.91426 8.73987C5.93076 8.72332 5.94851 8.70784 5.96744 8.69357C6.61994 8.20184 7.54516 8.3352 8.03528 8.98554C8.04284 8.99557 8.05001 9.00588 8.05679 9.01644C8.05963 9.02035 8.06328 9.02543 8.06731 9.03131C8.07208 9.03825 8.0786 9.048 8.08595 9.06012C8.40891 9.55329 8.4035 10.197 8.0691 10.6903C8.06884 10.6907 8.06858 10.6911 8.06832 10.6915L7.03745 12.2256C7.02243 12.248 7.00578 12.2689 6.9877 12.2882C6.61768 12.808 6.1058 13.219 5.50297 13.4601L3.973 14.0721C3.71661 14.1747 3.42562 14.05 3.32307 13.7936C3.22051 13.5372 3.34522 13.2462 3.60161 13.1436L5.13158 12.5316C5.56725 12.3574 5.9386 12.054 6.20273 11.6656C6.21584 11.6463 6.23016 11.6282 6.24556 11.6111L7.24109 10.1296C7.35206 9.96622 7.34979 9.75709 7.24616 9.60313C7.24412 9.60009 7.24211 9.59704 7.24014 9.59397C7.23729 9.59005 7.23365 9.58497 7.22961 9.5791C7.22844 9.5774 7.22717 9.57553 7.22581 9.57351C7.07417 9.38667 6.80972 9.34315 6.60865 9.46546Z" fill="#522974"/>
<path fill-rule="evenodd" clip-rule="evenodd" d="M6.15166 6.41081C6.26027 6.6647 6.1425 6.95856 5.88861 7.06716L3.64048 8.02886C3.62556 8.03524 3.61037 8.04088 3.59496 8.04577C3.06663 8.27901 2.64887 8.70633 2.41651 9.24137C2.41642 9.24157 2.41659 9.24117 2.41651 9.24137L1.67991 10.9518C1.66989 10.975 1.65824 10.9973 1.64513 11.0183C1.5367 11.2831 1.48338 11.5668 1.48338 11.8593V15.0254C1.48338 15.3016 1.25953 15.5254 0.983383 15.5254C0.707241 15.5254 0.483383 15.3016 0.483383 15.0254V11.8593C0.483383 11.4124 0.571459 10.9677 0.757872 10.5502C0.76738 10.5289 0.778263 10.5085 0.79039 10.4891L1.4989 8.84388C1.83579 8.06756 2.45313 7.44076 3.24375 7.10826C3.25807 7.10224 3.27264 7.09689 3.28741 7.09224L5.49531 6.14775C5.7492 6.03915 6.04306 6.15692 6.15166 6.41081Z" fill="#522974"/>
<path fill-rule="evenodd" clip-rule="evenodd" d="M13.6546 1.47458C13.6524 1.47461 13.6501 1.47463 13.6478 1.47463H7.09079C6.59325 1.47463 6.18792 1.87993 6.19194 2.38195L6.19197 2.38595L6.19195 9.53C6.19195 9.80614 5.96809 10.03 5.69195 10.03C5.41581 10.03 5.19195 9.80614 5.19195 9.53V2.3878C5.18465 1.32961 6.04032 0.474625 7.09079 0.474625H13.6397C14.6931 0.467312 15.5467 1.32447 15.5467 2.37346V13.6141C15.5467 14.6646 14.6921 15.5192 13.6416 15.5192H7.08454C7.07457 15.5192 7.06459 15.5189 7.05464 15.5183C6.0109 15.4996 5.17322 14.6581 5.17322 13.6072V12.821C5.17322 12.5449 5.39708 12.321 5.67322 12.321C5.94936 12.321 6.17322 12.5449 6.17322 12.821V13.6072C6.17322 14.1109 6.57395 14.5145 7.0823 14.5186C7.08929 14.5186 7.09628 14.5188 7.10326 14.5192H13.6416C14.1398 14.5192 14.5467 14.1123 14.5467 13.6141V2.37346C14.5467 1.8775 14.1448 1.47555 13.6546 1.47458Z" fill="#522974"/>
<path fill-rule="evenodd" clip-rule="evenodd" d="M8.2158 7.17307C8.17053 7.40265 7.96811 7.57579 7.72526 7.57579H7.71901C7.55706 7.57579 7.40513 7.49734 7.31136 7.3653C7.21758 7.23326 7.19357 7.06397 7.24693 6.91106C7.85049 5.18134 9.74835 4.27687 11.4698 4.88692C13.1929 5.49129 14.0962 7.38929 13.4858 9.11013L13.4856 9.11076C12.8749 10.8251 10.9856 11.729 9.26473 11.1259C9.00413 11.0346 8.8669 10.7493 8.95822 10.4887C9.04954 10.2281 9.33484 10.0909 9.59544 10.1822C10.797 10.6033 12.1173 9.97111 12.5435 8.77559C12.9694 7.57423 12.337 6.25043 11.1382 5.83033L11.1364 5.8297C9.95809 5.41176 8.66138 6.01207 8.2158 7.17307Z" fill="#522974"/>
<path fill-rule="evenodd" clip-rule="evenodd" d="M10.3755 4.70236C10.6517 4.70236 10.8755 4.92622 10.8755 5.20236V10.8227C10.8755 11.0988 10.6517 11.3227 10.3755 11.3227C10.0994 11.3227 9.87555 11.0988 9.87555 10.8227V5.20236C9.87555 4.92622 10.0994 4.70236 10.3755 4.70236Z" fill="#522974"/>
<path fill-rule="evenodd" clip-rule="evenodd" d="M8.47047 8.01251C8.47047 7.73637 8.69433 7.51251 8.97047 7.51251H13.1857C13.4619 7.51251 13.6857 7.73637 13.6857 8.01251C13.6857 8.28865 13.4619 8.51251 13.1857 8.51251H8.97047C8.69433 8.51251 8.47047 8.28865 8.47047 8.01251Z" fill="#522974"/>
</g>
<defs>
<clipPath id="clip0">
<rect width="16" height="16" fill="white" transform="translate(0.0150146)"/>
</clipPath>
</defs>
</svg>
