<svg width="16" height="16" viewBox="0 0 16 16" fill="none" xmlns="http://www.w3.org/2000/svg">
<g id="Type=Purple" clip-path="url(#clip0_241_93)">
<g id="Outlined">
<path id="secondary" fill-rule="evenodd" clip-rule="evenodd" d="M8.0006 1.04683C10.3006 1.04401 12.173 2.91843 12.173 5.22542C12.173 7.23732 8.99605 11.7378 8.18014 12.8626H8.17395C8.09348 12.9617 7.9511 12.9864 7.84586 12.9121C7.82935 12.8998 7.81834 12.8874 7.80734 12.875C7.80184 12.8688 7.79633 12.8626 7.79014 12.8564C6.973 11.7359 3.79729 7.22927 3.79729 5.21737C3.7911 2.90399 5.66681 1.02827 7.96967 1.02827L8.0006 1.04683ZM6.68743 3.91222C7.03571 3.56393 7.50808 3.36827 8.00063 3.36827C8.49317 3.36827 8.96554 3.56393 9.31383 3.91222C9.66211 4.2605 9.85777 4.73287 9.85777 5.22541C9.85777 5.71796 9.66211 6.19033 9.31383 6.53861C8.96554 6.88689 8.49317 7.08256 8.00063 7.08256C7.50808 7.08256 7.03571 6.88689 6.68743 6.53861C6.33915 6.19033 6.14348 5.71796 6.14348 5.22541C6.14348 4.73287 6.33915 4.2605 6.68743 3.91222Z" fill="#F5EFF9"/>
<path id="primary" fill-rule="evenodd" clip-rule="evenodd" d="M6.33385 3.55868C6.7759 3.11663 7.37545 2.86829 8.00061 2.86829C8.62576 2.86829 9.22531 3.11663 9.66736 3.55868C10.1094 4.00073 10.3577 4.60028 10.3577 5.22543C10.3577 5.85058 10.1094 6.45013 9.66736 6.89218C9.22531 7.33423 8.62576 7.58257 8.00061 7.58257C7.37545 7.58257 6.7759 7.33423 6.33385 6.89218C5.8918 6.45013 5.64346 5.85058 5.64346 5.22543C5.64346 4.60028 5.8918 4.00073 6.33385 3.55868ZM8.00061 3.86829C7.64067 3.86829 7.29547 4.01127 7.04096 4.26578C6.78645 4.5203 6.64346 4.86549 6.64346 5.22543C6.64346 5.58537 6.78645 5.93056 7.04096 6.18507C7.29547 6.43959 7.64067 6.58257 8.00061 6.58257C8.36054 6.58257 8.70574 6.43959 8.96025 6.18507C9.21477 5.93056 9.35775 5.58537 9.35775 5.22543C9.35775 4.86549 9.21477 4.5203 8.96025 4.26578C8.70574 4.01127 8.36054 3.86829 8.00061 3.86829Z" fill="#8449BF"/>
<path id="primary_2" fill-rule="evenodd" clip-rule="evenodd" d="M7.86437 1.52976C5.88661 1.58578 4.29193 3.21467 4.29729 5.21603L4.29729 5.21737C4.29729 5.61371 4.46054 6.19439 4.76568 6.90486C5.06454 7.6007 5.47546 8.36744 5.91788 9.11704C6.67576 10.4011 7.50953 11.6072 7.98696 12.2748C8.46522 11.604 9.29629 10.4018 10.052 9.12237C10.4945 8.37325 10.9056 7.60715 11.2045 6.91184C11.5097 6.20191 11.673 5.62167 11.673 5.22542C11.673 3.1947 10.0255 1.54616 8.00452 1.54683C8.00322 1.54684 8.00192 1.54685 8.00062 1.54685H7.99443C7.94944 1.54685 7.90584 1.5409 7.86437 1.52976ZM8.10853 0.547945C8.0636 0.534955 8.01687 0.528275 7.96967 0.528275C5.39033 0.528275 3.29072 2.62834 3.29729 5.21804C3.29729 5.21782 3.29729 5.21759 3.29729 5.21737H3.79729L3.29729 5.21871C3.29729 5.21848 3.29729 5.21826 3.29729 5.21804C3.29746 5.82752 3.53111 6.56437 3.84684 7.29949C4.16897 8.04951 4.60304 8.8567 5.05669 9.62532C5.96453 11.1635 6.97335 12.585 7.38616 13.151C7.40009 13.1701 7.41535 13.1882 7.43183 13.2051L7.43602 13.2099L7.4471 13.2221C7.46707 13.2439 7.49964 13.2775 7.54586 13.3121L7.55752 13.3206C7.85944 13.5337 8.24302 13.4814 8.48765 13.2569C8.5242 13.2284 8.55701 13.1946 8.58488 13.1562C8.99625 12.5891 10.005 11.1681 10.913 9.63097C11.3668 8.86289 11.801 8.05634 12.1232 7.30681C12.4392 6.5719 12.673 5.83512 12.673 5.22542C12.673 2.67962 10.6362 0.602855 8.10853 0.547945Z" fill="#8449BF"/>
<path id="primary_3" fill-rule="evenodd" clip-rule="evenodd" d="M4.77614 11.4881C4.82992 11.759 4.65393 12.0222 4.38308 12.0759C3.56583 12.2382 2.92319 12.4503 2.49839 12.6789C2.28573 12.7933 2.15026 12.9 2.07333 12.9872C1.99985 13.0704 1.99999 13.1112 2 13.1145L2 13.1146C2 13.1173 2.00595 13.2308 2.29063 13.4232C2.55788 13.6037 2.97748 13.786 3.54094 13.947C4.66105 14.2671 6.23764 14.4717 8 14.4717C9.76236 14.4717 11.339 14.2671 12.4591 13.947C13.0225 13.786 13.4421 13.6037 13.7094 13.4232C13.994 13.2308 14 13.1173 14 13.1146V13.1145C14 13.112 14.0005 13.0722 13.9271 12.9898C13.8499 12.9032 13.7137 12.797 13.4997 12.683C13.0722 12.4554 12.426 12.2446 11.6049 12.0822C11.334 12.0286 11.1578 11.7656 11.2114 11.4947C11.265 11.2238 11.528 11.0476 11.7989 11.1012C12.6678 11.2731 13.4206 11.508 13.9697 11.8004C14.244 11.9464 14.4904 12.1188 14.6738 12.3246C14.8599 12.5336 15 12.8002 15 13.1146C15 13.6247 14.6423 13.9997 14.2692 14.2518C13.8787 14.5156 13.3465 14.7335 12.7338 14.9086C11.5015 15.2606 9.82811 15.4717 8 15.4717C6.17189 15.4717 4.49848 15.2606 3.26621 14.9086C2.65347 14.7335 2.12129 14.5156 1.7308 14.2518C1.35774 13.9997 1 13.6247 1 13.1146C1 12.8014 1.13868 12.5349 1.32364 12.3254C1.50594 12.1189 1.75117 11.9454 2.02446 11.7983C2.57157 11.5039 3.32179 11.2671 4.18835 11.0951C4.45921 11.0413 4.72237 11.2173 4.77614 11.4881Z" fill="#8449BF"/>
</g>
</g>
<defs>
<clipPath id="clip0_241_93">
<rect width="16" height="16" fill="white"/>
</clipPath>
</defs>
</svg>
