<svg width="16" height="16" viewBox="0 0 16 16" fill="none" xmlns="http://www.w3.org/2000/svg">
<path fill-rule="evenodd" clip-rule="evenodd" d="M6.46927 2.80448C6.95457 2.60346 7.47471 2.5 8 2.5C8.52529 2.5 9.04543 2.60346 9.53073 2.80448C10.016 3.0055 10.457 3.30014 10.8284 3.67157C11.1999 4.04301 11.4945 4.48396 11.6955 4.96927C11.8965 5.45457 12 5.97471 12 6.5C12 7.02529 11.8965 7.54543 11.6955 8.03073C11.4945 8.51604 11.1999 8.95699 10.8284 9.32843C10.457 9.69986 10.016 9.9945 9.53073 10.1955C9.04543 10.3965 8.52529 10.5 8 10.5C7.47471 10.5 6.95457 10.3965 6.46927 10.1955C5.98396 9.9945 5.54301 9.69986 5.17157 9.32843C4.80014 8.95699 4.5055 8.51604 4.30448 8.03073C4.10346 7.54543 4 7.02529 4 6.5C4 5.97471 4.10346 5.45457 4.30448 4.96927C4.5055 4.48396 4.80014 4.04301 5.17157 3.67157C5.54301 3.30014 5.98396 3.0055 6.46927 2.80448ZM8 3.5C7.60603 3.5 7.21593 3.5776 6.85195 3.72836C6.48797 3.87913 6.15726 4.1001 5.87868 4.37868C5.6001 4.65726 5.37913 4.98797 5.22836 5.35195C5.0776 5.71593 5 6.10603 5 6.5C5 6.89397 5.0776 7.28407 5.22836 7.64805C5.37913 8.01203 5.6001 8.34275 5.87868 8.62132C6.15726 8.8999 6.48797 9.12087 6.85195 9.27164C7.21593 9.4224 7.60603 9.5 8 9.5C8.39397 9.5 8.78407 9.4224 9.14805 9.27164C9.51203 9.12087 9.84275 8.8999 10.1213 8.62132C10.3999 8.34274 10.6209 8.01203 10.7716 7.64805C10.9224 7.28407 11 6.89397 11 6.5C11 6.10603 10.9224 5.71593 10.7716 5.35195C10.6209 4.98797 10.3999 4.65726 10.1213 4.37868C9.84275 4.1001 9.51203 3.87913 9.14805 3.72836C8.78407 3.5776 8.39397 3.5 8 3.5Z" fill="#141414"/>
<path fill-rule="evenodd" clip-rule="evenodd" d="M3.09527 13.4974C5.84029 10.8081 10.246 10.8333 12.9632 13.5647C13.1579 13.7605 13.1571 14.0771 12.9613 14.2718C12.7655 14.4666 12.449 14.4657 12.2542 14.27C9.91529 11.9187 6.11818 11.9067 3.76751 14.239C3.74985 14.2565 3.73093 14.2726 3.71093 14.2873C3.51453 14.4592 3.21571 14.4515 3.02847 14.2642C2.8332 14.069 2.8332 13.7524 3.02847 13.5571C3.02911 13.5565 3.02994 13.5556 3.03094 13.5546C3.03965 13.5457 3.06165 13.5233 3.09527 13.4974Z" fill="#141414"/>
<path fill-rule="evenodd" clip-rule="evenodd" d="M2.34315 2.34315C3.84344 0.842855 5.87827 0 8 0C10.1217 0 12.1566 0.842855 13.6569 2.34315C15.1571 3.84344 16 5.87827 16 8C16 10.1217 15.1571 12.1566 13.6569 13.6569C12.1566 15.1571 10.1217 16 8 16C5.87827 16 3.84344 15.1571 2.34315 13.6569C0.842855 12.1566 0 10.1217 0 8C0 5.87827 0.842855 3.84344 2.34315 2.34315ZM8 1C6.14348 1 4.36301 1.7375 3.05025 3.05025C1.7375 4.36301 1 6.14348 1 8C1 9.85652 1.7375 11.637 3.05025 12.9497C4.36301 14.2625 6.14348 15 8 15C9.85652 15 11.637 14.2625 12.9497 12.9497C14.2625 11.637 15 9.85652 15 8C15 6.14348 14.2625 4.36301 12.9497 3.05025C11.637 1.7375 9.85652 1 8 1Z" fill="#141414"/>
</svg>
