<svg width="16" height="16" viewBox="0 0 16 16" fill="none" xmlns="http://www.w3.org/2000/svg">
<path fill-rule="evenodd" clip-rule="evenodd" d="M7.99997 0.499908C6.01082 0.499908 4.10315 1.29009 2.6966 2.69664C1.29006 4.10318 0.499878 6.01085 0.499878 8C0.499878 9.98915 1.29006 11.8968 2.6966 13.3034C4.10315 14.7099 6.01082 15.5001 7.99997 15.5001C9.98912 15.5001 11.8968 14.7099 13.3033 13.3034C14.7099 11.8968 15.5001 9.98915 15.5001 8C15.5001 6.01085 14.7099 4.10318 13.3033 2.69664C11.8968 1.29009 9.98912 0.499908 7.99997 0.499908ZM3.40371 3.40374C4.62272 2.18474 6.27604 1.49991 7.99997 1.49991C9.7239 1.49991 11.3772 2.18474 12.5962 3.40374C13.8152 4.62275 14.5001 6.27607 14.5001 8C14.5001 9.72394 13.8152 11.3773 12.5962 12.5963C11.3772 13.8153 9.7239 14.5001 7.99997 14.5001C6.27604 14.5001 4.62272 13.8153 3.40371 12.5963C2.18471 11.3773 1.49988 9.72394 1.49988 8C1.49988 6.27607 2.18471 4.62275 3.40371 3.40374ZM6.62861 6.06528C6.63163 6.0875 6.63319 6.11017 6.63319 6.13322C6.63319 6.40936 6.40933 6.63322 6.13319 6.63322H6.12696C5.85082 6.63322 5.62696 6.40936 5.62696 6.13322C5.62696 4.82417 6.68461 3.76653 7.99366 3.76653C9.29757 3.76653 10.3541 4.82526 10.3541 6.13322V6.13715H10.3541C10.3462 7.13545 9.7174 8.02717 8.77607 8.3594C8.7592 8.36536 8.74212 8.37037 8.72491 8.37445C8.57511 8.44768 8.48493 8.59475 8.48737 8.75122L8.48749 8.75903H8.48743V9.38126C8.48743 9.6574 8.26358 9.88126 7.98743 9.88126C7.71129 9.88126 7.48743 9.6574 7.48743 9.38126V8.76252C7.47961 8.14107 7.87856 7.60783 8.44449 7.40976C8.46467 7.40269 8.48513 7.39698 8.50576 7.3926C9.01037 7.18587 9.34894 6.68985 9.35412 6.13125C9.35307 5.37431 8.74246 4.76653 7.99366 4.76653C7.25968 4.76653 6.66382 5.34028 6.62861 6.06528ZM7.96936 10.7574C8.38775 10.7475 8.71775 11.0862 8.71775 11.4907C8.71775 11.9105 8.37977 12.2082 8.01245 12.2265C8.00414 12.2269 7.99581 12.2271 7.98748 12.2271C7.57188 12.2271 7.25722 11.8886 7.25722 11.4969C7.25722 11.1487 7.49129 10.88 7.79048 10.795C7.84573 10.7721 7.90603 10.7589 7.96936 10.7574Z" fill="#141414"/>
</svg>
