<svg width="16" height="16" viewBox="0 0 16 16" fill="none" xmlns="http://www.w3.org/2000/svg">
<path fill-rule="evenodd" clip-rule="evenodd" d="M12.8121 3.75013C10.4638 1.29429 6.56576 1.20655 4.11767 3.55976L4.11672 3.56067L4.11672 3.56067C1.81571 5.76086 1.59324 9.32247 3.5113 11.7824L3.85302 10.0655C3.90692 9.79465 4.17017 9.6188 4.441 9.6727C4.71183 9.72661 4.88768 9.98986 4.83378 10.2607L4.29537 12.9657C4.26949 13.0958 4.193 13.2103 4.08273 13.2839C3.97246 13.3576 3.83745 13.3844 3.70739 13.3585L0.885586 12.7969C0.614756 12.743 0.438903 12.4797 0.492808 12.2089C0.546713 11.9381 0.809963 11.7622 1.08079 11.8161L2.50214 12.099C0.512336 9.25551 0.841968 5.3088 3.42514 2.83836C6.27349 0.100908 10.8055 0.204841 13.5346 3.0588C16.265 5.90716 16.1611 10.4391 13.3069 13.1683L13.3064 13.1688C11.2542 15.1253 8.23124 15.692 5.6116 14.603C5.35662 14.4969 5.23584 14.2043 5.34185 13.9493C5.44785 13.6943 5.7405 13.5736 5.99548 13.6796C8.24806 14.616 10.8501 14.1289 12.6163 12.445C15.0717 10.0966 15.1593 6.19855 12.8125 3.75059L12.8121 3.75013Z" fill="#141414"/>
</svg>
