<svg width="16" height="16" viewBox="0 0 16 16" fill="none" xmlns="http://www.w3.org/2000/svg">
<path fill-rule="evenodd" clip-rule="evenodd" d="M14.0385 1.29391C14.1428 1.54957 14.0202 1.84143 13.7645 1.94579L13.5478 2.03425L15.6201 6.49547C15.6637 6.58922 15.6757 6.68953 15.6605 6.78446C15.6408 8.23707 14.4765 9.43986 13.003 9.47803L12.99 9.4782H12.9681C12.9454 9.48185 12.9221 9.48397 12.8986 9.48446C11.4088 9.51533 10.1579 8.3494 10.1107 6.85472C10.1015 6.77577 10.1034 6.69626 10.1166 6.61755C10.1268 6.55601 10.1481 6.49866 10.178 6.44738L11.9197 2.69884L8.50673 4.09206V14.0171H10.9331C11.2092 14.0171 11.4331 14.241 11.4331 14.5171C11.4331 14.7933 11.2092 15.0171 10.9331 15.0171H7.68087H6.37618H5.07784C4.8017 15.0171 4.57784 14.7933 4.57784 14.5171C4.57784 14.241 4.8017 14.0171 5.07784 14.0171H6.37618H7.50673V4.50027L3.80161 6.01273L5.85021 10.3911C5.88392 10.4632 5.89897 10.5391 5.89733 10.6136V10.7195L5.89723 10.7299C5.86597 12.238 4.60917 13.4208 3.11484 13.3896C3.08037 13.3889 3.04632 13.3846 3.0132 13.377L2.99797 13.377L2.98761 13.3769C1.47993 13.3457 0.295268 12.0887 0.334248 10.5919C0.337179 10.4793 0.377153 10.3763 0.442321 10.2942L2.12854 6.69568L1.9777 6.75726C1.72204 6.86162 1.43018 6.73897 1.32582 6.48331C1.22146 6.22765 1.34411 5.93579 1.59977 5.83142L2.89946 5.30088C2.92353 5.2887 2.94862 5.27844 2.9745 5.27025L7.50673 3.42016V2.47571C7.50673 2.19957 7.73059 1.97571 8.00673 1.97571C8.28287 1.97571 8.50673 2.19957 8.50673 2.47571V3.01195L13.3866 1.01996C13.6423 0.915594 13.9341 1.03825 14.0385 1.29391ZM11.3958 6.19975H14.3801L12.8881 2.98782L11.3958 6.19975ZM1.63536 10.1049H4.61226L3.12492 6.92609L1.63536 10.1049Z" fill="#141414"/>
</svg>
