<svg width="16" height="16" viewBox="0 0 16 16" fill="none" xmlns="http://www.w3.org/2000/svg">
<path fill-rule="evenodd" clip-rule="evenodd" d="M4.30814 1.00355C5.02377 0.707129 5.78903 0.549668 6.56305 0.539298C6.58992 0.534842 6.61727 0.532562 6.64486 0.532562C8.26513 0.532562 9.81903 1.17621 10.9647 2.32191C12.1104 3.46761 12.7541 5.02152 12.7541 6.64179C12.7541 8.09676 12.2351 9.49822 11.2995 10.5986L15.3148 14.6139C15.5101 14.8092 15.5101 15.1257 15.3148 15.321C15.1195 15.5163 14.803 15.5163 14.6077 15.321L10.5917 11.305C9.49278 12.2351 8.09542 12.751 6.64486 12.751C5.84299 12.751 5.04897 12.5931 4.30814 12.2862C3.56731 11.9794 2.89418 11.5296 2.32717 10.9626C1.76016 10.3956 1.31039 9.72243 1.00353 8.9816C0.696667 8.24077 0.538727 7.44675 0.538727 6.64488C0.538727 5.84301 0.696667 5.049 1.00353 4.30817C1.31039 3.56734 1.76016 2.8942 2.32717 2.32719C2.89418 1.76019 3.56731 1.31041 4.30814 1.00355ZM6.64486 1.53875C6.67009 1.53875 6.69512 1.53684 6.71976 1.53311C8.04772 1.55256 9.31713 2.08852 10.2576 3.02902C11.2158 3.98719 11.7541 5.28674 11.7541 6.64179C11.7541 7.99684 11.2158 9.29639 10.2576 10.2546C9.29946 11.2127 7.99991 11.751 6.64486 11.751C5.97431 11.751 5.31033 11.6189 4.69083 11.3623C4.07132 11.1057 3.50843 10.7296 3.03428 10.2555C2.56013 9.78131 2.18402 9.21842 1.92741 8.59891C1.6708 7.97941 1.53873 7.31543 1.53873 6.64488C1.53873 5.97433 1.6708 5.31035 1.92741 4.69085C2.18402 4.07135 2.56013 3.50845 3.03428 3.0343C3.50843 2.56015 4.07132 2.18404 4.69083 1.92743C5.31033 1.67082 5.97431 1.53875 6.64486 1.53875Z" fill="#141414"/>
</svg>
