<svg width="16" height="16" viewBox="0 0 16 16" fill="none" xmlns="http://www.w3.org/2000/svg">
<path d="M12.0503 10.5897C11.3317 10.5897 10.6841 10.9001 10.2347 11.3938L6.19257 8.89025C6.30049 8.61399 6.36034 8.31392 6.36034 8.00001C6.36034 7.68599 6.30049 7.38592 6.19257 7.10978L10.2347 4.60615C10.6841 5.09985 11.3317 5.41033 12.0503 5.41033C13.4042 5.41033 14.5056 4.30895 14.5056 2.95511C14.5056 1.60128 13.4042 0.500012 12.0503 0.500012C10.6965 0.500012 9.59513 1.60139 9.59513 2.95523C9.59513 3.26914 9.6551 3.5692 9.7629 3.84546L5.72085 6.34897C5.27144 5.85528 4.62393 5.5448 3.90524 5.5448C2.5514 5.5448 1.45002 6.64629 1.45002 8.00001C1.45002 9.35385 2.5514 10.4552 3.90524 10.4552C4.62393 10.4552 5.27144 10.1449 5.72085 9.65105L9.7629 12.1546C9.6551 12.4308 9.59513 12.7309 9.59513 13.0449C9.59513 14.3986 10.6965 15.5 12.0503 15.5C13.4042 15.5 14.5056 14.3986 14.5056 13.0449C14.5056 11.6911 13.4042 10.5897 12.0503 10.5897ZM10.4904 2.95523C10.4904 2.09509 11.1902 1.39528 12.0503 1.39528C12.9105 1.39528 13.6103 2.09509 13.6103 2.95523C13.6103 3.81537 12.9105 4.51517 12.0503 4.51517C11.1902 4.51517 10.4904 3.81537 10.4904 2.95523ZM3.90524 9.55996C3.04499 9.55996 2.34518 8.86015 2.34518 8.00001C2.34518 7.13987 3.04499 6.44007 3.90524 6.44007C4.76538 6.44007 5.46507 7.13987 5.46507 8.00001C5.46507 8.86015 4.76538 9.55996 3.90524 9.55996ZM10.4904 13.0448C10.4904 12.1847 11.1902 11.4849 12.0503 11.4849C12.9105 11.4849 13.6103 12.1847 13.6103 13.0448C13.6103 13.9049 12.9105 14.6047 12.0503 14.6047C11.1902 14.6047 10.4904 13.9049 10.4904 13.0448Z" fill="#161616"/>
<path fill-rule="evenodd" clip-rule="evenodd" d="M10.226 11.3296C10.6832 10.8437 11.3319 10.5397 12.0503 10.5397C13.4318 10.5397 14.5556 11.6635 14.5556 13.0449C14.5556 14.4262 13.4318 15.55 12.0503 15.55C10.6689 15.55 9.54513 14.4262 9.54513 13.0449C9.54513 12.7392 9.60084 12.4464 9.70149 12.1753L5.72955 9.71526C5.27242 10.2012 4.62369 10.5052 3.90524 10.5052C2.52379 10.5052 1.40002 9.38146 1.40002 8.00001C1.40002 6.61868 2.52379 5.4948 3.90524 5.4948C4.6237 5.4948 5.27242 5.79891 5.72955 6.28477L9.70149 3.82469C9.60084 3.55365 9.54513 3.26086 9.54513 2.95523C9.54513 1.57378 10.6689 0.450012 12.0503 0.450012C13.4318 0.450012 14.5556 1.57366 14.5556 2.95511C14.5556 4.33656 13.4318 5.46033 12.0503 5.46033C11.3319 5.46033 10.6832 5.15622 10.226 4.67036L6.254 7.13054C6.35474 7.4015 6.41034 7.69429 6.41034 8.00001C6.41034 8.30563 6.35474 8.59842 6.25399 8.86948L10.226 11.3296ZM6.19257 8.89025L10.2347 11.3938C10.6841 10.9001 11.3317 10.5897 12.0503 10.5897C13.4042 10.5897 14.5056 11.6911 14.5056 13.0449C14.5056 14.3986 13.4042 15.5 12.0503 15.5C10.6965 15.5 9.59513 14.3986 9.59513 13.0449C9.59513 12.7309 9.6551 12.4308 9.7629 12.1546L5.72085 9.65105C5.27144 10.1449 4.62393 10.4552 3.90524 10.4552C2.5514 10.4552 1.45002 9.35385 1.45002 8.00001C1.45002 6.64629 2.5514 5.5448 3.90524 5.5448C4.62393 5.5448 5.27144 5.85528 5.72085 6.34897L9.7629 3.84546C9.6551 3.5692 9.59513 3.26914 9.59513 2.95523C9.59513 1.60139 10.6965 0.500012 12.0503 0.500012C13.4042 0.500012 14.5056 1.60128 14.5056 2.95511C14.5056 4.30895 13.4042 5.41033 12.0503 5.41033C11.3317 5.41033 10.6841 5.09985 10.2347 4.60615L6.19257 7.10978C6.30049 7.38592 6.36034 7.68599 6.36034 8.00001C6.36034 8.31392 6.30049 8.61399 6.19257 8.89025ZM12.0503 1.44528C11.2178 1.44528 10.5404 2.1227 10.5404 2.95523C10.5404 3.78775 11.2178 4.46517 12.0503 4.46517C12.8829 4.46517 13.5603 3.78775 13.5603 2.95523C13.5603 2.1227 12.8829 1.44528 12.0503 1.44528ZM2.39518 8.00001C2.39518 8.83253 3.0726 9.50996 3.90524 9.50996C4.73776 9.50996 5.41507 8.83254 5.41507 8.00001C5.41507 7.16748 4.73776 6.49007 3.90524 6.49007C3.0726 6.49007 2.39518 7.16749 2.39518 8.00001ZM12.0503 11.5349C11.2178 11.5349 10.5404 12.2123 10.5404 13.0448C10.5404 13.8773 11.2178 14.5547 12.0503 14.5547C12.8829 14.5547 13.5603 13.8773 13.5603 13.0448C13.5603 12.2123 12.8829 11.5349 12.0503 11.5349ZM12.0503 1.39528C11.1902 1.39528 10.4904 2.09509 10.4904 2.95523C10.4904 3.81537 11.1902 4.51517 12.0503 4.51517C12.9105 4.51517 13.6103 3.81537 13.6103 2.95523C13.6103 2.09509 12.9105 1.39528 12.0503 1.39528ZM2.34518 8.00001C2.34518 8.86015 3.04499 9.55996 3.90524 9.55996C4.76538 9.55996 5.46507 8.86015 5.46507 8.00001C5.46507 7.13987 4.76538 6.44007 3.90524 6.44007C3.04499 6.44007 2.34518 7.13987 2.34518 8.00001ZM12.0503 11.4849C11.1902 11.4849 10.4904 12.1847 10.4904 13.0448C10.4904 13.9049 11.1902 14.6047 12.0503 14.6047C12.9105 14.6047 13.6103 13.9049 13.6103 13.0448C13.6103 12.1847 12.9105 11.4849 12.0503 11.4849Z" fill="#161616"/>
</svg>
