<svg width="16" height="16" viewBox="0 0 16 16" fill="none" xmlns="http://www.w3.org/2000/svg">
<g clip-path="url(#clip0_3726_13045)">
<path d="M3 2.5C3 1.39543 3.89543 0.5 5 0.5H11C12.1046 0.5 13 1.39543 13 2.5V13.5C13 14.6046 12.1046 15.5 11 15.5H5C3.89543 15.5 3 14.6046 3 13.5V2.5Z" fill="#F1EDF7"/>
<path fill-rule="evenodd" clip-rule="evenodd" d="M11 1.5H5C4.44772 1.5 4 1.94772 4 2.5V13.5C4 14.0523 4.44772 14.5 5 14.5H11C11.5523 14.5 12 14.0523 12 13.5V2.5C12 1.94772 11.5523 1.5 11 1.5ZM5 0.5C3.89543 0.5 3 1.39543 3 2.5V13.5C3 14.6046 3.89543 15.5 5 15.5H11C12.1046 15.5 13 14.6046 13 13.5V2.5C13 1.39543 12.1046 0.5 11 0.5H5Z" fill="#522974"/>
<path d="M6 1.5H10C10 2.05228 9.55228 2.5 9 2.5H7C6.44772 2.5 6 2.05228 6 1.5Z" fill="#522974"/>
<path d="M6 13C6 12.7239 6.22386 12.5 6.5 12.5H9.5C9.77614 12.5 10 12.7239 10 13C10 13.2761 9.77614 13.5 9.5 13.5H6.5C6.22386 13.5 6 13.2761 6 13Z" fill="#522974"/>
</g>
<defs>
<clipPath id="clip0_3726_13045">
<rect width="16" height="16" fill="white" transform="translate(0.0150146)"/>
</clipPath>
</defs>
</svg>
