<svg width="16" height="16" viewBox="0 0 16 16" fill="none" xmlns="http://www.w3.org/2000/svg">
<path fill-rule="evenodd" clip-rule="evenodd" d="M8 0C5.87827 0 3.84344 0.842855 2.34315 2.34315C0.842855 3.84344 0 5.87827 0 8C0 10.1217 0.842855 12.1566 2.34315 13.6569C3.84344 15.1571 5.87827 16 8 16C10.1217 16 12.1566 15.1571 13.6569 13.6569C15.1571 12.1566 16 10.1217 16 8C16 5.87827 15.1571 3.84344 13.6569 2.34315C12.1566 0.842855 10.1217 0 8 0ZM3.05025 3.05025C4.36301 1.7375 6.14349 1 8 1C9.85652 1 11.637 1.7375 12.9497 3.05025C14.2625 4.36301 15 6.14349 15 8C15 9.85652 14.2625 11.637 12.9497 12.9497C11.637 14.2625 9.85652 15 8 15C6.14349 15 4.36301 14.2625 3.05025 12.9497C1.7375 11.637 1 9.85652 1 8C1 6.14349 1.7375 4.36301 3.05025 3.05025ZM10.8284 5.17156C11.0237 5.36683 11.001 5.70612 10.7777 5.92939L8.70712 7.99999L10.7777 10.0706C11.001 10.2939 11.0237 10.6332 10.8284 10.8284C10.6332 11.0237 10.2939 11.001 10.0706 10.7777L8.00002 8.7071L5.92942 10.7777C5.70614 11.001 5.36685 11.0237 5.17159 10.8284C4.97633 10.6332 4.99904 10.2939 5.22231 10.0706L7.29291 7.99999L5.22232 5.92939C4.99904 5.70612 4.97633 5.36683 5.17159 5.17156C5.36686 4.9763 5.70615 4.99901 5.92942 5.22229L8.00002 7.29288L10.0706 5.22229C10.2939 4.99901 10.6332 4.9763 10.8284 5.17156Z" fill="black"/>
</svg>
