<?xml version="1.0" encoding="UTF-8"?>
<svg xmlns="http://www.w3.org/2000/svg" xmlns:xlink="http://www.w3.org/1999/xlink" width="16px" height="16px" viewBox="0 0 16 16" version="1.1">
<g id="surface1">
<path style=" stroke:none;fill-rule:nonzero;fill:rgb(0%,0%,0%);fill-opacity:1;" d="M 5 3 L 4.5 3 L 4.5 1.5 C 4.5 1.222656 4.277344 1 4 1 C 3.722656 1 3.5 1.222656 3.5 1.5 L 3.5 3 L 3 3 C 2.722656 3 2.5 3.222656 2.5 3.5 L 2.5 9.5 C 2.5 9.777344 2.722656 10 3 10 L 3.5 10 L 3.5 12.5 C 3.5 12.777344 3.722656 13 4 13 C 4.277344 13 4.5 12.777344 4.5 12.5 L 4.5 10 L 5 10 C 5.277344 10 5.5 9.777344 5.5 9.5 L 5.5 3.5 C 5.5 3.222656 5.277344 3 5 3 Z M 4.5 9 L 3.5 9 L 3.5 4 L 4.5 4 Z M 4.5 9 "/>
<path style=" stroke:none;fill-rule:nonzero;fill:rgb(0%,0%,0%);fill-opacity:1;" d="M 9 5 L 8.5 5 L 8.5 3.5 C 8.5 3.222656 8.277344 3 8 3 C 7.722656 3 7.5 3.222656 7.5 3.5 L 7.5 5 L 7 5 C 6.722656 5 6.5 5.222656 6.5 5.5 L 6.5 11.5 C 6.5 11.777344 6.722656 12 7 12 L 7.5 12 L 7.5 14.5 C 7.5 14.777344 7.722656 15 8 15 C 8.277344 15 8.5 14.777344 8.5 14.5 L 8.5 12 L 9 12 C 9.277344 12 9.5 11.777344 9.5 11.5 L 9.5 5.5 C 9.5 5.222656 9.277344 5 9 5 Z M 8.5 11 L 7.5 11 L 7.5 6 L 8.5 6 Z M 8.5 11 "/>
<path style=" stroke:none;fill-rule:nonzero;fill:rgb(0%,0%,0%);fill-opacity:1;" d="M 13 3 L 12.5 3 L 12.5 1.5 C 12.5 1.222656 12.277344 1 12 1 C 11.722656 1 11.5 1.222656 11.5 1.5 L 11.5 3 L 11 3 C 10.722656 3 10.5 3.222656 10.5 3.5 L 10.5 9.5 C 10.5 9.777344 10.722656 10 11 10 L 11.5 10 L 11.5 12.5 C 11.5 12.777344 11.722656 13 12 13 C 12.277344 13 12.5 12.777344 12.5 12.5 L 12.5 10 L 13 10 C 13.277344 10 13.5 9.777344 13.5 9.5 L 13.5 3.5 C 13.5 3.222656 13.277344 3 13 3 Z M 12.5 9 L 11.5 9 L 11.5 4 L 12.5 4 Z M 12.5 9 "/>
</g>
</svg>
