<svg width="20" height="13" viewBox="0 0 20 13" fill="none" xmlns="http://www.w3.org/2000/svg">
<path fill-rule="evenodd" clip-rule="evenodd" d="M8.125 9C8.125 8.65482 8.40482 8.375 8.75 8.375H19.375C19.7202 8.375 20 8.65482 20 9C20 9.34518 19.7202 9.625 19.375 9.625H8.75C8.40482 9.625 8.125 9.34518 8.125 9Z" fill="#141313"/>
<path fill-rule="evenodd" clip-rule="evenodd" d="M16.4331 6.05806C16.6771 5.81398 17.0729 5.81398 17.3169 6.05806L19.8169 8.55806C20.061 8.80214 20.061 9.19786 19.8169 9.44194L17.3169 11.9419C17.0729 12.186 16.6771 12.186 16.4331 11.9419C16.189 11.6979 16.189 11.3021 16.4331 11.0581L18.4911 9L16.4331 6.94194C16.189 6.69786 16.189 6.30214 16.4331 6.05806Z" fill="#141313"/>
<path fill-rule="evenodd" clip-rule="evenodd" d="M0 4C0 3.65482 0.279822 3.375 0.625 3.375H11.25C11.5952 3.375 11.875 3.65482 11.875 4C11.875 4.34518 11.5952 4.625 11.25 4.625H0.625C0.279822 4.625 0 4.34518 0 4Z" fill="#141313"/>
<path fill-rule="evenodd" clip-rule="evenodd" d="M3.56694 1.05806C3.81102 1.30214 3.81102 1.69786 3.56694 1.94194L1.50888 4L3.56694 6.05806C3.81102 6.30214 3.81102 6.69786 3.56694 6.94194C3.32286 7.18602 2.92714 7.18602 2.68306 6.94194L0.183058 4.44194C-0.0610194 4.19786 -0.0610194 3.80214 0.183058 3.55806L2.68306 1.05806C2.92714 0.813981 3.32286 0.813981 3.56694 1.05806Z" fill="#141313"/>
</svg>
