<svg width="48" height="48" viewBox="0 0 48 48" fill="none" xmlns="http://www.w3.org/2000/svg">
<path fill-rule="evenodd" clip-rule="evenodd" d="M6.33606 7.92448C6.6201 7.61571 7.02046 7.44 7.44001 7.44H40.44C40.859 7.44 41.2589 7.61523 41.5428 7.92327C41.8268 8.23131 41.969 8.64408 41.9351 9.06167L39.2251 42.3617C39.2219 42.401 39.2172 42.4398 39.211 42.4781C38.9449 44.7271 37.0288 46.46 34.73 46.46H13.22C10.8655 46.46 8.90813 44.6668 8.72485 42.3205L8.72443 42.315L5.94522 9.06494C5.91027 8.64686 6.05202 8.23325 6.33606 7.92448Z" fill="#FBEBEB"/>
<path fill-rule="evenodd" clip-rule="evenodd" d="M1.5 9C1.5 8.17157 2.17157 7.5 3 7.5H45C45.8284 7.5 46.5 8.17157 46.5 9C46.5 9.82843 45.8284 10.5 45 10.5H3C2.17157 10.5 1.5 9.82843 1.5 9Z" fill="#B50B0B"/>
<path fill-rule="evenodd" clip-rule="evenodd" d="M14.98 6C14.98 3.51157 16.9916 1.5 19.48 1.5H28.5C28.5102 1.5 28.5204 1.5001 28.5305 1.5003C30.9374 1.52821 32.9261 3.47172 32.977 5.90438C32.979 5.936 32.98 5.96788 32.98 6V9C32.98 9.82843 32.3084 10.5 31.48 10.5H16.48C15.6516 10.5 14.98 9.82843 14.98 9V6ZM29.98 6.07811V7.5H17.98V6C17.98 5.16843 18.6484 4.5 19.48 4.5H28.478C29.2961 4.5 29.978 5.17492 29.978 6C29.978 6.0262 29.9787 6.05224 29.98 6.07811Z" fill="#B50B0B"/>
<path fill-rule="evenodd" clip-rule="evenodd" d="M19.5 18C20.3284 18 21 18.6716 21 19.5V34.5C21 35.3284 20.3284 36 19.5 36C18.6716 36 18 35.3284 18 34.5V19.5C18 18.6716 18.6716 18 19.5 18Z" fill="#B50B0B"/>
<path fill-rule="evenodd" clip-rule="evenodd" d="M28.5 18C29.3284 18 30 18.6716 30 19.5V34.5C30 35.3284 29.3284 36 28.5 36C27.6716 36 27 35.3284 27 34.5V19.5C27 18.6716 27.6716 18 28.5 18Z" fill="#B50B0B"/>
<path fill-rule="evenodd" clip-rule="evenodd" d="M6.33606 7.92448C6.6201 7.61571 7.02046 7.44 7.44001 7.44H40.44C40.859 7.44 41.2589 7.61523 41.5428 7.92327C41.8268 8.23131 41.969 8.64408 41.9351 9.06167L39.2251 42.3617C39.2219 42.401 39.2172 42.4398 39.211 42.4781C38.9449 44.7271 37.0288 46.46 34.73 46.46H13.22C10.8655 46.46 8.90813 44.6668 8.72485 42.3205C8.72471 42.3187 8.72457 42.3169 8.72443 42.315L5.94522 9.06494C5.91027 8.64686 6.05202 8.23325 6.33606 7.92448ZM36.2423 42.0286L38.813 10.44H9.07061L11.7156 42.085C11.7749 42.856 12.4163 43.46 13.22 43.46H34.73C35.5097 43.46 36.166 42.8561 36.2362 42.0842C36.2379 42.0656 36.2399 42.047 36.2423 42.0286Z" fill="#B50B0B"/>
</svg>
