<svg width="15" height="15" viewBox="0 0 15 15" fill="none" xmlns="http://www.w3.org/2000/svg">
<path fill-rule="evenodd" clip-rule="evenodd" d="M13.4934 8.988L13.4987 8.98798C14.32 8.98798 15 9.65693 15 10.4893V13.492C15 14.3101 14.331 14.9845 13.5147 14.9932C13.5116 14.9933 13.5085 14.9933 13.5053 14.9933H1.49473C0.67353 14.9933 -0.00815974 14.3172 7.38119e-05 13.4892V10.5026C7.38119e-05 9.67244 0.671191 9.00132 1.5014 9.00132H4.07568C4.25464 9.00132 4.41998 9.09688 4.50931 9.25195C4.81994 9.79116 5.2639 10.24 5.80477 10.5483L5.80544 10.5487C7.46736 11.4992 9.59038 10.9216 10.5407 9.25998C10.6444 9.07862 10.8486 8.98241 11.0514 9.01383L13.4934 8.988ZM11.2518 10.0127C9.96193 11.9561 7.36266 12.5921 5.30887 11.4177C4.69551 11.0681 4.18188 10.5806 3.79732 10.0022H1.5014C1.22396 10.0022 1.00096 10.2252 1.00096 10.5026V13.4986C1.00096 13.5013 1.00094 13.504 1.0009 13.5066C1.00255 13.7678 1.22567 13.9924 1.49473 13.9924H13.4987C13.7694 13.9924 13.9991 13.7627 13.9991 13.492V10.4893C13.9991 10.2148 13.7728 9.99007 13.5009 9.98887L11.2518 10.0127Z" fill="#141313"/>
<path fill-rule="evenodd" clip-rule="evenodd" d="M7.52681 0.00671387C7.8032 0.00671387 8.02725 0.23077 8.02725 0.507156V7.51335C8.02725 7.78973 7.8032 8.01379 7.52681 8.01379C7.25042 8.01379 7.02637 7.78973 7.02637 7.51335V0.507156C7.02637 0.23077 7.25042 0.00671387 7.52681 0.00671387Z" fill="#141313"/>
<path fill-rule="evenodd" clip-rule="evenodd" d="M7.21422 0.116376C7.39699 -0.0298403 7.6567 -0.0298403 7.83947 0.116376L10.3417 2.11815C10.5575 2.2908 10.5925 2.60573 10.4198 2.82155C10.2472 3.03737 9.93225 3.07236 9.71643 2.89971L7.52684 1.14804L5.33725 2.89971C5.12143 3.07236 4.80651 3.03737 4.63385 2.82155C4.46119 2.60573 4.49619 2.2908 4.71201 2.11815L7.21422 0.116376Z" fill="#141313"/>
</svg>
