<svg width="19" height="19" viewBox="0 0 19 19" fill="none" xmlns="http://www.w3.org/2000/svg">
<path fill-rule="evenodd" clip-rule="evenodd" d="M16.9851 11.3584L16.9917 11.3583C18.0175 11.3583 18.8667 12.1938 18.8667 13.2333V16.9833C18.8667 18.0052 18.0312 18.8473 17.0117 18.8582C17.0079 18.8583 17.004 18.8583 17.0001 18.8583H2.00006C0.974469 18.8583 0.12311 18.014 0.133393 16.9799V13.25C0.133393 12.2132 0.971548 11.375 2.00839 11.375H5.22339C5.4469 11.375 5.65339 11.4944 5.76496 11.688C6.1529 12.3614 6.70736 12.922 7.38285 13.307L7.38369 13.3075C9.45925 14.4945 12.1107 13.7732 13.2975 11.698C13.4271 11.4715 13.682 11.3514 13.9354 11.3906L16.9851 11.3584ZM14.1856 12.6381C12.5747 15.0652 9.32849 15.8595 6.76352 14.3928C5.9975 13.9561 5.35603 13.3473 4.87576 12.625H2.00839C1.6619 12.625 1.38339 12.9035 1.38339 13.25V16.9917C1.38339 16.995 1.38337 16.9983 1.38332 17.0016C1.38538 17.3278 1.66403 17.6083 2.00006 17.6083H16.9917C17.3299 17.6083 17.6167 17.3215 17.6167 16.9833V13.2333C17.6167 12.8905 17.3341 12.6098 16.9945 12.6083L14.1856 12.6381Z" fill="#141313"/>
<path fill-rule="evenodd" clip-rule="evenodd" d="M9.53345 0.141663C9.87863 0.141663 10.1584 0.421485 10.1584 0.766663V9.51666C10.1584 9.86184 9.87863 10.1417 9.53345 10.1417C9.18827 10.1417 8.90845 9.86184 8.90845 9.51666V0.766663C8.90845 0.421485 9.18827 0.141663 9.53345 0.141663Z" fill="#141313"/>
<path fill-rule="evenodd" clip-rule="evenodd" d="M9.14304 0.27862C9.3713 0.0960103 9.69564 0.0960103 9.9239 0.27862L13.0489 2.77862C13.3184 2.99425 13.3621 3.38756 13.1465 3.6571C12.9309 3.92664 12.5376 3.97034 12.268 3.75471L9.53347 1.56705L6.7989 3.75471C6.52937 3.97034 6.13606 3.92664 5.92043 3.6571C5.7048 3.38756 5.7485 2.99425 6.01804 2.77862L9.14304 0.27862Z" fill="#141313"/>
</svg>
