<svg width="16" height="16" viewBox="0 0 16 16" fill="none" xmlns="http://www.w3.org/2000/svg">
<path fill-rule="evenodd" clip-rule="evenodd" d="M13.9667 9.47334C14.7873 9.47334 15.4667 10.1417 15.4667 10.9733V13.9733C15.4667 14.7908 14.7982 15.4645 13.9827 15.4733C13.9796 15.4733 13.9764 15.4733 13.9733 15.4733H1.97333C1.15285 15.4733 0.471767 14.7978 0.479993 13.9706V10.9867C0.479993 10.1572 1.15052 9.48668 1.97999 9.48668H4.55199C4.7308 9.48668 4.89599 9.58215 4.98524 9.73709C5.2956 10.2758 5.73917 10.7243 6.27956 11.0323C7.94001 11.9819 10.0618 11.4052 11.0113 9.74511C11.1149 9.56391 11.3189 9.46778 11.5216 9.49917L13.9667 9.47334ZM11.7217 10.4971C10.4331 12.4388 7.83614 13.0742 5.78417 11.9009C5.17132 11.5516 4.65812 11.0646 4.27389 10.4867H1.97999C1.7028 10.4867 1.47999 10.7095 1.47999 10.9867V13.98C1.47999 13.9827 1.47997 13.9853 1.47993 13.988C1.48158 14.2489 1.7045 14.4733 1.97333 14.4733H13.9667C14.2372 14.4733 14.4667 14.2439 14.4667 13.9733V10.9733C14.4667 10.6991 14.2406 10.4745 13.9688 10.4733L11.7217 10.4971Z" fill="#141414"/>
<path fill-rule="evenodd" clip-rule="evenodd" d="M8 0.5C8.27614 0.5 8.5 0.723858 8.5 1V8C8.5 8.27614 8.27614 8.5 8 8.5C7.72386 8.5 7.5 8.27614 7.5 8V1C7.5 0.723858 7.72386 0.5 8 0.5Z" fill="#141414"/>
<path fill-rule="evenodd" clip-rule="evenodd" d="M7.68767 0.609566C7.87028 0.463478 8.12976 0.463478 8.31237 0.609566L10.8124 2.60957C11.028 2.78207 11.063 3.09672 10.8905 3.31235C10.7179 3.52798 10.4033 3.56294 10.1877 3.39043L8.00002 1.64031L5.81237 3.39043C5.59674 3.56294 5.28209 3.52798 5.10958 3.31235C4.93708 3.09672 4.97204 2.78207 5.18767 2.60957L7.68767 0.609566Z" fill="#141414"/>
</svg>
