<svg width="16" height="16" viewBox="0 0 16 16" fill="none" xmlns="http://www.w3.org/2000/svg">
<g clip-path="url(#clip0)">
<path fill-rule="evenodd" clip-rule="evenodd" d="M7.77948 2.28251C8.9369 0.15888 11.6012 -0.625149 13.7253 0.539689C13.7673 0.562709 13.8058 0.59158 13.8396 0.625437L13.8464 0.632171C14.0434 0.829282 14.0436 1.14878 13.8467 1.34608L11.7651 3.43209V4.29399H12.627L14.5371 2.3879C14.566 2.28543 14.6272 2.19161 14.7173 2.12299C14.9161 1.97152 15.1959 1.98829 15.3752 2.16243L15.4217 2.20756C15.4966 2.2803 15.5465 2.37388 15.5659 2.475C16.0781 3.5311 16.1422 4.75639 15.7485 5.86573L15.7474 5.86893L15.7474 5.86892C14.9639 8.03075 12.6466 9.20377 10.4666 8.60419L3.71624 15.3611L3.71607 15.3613C2.86688 16.2105 1.48299 16.2131 0.637886 15.368C-0.2116 14.5185 -0.214275 13.1332 0.639741 12.288C0.655784 12.2721 0.67278 12.2574 0.690593 12.2439L7.39856 5.55024C7.09403 4.45896 7.23155 3.28168 7.77948 2.28251ZM9.89621 7.74583L3.00175 14.647C2.54442 15.1043 1.80016 15.1016 1.3522 14.6537C0.908213 14.2097 0.898065 13.496 1.3127 13.045C1.32871 13.0325 1.34403 13.019 1.35856 13.0045L8.33027 6.04763C8.46932 5.90887 8.51531 5.70208 8.44818 5.51747C8.12143 4.6189 8.20242 3.61186 8.66551 2.76775L8.66622 2.76645C9.44452 1.33786 11.1093 0.697358 12.6074 1.15787L10.9025 2.8664C10.808 2.9611 10.7549 3.08941 10.7549 3.22318V4.79909C10.7549 5.07805 10.981 5.30419 11.26 5.30419H12.8359C12.9697 5.30419 13.098 5.25112 13.1927 5.15663L14.8705 3.48232C15.0546 4.14744 15.0321 4.86301 14.797 5.52644C14.1638 7.27067 12.2307 8.17791 10.4865 7.55163C10.268 7.47318 10.0248 7.55385 9.89621 7.74583Z" fill="#141414"/>
</g>
<defs>
<clipPath id="clip0">
<rect width="16" height="16" fill="white"/>
</clipPath>
</defs>
</svg>
