<svg width="16" height="16" viewBox="0 0 16 16" fill="none" xmlns="http://www.w3.org/2000/svg">
<path fill-rule="evenodd" clip-rule="evenodd" d="M7.94897 1C8.22512 1 8.44897 1.22386 8.44897 1.5V14.6995C8.44897 14.9756 8.22512 15.1995 7.94897 15.1995C7.67283 15.1995 7.44897 14.9756 7.44897 14.6995V1.5C7.44897 1.22386 7.67283 1 7.94897 1Z" fill="black"/>
<path fill-rule="evenodd" clip-rule="evenodd" d="M2.64645 9.39663C2.84171 9.20137 3.15829 9.20137 3.35355 9.39663L7.94982 13.9929L12.5461 9.39663C12.7413 9.20137 13.0579 9.20137 13.2532 9.39663C13.4484 9.59189 13.4484 9.90847 13.2532 10.1037L8.30337 15.0536C8.10811 15.2488 7.79152 15.2488 7.59626 15.0536L2.64645 10.1037C2.45118 9.90847 2.45118 9.59189 2.64645 9.39663Z" fill="black"/>
</svg>
