<svg width="16" height="16" viewBox="0 0 16 16" fill="none" xmlns="http://www.w3.org/2000/svg">
<path fill-rule="evenodd" clip-rule="evenodd" d="M14.0051 4.04844C14.1968 4.24722 14.191 4.56375 13.9922 4.75543L6.96264 11.5339C6.85813 11.6559 6.73845 11.7539 6.63876 11.8278C6.63101 11.8336 6.6231 11.8391 6.61504 11.8444C5.9053 12.3095 4.94015 12.1348 4.4535 11.446L1.95301 8.07026C1.78865 7.84836 1.83529 7.53523 2.05719 7.37087C2.27909 7.2065 2.59222 7.25315 2.75658 7.47505L5.26882 10.8667C5.43542 11.1049 5.78778 11.1824 6.05588 11.015C6.12665 10.9616 6.17716 10.9154 6.2091 10.8762C6.22167 10.8608 6.23514 10.8462 6.24944 10.8324L13.2981 4.03558C13.4969 3.8439 13.8134 3.84966 14.0051 4.04844Z" fill="#141414"/>
</svg>
