<svg width="16" height="16" viewBox="0 0 16 16" fill="none" xmlns="http://www.w3.org/2000/svg">
<g clip-path="url(#clip0)">
<path fill-rule="evenodd" clip-rule="evenodd" d="M2.34315 2.34315C3.84344 0.842855 5.87827 0 8 0C10.1217 0 12.1566 0.842855 13.6569 2.34315C15.1571 3.84344 16 5.87827 16 8C16 10.1217 15.1571 12.1566 13.6569 13.6569C12.1566 15.1571 10.1217 16 8 16C5.87827 16 3.84344 15.1571 2.34315 13.6569C0.842855 12.1566 0 10.1217 0 8C0 5.87827 0.842855 3.84344 2.34315 2.34315ZM8 1C6.14348 1 4.36301 1.7375 3.05025 3.05025C1.7375 4.36301 1 6.14348 1 8C1 9.85652 1.7375 11.637 3.05025 12.9497C4.36301 14.2625 6.14348 15 8 15C9.85652 15 11.637 14.2625 12.9497 12.9497C14.2625 11.637 15 9.85652 15 8C15 6.14348 14.2625 4.36301 12.9497 3.05025C11.637 1.7375 9.85652 1 8 1Z" fill="#141414"/>
<path fill-rule="evenodd" clip-rule="evenodd" d="M11.6535 5.75294C11.8452 5.95172 11.8394 6.26825 11.6406 6.45993L7.54209 10.412C7.4683 10.4965 7.38761 10.5616 7.32571 10.6075C7.31796 10.6133 7.31005 10.6188 7.30199 10.6241C6.79642 10.9554 6.10779 10.8335 5.75718 10.3395L4.29823 8.36985C4.13387 8.14795 4.18051 7.83482 4.40241 7.67046C4.62431 7.5061 4.93743 7.55274 5.1018 7.77464L6.57231 9.7599C6.58753 9.78166 6.61386 9.80061 6.65084 9.80749C6.68388 9.81364 6.71677 9.8085 6.74475 9.79316C6.77351 9.77083 6.78624 9.75753 6.78975 9.75323C6.80232 9.73783 6.81578 9.7232 6.83009 9.70941L10.9465 5.74008C11.1453 5.5484 11.4618 5.55416 11.6535 5.75294Z" fill="#141414"/>
</g>
<defs>
<clipPath id="clip0">
<rect width="16" height="16" fill="white"/>
</clipPath>
</defs>
</svg>
