<svg width="16" height="16" viewBox="0 0 16 16" fill="none" xmlns="http://www.w3.org/2000/svg">
<path fill-rule="evenodd" clip-rule="evenodd" d="M0.583901 1.72381C0.627022 1.23002 1.03649 0.848114 1.54228 0.848114C1.55067 0.848114 1.55902 0.848321 1.56732 0.84873H14.4572C14.4576 0.84873 14.4583 0.848723 14.4591 0.848713C14.4701 0.848585 14.5145 0.848066 14.5742 0.860397C15.0863 0.917256 15.4423 1.36442 15.4255 1.85817C15.4247 1.95354 15.3968 2.0441 15.3481 2.12113C15.0084 5.17458 12.8179 7.70455 9.85531 8.48463V12.6278C9.86356 12.8953 9.75451 13.1346 9.58892 13.3086C9.5673 13.3362 9.54264 13.3618 9.5152 13.3846L7.66957 14.9226C7.66899 14.9231 7.66841 14.9236 7.66783 14.9241C7.49419 15.0703 7.28271 15.1394 7.08636 15.151C7.07658 15.1516 7.06679 15.1518 7.057 15.1518C6.52646 15.1518 6.09487 14.729 6.09487 14.1959C6.09487 14.1693 6.09697 14.1432 6.10103 14.1175V8.51654C3.03613 7.70897 0.803331 5.0455 0.575262 1.85888C0.571961 1.81275 0.575067 1.7674 0.583901 1.72381ZM1.57902 1.86856C1.81795 4.70752 3.89717 7.05278 6.70194 7.63073C6.93431 7.67861 7.10103 7.88319 7.10103 8.12044V14.0947L8.8253 12.6578C8.83484 12.6474 8.84484 12.6372 8.85531 12.6276V8.16796C8.85386 8.15871 8.85264 8.14938 8.85169 8.13997C8.82586 7.88462 8.99755 7.65118 9.249 7.59977C12.0431 7.0285 14.1267 4.68318 14.3702 1.84873H1.57996C1.57978 1.85537 1.57946 1.86198 1.57902 1.86856Z" fill="#141414"/>
</svg>
