<svg width="16" height="16" viewBox="0 0 16 16" fill="none" xmlns="http://www.w3.org/2000/svg">
<path d="M9.03151 15.0402H1.91374H1.90748C1.3883 15.034 0.969203 14.6149 0.969203 14.102V1.90436C0.962948 1.38518 1.3883 0.959831 1.90123 0.959831H14.0988H14.0926C14.6055 0.953576 15.0309 1.37893 15.0309 1.89811V9.01025V9.004C15.0309 9.24795 14.9308 9.48565 14.7556 9.66705L9.67517 14.7463V14.74C9.49377 14.9151 9.25607 15.009 9.00586 15.009L9.03151 15.0402Z" fill="#F1EDF7"/>
<path fill-rule="evenodd" clip-rule="evenodd" d="M14.1064 1.45978C14.1039 1.45981 14.1014 1.45983 14.0988 1.45983H1.90123C1.66544 1.45983 1.46628 1.659 1.46917 1.89834L1.46924 1.90436L1.4692 14.102C1.4692 14.3294 1.65574 14.5281 1.91101 14.5324H9.00587C9.09894 14.5324 9.21777 14.4866 9.32787 14.3803C9.34189 14.3668 9.35655 14.3542 9.37179 14.3425L14.3985 9.31709C14.4874 9.2237 14.5309 9.10967 14.5309 9.004V1.89811C14.5309 1.65444 14.3319 1.46141 14.1064 1.45978ZM15.5309 1.89811C15.5309 1.10732 14.8855 0.451998 14.0899 0.459832H1.90123C1.11226 0.459832 0.461423 1.10956 0.469204 1.90706V14.102C0.469204 14.8997 1.11964 15.523 1.90146 15.5324L9.00587 15.5324C9.38007 15.5324 9.71142 15.3731 9.95877 15.1581C9.9835 15.141 10.0069 15.1216 10.0287 15.0999L15.1091 10.0206L15.1153 10.0143C15.3714 9.74914 15.5265 9.39517 15.5308 9.01979C15.5308 9.01662 15.5309 9.01344 15.5309 9.01025V1.89811Z" fill="#522974"/>
<path fill-rule="evenodd" clip-rule="evenodd" d="M10.1209 9.86336C9.87872 9.86336 9.67425 10.0678 9.67721 10.3137L9.67729 10.3197H9.67725V14.9874C9.67725 15.2636 9.45339 15.4874 9.17725 15.4874C8.90111 15.4874 8.67725 15.2636 8.67725 14.9874V10.3224C8.66939 9.51841 9.32555 8.86336 10.1209 8.86336H14.9196C15.1958 8.86336 15.4196 9.08722 15.4196 9.36336C15.4196 9.6395 15.1958 9.86336 14.9196 9.86336H10.1209Z" fill="#522974"/>
</svg>
