<svg width="16" height="16" viewBox="0 0 16 16" fill="none" xmlns="http://www.w3.org/2000/svg">
<path fill-rule="evenodd" clip-rule="evenodd" d="M7.99997 0.499908C6.01082 0.499908 4.10315 1.29009 2.6966 2.69664C1.29006 4.10318 0.499878 6.01085 0.499878 8C0.499878 9.98915 1.29006 11.8968 2.6966 13.3034C4.10315 14.7099 6.01082 15.5001 7.99997 15.5001C9.98912 15.5001 11.8968 14.7099 13.3033 13.3034C14.7099 11.8968 15.5001 9.98915 15.5001 8C15.5001 6.01085 14.7099 4.10318 13.3033 2.69664C11.8968 1.29009 9.98912 0.499908 7.99997 0.499908ZM3.40371 3.40374C4.62272 2.18474 6.27604 1.49991 7.99997 1.49991C9.7239 1.49991 11.3772 2.18474 12.5962 3.40374C13.8152 4.62275 14.5001 6.27607 14.5001 8C14.5001 9.72394 13.8152 11.3773 12.5962 12.5963C11.3772 13.8153 9.7239 14.5001 7.99997 14.5001C6.27604 14.5001 4.62272 13.8153 3.40371 12.5963C2.18471 11.3773 1.49988 9.72394 1.49988 8C1.49988 6.27607 2.18471 4.62275 3.40371 3.40374ZM11.2414 8.57675C11.6341 8.29769 11.6341 7.71458 11.2414 7.43553L7.08311 4.48073C6.61963 4.15139 5.97764 4.48276 5.97764 5.05134L5.97764 10.9609C5.97764 11.5295 6.61963 11.8609 7.08311 11.5315L11.2414 8.57675Z" fill="#141414"/>
</svg>
