<svg width="16" height="16" viewBox="0 0 16 16" fill="none" xmlns="http://www.w3.org/2000/svg">
<path fill-rule="evenodd" clip-rule="evenodd" d="M3.09038 7.47751L4.05247 6.70006C4.26725 6.5265 4.58206 6.55992 4.75562 6.7747C4.92919 6.98948 4.89577 7.30429 4.68099 7.47785L2.82489 8.97773C2.72175 9.06108 2.58972 9.10004 2.45786 9.08604C2.32599 9.07204 2.20508 9.00623 2.12174 8.90309L0.621862 7.047C0.448301 6.83222 0.481717 6.5174 0.696499 6.34384C0.911281 6.17028 1.22609 6.2037 1.39966 6.41848L2.10389 7.28997C2.45793 3.91466 5.30809 1.28885 8.77805 1.28885C12.4812 1.28885 15.4892 4.28988 15.4892 8.00003C15.4892 11.7035 12.4815 14.7112 8.77805 14.7112C8.50191 14.7112 8.27805 14.4873 8.27805 14.2112C8.27805 13.9351 8.50191 13.7112 8.77805 13.7112C11.9292 13.7112 14.4892 11.1512 14.4892 8.00003C14.4892 4.84284 11.9295 2.28885 8.77805 2.28885C5.79669 2.28885 3.3537 4.5655 3.09038 7.47751Z" fill="#141414"/>
</svg>
