<svg width="16" height="16" viewBox="0 0 16 16" fill="none" xmlns="http://www.w3.org/2000/svg">
<path fill-rule="evenodd" clip-rule="evenodd" d="M7.99997 0.499908C7.86736 0.499908 7.74019 0.552587 7.64642 0.646355C7.55265 0.740123 7.49997 0.8673 7.49997 0.999908V2.5C7.49997 2.77614 7.72383 3 7.99997 3C8.27611 3 8.49997 2.77614 8.49997 2.5V1.51915C10.041 1.63798 11.4956 2.30314 12.5962 3.40374C13.8152 4.62275 14.5001 6.27607 14.5001 8C14.5001 9.72393 13.8152 11.3773 12.5962 12.5963C11.3772 13.8153 9.7239 14.5001 7.99997 14.5001C6.27604 14.5001 4.62272 13.8153 3.40371 12.5963C2.18471 11.3773 1.49988 9.72393 1.49988 8C1.49988 6.61137 1.94422 5.26852 2.75419 4.16159C2.91726 3.93874 2.8688 3.62588 2.64594 3.46282C2.42309 3.29975 2.11024 3.34822 1.94717 3.57107C1.0126 4.84828 0.499878 6.3977 0.499878 8C0.499878 9.98915 1.29006 11.8968 2.6966 13.3034C4.10315 14.7099 6.01082 15.5001 7.99997 15.5001C9.98912 15.5001 11.8968 14.7099 13.3033 13.3034C14.7099 11.8968 15.5001 9.98915 15.5001 8C15.5001 6.01085 14.7099 4.10318 13.3033 2.69664C11.8968 1.29009 9.98912 0.499908 7.99997 0.499908ZM7.43531 8.64531C7.6772 8.84569 8.29086 9.0541 8.73019 8.52376C9.16951 7.99342 8.85102 7.43437 8.60912 7.23398L4.42515 4.39552C4.18326 4.19513 3.90534 4.14713 3.70496 4.38902C3.50458 4.63092 3.58201 4.92095 3.8239 5.12133L7.43531 8.64531Z" fill="#141414"/>
</svg>
