<svg width="16" height="16" viewBox="0 0 16 16" fill="none" xmlns="http://www.w3.org/2000/svg">
<path fill-rule="evenodd" clip-rule="evenodd" d="M8 0.499893C6.01085 0.499893 4.10318 1.29008 2.69664 2.69662C1.29009 4.10316 0.499908 6.01084 0.499908 7.99999C0.499908 9.98914 1.29009 11.8968 2.69664 13.3034C4.10318 14.7099 6.01085 15.5001 8 15.5001C9.98915 15.5001 11.8968 14.7099 13.3034 13.3034C14.7099 11.8968 15.5001 9.98914 15.5001 7.99999C15.5001 6.01084 14.7099 4.10316 13.3034 2.69662C11.8968 1.29008 9.98915 0.499893 8 0.499893ZM3.40374 3.40373C4.62275 2.18472 6.27607 1.49989 8 1.49989C9.72394 1.49989 11.3773 2.18472 12.5963 3.40373C13.8153 4.62273 14.5001 6.27605 14.5001 7.99999C14.5001 9.72392 13.8153 11.3772 12.5963 12.5962C11.3773 13.8153 9.72394 14.5001 8 14.5001C6.27607 14.5001 4.62275 13.8153 3.40374 12.5962C2.18474 11.3772 1.49991 9.72392 1.49991 7.99999C1.49991 6.27606 2.18474 4.62273 3.40374 3.40373ZM5.19987 7.49989C4.92373 7.49989 4.69987 7.72375 4.69987 7.99989C4.69987 8.27603 4.92373 8.49989 5.19987 8.49989H10.7999C11.0761 8.49989 11.2999 8.27603 11.2999 7.99989C11.2999 7.72375 11.0761 7.49989 10.7999 7.49989H5.19987Z" fill="#141414"/>
</svg>
