<svg width="16" height="16" viewBox="0 0 16 16" fill="none" xmlns="http://www.w3.org/2000/svg">
<g clip-path="url(#clip0)">
<path fill-rule="evenodd" clip-rule="evenodd" d="M5.03618 2.07324C5.03618 1.24991 5.70175 0.584351 6.52507 0.584351H6.53167H9.49042H9.49108H9.49833L9.50848 0.584452C10.3048 0.593698 10.9627 1.23665 10.9796 2.04148C10.9803 2.05198 10.9806 2.06257 10.9806 2.07324V2.54236H13.4341C13.4817 2.54236 13.5285 2.54914 13.5734 2.56214H14.9372C15.2134 2.56214 15.4372 2.786 15.4372 3.06214C15.4372 3.33828 15.2134 3.56214 14.9372 3.56214H13.8935L13.0392 14.0596C13.0381 14.0726 13.0365 14.0856 13.0345 14.0983C12.9464 14.8423 12.3125 15.4156 11.5519 15.4156H4.46818H4.46159C3.68262 15.4156 3.03497 14.8223 2.97431 14.046L2.97417 14.0442L2.09803 3.56214H1.09278C0.816639 3.56214 0.592781 3.33828 0.592781 3.06214C0.592781 2.786 0.816639 2.56214 1.09278 2.56214H2.41708C2.4619 2.54914 2.50874 2.54236 2.55633 2.54236H5.03618V2.07324ZM9.98063 2.54236H6.03618V2.07324C6.03618 1.8022 6.25403 1.58435 6.52507 1.58435H6.53167H9.49042H9.49108C9.7577 1.58435 9.97997 1.80436 9.97997 2.07324C9.97997 2.08192 9.98019 2.09056 9.98063 2.09913V2.54236ZM3.10151 3.56214L3.97096 13.9642L3.97123 13.9675L3.97122 13.9675C3.99055 14.2187 4.19953 14.4156 4.46159 14.4156H4.46818H11.5519C11.806 14.4156 12.02 14.2188 12.0429 13.9672C12.0432 13.9637 12.0435 13.9602 12.0439 13.9567C12.0442 13.9541 12.0445 13.9514 12.0449 13.9487L12.8902 3.56214H3.10151ZM7.03168 6.52325C7.03168 6.24711 6.80782 6.02325 6.53168 6.02325C6.25554 6.02325 6.03168 6.24711 6.03168 6.52325V11.4677C6.03168 11.7438 6.25554 11.9677 6.53168 11.9677C6.80782 11.9677 7.03168 11.7438 7.03168 11.4677V6.52325ZM9.49833 6.02325C9.77447 6.02325 9.99833 6.24711 9.99833 6.52325V11.4677C9.99833 11.7438 9.77447 11.9677 9.49833 11.9677C9.22219 11.9677 8.99833 11.7438 8.99833 11.4677V6.52325C8.99833 6.24711 9.22219 6.02325 9.49833 6.02325Z" fill="#141414"/>
</g>
<defs>
<clipPath id="clip0">
<rect width="16" height="16" fill="white" transform="translate(0.0150146)"/>
</clipPath>
</defs>
</svg>
