<svg width="21" height="21" viewBox="0 0 21 21" fill="none" xmlns="http://www.w3.org/2000/svg">
<path fill-rule="evenodd" clip-rule="evenodd" d="M4.75 9.75003C4.40482 9.75003 4.125 10.0299 4.125 10.375V19.125C4.125 19.4702 4.40482 19.75 4.75 19.75H16C16.3452 19.75 16.625 19.4702 16.625 19.125V10.375C16.625 10.0299 16.3452 9.75003 16 9.75003H4.75ZM2.875 10.375C2.875 9.3395 3.71447 8.50003 4.75 8.50003H16C17.0355 8.50003 17.875 9.3395 17.875 10.375V19.125C17.875 20.1606 17.0355 21 16 21H4.75C3.71447 21 2.875 20.1606 2.875 19.125V10.375Z" fill="#4D4D4D"/>
<path fill-rule="evenodd" clip-rule="evenodd" d="M14.1167 5.98336C14.1167 3.91978 12.4299 2.23456 10.3689 2.24169L10.3667 2.2417C8.30389 2.2417 6.61788 3.92771 6.62502 5.99787L6.62503 6.00003L6.62503 9.12503C6.62503 9.47021 6.3452 9.75003 6.00003 9.75003C5.65485 9.75003 5.37503 9.47021 5.37503 9.12503V6.00107C5.36611 3.23877 7.61261 0.992283 10.3656 0.991695C13.1207 0.982752 15.3667 3.23063 15.3667 5.98336V9.10836C15.3667 9.45354 15.0869 9.73336 14.7417 9.73336C14.3965 9.73336 14.1167 9.45354 14.1167 9.10836V5.98336Z" fill="#4D4D4D"/>
<path fill-rule="evenodd" clip-rule="evenodd" d="M10.375 12.875C10.7202 12.875 11 13.1549 11 13.5V16C11 16.3452 10.7202 16.625 10.375 16.625C10.0298 16.625 9.75 16.3452 9.75 16V13.5C9.75 13.1549 10.0298 12.875 10.375 12.875Z" fill="#4D4D4D"/>
</svg>
