<svg width="16" height="16" viewBox="0 0 16 16" fill="none" xmlns="http://www.w3.org/2000/svg">
<path d="M15.0711 8.49996C15.3472 8.49996 15.5711 8.2761 15.5711 7.99996C15.5711 7.72382 15.3472 7.49996 15.0711 7.49996H8.50002V0.928894C8.50002 0.652752 8.27617 0.428894 8.00002 0.428894C7.72388 0.428894 7.50002 0.652752 7.50002 0.928894V7.49996H0.928956C0.652813 7.49996 0.428956 7.72382 0.428955 7.99996C0.428955 8.2761 0.652813 8.49996 0.928955 8.49996H7.50002L7.50002 15.071C7.50002 15.3472 7.72388 15.571 8.00002 15.571C8.27617 15.571 8.50002 15.3472 8.50002 15.071L8.50002 8.49996H15.0711Z" fill="#161616"/>
</svg>
