<svg width="16" height="16" viewBox="0 0 16 16" fill="none" xmlns="http://www.w3.org/2000/svg">
<path d="M6.05068 13.6705C5.24331 13.6705 4.5887 13.0159 4.5887 12.2085L4.5887 2.66368L6.51362 4.58861L7.20274 3.8995L4.44592 1.14268C4.25556 0.952439 3.94717 0.952439 3.75681 1.14268L0.999997 3.8995L1.68911 4.58861L3.61404 2.66368L3.61404 12.2085C3.6157 13.5535 4.70565 14.6435 6.05068 14.6451L8 14.6451L8 13.6705L6.05068 13.6705Z" fill="#161616"/>
<path d="M9.94931 1.97466C10.7568 1.97466 11.4113 2.62915 11.4113 3.43665L11.4113 12.9814L9.48637 11.0565L8.79726 11.7456L11.5541 14.5024C11.7444 14.6927 12.0528 14.6927 12.2432 14.5024L15 11.7456L14.3109 11.0565L12.386 12.9814L12.386 3.43665C12.3844 2.09161 11.2943 1.00155 9.94931 1L8 1L8 1.97466L9.94931 1.97466Z" fill="#161616"/>
</svg>
