<svg width="16" height="16" viewBox="0 0 16 16" fill="none" xmlns="http://www.w3.org/2000/svg">
<path fill-rule="evenodd" clip-rule="evenodd" d="M4.818 2.41803C5.66191 1.57411 6.8065 1.10001 7.99998 1.10001C9.19345 1.10001 10.338 1.57411 11.182 2.41803C12.0259 3.26194 12.5 4.40653 12.5 5.60001C12.5 7.85967 12.9835 9.27565 13.4389 10.1106C13.6673 10.5293 13.8914 10.807 14.0505 10.9749C14.1301 11.059 14.1939 11.1159 14.2341 11.1495C14.2543 11.1663 14.2686 11.1772 14.2761 11.1828L14.2818 11.187C14.462 11.31 14.5418 11.5358 14.4785 11.7449C14.4147 11.9558 14.2203 12.1 14 12.1H1.99998C1.77964 12.1 1.58528 11.9558 1.52143 11.7449C1.45811 11.5358 1.53796 11.31 1.71812 11.187L1.72387 11.1828C1.73138 11.1772 1.74568 11.1663 1.76582 11.1495C1.8061 11.1159 1.86983 11.059 1.9495 10.9749C2.10859 10.807 2.33263 10.5293 2.56103 10.1106C3.01644 9.27565 3.49998 7.85967 3.49998 5.60001C3.49998 4.40653 3.97408 3.26194 4.818 2.41803ZM3.12652 11.1H12.8734C12.7711 10.951 12.6657 10.7814 12.561 10.5894C12.0164 9.59102 11.5 8.00701 11.5 5.60001C11.5 4.67175 11.1312 3.78151 10.4749 3.12513C9.81848 2.46876 8.92824 2.10001 7.99998 2.10001C7.07172 2.10001 6.18148 2.46876 5.5251 3.12513C4.86873 3.78151 4.49998 4.67175 4.49998 5.60001C4.49998 8.00701 3.98351 9.59102 3.43893 10.5894C3.33421 10.7814 3.22884 10.951 3.12652 11.1Z" fill="black"/>
<path fill-rule="evenodd" clip-rule="evenodd" d="M6.59575 13.3342C6.83462 13.1956 7.14058 13.2769 7.27914 13.5158C7.35239 13.6421 7.45754 13.7469 7.58405 13.8197C7.71055 13.8926 7.85398 13.931 7.99997 13.931C8.14596 13.931 8.28939 13.8926 8.4159 13.8197C8.54241 13.7469 8.64755 13.6421 8.72081 13.5158C8.85937 13.2769 9.16533 13.1956 9.40419 13.3342C9.64306 13.4727 9.72437 13.7787 9.58581 14.0175C9.42465 14.2954 9.19333 14.526 8.91501 14.6863C8.6367 14.8466 8.32115 14.931 7.99997 14.931C7.67879 14.931 7.36325 14.8466 7.08493 14.6863C6.80662 14.526 6.5753 14.2954 6.41414 14.0175C6.27558 13.7787 6.35689 13.4727 6.59575 13.3342Z" fill="black"/>
</svg>
