<svg width="16" height="16" viewBox="0 0 16 16" fill="none" xmlns="http://www.w3.org/2000/svg">
<path fill-rule="evenodd" clip-rule="evenodd" d="M6.39883 2.9502C6.46387 2.9502 6.52837 2.96299 6.58829 2.98828C6.64817 3.01358 6.70212 3.05107 6.74747 3.09766C6.79278 3.14423 6.8283 3.19924 6.85196 3.25977C6.87541 3.3198 6.88667 3.38382 6.88516 3.44824V4.09863C6.88516 4.14196 6.90238 4.18421 6.93301 4.21484C6.96364 4.24546 7.00592 4.2627 7.04922 4.2627H8.34903C8.39234 4.2627 8.43461 4.24547 8.46524 4.21484C8.49587 4.18421 8.51309 4.14196 8.51309 4.09863V3.44824C8.51321 3.31927 8.56446 3.1957 8.65567 3.10449C8.74693 3.01331 8.87041 2.96196 8.99942 2.96191C9.12855 2.96191 9.25284 3.01318 9.34415 3.10449C9.43523 3.19568 9.48661 3.31936 9.48672 3.44824V4.32715C9.48678 4.35782 9.49486 4.38807 9.51114 4.41406C9.52754 4.44018 9.55172 4.46121 9.5795 4.47461C9.85928 4.60511 10.1058 4.7958 10.3031 5.0332C10.5005 5.27061 10.643 5.54874 10.7201 5.84766C10.7972 6.14646 10.8071 6.45856 10.7494 6.76172C10.6917 7.06493 10.5677 7.35197 10.3861 7.60156C10.3731 7.61968 10.3636 7.64028 10.3588 7.66211C10.354 7.68395 10.3545 7.70659 10.3588 7.72852C10.3631 7.75046 10.3715 7.77165 10.3842 7.79004C10.3969 7.80835 10.4131 7.82418 10.432 7.83594C10.8 8.06265 11.0892 8.39696 11.2602 8.79395C11.4311 9.19082 11.4761 9.63066 11.3881 10.0537C11.3 10.4768 11.0831 10.8625 10.768 11.1582C10.4528 11.4538 10.0542 11.6461 9.62637 11.707C9.58756 11.7127 9.55144 11.732 9.52579 11.7617C9.50035 11.7913 9.48668 11.8291 9.48672 11.8682V12.5518C9.48644 12.6806 9.4352 12.8044 9.34415 12.8955C9.25289 12.9868 9.12847 13.0379 8.99942 13.0381C8.87046 13.0379 8.74689 12.9867 8.65567 12.8955C8.5645 12.8043 8.51338 12.6807 8.51309 12.5518V11.9014C8.51309 11.858 8.49587 11.8158 8.46524 11.7852C8.43461 11.7545 8.39235 11.7373 8.34903 11.7373H7.04922C7.00592 11.7373 6.96364 11.7545 6.93301 11.7852C6.90238 11.8158 6.88516 11.858 6.88516 11.9014V12.5498C6.88692 12.6148 6.87563 12.6796 6.85196 12.7402C6.8283 12.8008 6.79278 12.8558 6.74747 12.9023C6.70212 12.9489 6.64817 12.9864 6.58829 13.0117C6.52837 13.037 6.46387 13.0498 6.39883 13.0498C6.33379 13.0498 6.26931 13.037 6.20938 13.0117C6.14947 12.9864 6.09556 12.9489 6.0502 12.9023C6.00487 12.8558 5.96937 12.8008 5.94571 12.7402C5.92204 12.6796 5.91075 12.6148 5.91251 12.5498V11.9014C5.91244 11.858 5.89436 11.8158 5.86368 11.7852C5.83304 11.7548 5.79161 11.7373 5.74844 11.7373H5.09805C5.03362 11.7388 4.96962 11.7276 4.90958 11.7041C4.84904 11.6804 4.79405 11.6449 4.74747 11.5996C4.70087 11.5542 4.66339 11.5003 4.63809 11.4404C4.6128 11.3805 4.60001 11.316 4.60001 11.251C4.60001 11.1859 4.6128 11.1214 4.63809 11.0615C4.66339 11.0016 4.70088 10.9477 4.74747 10.9023C4.79404 10.857 4.84905 10.8215 4.90958 10.7979C4.96961 10.7744 5.03363 10.7631 5.09805 10.7646H5.74844C5.79162 10.7646 5.83304 10.7472 5.86368 10.7168C5.89436 10.6862 5.91244 10.644 5.91251 10.6006V5.39941C5.91244 5.35605 5.89436 5.31384 5.86368 5.2832C5.83304 5.2528 5.79162 5.23536 5.74844 5.23535H5.09805C5.03362 5.23686 4.96962 5.22561 4.90958 5.20215C4.84905 5.17849 4.79404 5.14297 4.74747 5.09766C4.70088 5.05231 4.66339 4.99836 4.63809 4.93848C4.6128 4.87856 4.60001 4.81406 4.60001 4.74902C4.60001 4.68398 4.6128 4.61949 4.63809 4.55957C4.66339 4.49966 4.70087 4.44575 4.74747 4.40039C4.79405 4.35506 4.84904 4.31956 4.90958 4.2959C4.96961 4.27244 5.03363 4.26119 5.09805 4.2627H5.74844C5.79161 4.26269 5.83304 4.24522 5.86368 4.21484C5.89436 4.1842 5.91244 4.142 5.91251 4.09863V3.44824C5.911 3.38382 5.92226 3.3198 5.94571 3.25977C5.96937 3.19923 6.00487 3.14423 6.0502 3.09766C6.09556 3.05106 6.14947 3.01358 6.20938 2.98828C6.26931 2.96298 6.33379 2.9502 6.39883 2.9502ZM7.04922 8.4873C7.0059 8.4873 6.96365 8.50452 6.93301 8.53516C6.90262 8.56575 6.88516 8.60725 6.88516 8.65039V10.6006C6.88516 10.6439 6.90238 10.6862 6.93301 10.7168C6.96365 10.7474 7.0059 10.7646 7.04922 10.7646H9.32462C9.62662 10.7646 9.91673 10.6442 10.1303 10.4307C10.3436 10.2172 10.4632 9.92772 10.4633 9.62598C10.4633 9.32405 10.3437 9.03385 10.1303 8.82031C9.91673 8.60677 9.62662 8.4873 9.32462 8.4873H7.04922ZM7.04922 5.23535C7.0059 5.23535 6.96365 5.25257 6.93301 5.2832C6.90238 5.31384 6.88516 5.35609 6.88516 5.39941V7.34961C6.88516 7.39275 6.90262 7.43425 6.93301 7.46484C6.96365 7.49548 7.0059 7.5127 7.04922 7.5127H8.67422C8.97623 7.5127 9.26634 7.39324 9.47989 7.17969C9.69339 6.96615 9.8129 6.67599 9.8129 6.37402C9.81279 6.07225 9.69323 5.78277 9.47989 5.56934C9.26634 5.35579 8.97623 5.23535 8.67422 5.23535H7.04922Z" fill="#161616"/>
<path fill-rule="evenodd" clip-rule="evenodd" d="M8 0C5.87827 0 3.84344 0.842855 2.34315 2.34315C0.842855 3.84344 0 5.87827 0 8C0 10.1217 0.842855 12.1566 2.34315 13.6569C3.84344 15.1571 5.87827 16 8 16C10.1217 16 12.1566 15.1571 13.6569 13.6569C15.1571 12.1566 16 10.1217 16 8C16 5.87827 15.1571 3.84344 13.6569 2.34315C12.1566 0.842855 10.1217 0 8 0ZM3.09738 3.09738C4.39764 1.79713 6.16116 1.06665 8 1.06665C9.83884 1.06665 11.6024 1.79713 12.9026 3.09738C14.2029 4.39764 14.9333 6.16116 14.9333 8C14.9333 9.83884 14.2029 11.6024 12.9026 12.9026C11.6024 14.2029 9.83884 14.9333 8 14.9333C6.16116 14.9333 4.39764 14.2029 3.09738 12.9026C1.79713 11.6024 1.06665 9.83884 1.06665 8C1.06665 6.16116 1.79713 4.39764 3.09738 3.09738Z" fill="#161616"/>
</svg>
