<svg width="16" height="16" viewBox="0 0 16 16" fill="none" xmlns="http://www.w3.org/2000/svg">
<g clip-path="url(#clip0_5784_3332)">
<path d="M2.26702 12.117C2.21676 12.1593 2.17531 12.211 2.14504 12.2693C2.11477 12.3275 2.09627 12.3912 2.09061 12.4566C2.08494 12.522 2.09222 12.5879 2.11202 12.6505C2.13183 12.7132 2.16377 12.7712 2.20602 12.8215C3.01533 13.7945 4.05722 14.5473 5.23509 15.0102C6.41296 15.4731 7.68865 15.6311 8.94385 15.4695C10.199 15.3078 11.3931 14.8318 12.4153 14.0856C13.4374 13.3394 14.2546 12.3472 14.791 11.2009C15.3274 10.0547 15.5657 8.79152 15.4837 7.52862C15.4017 6.26571 15.0021 5.04396 14.322 3.97668C13.6419 2.9094 12.7033 2.03114 11.5932 1.42337C10.4832 0.815598 9.23758 0.497993 7.97202 0.50001C7.83942 0.50001 7.71224 0.552688 7.61847 0.646456C7.5247 0.740224 7.47202 0.867401 7.47202 1.00001C7.47202 1.13262 7.5247 1.25979 7.61847 1.35356C7.71224 1.44733 7.83942 1.50001 7.97202 1.50001C9.06404 1.50355 10.1376 1.78215 11.0935 2.3101C12.0494 2.83806 12.8569 3.59833 13.4414 4.52074C14.0259 5.44316 14.3686 6.49797 14.4379 7.58779C14.5071 8.67761 14.3007 9.76731 13.8376 10.7563C13.3746 11.7453 12.6698 12.6016 11.7884 13.2463C10.907 13.891 9.87735 14.3033 8.79457 14.445C7.71178 14.5867 6.61075 14.4534 5.59311 14.0572C4.57547 13.6611 3.67403 13.015 2.97202 12.1785C2.88616 12.0777 2.76406 12.0147 2.63213 12.0032C2.50021 11.9917 2.36905 12.0326 2.26702 12.117Z" fill="black"/>
<path d="M8.49999 4C8.49999 3.86739 8.44732 3.74021 8.35355 3.64645C8.25978 3.55268 8.1326 3.5 7.99999 3.5C7.86739 3.5 7.74021 3.55268 7.64644 3.64645C7.55267 3.74021 7.49999 3.86739 7.49999 4V7.7655L4.67949 10.1155C4.57768 10.2004 4.51375 10.3222 4.50175 10.4543C4.48975 10.5863 4.53066 10.7176 4.61549 10.8195C4.70159 10.9198 4.82338 10.9826 4.95501 10.9945C5.08664 11.0065 5.21775 10.9666 5.32049 10.8835L8.32049 8.3835C8.37473 8.33499 8.41859 8.276 8.44944 8.2101C8.48029 8.14419 8.49748 8.07272 8.49999 8V4Z" fill="black"/>
<path d="M2.73198 3.83501C2.80314 3.8346 2.87342 3.81925 2.93827 3.78997C3.00313 3.76068 3.06111 3.71811 3.10848 3.66501C3.17399 3.59113 3.21616 3.49951 3.22967 3.4017C3.24318 3.30389 3.22743 3.20427 3.18441 3.1154C3.14138 3.02653 3.073 2.95239 2.9879 2.90232C2.9028 2.85226 2.80477 2.82851 2.70619 2.83408C2.60761 2.83964 2.51288 2.87427 2.43395 2.9336C2.35503 2.99292 2.29543 3.07429 2.26268 3.16744C2.22993 3.26059 2.22549 3.36135 2.24993 3.45702C2.27436 3.55268 2.32658 3.63898 2.39998 3.70501C2.49114 3.78731 2.60918 3.83353 2.73198 3.83501Z" fill="black"/>
<path d="M1.33203 10.35C1.2713 10.3758 1.21637 10.4135 1.17046 10.4609C1.12455 10.5083 1.08861 10.5645 1.06474 10.626C1.04088 10.6875 1.02959 10.7532 1.03152 10.8191C1.03346 10.8851 1.0486 10.95 1.07603 11.01C1.11602 11.1004 1.1819 11.1769 1.26536 11.2299C1.34881 11.2828 1.44609 11.3099 1.54491 11.3076C1.64372 11.3053 1.73964 11.2737 1.82054 11.217C1.90144 11.1602 1.9637 11.0807 1.99944 10.9885C2.03519 10.8964 2.04281 10.7957 2.02136 10.6992C1.99991 10.6027 1.95035 10.5148 1.87893 10.4464C1.80751 10.3781 1.71744 10.3325 1.6201 10.3153C1.52275 10.2981 1.42251 10.3102 1.33203 10.35Z" fill="black"/>
<path d="M4.268 2.54449C4.35588 2.54381 4.44202 2.51998 4.51776 2.4754C4.5935 2.43081 4.65614 2.36706 4.69939 2.29055C4.74264 2.21405 4.76496 2.12749 4.7641 2.03961C4.76324 1.95174 4.73923 1.86564 4.6945 1.78999C4.62414 1.67617 4.51153 1.59488 4.38135 1.56395C4.25116 1.53302 4.11402 1.55497 4 1.62499C3.90703 1.68163 3.83529 1.76729 3.79583 1.86874C3.75636 1.9702 3.75137 2.08182 3.78162 2.18639C3.81187 2.29096 3.87569 2.38267 3.96322 2.44739C4.05076 2.51211 4.15715 2.54623 4.266 2.54449H4.268Z" fill="black"/>
<path d="M6.10001 1.75C6.20454 1.74888 6.30609 1.71503 6.39038 1.65321C6.47467 1.59139 6.53747 1.5047 6.56993 1.40533C6.6024 1.30597 6.60291 1.19893 6.57139 1.09926C6.53987 0.999592 6.4779 0.912309 6.3942 0.849685C6.3105 0.787061 6.20928 0.752245 6.10477 0.750133C6.00026 0.74802 5.89771 0.778717 5.81155 0.837908C5.72539 0.897099 5.65994 0.981806 5.62442 1.08012C5.5889 1.17843 5.58508 1.28541 5.61351 1.386C5.6458 1.49026 5.71025 1.58163 5.79764 1.64701C5.88503 1.7124 5.99088 1.74845 6.10001 1.75Z" fill="black"/>
<path d="M0.955506 7.38999C1.08597 7.40759 1.2182 7.3743 1.32479 7.29704C1.43137 7.21977 1.50414 7.10446 1.52801 6.97499C1.54876 6.84355 1.51659 6.70923 1.43852 6.60146C1.36046 6.49369 1.24287 6.42125 1.11151 6.39999C1.04656 6.38875 0.980029 6.39063 0.915827 6.40552C0.851624 6.42042 0.791055 6.44802 0.737693 6.4867C0.684331 6.52538 0.639258 6.57436 0.605133 6.63074C0.571009 6.68713 0.548524 6.74978 0.539006 6.81499C0.52832 6.88013 0.530636 6.94673 0.545821 7.01097C0.561006 7.0752 0.588759 7.1358 0.627479 7.18925C0.666199 7.24271 0.715121 7.28797 0.771421 7.32242C0.827721 7.35688 0.890286 7.37984 0.955506 7.38999Z" fill="black"/>
<path d="M1.41247 5.43999C1.50204 5.48187 1.60201 5.49626 1.69976 5.48133C1.7975 5.4664 1.88863 5.42283 1.96161 5.35611C2.03459 5.2894 2.08615 5.20255 2.10978 5.10654C2.13341 5.01052 2.12804 4.90966 2.09435 4.8167C2.06066 4.72374 2.00016 4.64285 1.92051 4.58427C1.84085 4.52569 1.74562 4.49204 1.64684 4.48757C1.54807 4.48311 1.45018 4.50803 1.36557 4.55919C1.28095 4.61035 1.21341 4.68544 1.17147 4.77499C1.11602 4.89524 1.11022 5.0325 1.15534 5.157C1.20046 5.2815 1.29285 5.38318 1.41247 5.43999Z" fill="black"/>
<path d="M1.00001 9.38501C1.10165 9.38486 1.20082 9.35374 1.28433 9.29579C1.36783 9.23785 1.43169 9.15583 1.46739 9.06068C1.5031 8.96552 1.50896 8.86174 1.48419 8.76317C1.45943 8.66459 1.40521 8.57591 1.32876 8.50893C1.25232 8.44196 1.15727 8.39987 1.0563 8.38827C0.955327 8.37668 0.853218 8.39613 0.763582 8.44404C0.673945 8.49195 0.601037 8.56604 0.554574 8.65643C0.508111 8.74683 0.490298 8.84924 0.503511 8.95001C0.519809 9.07024 0.579057 9.18051 0.670316 9.26047C0.761575 9.34042 0.878681 9.38466 1.00001 9.38501Z" fill="black"/>
</g>
<defs>
<clipPath id="clip0_5784_3332">
<rect width="16" height="16" fill="white"/>
</clipPath>
</defs>
</svg>
