<svg width="16" height="16" viewBox="0 0 16 16" fill="none" xmlns="http://www.w3.org/2000/svg">
<path fill-rule="evenodd" clip-rule="evenodd" d="M8.00287 2.36813C8.27901 2.36813 8.50287 2.59199 8.50287 2.86813V10.3327C8.50287 10.6088 8.27901 10.8327 8.00287 10.8327C7.72673 10.8327 7.50287 10.6088 7.50287 10.3327V2.86813C7.50287 2.59199 7.72673 2.36813 8.00287 2.36813Z" fill="#141414"/>
<path fill-rule="evenodd" clip-rule="evenodd" d="M4.85067 7.17992C5.04593 6.98466 5.36251 6.98466 5.55778 7.17992L8.00342 9.62557L10.4491 7.17992C10.6443 6.98466 10.9609 6.98466 11.1562 7.17992C11.3514 7.37519 11.3514 7.69177 11.1562 7.88703L8.35697 10.6862C8.16171 10.8815 7.84513 10.8815 7.64987 10.6862L4.85067 7.88703C4.65541 7.69177 4.65541 7.37519 4.85067 7.17992Z" fill="#141414"/>
<path fill-rule="evenodd" clip-rule="evenodd" d="M0.998596 9.83142C1.27474 9.83142 1.4986 10.0553 1.4986 10.3314V11.2645C1.4986 12.0131 2.10727 12.6267 2.86774 12.6312C2.87505 12.6313 2.88236 12.6315 2.88965 12.6319H13.1353C13.8855 12.6319 14.5014 12.016 14.5014 11.2657V10.3327C14.5014 10.0565 14.7253 9.83266 15.0014 9.83266C15.2776 9.83266 15.5014 10.0565 15.5014 10.3327V11.2657C15.5014 12.5682 14.4378 13.6319 13.1353 13.6319H2.87095C2.86136 13.6319 2.85178 13.6316 2.84221 13.631C1.54647 13.6129 0.498596 12.5628 0.498596 11.2651V10.3314C0.498596 10.0553 0.722454 9.83142 0.998596 9.83142Z" fill="#141414"/>
</svg>
