<svg width="16" height="16" viewBox="0 0 16 16" fill="none" xmlns="http://www.w3.org/2000/svg">
<path d="M14.205 14.7796H1.765C1.38825 14.7726 1.02923 14.6183 0.765001 14.3496C0.502651 14.082 0.352415 13.7243 0.345001 13.3496V4.7196C0.347526 4.33926 0.498376 3.97492 0.765449 3.70411C1.03252 3.4333 1.39473 3.2774 1.775 3.2696H6.565C6.69761 3.2696 6.82479 3.32228 6.91855 3.41604C7.01232 3.50981 7.065 3.63699 7.065 3.7696C7.06244 3.9014 7.00894 4.0271 6.91572 4.12032C6.8225 4.21354 6.69681 4.26704 6.565 4.2696H1.785C1.72459 4.26827 1.66451 4.27886 1.60819 4.30076C1.55187 4.32266 1.50042 4.35544 1.45677 4.39722C1.41313 4.43901 1.37814 4.48899 1.35381 4.54431C1.32949 4.59962 1.3163 4.65919 1.315 4.7196V13.3296C1.31714 13.4428 1.36386 13.5506 1.445 13.6296C1.48632 13.6731 1.53591 13.7079 1.59086 13.7319C1.64582 13.756 1.70502 13.7688 1.765 13.7696H14.195C14.3162 13.767 14.4317 13.7178 14.5174 13.632C14.6032 13.5463 14.6524 13.4308 14.655 13.3096V4.7196C14.655 4.5976 14.6065 4.4806 14.5203 4.39433C14.434 4.30806 14.317 4.2596 14.195 4.2596H9.415C9.28239 4.2596 9.15522 4.20692 9.06145 4.11315C8.96768 4.01938 8.915 3.89221 8.915 3.7596C8.915 3.62699 8.96768 3.49981 9.06145 3.40604C9.15522 3.31228 9.28239 3.2596 9.415 3.2596H14.195C14.5822 3.2596 14.9536 3.41342 15.2274 3.68722C15.5012 3.96102 15.655 4.33238 15.655 4.7196V13.3196C15.655 13.7034 15.504 14.0717 15.2345 14.345C14.965 14.6182 14.5987 14.7743 14.215 14.7796H14.205Z" fill="#141414"/>
<path d="M8.985 6.1696H7.045C6.77978 6.1696 6.52543 6.06424 6.33789 5.8767C6.15036 5.68917 6.045 5.43481 6.045 5.1696V3.2896C6.02588 3.02379 6.06173 2.7569 6.15031 2.50556C6.23889 2.25422 6.3783 2.02383 6.55985 1.82874C6.74141 1.63366 6.9612 1.47808 7.20554 1.37169C7.44988 1.26531 7.71351 1.2104 7.98 1.2104C8.24649 1.2104 8.51013 1.26531 8.75446 1.37169C8.9988 1.47808 9.2186 1.63366 9.40015 1.82874C9.5817 2.02383 9.72111 2.25422 9.80969 2.50556C9.89827 2.7569 9.93412 3.02379 9.915 3.2896V5.1996C9.90815 5.44791 9.80913 5.68478 9.63721 5.86409C9.4653 6.0434 9.2328 6.1523 8.985 6.1696ZM7.985 2.3496C7.86164 2.34823 7.73927 2.37168 7.62516 2.41856C7.51105 2.46544 7.40754 2.53479 7.32077 2.62249C7.23401 2.71019 7.16577 2.81444 7.12011 2.92904C7.07445 3.04365 7.05231 3.16626 7.055 3.2896V5.1996H8.915H8.985V3.2896C8.98526 3.16094 8.95911 3.0336 8.90817 2.91546C8.85722 2.79732 8.78256 2.69089 8.68882 2.60277C8.59507 2.51465 8.48424 2.44671 8.36318 2.40317C8.24211 2.35962 8.1134 2.34139 7.985 2.3496Z" fill="#141414"/>
<path d="M12.305 9.0696H9.43501C9.3024 9.0696 9.17522 9.01692 9.08145 8.92315C8.98768 8.82938 8.93501 8.7022 8.93501 8.5696C8.93501 8.43699 8.98768 8.30981 9.08145 8.21604C9.17522 8.12227 9.3024 8.0696 9.43501 8.0696H12.305C12.4376 8.0696 12.5648 8.12227 12.6586 8.21604C12.7523 8.30981 12.805 8.43699 12.805 8.5696C12.8024 8.7014 12.7489 8.8271 12.6557 8.92032C12.5625 9.01353 12.4368 9.06704 12.305 9.0696Z" fill="#141414"/>
<path d="M13.255 10.9596H9.43501C9.3024 10.9596 9.17522 10.9069 9.08145 10.8131C8.98768 10.7194 8.93501 10.5922 8.93501 10.4596C8.93501 10.327 8.98768 10.1998 9.08145 10.106C9.17522 10.0123 9.3024 9.95959 9.43501 9.95959H13.255C13.3876 9.95959 13.5148 10.0123 13.6086 10.106C13.7023 10.1998 13.755 10.327 13.755 10.4596C13.755 10.5922 13.7023 10.7194 13.6086 10.8131C13.5148 10.9069 13.3876 10.9596 13.255 10.9596Z" fill="#141414"/>
<mask id="mask0_3302_13033" style="mask-type:alpha" maskUnits="userSpaceOnUse" x="1" y="6" width="7" height="8">
<path d="M1 5.99998H8V14H1V5.99998Z" fill="#C4C4C4"/>
</mask>
<g mask="url(#mask0_3302_13033)">
<path fill-rule="evenodd" clip-rule="evenodd" d="M3.39167 7.19825C3.10214 6.81963 2.65143 6.60002 2.17629 6.60002L-1.50421 6.60001C-2.03015 6.59723 -2.52036 6.86737 -2.79871 7.31273L-3.63791 8.65152L-4.57432 9.07912C-5.01703 9.2819 -5.30282 9.72754 -5.29997 10.216V11.0268C-5.29997 11.7116 -4.75026 12.2818 -4.06244 12.2818H-3.87517C-3.70793 12.7665 -3.30916 13.1397 -2.80823 13.2707C-2.02492 13.4738 -1.22352 13.0341 -0.963586 12.2818H3.00543C3.17268 12.7665 3.57144 13.1397 4.07238 13.2707C4.85568 13.4738 5.65709 13.0341 5.91702 12.2818H5.96248C6.6503 12.2818 7.20001 11.7116 7.20001 11.0268V10.315C7.20001 9.75594 6.82575 9.26154 6.28613 9.11307L4.47613 8.61743L3.39167 7.19825ZM-1.50566 7.41165H2.17629C2.40076 7.41165 2.61224 7.51439 2.74994 7.6911L3.91143 9.214C3.96683 9.28996 4.04555 9.33809 4.12644 9.36121L4.12726 9.36146L6.07253 9.89334C6.26399 9.94725 6.39271 10.1162 6.39086 10.3136L6.39081 11.0268C6.39081 11.272 6.20699 11.4683 5.9678 11.4698C5.83557 10.821 5.30173 10.3173 4.63071 10.2448C3.8325 10.1561 3.1058 10.6976 2.94998 11.4701H-0.9127C-1.04482 10.8211 -1.57877 10.3173 -2.24988 10.2448C-3.04809 10.1561 -3.77481 10.6976 -3.93062 11.4701H-4.06243C-4.29416 11.4701 -4.47281 11.2866 -4.48578 11.0532V10.2134C-4.48762 10.0426 -4.3893 9.88936 -4.23398 9.81725L-3.19011 9.34024L-3.18928 9.33985C-3.12272 9.30853 -3.05939 9.25912 -3.01522 9.18523L-2.11174 7.74262C-1.98363 7.5352 -1.75166 7.4096 -1.50566 7.41165ZM3.73098 11.7735C3.73098 11.3684 4.0564 11.043 4.4615 11.043C4.86659 11.043 5.19202 11.3684 5.19202 11.7735C5.19202 12.1785 4.8668 12.5038 4.46189 12.504C4.05363 12.5017 3.72892 12.176 3.73098 11.7744V11.7735ZM-3.14962 11.7735C-3.14962 11.3684 -2.8242 11.043 -2.4191 11.043C-2.01401 11.043 -1.68858 11.3684 -1.68858 11.7735C-1.68858 12.1785 -2.0138 12.5038 -2.41871 12.504C-2.82697 12.5017 -3.15168 12.176 -3.14962 11.7744V11.7735Z" fill="black"/>
</g>
</svg>
