<svg width="16" height="16" viewBox="0 0 16 16" fill="none" xmlns="http://www.w3.org/2000/svg">
<g id="Type=Orange">
<g id="Outlined">
<path id="secondary" d="M9.03094 1.63468C8.75696 1.07426 8.07822 0.84386 7.52403 1.11785C7.29986 1.2237 7.11928 1.40428 7.00719 1.62845L1.10406 13.6402H1.09783C0.861207 14.1072 1.06047 14.6739 1.52749 14.9043C1.65203 14.9665 1.79525 14.9977 1.94469 14.9977H14.0561C14.5791 14.9977 15.0026 14.5743 15.0026 14.0512C15.0026 13.9017 14.9652 13.7585 14.9029 13.6278L9.03094 1.63468Z" fill="#FCF6EA"/>
<path id="primary" fill-rule="evenodd" clip-rule="evenodd" d="M7.30644 0.667651C8.10901 0.273584 9.08554 0.607941 9.48014 1.41507L15.3544 13.4128C15.4441 13.6011 15.5026 13.8174 15.5026 14.0512C15.5026 14.8504 14.8553 15.4977 14.0561 15.4977H1.9447C1.72732 15.4977 1.50656 15.4526 1.30508 15.3521C0.597197 15.0021 0.28575 14.1367 0.651814 13.4142C0.662278 13.3936 0.674058 13.3739 0.687023 13.3552L6.55997 1.40484C6.71935 1.08608 6.97863 0.823602 7.30644 0.667651ZM8.58176 1.85428C8.42904 1.5419 8.05069 1.41523 7.74562 1.56606L7.73757 1.57004C7.61938 1.62585 7.51923 1.72311 7.45507 1.85072C7.45485 1.85117 7.45463 1.85161 7.45441 1.85205L1.5528 13.8607C1.54419 13.8783 1.53463 13.8951 1.52421 13.9113C1.44967 14.114 1.53916 14.3525 1.7487 14.4559L1.7511 14.457C1.79837 14.4807 1.86361 14.4977 1.9447 14.4977H14.0561C14.303 14.4977 14.5026 14.2981 14.5026 14.0512C14.5026 13.9866 14.4867 13.9172 14.4525 13.8448L8.58176 1.85428Z" fill="#BD7F00"/>
<path id="primary_2" fill-rule="evenodd" clip-rule="evenodd" d="M7.99164 11.705C8.4101 11.6951 8.74017 12.0338 8.74017 12.4384C8.74017 12.8583 8.40213 13.156 8.03474 13.1744C8.02642 13.1748 8.0181 13.175 8.00977 13.175C7.59409 13.175 7.27937 12.8364 7.27937 12.4446C7.27937 12.0963 7.5135 11.8276 7.81275 11.7426C7.868 11.7197 7.9283 11.7065 7.99164 11.705Z" fill="#BD7F00"/>
<path id="primary_3" fill-rule="evenodd" clip-rule="evenodd" d="M8.02219 5.17595C8.29833 5.17595 8.52219 5.39981 8.52219 5.67595V10.3461C8.52219 10.6223 8.29833 10.8461 8.02219 10.8461C7.74604 10.8461 7.52219 10.6223 7.52219 10.3461V5.67595C7.52219 5.39981 7.74604 5.17595 8.02219 5.17595Z" fill="#BD7F00"/>
</g>
</g>
</svg>
