<svg width="24" height="24" viewBox="0 0 24 24" fill="none" xmlns="http://www.w3.org/2000/svg">
<g clip-path="url(#clip0_3715_3360)">
<path d="M11.8081 19.6214C7.4987 19.6214 3.19931 16.6218 0.599674 13.7422C0.19918 13.2977 -0.0224609 12.7207 -0.0224609 12.1224C-0.0224609 11.5241 0.19918 10.9471 0.599674 10.5026C3.2293 7.61306 7.59868 4.5035 11.9781 4.62348C16.3774 4.54349 20.7268 7.62306 23.3564 10.5026C23.7562 10.9455 23.9775 11.5208 23.9775 12.1174C23.9775 12.714 23.7562 13.2894 23.3564 13.7322C20.7268 16.6318 16.3574 19.7313 11.9681 19.6214H11.8081Z" fill="#F5EFF9"/>
<path d="M11.8081 19.6214C7.4987 19.6214 3.19931 16.6218 0.599674 13.7422C0.19918 13.2977 -0.0224609 12.7207 -0.0224609 12.1224C-0.0224609 11.5241 0.19918 10.9471 0.599674 10.5026C3.2293 7.61306 7.59868 4.5035 11.9781 4.62348C16.3774 4.54349 20.7268 7.62306 23.3564 10.5026C23.7562 10.9455 23.9775 11.5208 23.9775 12.1174C23.9775 12.714 23.7562 13.2894 23.3564 13.7322C20.7268 16.6318 16.3574 19.7313 11.9681 19.6214H11.8081ZM11.8081 6.12327C7.97863 6.12327 4.08918 8.89288 1.70952 11.5125C1.55846 11.6797 1.47483 11.8971 1.47483 12.1224C1.47483 12.3478 1.55846 12.5651 1.70952 12.7323C4.11917 15.382 8.05862 18.1816 11.9781 18.1216C15.8975 18.0616 19.8469 15.382 22.2566 12.7323C22.4056 12.5641 22.4879 12.3471 22.4879 12.1224C22.4879 11.8977 22.4056 11.6807 22.2566 11.5125C19.8369 8.86288 15.8675 6.01329 11.9781 6.12327H11.8181H11.8081Z" fill="#8449BF"/>
<path fill-rule="evenodd" clip-rule="evenodd" d="M11.9746 15.122C11.1802 15.1211 10.4186 14.8052 9.85686 14.2434C9.29433 13.6809 8.9783 12.9179 8.9783 12.1224C8.9783 11.3269 9.29433 10.5639 9.85686 10.0014C10.4186 9.43964 11.1802 9.12371 11.9746 9.12284C11.9757 9.12283 11.9768 9.12283 11.9779 9.12283C12.7734 9.12283 13.5364 9.43886 14.0989 10.0014C14.6606 10.5631 14.9766 11.3247 14.9774 12.1191C14.9774 12.1202 14.9775 12.1213 14.9775 12.1224C14.9775 12.1235 14.9774 12.1246 14.9774 12.1257C14.9766 12.9201 14.6606 13.6817 14.0989 14.2434C13.5364 14.806 12.7734 15.122 11.9779 15.122C11.9768 15.122 11.9757 15.122 11.9746 15.122ZM11.9779 16.6218C10.7846 16.6218 9.64014 16.1477 8.79635 15.3039C7.95255 14.4601 7.47852 13.3157 7.47852 12.1224C7.47852 10.9291 7.95255 9.78467 8.79635 8.94088C9.64014 8.09709 10.7846 7.62305 11.9779 7.62305C13.1704 7.62569 14.3133 8.10057 15.1565 8.9438C15.9997 9.78702 16.4746 10.9299 16.4772 12.1224C16.4746 13.3149 15.9997 14.4578 15.1565 15.301C14.3133 16.1442 13.1704 16.6191 11.9779 16.6218Z" fill="#8449BF"/>
</g>
<defs>
<clipPath id="clip0_3715_3360">
<rect width="24" height="24" fill="white"/>
</clipPath>
</defs>
</svg>
