<svg width="16" height="16" viewBox="0 0 16 16" fill="none" xmlns="http://www.w3.org/2000/svg">
<path fill-rule="evenodd" clip-rule="evenodd" d="M3.02529 1.9747C2.84955 1.79896 2.56463 1.79896 2.38889 1.9747C2.21316 2.15043 2.21316 2.43536 2.38889 2.61109L13.6818 13.904C13.8575 14.0797 14.1425 14.0797 14.3182 13.904C14.4939 13.7283 14.4939 13.4433 14.3182 13.2676L12.6128 11.5622C13.7695 10.8448 14.7956 9.94619 15.5859 9.0747C15.8525 8.77949 16 8.39591 16 7.99819C16 7.60047 15.8525 7.21688 15.5859 6.92168C13.8329 5.00195 10.9333 2.94891 8.00035 3.00223C6.89825 2.97204 5.7971 3.24864 4.75893 3.70834L3.02529 1.9747ZM5.52852 4.47793L6.47143 5.42084C6.93042 5.14892 7.45781 5.00194 8.00035 5.00194C8.79534 5.0037 9.55727 5.32029 10.1194 5.88244C10.6816 6.44459 10.9982 7.20652 10.9999 8.00152C10.9987 8.54354 10.8512 9.07019 10.5792 9.52864L11.8667 10.8161C13.027 10.1482 14.0637 9.27573 14.8527 8.40813C14.952 8.29598 15.0069 8.15134 15.0069 8.00152C15.0069 7.8517 14.952 7.70707 14.8527 7.59491C13.2396 5.8285 10.5933 3.92877 8.00035 4.00209H7.88703C7.09427 4.00209 6.29766 4.18013 5.52852 4.47793ZM9.83881 8.78822C9.94421 8.54193 10.0001 8.2746 10.0001 8.00152C10.0001 7.47116 9.78938 6.96252 9.41436 6.5875C9.03934 6.21248 8.5307 6.0018 8.00035 6.0018C7.72726 6.0018 7.45993 6.05766 7.21364 6.16305L9.83881 8.78822Z" fill="#161616"/>
<path d="M10.2288 11.5773L11.0322 12.3807C10.0544 12.7868 9.02489 13.0267 7.99368 13.0008H7.88703C5.0141 13.0008 2.14784 11.0011 0.414757 9.08137C0.147761 8.78507 0 8.40037 0 8.00152C0 7.60268 0.147761 7.21797 0.414757 6.92168C1.16321 6.09923 2.12307 5.25005 3.20461 4.55311L3.93124 5.27974C2.85712 5.94089 1.89599 6.77882 1.15465 7.59491C1.05394 7.7064 0.998193 7.85129 0.998193 8.00152C0.998193 8.15176 1.05394 8.29665 1.15465 8.40813C2.76109 10.1745 5.38738 12.0409 8.00035 12.001C8.74974 11.9895 9.50078 11.8344 10.2288 11.5773Z" fill="#161616"/>
<path d="M5.31549 6.66399C5.11041 7.07566 5.00077 7.53294 5.00077 8.00152C5.00077 8.79705 5.3168 9.56001 5.87933 10.1225C6.44186 10.6851 7.20481 11.0011 8.00035 11.0011C8.46843 11.0001 8.92506 10.8899 9.33619 10.6847L8.56991 9.91841C8.38667 9.97286 8.19497 10.0012 8.00035 10.0012C7.46999 10.0012 6.96135 9.79055 6.58633 9.41553C6.21131 9.04051 6.00063 8.53187 6.00063 8.00152C6.00063 7.80689 6.029 7.6152 6.08345 7.43195L5.31549 6.66399Z" fill="#161616"/>
</svg>
