<svg width="16" height="16" viewBox="0 0 16 16" fill="none" xmlns="http://www.w3.org/2000/svg">
<g clip-path="url(#clip0_5780_3284)">
<path d="M8 0.5C3.85473 0.5 0.5 3.8544 0.5 8C0.5 12.1453 3.8544 15.5 8 15.5C12.1453 15.5 15.5 12.1456 15.5 8C15.5 3.85473 12.1456 0.5 8 0.5ZM5.09803 2.0455C4.87106 2.66363 4.68055 3.29199 4.52677 3.92914C4.07732 3.79259 3.63521 3.62885 3.20129 3.43807C3.75072 2.86083 4.39098 2.39082 5.09803 2.0455ZM2.61928 4.13984C3.18093 4.39994 3.75573 4.61738 4.34199 4.79179C4.17189 5.69979 4.07463 6.62396 4.05154 7.56055H1.39361C1.47456 6.31716 1.89828 5.14033 2.61928 4.13984ZM2.61928 11.8602C1.89828 10.8597 1.47456 9.68284 1.39361 8.43945H4.05154C4.07463 9.37605 4.17189 10.3002 4.34199 11.2082C3.75573 11.3826 3.18096 11.6001 2.61928 11.8602ZM3.20129 12.562C3.63521 12.3712 4.0773 12.2074 4.52677 12.0709C4.68058 12.708 4.87106 13.3364 5.09803 13.9545C4.39133 13.6094 3.75102 13.1395 3.20129 12.562ZM7.56055 14.6064C7.099 14.5764 6.64657 14.4993 6.20894 14.3771C5.86133 13.5533 5.58389 12.7086 5.37696 11.847C6.0894 11.6877 6.81834 11.5946 7.56055 11.5682V14.6064ZM7.56055 10.6888C6.75641 10.7154 5.96665 10.815 5.19479 10.9869C5.04145 10.1511 4.9531 9.30084 4.93074 8.43945H7.56055V10.6888ZM7.56055 7.56055H4.93074C4.9531 6.69916 5.04145 5.84894 5.19479 5.01312C5.96665 5.18504 6.75641 5.28465 7.56055 5.31122V7.56055ZM7.56055 4.43179C6.81834 4.40545 6.0894 4.31231 5.37696 4.15303C5.58389 3.29138 5.86133 2.44669 6.20894 1.62286C6.64657 1.50069 7.099 1.42364 7.56055 1.39361V4.43179ZM13.3807 4.13984C14.1017 5.14033 14.5254 6.31716 14.6064 7.56055H11.9485C11.9254 6.62396 11.8281 5.69979 11.658 4.79179C12.2443 4.61738 12.819 4.39994 13.3807 4.13984ZM12.7987 3.43804C12.3648 3.62885 11.9227 3.79259 11.4732 3.92911C11.3194 3.29196 11.1289 2.6636 10.902 2.04547C11.6087 2.39062 12.249 2.86054 12.7987 3.43804ZM8.43945 1.39361C8.901 1.42364 9.35343 1.50069 9.79107 1.62286C10.1387 2.44669 10.4161 3.29138 10.623 4.15303C9.91059 4.31231 9.18166 4.40545 8.43945 4.43179V1.39361ZM8.43945 5.31122C9.24359 5.28465 10.0333 5.18504 10.8052 5.01312C10.9585 5.84894 11.0469 6.69916 11.0693 7.56055H8.43945V5.31122ZM9.79104 14.3771C9.35343 14.4993 8.901 14.5764 8.43945 14.6064V11.5682C9.18166 11.5946 9.91059 11.6877 10.623 11.847C10.4161 12.7086 10.1387 13.5533 9.79104 14.3771ZM8.43945 10.6888V8.43945H11.0693C11.0469 9.30084 10.9585 10.1511 10.8052 10.9869C10.0333 10.815 9.24359 10.7154 8.43945 10.6888ZM10.902 13.9545C11.1289 13.3364 11.3195 12.708 11.4732 12.0709C11.9227 12.2074 12.3648 12.3712 12.7987 12.5619C12.2493 13.1392 11.609 13.6092 10.902 13.9545ZM13.3807 11.8602C12.8191 11.6001 12.2443 11.3826 11.658 11.2082C11.8281 10.3002 11.9254 9.37605 11.9485 8.43945H14.6064C14.5254 9.68284 14.1017 10.8597 13.3807 11.8602Z" fill="#161616"/>
</g>
<defs>
<clipPath id="clip0_5780_3284">
<rect width="16" height="16" fill="white"/>
</clipPath>
</defs>
</svg>
