<svg width="16" height="16" viewBox="0 0 16 16" fill="none" xmlns="http://www.w3.org/2000/svg">
<g id="Type=Purple">
<g id="Outlined">
<path id="secondary" fill-rule="evenodd" clip-rule="evenodd" d="M10.472 13.6087H12.472V6.3327L8.30987 2.17232C8.1228 1.98525 7.83512 1.97714 7.64405 2.13485C7.63354 2.14773 7.62231 2.16016 7.61039 2.1721L3.47202 6.31398V13.6087H5.47202V11.1134C5.47202 9.73056 6.58921 8.61336 7.97202 8.61336C9.34707 8.61336 10.472 9.72947 10.472 11.1134V13.6087Z" fill="#F5EFF9"/>
<path id="primary" fill-rule="evenodd" clip-rule="evenodd" d="M6.85114 1.51715L0.612972 7.76061C0.417792 7.95596 0.417926 8.27254 0.613271 8.46772C0.808616 8.6629 1.1252 8.66276 1.32038 8.46742L7.61038 2.17209C7.6223 2.16015 7.63353 2.14771 7.64405 2.13483C7.83512 1.97713 8.12272 1.98516 8.30979 2.17224L14.6032 8.46298C14.7985 8.6582 15.1151 8.65813 15.3103 8.46283C15.5055 8.26752 15.5055 7.95094 15.3102 7.75572L9.0169 1.46513C8.42999 0.878219 7.4777 0.873835 6.89345 1.46816C6.87817 1.48371 6.86406 1.50008 6.85114 1.51715Z" fill="#8449BF"/>
<path id="primary_2" fill-rule="evenodd" clip-rule="evenodd" d="M2.97202 5.60202C3.24816 5.60202 3.47202 5.82588 3.47202 6.10202V13.6087H12.472V6.11535C12.472 5.83921 12.6959 5.61535 12.972 5.61535C13.2482 5.61535 13.472 5.83921 13.472 6.11535V14.1087C13.472 14.3848 13.2482 14.6087 12.972 14.6087H2.97202C2.69587 14.6087 2.47202 14.3848 2.47202 14.1087V6.10202C2.47202 5.82588 2.69587 5.60202 2.97202 5.60202Z" fill="#8449BF"/>
<path id="primary_3" fill-rule="evenodd" clip-rule="evenodd" d="M5.47202 11.1133C5.47202 9.73053 6.58921 8.61334 7.97202 8.61334C9.34707 8.61334 10.472 9.72945 10.472 11.1133V14.1133C10.472 14.3895 10.2482 14.6133 9.97202 14.6133C9.69587 14.6133 9.47202 14.3895 9.47202 14.1133V11.1133C9.47202 10.2839 8.79696 9.61334 7.97202 9.61334C7.14149 9.61334 6.47202 10.2828 6.47202 11.1133V14.1133C6.47202 14.3895 6.24816 14.6133 5.97202 14.6133C5.69587 14.6133 5.47202 14.3895 5.47202 14.1133V11.1133Z" fill="#8449BF"/>
</g>
</g>
</svg>
