<svg width="16" height="16" viewBox="0 0 16 16" fill="none" xmlns="http://www.w3.org/2000/svg">
<path fill-rule="evenodd" clip-rule="evenodd" d="M2.06683 8.00003C2.06683 4.29022 5.0682 1.28885 8.77801 1.28885C12.4811 1.28885 15.4892 4.28988 15.4892 8.00003C15.4892 11.7035 12.4815 14.7112 8.77801 14.7112C8.50187 14.7112 8.27801 14.4873 8.27801 14.2112C8.27801 13.9351 8.50187 13.7112 8.77801 13.7112C11.9292 13.7112 14.4892 11.1512 14.4892 8.00003C14.4892 4.84284 11.9295 2.28885 8.77801 2.28885C5.62049 2.28885 3.06683 4.8425 3.06683 8.00003V8.47781C3.06683 8.75395 2.84298 8.97781 2.56683 8.97781C2.29069 8.97781 2.06683 8.75395 2.06683 8.47781V8.00003Z" fill="black"/>
<path fill-rule="evenodd" clip-rule="evenodd" d="M0.696516 6.34383C0.911298 6.17026 1.22611 6.20368 1.39967 6.41846L2.58529 7.88566L4.05248 6.70005C4.26727 6.52649 4.58208 6.5599 4.75564 6.77468C4.9292 6.98946 4.89579 7.30428 4.681 7.47784L2.82491 8.97771C2.72177 9.06106 2.58974 9.10002 2.45787 9.08602C2.32601 9.07203 2.2051 9.00622 2.12175 8.90308L0.621879 7.04698C0.448318 6.8322 0.481734 6.51739 0.696516 6.34383Z" fill="black"/>
<path fill-rule="evenodd" clip-rule="evenodd" d="M9.35733 5.99126C9.15423 5.89556 8.93103 5.85028 8.70668 5.85927C8.70001 5.85954 8.69333 5.85968 8.68665 5.85968C8.29829 5.85968 7.96585 5.97828 7.7418 6.14623C7.51795 6.31402 7.42615 6.50773 7.42615 6.67984C7.42615 6.85269 7.51804 7.04666 7.74103 7.21435C7.96426 7.38223 8.29561 7.50086 8.68324 7.50086C9.26653 7.50086 9.81409 7.67757 10.2271 7.98713C10.6403 8.29679 10.9429 8.76292 10.9429 9.32018C10.9429 9.87736 10.6404 10.3436 10.2273 10.6535C9.81664 10.9616 9.27288 11.1383 8.69314 11.1403C8.31125 11.154 7.93158 11.0762 7.58575 10.9135C7.23687 10.7493 6.93271 10.5034 6.69907 10.1966C6.53174 9.97694 6.57418 9.66321 6.79385 9.49589C7.01352 9.32856 7.32725 9.371 7.49458 9.59067C7.63082 9.76954 7.80818 9.91293 8.01161 10.0087C8.21505 10.1044 8.43858 10.1497 8.66324 10.1407C8.66991 10.1405 8.67657 10.1403 8.68324 10.1403C9.07093 10.1403 9.40314 10.0217 9.6272 9.85359C9.85117 9.68557 9.9429 9.49178 9.9429 9.32018C9.9429 9.14866 9.85126 8.95513 9.62737 8.78732C9.40336 8.61942 9.07109 8.50086 8.68324 8.50086C8.09974 8.50086 7.55253 8.32381 7.14 8.01358C6.72724 7.70317 6.42615 7.23663 6.42615 6.67984C6.42615 6.12232 6.72861 5.65595 7.14201 5.34607C7.55288 5.03809 8.09683 4.86168 8.67675 4.85969C9.05846 4.84601 9.43797 4.9238 9.78358 5.08665C10.1322 5.25094 10.4361 5.49694 10.6694 5.80376C10.8365 6.02358 10.7938 6.33727 10.574 6.5044C10.3542 6.67153 10.0405 6.62882 9.87334 6.40899C9.73745 6.23026 9.56044 6.08696 9.35733 5.99126Z" fill="black"/>
<path fill-rule="evenodd" clip-rule="evenodd" d="M8.68665 10.1404C8.96279 10.1404 9.18665 10.3642 9.18665 10.6404V11.5202C9.18665 11.7964 8.96279 12.0202 8.68665 12.0202C8.4105 12.0202 8.18665 11.7964 8.18665 11.5202V10.6404C8.18665 10.3642 8.4105 10.1404 8.68665 10.1404Z" fill="black"/>
<path fill-rule="evenodd" clip-rule="evenodd" d="M8.68665 3.97986C8.96279 3.97986 9.18665 4.20372 9.18665 4.47986V5.35969C9.18665 5.63583 8.96279 5.85969 8.68665 5.85969C8.4105 5.85969 8.18665 5.63583 8.18665 5.35969V4.47986C8.18665 4.20372 8.4105 3.97986 8.68665 3.97986Z" fill="black"/>
</svg>
