<svg width="16" height="16" viewBox="0 0 16 16" fill="none" xmlns="http://www.w3.org/2000/svg">
<path fill-rule="evenodd" clip-rule="evenodd" d="M4.30817 1.00355C5.0238 0.707129 5.78906 0.549668 6.56308 0.539298C6.58995 0.534842 6.6173 0.532562 6.64489 0.532562C8.26516 0.532562 9.81906 1.17621 10.9648 2.32191C12.1105 3.46761 12.7541 5.02152 12.7541 6.64179C12.7541 8.09676 12.2351 9.49822 11.2996 10.5986L15.3148 14.6139C15.5101 14.8092 15.5101 15.1257 15.3148 15.321C15.1196 15.5163 14.803 15.5163 14.6077 15.321L10.5917 11.305C9.49281 12.2351 8.09545 12.751 6.64489 12.751C5.84302 12.751 5.049 12.5931 4.30817 12.2862C3.56734 11.9794 2.89421 11.5296 2.3272 10.9626C1.7602 10.3956 1.31042 9.72243 1.00356 8.9816C0.696697 8.24077 0.538757 7.44675 0.538757 6.64488C0.538757 5.84301 0.696697 5.049 1.00356 4.30817C1.31042 3.56734 1.7602 2.8942 2.3272 2.32719C2.89421 1.76019 3.56734 1.31041 4.30817 1.00355ZM6.64489 1.53875C6.67012 1.53875 6.69515 1.53684 6.71979 1.53311C8.04775 1.55256 9.31716 2.08852 10.2577 3.02902C11.2158 3.98719 11.7541 5.28674 11.7541 6.64179C11.7541 7.99684 11.2158 9.29639 10.2577 10.2546C9.29949 11.2127 7.99994 11.751 6.64489 11.751C5.97434 11.751 5.31036 11.6189 4.69086 11.3623C4.07135 11.1057 3.50846 10.7296 3.03431 10.2555C2.56016 9.78131 2.18405 9.21842 1.92744 8.59891C1.67083 7.97941 1.53876 7.31543 1.53876 6.64488C1.53876 5.97433 1.67083 5.31035 1.92744 4.69085C2.18405 4.07135 2.56016 3.50845 3.03431 3.0343C3.50846 2.56015 4.07135 2.18404 4.69086 1.92743C5.31036 1.67082 5.97434 1.53875 6.64489 1.53875Z" fill="#161616"/>
<path d="M9.40185 6.79813C9.51127 6.79813 9.59998 6.70943 9.59998 6.60001C9.59998 6.49059 9.51127 6.40188 9.40185 6.40188H6.7981V3.79813C6.7981 3.68871 6.7094 3.60001 6.59998 3.60001C6.49056 3.60001 6.40185 3.68871 6.40185 3.79813V6.40188H3.7981C3.68868 6.40188 3.59998 6.49059 3.59998 6.60001C3.59998 6.70943 3.68868 6.79813 3.7981 6.79813H6.40185L6.40185 9.40188C6.40185 9.5113 6.49056 9.60001 6.59998 9.60001C6.7094 9.60001 6.7981 9.5113 6.7981 9.40188V6.79813H9.40185Z" fill="#161616"/>
<path fill-rule="evenodd" clip-rule="evenodd" d="M9.79998 6.60001C9.79997 6.81988 9.62173 6.99813 9.40185 6.99813H6.9981V9.40188C6.9981 9.62176 6.81985 9.8 6.59998 9.80001C6.3801 9.8 6.20185 9.62176 6.20185 9.40188V6.99813H3.7981C3.57822 6.99813 3.39998 6.81988 3.39998 6.60001C3.39998 6.38013 3.57822 6.20188 3.7981 6.20188H6.20185V3.79813C6.20185 3.57825 6.3801 3.40001 6.59998 3.40001C6.81985 3.40001 6.9981 3.57825 6.9981 3.79813V6.20188H9.40185C9.62173 6.20188 9.79997 6.38013 9.79998 6.60001ZM6.7981 6.40188V3.79813C6.7981 3.68871 6.7094 3.60001 6.59998 3.60001C6.49056 3.60001 6.40185 3.68871 6.40185 3.79813V6.40188H3.7981C3.68868 6.40188 3.59998 6.49059 3.59998 6.60001C3.59998 6.70943 3.68868 6.79813 3.7981 6.79813H6.40185L6.40185 9.40188C6.40185 9.5113 6.49056 9.60001 6.59998 9.60001C6.7094 9.60001 6.7981 9.5113 6.7981 9.40188V6.79813H9.40185C9.51127 6.79813 9.59998 6.70943 9.59998 6.60001C9.59998 6.49059 9.51127 6.40188 9.40185 6.40188H6.7981Z" fill="#161616"/>
</svg>
