<svg width="16" height="16" viewBox="0 0 16 16" fill="none" xmlns="http://www.w3.org/2000/svg">
<path fill-rule="evenodd" clip-rule="evenodd" d="M8.50002 8C8.50002 8.27614 8.27616 8.5 8.00002 8.5H2.00002C1.72388 8.5 1.50002 8.27614 1.50002 8C1.50002 7.72386 1.72388 7.5 2.00002 7.5H8.00002C8.27616 7.5 8.50002 7.72386 8.50002 8Z" fill="#161616"/>
<path fill-rule="evenodd" clip-rule="evenodd" d="M14.5 8C14.5 8.27614 14.2762 8.5 14 8.5H10.6667C10.3905 8.5 10.1667 8.27614 10.1667 8C10.1667 7.72386 10.3905 7.5 10.6667 7.5H14C14.2762 7.5 14.5 7.72386 14.5 8Z" fill="#161616"/>
<path fill-rule="evenodd" clip-rule="evenodd" d="M7.16671 3.17001C7.16671 3.44616 6.94285 3.67001 6.66671 3.67001L2.00004 3.67001C1.7239 3.67001 1.50004 3.44616 1.50004 3.17001C1.50004 2.89387 1.7239 2.67001 2.00004 2.67001L6.66671 2.67001C6.94285 2.67001 7.16671 2.89387 7.16671 3.17001Z" fill="#161616"/>
<path fill-rule="evenodd" clip-rule="evenodd" d="M14.5 3.17001C14.5 3.44616 14.2762 3.67001 14 3.67001L9.33335 3.67001C9.05721 3.67001 8.83335 3.44616 8.83335 3.17001C8.83335 2.89387 9.05721 2.67001 9.33335 2.67001L14 2.67001C14.2762 2.67001 14.5 2.89387 14.5 3.17001Z" fill="#161616"/>
<path fill-rule="evenodd" clip-rule="evenodd" d="M6.66671 0.670013C6.94285 0.670013 7.16671 0.893871 7.16671 1.17001V5.17001C7.16671 5.44616 6.94285 5.67001 6.66671 5.67001C6.39056 5.67001 6.16671 5.44616 6.16671 5.17001V1.17001C6.16671 0.893871 6.39056 0.670013 6.66671 0.670013Z" fill="#161616"/>
<path fill-rule="evenodd" clip-rule="evenodd" d="M10.6667 5.5C10.9428 5.5 11.1667 5.72386 11.1667 6V10C11.1667 10.2761 10.9428 10.5 10.6667 10.5C10.3906 10.5 10.1667 10.2761 10.1667 10V6C10.1667 5.72386 10.3906 5.5 10.6667 5.5Z" fill="#161616"/>
<path fill-rule="evenodd" clip-rule="evenodd" d="M5.83333 12.83C5.83333 13.1061 5.60948 13.33 5.33333 13.33H2C1.72386 13.33 1.5 13.1061 1.5 12.83C1.5 12.5538 1.72386 12.33 2 12.33H5.33333C5.60948 12.33 5.83333 12.5538 5.83333 12.83Z" fill="#161616"/>
<path fill-rule="evenodd" clip-rule="evenodd" d="M14.5 12.83C14.5 13.1061 14.2762 13.33 14 13.33L8.00002 13.33C7.72388 13.33 7.50002 13.1061 7.50002 12.83C7.50002 12.5538 7.72388 12.33 8.00002 12.33L14 12.33C14.2762 12.33 14.5 12.5538 14.5 12.83Z" fill="#161616"/>
<path fill-rule="evenodd" clip-rule="evenodd" d="M5.33333 10.33C5.60948 10.33 5.83333 10.5538 5.83333 10.83V14.83C5.83333 15.1061 5.60948 15.33 5.33333 15.33C5.05719 15.33 4.83333 15.1061 4.83333 14.83V10.83C4.83333 10.5538 5.05719 10.33 5.33333 10.33Z" fill="#161616"/>
</svg>
