<svg width="16" height="16" viewBox="0 0 16 16" fill="none" xmlns="http://www.w3.org/2000/svg">
<path d="M6.16665 2.50001C6.16665 1.49158 6.99155 0.666672 7.99998 0.666672C9.0084 0.666672 9.83331 1.49158 9.83331 2.50001C9.83331 3.50843 9.0084 4.33334 7.99998 4.33334C6.99155 4.33334 6.16665 3.50843 6.16665 2.50001ZM6.16665 13.5C6.16665 12.4916 6.99155 11.6667 7.99998 11.6667C9.0084 11.6667 9.83331 12.4916 9.83331 13.5C9.83331 14.5084 9.0084 15.3333 7.99998 15.3333C6.99155 15.3333 6.16665 14.5084 6.16665 13.5ZM6.16665 8C6.16665 6.99158 6.99155 6.16667 7.99998 6.16667C9.0084 6.16667 9.83331 6.99158 9.83331 8C9.83331 9.00843 9.0084 9.83334 7.99998 9.83334C6.99155 9.83334 6.16665 9.00843 6.16665 8Z" fill="#141414"/>
</svg>
