<svg width="48" height="48" viewBox="0 0 48 48" fill="none" xmlns="http://www.w3.org/2000/svg">
<path fill-rule="evenodd" clip-rule="evenodd" d="M0 20V43.5C0 45.9853 2.01472 48 4.5 48H43.5C45.9853 48 48 45.9853 48 43.5V20H0Z" fill="#E9DAF2"/>
<path fill-rule="evenodd" clip-rule="evenodd" d="M4.5 9C3.67157 9 3 9.67157 3 10.5V43.5C3 44.3284 3.67157 45 4.5 45H43.5C44.3284 45 45 44.3284 45 43.5V10.5C45 9.67157 44.3284 9 43.5 9H4.5ZM0 10.5C0 8.01472 2.01472 6 4.5 6H43.5C45.9853 6 48 8.01472 48 10.5V43.5C48 45.9853 45.9853 48 43.5 48H4.5C2.01472 48 0 45.9853 0 43.5V10.5Z" fill="#522974"/>
<path fill-rule="evenodd" clip-rule="evenodd" d="M0 19.5C0 18.6716 0.671573 18 1.5 18H46.5C47.3284 18 48 18.6716 48 19.5C48 20.3284 47.3284 21 46.5 21H1.5C0.671573 21 0 20.3284 0 19.5Z" fill="#522974"/>
<path fill-rule="evenodd" clip-rule="evenodd" d="M13.5 0C14.3284 0 15 0.671573 15 1.5V12C15 12.8284 14.3284 13.5 13.5 13.5C12.6716 13.5 12 12.8284 12 12V1.5C12 0.671573 12.6716 0 13.5 0Z" fill="#522974"/>
<path fill-rule="evenodd" clip-rule="evenodd" d="M34.5 0C35.3284 0 36 0.671573 36 1.5V12C36 12.8284 35.3284 13.5 34.5 13.5C33.6716 13.5 33 12.8284 33 12V1.5C33 0.671573 33.6716 0 34.5 0Z" fill="#522974"/>
<path fill-rule="evenodd" clip-rule="evenodd" d="M10.6331 25.5768C10.8053 25.5079 10.9932 25.47 11.19 25.47C12.4154 25.47 13.44 26.4586 13.44 27.72C13.44 29.0073 12.4035 29.9217 11.2749 29.9781C11.25 29.9794 11.225 29.98 11.2 29.98C9.92529 29.98 8.96002 28.9419 8.96002 27.74C8.96002 26.6581 9.69691 25.8258 10.6331 25.5768Z" fill="#522974"/>
<path fill-rule="evenodd" clip-rule="evenodd" d="M10.6331 36.0768C10.8053 36.0079 10.9932 35.97 11.19 35.97C12.4154 35.97 13.44 36.9586 13.44 38.22C13.44 39.5074 12.4035 40.4217 11.2749 40.4781C11.25 40.4794 11.225 40.48 11.2 40.48C9.92529 40.48 8.96002 39.4419 8.96002 38.24C8.96002 37.1581 9.69691 36.3258 10.6331 36.0768Z" fill="#522974"/>
<path fill-rule="evenodd" clip-rule="evenodd" d="M23.9043 25.4704C25.1874 25.4399 26.2 26.4787 26.2 27.72C26.2 29.0073 25.1634 29.9217 24.0349 29.9781C24.0099 29.9794 23.985 29.98 23.96 29.98C22.6852 29.98 21.72 28.9419 21.72 27.74C21.72 26.6698 22.441 25.8439 23.3628 25.5851C23.5298 25.5154 23.7124 25.475 23.9043 25.4704Z" fill="#522974"/>
<path fill-rule="evenodd" clip-rule="evenodd" d="M23.9043 35.9704C25.1874 35.9399 26.2 36.9787 26.2 38.22C26.2 39.5074 25.1634 40.4217 24.0349 40.4781C24.0099 40.4794 23.985 40.48 23.96 40.48C22.6852 40.48 21.72 39.4419 21.72 38.24C21.72 37.1698 22.441 36.3439 23.3628 36.0851C23.5298 36.0154 23.7124 35.975 23.9043 35.9704Z" fill="#522974"/>
<path fill-rule="evenodd" clip-rule="evenodd" d="M36.1431 25.5768C36.3152 25.5079 36.5032 25.47 36.7 25.47C37.9253 25.47 38.95 26.4586 38.95 27.72C38.95 29.0074 37.9134 29.9217 36.7849 29.9781C36.7599 29.9794 36.7349 29.98 36.71 29.98C35.4352 29.98 34.47 28.9419 34.47 27.74C34.47 26.6581 35.2069 25.8258 36.1431 25.5768Z" fill="#522974"/>
<path fill-rule="evenodd" clip-rule="evenodd" d="M36.1431 36.0768C36.3153 36.0079 36.5032 35.97 36.7 35.97C37.9253 35.97 38.95 36.9586 38.95 38.22C38.95 39.5074 37.9134 40.4217 36.7849 40.4781C36.7599 40.4794 36.7349 40.48 36.71 40.48C35.4352 40.48 34.47 39.4419 34.47 38.24C34.47 37.1581 35.2069 36.3258 36.1431 36.0768Z" fill="#522974"/>
</svg>
