<svg width="16" height="16" viewBox="0 0 16 16" fill="none" xmlns="http://www.w3.org/2000/svg">
<path fill-rule="evenodd" clip-rule="evenodd" d="M13.3536 3.35351C13.5488 3.15825 13.5488 2.84166 13.3536 2.6464C13.1583 2.45114 12.8417 2.45114 12.6464 2.6464L8 7.29285L3.35355 2.6464C3.15829 2.45114 2.84171 2.45114 2.64645 2.6464C2.45118 2.84166 2.45118 3.15825 2.64645 3.35351L7.29289 7.99995L2.64645 12.6464C2.45118 12.8417 2.45118 13.1582 2.64645 13.3535C2.84171 13.5488 3.15829 13.5488 3.35355 13.3535L8 8.70706L12.6464 13.3535C12.8417 13.5488 13.1583 13.5488 13.3536 13.3535C13.5488 13.1582 13.5488 12.8417 13.3536 12.6464L8.70711 7.99995L13.3536 3.35351Z" fill="#141414"/>
</svg>
