<svg width="16" height="16" viewBox="0 0 16 16" fill="none" xmlns="http://www.w3.org/2000/svg">
<path fill-rule="evenodd" clip-rule="evenodd" d="M4.70001 7.06668C4.70001 6.79054 4.92387 6.56668 5.20001 6.56668H10.8C11.0761 6.56668 11.3 6.79054 11.3 7.06668C11.3 7.34282 11.0761 7.56667 10.8 7.56667H5.20001C4.92387 7.56667 4.70001 7.34282 4.70001 7.06668Z" fill="#141414"/>
<path fill-rule="evenodd" clip-rule="evenodd" d="M4.70001 9.39999C4.70001 9.12385 4.92387 8.89999 5.20001 8.89999H10.8C11.0761 8.89999 11.3 9.12385 11.3 9.39999C11.3 9.67613 11.0761 9.89998 10.8 9.89998H5.20001C4.92387 9.89998 4.70001 9.67613 4.70001 9.39999Z" fill="#141414"/>
<path fill-rule="evenodd" clip-rule="evenodd" d="M4.70001 11.7333C4.70001 11.4572 4.92387 11.2333 5.20001 11.2333H10.8C11.0761 11.2333 11.3 11.4572 11.3 11.7333C11.3 12.0095 11.0761 12.2333 10.8 12.2333H5.20001C4.92387 12.2333 4.70001 12.0095 4.70001 11.7333Z" fill="#141414"/>
<path fill-rule="evenodd" clip-rule="evenodd" d="M7.99996 1.49999C6.98188 1.49999 6.16662 2.31525 6.16662 3.33333C6.16662 3.60947 5.94276 3.83332 5.66662 3.83332H3.33329C3.09299 3.83332 2.89995 4.02636 2.89995 4.26666V14.0667C2.89995 14.3029 3.09515 14.5 3.33329 14.5H12.6666C12.9007 14.5 13.1 14.3007 13.1 14.0667V4.26666C13.1 4.02852 12.9029 3.83332 12.6666 3.83332H10.3333C10.0572 3.83332 9.8333 3.60947 9.8333 3.33333C9.8333 2.31611 9.01269 1.49999 7.99996 1.49999ZM5.21018 2.83333C5.44484 1.50331 6.6003 0.5 7.99996 0.5C9.39337 0.5 10.5538 1.50273 10.7896 2.83333H12.6666C13.4508 2.83333 14.1 3.47191 14.1 4.26666V14.0667C14.1 14.853 13.453 15.5 12.6666 15.5H3.33329C2.53854 15.5 1.89996 14.8509 1.89996 14.0667V4.26666C1.89996 3.47408 2.54071 2.83333 3.33329 2.83333H5.21018Z" fill="#141414"/>
<path fill-rule="evenodd" clip-rule="evenodd" d="M7.99993 2.36606C7.58564 2.36606 7.2666 2.69698 7.2666 3.09939C7.2666 3.49873 7.58879 3.83271 7.99993 3.83271C8.40792 3.83271 8.73326 3.49566 8.73326 3.09939C8.73326 2.67653 8.38739 2.36606 7.99993 2.36606Z" fill="#141414"/>
</svg>
