<svg width="48" height="48" viewBox="0 0 48 48" fill="none" xmlns="http://www.w3.org/2000/svg">
<path d="M38.6801 45.05C38.7501 44.9 38.7901 44.73 38.8301 44.57C38.8601 44.46 38.9101 44.35 38.9301 44.23C38.9701 44.03 38.9801 43.83 38.9901 43.62C39.0001 43.53 39.0201 43.45 39.0201 43.37V28.67C32.1346 22.68 25.5961 16.3327 19.4801 9.54004H4.50009H4.48009C3.76009 9.54004 3.08009 9.73004 2.46009 10.04C1.77009 10.39 1.18009 10.89 0.750092 11.52C0.690092 11.6 0.650092 11.69 0.600092 11.78C0.510092 11.94 0.420092 12.09 0.340092 12.26C0.270092 12.41 0.240092 12.58 0.190092 12.74C0.160092 12.85 0.110092 12.96 0.0900916 13.08C0.0500916 13.28 0.0400916 13.48 0.0300916 13.68C0.0200916 13.77 9.15527e-05 13.85 9.15527e-05 13.94V28.63V43.35C9.15527e-05 45.76 2.01009 47.74 4.52009 47.76H19.5401H34.5201H34.5401C35.2601 47.76 35.9501 47.57 36.5701 47.25C37.2501 46.9 37.8401 46.41 38.2701 45.78C38.3301 45.69 38.3701 45.6 38.4201 45.51C38.5101 45.36 38.6101 45.21 38.6801 45.05Z" fill="#E9DAF2"/>
<path d="M18.7013 30.9539C18.3013 30.9539 17.9213 30.7971 17.6413 30.5228C17.3113 30.1996 17.1513 29.7392 17.2213 29.2788L18.2813 21.9906C18.3313 21.6771 18.4713 21.3833 18.7013 21.1579C25.0611 14.928 30.151 9.9517 36.51 3.72245C39.2387 6.2649 42.2284 9.22845 45 12L27.2013 29.4845C26.9713 29.7098 26.6713 29.8567 26.3513 29.9057L18.9113 30.9441C18.8413 30.9441 18.7713 30.9539 18.7013 30.9539Z" fill="#E9DAF2"/>
<path d="M18.7014 30.9539C18.3014 30.9539 17.9214 30.7971 17.6414 30.5229C17.3114 30.1996 17.1514 29.7392 17.2214 29.2788L18.2814 21.9906C18.3314 21.6771 18.4714 21.3833 18.7014 21.158L37.6414 2.60448C37.6814 2.5555 37.7214 2.50652 37.7714 2.45754C40.0914 0.155501 43.9014 0.145705 46.2514 2.42815C48.5814 4.7106 48.5814 8.43305 46.2614 10.7351L27.2014 29.4845C26.9714 29.7098 26.6714 29.8567 26.3514 29.9057L18.9114 30.9441C18.8414 30.9441 18.7714 30.9539 18.7014 30.9539ZM21.1714 22.882L20.4614 27.7506L25.4214 27.0551L44.1314 8.66815C45.2914 7.52203 45.2914 5.65101 44.1314 4.51468C43.0014 3.41754 41.1914 3.38815 40.0314 4.40693C39.9914 4.44611 39.9614 4.49509 39.9214 4.53428L21.1714 22.882Z" fill="#522974"/>
<path d="M43.0801 13.2821C42.7001 13.2821 42.3101 13.1351 42.0201 12.851L35.6601 6.62083C35.0701 6.04287 35.0701 5.11226 35.6601 4.54409C36.2501 3.97593 37.2001 3.96613 37.7801 4.54409L44.1401 10.7743C44.7301 11.3523 44.7301 12.2829 44.1401 12.851C43.8501 13.1449 43.4601 13.2821 43.0801 13.2821Z" fill="#522974"/>
<path d="M34.5201 47.7637H4.52007C2.01007 47.7441 6.81182e-05 45.7653 6.81182e-05 43.3555V13.9678C-0.00993188 12.8021 0.450068 11.6951 1.30007 10.8527C2.15007 10.0102 3.28007 9.54004 4.48007 9.54004H19.4801C20.3101 9.54004 20.9801 10.1964 20.9801 11.0094C20.9801 11.8225 20.3101 12.4788 19.4801 12.4788H4.48007C4.09007 12.4788 3.71007 12.6355 3.43007 12.9098C3.15007 13.1841 3.00007 13.5662 3.00007 13.958V43.3653C3.00007 44.1686 3.68007 44.8249 4.52007 44.8347H34.5201C35.3301 44.8347 36.0201 44.1588 36.0201 43.3653V28.6715C36.0201 27.8584 36.6901 27.2021 37.5201 27.2021C38.3501 27.2021 39.0201 27.8584 39.0201 28.6715V43.3653C39.0201 45.7947 37.0001 47.7637 34.5201 47.7637Z" fill="#522974"/>
</svg>
