<svg width="48" height="48" viewBox="0 0 48 48" fill="none" xmlns="http://www.w3.org/2000/svg">
<path d="M18.6701 30.9539C18.2701 30.9539 17.8901 30.7971 17.6101 30.5229C17.2801 30.1996 17.1201 29.7392 17.1901 29.2788L18.2501 21.9906C18.3001 21.6771 18.4401 21.3833 18.6701 21.158L37.6101 2.60448C37.6501 2.5555 37.6901 2.50652 37.7401 2.45754C40.0601 0.155501 43.8701 0.145705 46.2201 2.42815C48.5501 4.7106 48.5501 8.43305 46.2301 10.7351L27.1701 29.4845C26.9401 29.7098 26.6401 29.8567 26.3201 29.9057L18.8801 30.9441C18.8101 30.9441 18.7401 30.9539 18.6701 30.9539ZM21.1401 22.882L20.4301 27.7506L25.3901 27.0551L44.1001 8.66815C45.2601 7.52203 45.2601 5.65101 44.1001 4.51468C42.9701 3.41754 41.1601 3.38815 40.0001 4.40693C39.9601 4.44611 39.9301 4.49509 39.8901 4.53428L21.1401 22.882Z" fill="#010202"/>
<path d="M43.0801 13.2821C42.7001 13.2821 42.3101 13.1351 42.0201 12.851L35.6601 6.62084C35.0701 6.04288 35.0701 5.11227 35.6601 4.54411C36.2501 3.97594 37.2001 3.96615 37.7801 4.54411L44.1401 10.7743C44.7301 11.3523 44.7301 12.2829 44.1401 12.851C43.8501 13.1449 43.4601 13.2821 43.0801 13.2821Z" fill="#010202"/>
<path d="M34.5201 47.7637H4.52007C2.01007 47.7441 6.81182e-05 45.7653 6.81182e-05 43.3555V13.9678C-0.00993188 12.8021 0.450068 11.6951 1.30007 10.8527C2.15007 10.0102 3.28007 9.54002 4.48007 9.54002H19.4801C20.3101 9.54002 20.9801 10.1964 20.9801 11.0094C20.9801 11.8225 20.3101 12.4788 19.4801 12.4788H4.48007C4.09007 12.4788 3.71007 12.6355 3.43007 12.9098C3.15007 13.1841 3.00007 13.5661 3.00007 13.958V43.3653C3.00007 44.1686 3.68007 44.8249 4.52007 44.8347H34.5201C35.3301 44.8347 36.0201 44.1588 36.0201 43.3653V28.6715C36.0201 27.8584 36.6901 27.2021 37.5201 27.2021C38.3501 27.2021 39.0201 27.8584 39.0201 28.6715V43.3653C39.0201 45.7947 37.0001 47.7637 34.5201 47.7637Z" fill="#010202"/>
</svg>
