<svg width="16" height="16" viewBox="0 0 16 16" fill="none" xmlns="http://www.w3.org/2000/svg">
<path fill-rule="evenodd" clip-rule="evenodd" d="M12.9968 1.86781C12.9855 1.88163 12.9733 1.89492 12.9603 1.90763L12.6662 2.19579L13.9223 3.42629L14.2285 3.1251L14.2291 3.12454C14.5725 2.78362 14.5697 2.23493 14.2315 1.90255C13.8912 1.57403 13.3447 1.56441 12.9968 1.86781ZM7.14918 7.60081L11.9517 2.89575L13.2094 4.12772L8.42829 8.83141L6.93999 9.03912L7.14918 7.60081ZM9.01177 9.66019L14.1858 4.56992C14.2236 4.54786 14.2592 4.52043 14.2913 4.48763C14.3189 4.45945 14.3425 4.42883 14.3621 4.39649L14.9311 3.8367L14.9323 3.83544C15.6693 3.10522 15.6723 1.91401 14.9303 1.1872L14.9303 1.1872L14.9283 1.18521C14.1883 0.4686 12.9886 0.46569 12.2523 1.1953C12.2372 1.21028 12.2231 1.22607 12.2103 1.24255L6.32878 7.00463C6.25055 7.08126 6.19965 7.18146 6.18389 7.28982L5.85452 9.55445C5.83188 9.71012 5.88383 9.86738 5.99475 9.97894C6.10567 10.0905 6.26262 10.1434 6.41843 10.1216L8.73022 9.79896C8.83653 9.78412 8.93525 9.73547 9.01177 9.66019ZM1.51413 4.80123C1.51148 4.58567 1.69776 4.38813 1.94013 4.38813H6.601C6.87715 4.38813 7.101 4.16427 7.101 3.88813C7.101 3.61199 6.87715 3.38813 6.601 3.38813H1.94013C1.16443 3.38813 0.506312 4.01673 0.514169 4.81012V13.9389C0.514169 14.727 1.16613 15.3429 1.94044 15.352L1.94044 15.3521H1.94634H1.95256H11.2743C12.0503 15.3521 12.7065 14.7239 12.7065 13.9389V9.37315C12.7065 9.097 12.4826 8.87315 12.2065 8.87315C11.9303 8.87315 11.7065 9.097 11.7065 9.37315V13.9389C11.7065 14.1523 11.5175 14.3521 11.2743 14.3521H1.95256H1.94977C1.69379 14.3478 1.51417 14.1485 1.51417 13.9389V4.80737H1.51421L1.51413 4.80123Z" fill="#141414"/>
</svg>
