<svg width="16" height="16" viewBox="0 0 16 16" fill="none" xmlns="http://www.w3.org/2000/svg">
<path d="M13.5 6.16667C14.5084 6.16667 15.3334 6.99158 15.3334 8.00001C15.3334 9.00843 14.5084 9.83334 13.5 9.83334C12.4916 9.83334 11.6667 9.00843 11.6667 8.00001C11.6667 6.99158 12.4916 6.16667 13.5 6.16667ZM2.50002 6.16667C3.50845 6.16667 4.33335 6.99158 4.33335 8C4.33335 9.00843 3.50845 9.83334 2.50002 9.83334C1.4916 9.83334 0.666687 9.00843 0.666687 8C0.666687 6.99158 1.4916 6.16667 2.50002 6.16667ZM8.00002 6.16667C9.00844 6.16667 9.83335 6.99158 9.83335 8.00001C9.83335 9.00843 9.00844 9.83334 8.00002 9.83334C6.9916 9.83334 6.16669 9.00843 6.16669 8.00001C6.16669 6.99158 6.9916 6.16667 8.00002 6.16667Z" fill="#141414"/>
</svg>
