<svg width="48" height="48" viewBox="0 0 48 48" fill="none" xmlns="http://www.w3.org/2000/svg">
<path fill-rule="evenodd" clip-rule="evenodd" d="M6 11C5.17157 11 4.5 11.6716 4.5 12.5V36.5C4.5 37.3284 5.17157 38 6 38H42C42.8284 38 43.5 37.3284 43.5 36.5V12.5C43.5 11.6716 42.8284 11 42 11H6ZM1.5 12.5C1.5 10.0147 3.51472 8 6 8H42C44.4853 8 46.5 10.0147 46.5 12.5V36.5C46.5 38.9853 44.4853 41 42 41H6C3.51472 41 1.5 38.9853 1.5 36.5V12.5Z" fill="black"/>
<path fill-rule="evenodd" clip-rule="evenodd" d="M2.45137 9.64506C2.95668 8.98859 3.89848 8.86604 4.55496 9.37134L20.8532 21.9165C20.8538 21.9169 20.8544 21.9173 20.8549 21.9178C22.697 23.3252 25.2693 23.3247 27.1109 21.9165C27.1683 21.8725 27.2283 21.8332 27.2903 21.7985L43.4079 9.41069C44.0648 8.90585 45.0065 9.02907 45.5113 9.68591C46.0162 10.3427 45.8929 11.2845 45.2361 11.7893L28.9361 24.3173C28.8697 24.3683 28.7999 24.4132 28.7275 24.4518C25.8266 26.5296 21.8807 26.4789 19.0309 24.2995L19.0271 24.2967L19.0271 24.2966L2.7251 11.7486C2.06862 11.2433 1.94607 10.3015 2.45137 9.64506Z" fill="black"/>
</svg>
