<svg width="48" height="48" viewBox="0 0 48 48" fill="none" xmlns="http://www.w3.org/2000/svg">
<path d="M28.65 2.87211L47.5097 41.3913L47.5168 41.406C47.799 41.9988 47.9825 42.6781 47.9825 43.4109C47.9825 45.9194 45.9509 47.9509 43.4425 47.9509H4.54246C3.85859 47.9509 3.16588 47.809 2.53499 47.4942C0.312573 46.3953 -0.663872 43.6793 0.48441 41.413C0.516996 41.3487 0.553841 41.2874 0.594502 41.2294L19.4608 2.84009C19.9627 1.83635 20.7788 1.01064 21.8097 0.520358C24.3346 -0.719755 27.408 0.33257 28.65 2.87211Z" fill="#E9DAF2"/>
<path fill-rule="evenodd" clip-rule="evenodd" d="M28.5876 2.86118L47.4472 41.3804L47.4543 41.3951C47.7366 41.9879 47.92 42.6671 47.92 43.4C47.92 45.9084 45.8885 47.94 43.38 47.94H4.48002C3.79615 47.94 3.10345 47.798 2.47255 47.4833C0.250134 46.3844 -0.726311 43.6684 0.421971 41.4021C0.454557 41.3377 0.491403 41.2765 0.532063 41.2185L19.3984 2.82916C19.9002 1.82542 20.7163 0.999716 21.7473 0.509433C24.2721 -0.730681 27.3455 0.321645 28.5876 2.86118ZM25.8924 4.17881C25.3762 3.12295 24.0974 2.69414 23.0648 3.20465L23.0405 3.21637C22.6385 3.40624 22.2999 3.73651 22.0837 4.16686L22.0817 4.17082L3.12624 42.7416C3.0987 42.7976 3.06794 42.8514 3.03426 42.9028C2.7682 43.6078 3.0791 44.4373 3.80366 44.7948L3.81085 44.7983C3.97906 44.8825 4.20511 44.94 4.48002 44.94H43.38C44.2316 44.94 44.92 44.2516 44.92 43.4C44.92 43.1749 44.8645 42.9364 44.7488 42.6914L25.8924 4.17881Z" fill="#522974"/>
<path fill-rule="evenodd" clip-rule="evenodd" d="M23.9043 35.9704C25.1874 35.9399 26.2 36.9787 26.2 38.22C26.2 39.5073 25.1635 40.4217 24.0349 40.4781C24.01 40.4794 23.985 40.48 23.96 40.48C22.6853 40.48 21.72 39.4419 21.72 38.24C21.72 37.1698 22.4411 36.3439 23.3628 36.0851C23.5299 36.0154 23.7125 35.975 23.9043 35.9704Z" fill="#522974"/>
<path fill-rule="evenodd" clip-rule="evenodd" d="M24 15C24.8284 15 25.5 15.6716 25.5 16.5V31.5C25.5 32.3285 24.8284 33 24 33C23.1716 33 22.5 32.3285 22.5 31.5V16.5C22.5 15.6716 23.1716 15 24 15Z" fill="#522974"/>
</svg>
