<svg width="16" height="16" viewBox="0 0 16 16" fill="none" xmlns="http://www.w3.org/2000/svg">
<path fill-rule="evenodd" clip-rule="evenodd" d="M9.48946 0.940319C9.45628 0.939059 9.42353 0.9411 9.39158 0.946201H1.81815C1.81182 0.946201 1.8055 0.946321 1.79917 0.946561C1.02371 0.976009 0.43123 1.63404 0.469899 2.40743C0.470804 2.42553 0.472687 2.44348 0.475517 2.46122V13.6152C0.4523 14.3679 1.03915 15.0206 1.80535 15.0594C1.81377 15.0598 1.8222 15.06 1.83063 15.06H9.49545C9.49862 15.06 9.50178 15.06 9.50495 15.0599C9.50811 15.0599 9.51127 15.0598 9.51443 15.0597C10.2851 15.0304 10.8738 14.3809 10.8506 13.6215V10.8213C10.8506 10.5451 10.6267 10.3213 10.3506 10.3213C10.0744 10.3213 9.85057 10.5451 9.85057 10.8213V13.63C9.85057 13.6363 9.85069 13.6427 9.85093 13.649C9.85927 13.8687 9.6925 14.048 9.48401 14.06H1.84586C1.63421 14.0438 1.46695 13.8562 1.47515 13.643C1.47539 13.6366 1.47552 13.6302 1.47552 13.6238V2.3887C1.47552 2.36166 1.47333 2.33484 1.46904 2.30849C1.48235 2.10944 1.63783 1.95723 1.82958 1.9462H9.47673C9.48608 1.9462 9.49538 1.94594 9.50464 1.94543C9.68533 1.97844 9.82778 2.1423 9.81971 2.35748C9.81948 2.36372 9.81936 2.36997 9.81936 2.37622V5.18499C9.81936 5.46113 10.0432 5.68499 10.3194 5.68499C10.5955 5.68499 10.8194 5.46113 10.8194 5.18499V2.38458C10.8424 1.62617 10.2671 0.96985 9.48946 0.940319ZM12.3377 5.32077C12.5329 5.12551 12.8495 5.12551 13.0448 5.32077L15.3544 7.63045L15.3854 7.66142C15.482 7.75797 15.5308 7.88418 15.5318 8.01072C15.5329 8.1401 15.4841 8.26981 15.3854 8.36852L13.0448 10.7092C12.8495 10.9044 12.5329 10.9044 12.3377 10.7092C12.1424 10.5139 12.1424 10.1973 12.3377 10.0021L13.8272 8.51248H5.20116C4.92501 8.51248 4.70116 8.28862 4.70116 8.01248C4.70116 7.73633 4.92501 7.51248 5.20116 7.51248H13.8223L12.3377 6.02788C12.1424 5.83262 12.1424 5.51603 12.3377 5.32077Z" fill="#141414"/>
</svg>
