<svg width="16" height="16" viewBox="0 0 16 16" fill="none" xmlns="http://www.w3.org/2000/svg">
<path fill-rule="evenodd" clip-rule="evenodd" d="M10.9008 1.72324C10.9008 1.44709 11.1247 1.22324 11.4008 1.22324H14.1526C14.4287 1.22324 14.6526 1.44709 14.6526 1.72324V4.47498C14.6526 4.75113 14.4287 4.97498 14.1526 4.97498C13.8764 4.97498 13.6526 4.75113 13.6526 4.47498V2.92782L10.1001 6.48024C9.90487 6.6755 9.58829 6.6755 9.39303 6.48024C9.19776 6.28498 9.19776 5.96839 9.39303 5.77313L12.9429 2.22324L11.4008 2.22324C11.1247 2.22324 10.9008 1.99938 10.9008 1.72324ZM2.85078 2.33303C2.84444 2.33303 2.83809 2.33315 2.83176 2.33339C1.97057 2.36618 1.31319 3.09481 1.34883 3.95272L1.35618 13.1601C1.32968 14.0008 1.98384 14.7326 2.84016 14.7761C2.84861 14.7765 2.85706 14.7767 2.86552 14.7767H12.2811L12.2897 14.7767L12.3001 14.7764C13.161 14.7436 13.817 14.016 13.7904 13.1674V7.37549C13.7904 7.09935 13.5665 6.87549 13.2904 6.87549C13.0142 6.87549 12.7904 7.09935 12.7904 7.37549V13.176L12.7904 13.1829L12.7907 13.1949C12.8025 13.5063 12.566 13.7611 12.27 13.7767H2.88024C2.58114 13.7557 2.34417 13.4915 2.35582 13.1877C2.35607 13.1812 2.35619 13.1747 2.35618 13.1682L2.34882 3.9408C2.34881 3.93263 2.3486 3.92446 2.3482 3.9163C2.33246 3.60079 2.56717 3.34857 2.86183 3.33303H8.86995C9.14609 3.33303 9.36995 3.10917 9.36995 2.83303C9.36995 2.55689 9.14609 2.33303 8.86995 2.33303H2.85078Z" fill="#141414"/>
</svg>
