<svg width="16" height="16" viewBox="0 0 16 16" fill="none" xmlns="http://www.w3.org/2000/svg">
<path fill-rule="evenodd" clip-rule="evenodd" d="M4.05247 6.7L3.09041 7.47742C3.35376 4.56544 5.79674 2.28882 8.77808 2.28882C11.9296 2.28882 14.4893 4.84281 14.4893 8C14.4893 11.1511 11.9292 13.7112 8.77808 13.7112C8.50193 13.7112 8.27808 13.935 8.27808 14.2112C8.27808 14.4873 8.50193 14.7112 8.77808 14.7112C12.4815 14.7112 15.4893 11.7034 15.4893 8C15.4893 4.28985 12.4812 1.28882 8.77808 1.28882C5.30812 1.28882 2.45796 3.91463 2.10392 7.28994L1.39966 6.41842C1.22609 6.20364 0.911281 6.17022 0.696499 6.34378C0.481717 6.51734 0.448301 6.83216 0.621862 7.04694L2.12174 8.90303C2.20508 9.00618 2.32599 9.07198 2.45786 9.08598C2.58972 9.09998 2.72175 9.06102 2.82489 8.97767L4.68099 7.4778C4.89577 7.30423 4.92919 6.98942 4.75562 6.77464C4.58206 6.55986 4.26725 6.52644 4.05247 6.7ZM8.8 4.17574C8.8 3.8996 8.57614 3.67574 8.29999 3.67574C8.02385 3.67574 7.79999 3.8996 7.79999 4.17574V8.47579C7.79999 8.75193 8.02385 8.97579 8.29999 8.97579H11.6445C11.9206 8.97579 12.1445 8.75193 12.1445 8.47579C12.1445 8.19965 11.9206 7.97579 11.6445 7.97579H8.8V4.17574Z" fill="#141414"/>
</svg>
