<svg width="48" height="48" viewBox="0 0 48 48" fill="none" xmlns="http://www.w3.org/2000/svg">
<path fill-rule="evenodd" clip-rule="evenodd" d="M20.6794 3.82218L7.26747 17.2455C7.16775 17.3241 7.0776 17.4144 6.99906 17.5142L0.703966 23.8146C0.0789756 24.4401 0.0794052 25.4538 0.704926 26.0788C1.33045 26.7038 2.34419 26.7034 2.96918 26.0779L6.65686 22.3871V44.142C6.65686 45.0262 7.37368 45.743 8.25793 45.743H17.6447C17.7165 45.7529 17.7898 45.758 17.8643 45.758C17.9388 45.758 18.0121 45.7529 18.0839 45.743H30.4533C30.5251 45.7529 30.5984 45.758 30.6729 45.758C30.7473 45.758 30.8207 45.7529 30.8924 45.743H40.2793C41.1635 45.743 41.8803 45.0262 41.8803 44.142V22.443L45.5025 26.0636C46.1279 26.6888 47.1417 26.6886 47.7668 26.0632C48.3919 25.4378 48.3917 24.424 47.7663 23.7989L41.5869 17.6221C41.4816 17.4734 41.3516 17.3435 41.2029 17.2383L27.6145 3.65559L27.6142 3.65535C25.7348 1.77623 22.6857 1.76227 20.8149 3.66531C20.766 3.71508 20.7208 3.76751 20.6794 3.82218ZM32.2739 42.5409H38.6782V19.2422L25.3505 5.92008L25.3502 5.91984C24.7512 5.32081 23.8302 5.29508 23.2184 5.80009C23.1847 5.84133 23.1488 5.88115 23.1106 5.91936L9.859 19.1822V42.5409H16.2632V34.5505C16.2632 30.1225 19.8406 26.5452 24.2686 26.5452C28.6717 26.5452 32.2739 30.1191 32.2739 34.5505V42.5409ZM19.4654 42.5409H29.0718V34.5505C29.0718 31.8945 26.9102 29.7473 24.2686 29.7473C21.6091 29.7473 19.4654 31.891 19.4654 34.5505V42.5409Z" fill="black"/>
</svg>
