<svg width="48" height="48" viewBox="0 0 48 48" fill="none" xmlns="http://www.w3.org/2000/svg">
<path fill-rule="evenodd" clip-rule="evenodd" d="M7.03213 17.2453L20.4439 3.82217C20.4853 3.7675 20.5305 3.71507 20.5794 3.6653C22.4502 1.76226 25.4996 1.77645 27.379 3.65558L40.9674 17.2382C41.1161 17.3434 41.2461 17.4734 41.3513 17.622L47.5308 23.7989C48.1562 24.424 48.1564 25.4378 47.5313 26.0632C46.9062 26.6885 45.8924 26.6888 45.267 26.0636L41.6448 22.4429V44.1419C41.6448 45.0262 40.928 45.743 40.0438 45.743H30.657C31.4373 45.6359 32.0384 44.9666 32.0384 44.1569V34.5505C32.0384 30.119 28.4362 26.5451 24.0331 26.5451C19.6051 26.5451 16.0277 30.1225 16.0277 34.5505V44.1569C16.0277 44.9666 16.6289 45.6359 17.4092 45.743H8.02241C7.13816 45.743 6.42134 45.0262 6.42134 44.1419V22.3871L2.73367 26.0779C2.10868 26.7034 1.09494 26.7038 0.469422 26.0788C-0.156099 25.4538 -0.156529 24.4401 0.468462 23.8146L6.7634 17.5143C6.84201 17.4144 6.93227 17.324 7.03213 17.2453Z" fill="#E9DAF2"/>
<path fill-rule="evenodd" clip-rule="evenodd" d="M20.4439 3.82217L0.468462 23.8146C-0.156529 24.4401 -0.156099 25.4538 0.469422 26.0788C1.09494 26.7038 2.10868 26.7034 2.73367 26.0779L22.8751 5.91935C22.9133 5.88114 22.9492 5.84131 22.9829 5.80008C23.5947 5.29507 24.5157 5.3208 25.1147 5.91983L25.1149 5.92007L45.267 26.0636C45.8924 26.6888 46.9062 26.6885 47.5313 26.0632C48.1564 25.4378 48.1562 24.424 47.5308 23.7989L27.379 3.65558C27.3789 3.6555 27.3788 3.65542 27.3787 3.65534C25.4993 1.77621 22.4502 1.76226 20.5794 3.66529C20.5305 3.71507 20.4853 3.76749 20.4439 3.82217Z" fill="#522974"/>
<path fill-rule="evenodd" clip-rule="evenodd" d="M8.02239 16.9024C8.90664 16.9024 9.62346 17.6193 9.62346 18.5035V42.5409H38.4427V18.5462C38.4427 17.662 39.1595 16.9451 40.0437 16.9451C40.928 16.9451 41.6448 17.662 41.6448 18.5462V44.1419C41.6448 45.0262 40.928 45.743 40.0437 45.743H8.02239C7.13815 45.743 6.42133 45.0262 6.42133 44.1419V18.5035C6.42133 17.6193 7.13815 16.9024 8.02239 16.9024Z" fill="#522974"/>
<path fill-rule="evenodd" clip-rule="evenodd" d="M16.0277 34.5505C16.0277 30.1226 19.6051 26.5452 24.0331 26.5452C28.4362 26.5452 32.0384 30.1191 32.0384 34.5505V44.1569C32.0384 45.0412 31.3216 45.758 30.4373 45.758C29.5531 45.758 28.8363 45.0412 28.8363 44.1569V34.5505C28.8363 31.8945 26.6747 29.7473 24.0331 29.7473C21.3736 29.7473 19.2299 31.8911 19.2299 34.5505V44.1569C19.2299 45.0412 18.5131 45.758 17.6288 45.758C16.7446 45.758 16.0277 45.0412 16.0277 44.1569V34.5505Z" fill="#522974"/>
</svg>
