<svg width="48" height="48" viewBox="0 0 48 48" fill="none" xmlns="http://www.w3.org/2000/svg">
<path fill-rule="evenodd" clip-rule="evenodd" d="M10.5 21C9.67157 21 9 21.6716 9 22.5V43.5C9 44.3285 9.67157 45 10.5 45H37.5C38.3284 45 39 44.3285 39 43.5V22.5C39 21.6716 38.3284 21 37.5 21H10.5ZM6 22.5C6 20.0148 8.01472 18 10.5 18H37.5C39.9853 18 42 20.0148 42 22.5V43.5C42 45.9853 39.9853 48 37.5 48H10.5C8.01472 48 6 45.9853 6 43.5V22.5Z" fill="black"/>
<path fill-rule="evenodd" clip-rule="evenodd" d="M32.9799 11.96C32.9799 7.00746 28.9316 2.96292 23.9851 2.98004L23.9799 2.98004C19.0292 2.98004 14.9828 7.02648 14.9999 11.9949L15 12L14.9999 19.5C14.9999 20.3285 14.3284 21 13.4999 21C12.6715 21 11.9999 20.3285 11.9999 19.5V12.0025C11.9785 5.37303 17.3701 -0.0185443 23.9773 -0.0199557C30.5896 -0.0414198 35.9799 5.35349 35.9799 11.96V19.46C35.9799 20.2885 35.3084 20.96 34.4799 20.96C33.6515 20.96 32.9799 20.2885 32.9799 19.46V11.96Z" fill="black"/>
<path fill-rule="evenodd" clip-rule="evenodd" d="M24 28.5C24.8284 28.5 25.5 29.1716 25.5 30V36C25.5 36.8285 24.8284 37.5 24 37.5C23.1716 37.5 22.5 36.8285 22.5 36V30C22.5 29.1716 23.1716 28.5 24 28.5Z" fill="black"/>
</svg>
