<svg width="16" height="16" viewBox="0 0 16 16" fill="none" xmlns="http://www.w3.org/2000/svg">
<path fill-rule="evenodd" clip-rule="evenodd" d="M6.5625 9.875C6.5625 9.59886 6.78636 9.375 7.0625 9.375H15.0312C15.3074 9.375 15.5312 9.59886 15.5312 9.875C15.5312 10.1511 15.3074 10.375 15.0312 10.375H7.0625C6.78636 10.375 6.5625 10.1511 6.5625 9.875Z" fill="#141414"/>
<path fill-rule="evenodd" clip-rule="evenodd" d="M12.8027 7.64645C12.998 7.45118 13.3145 7.45118 13.5098 7.64645L15.3848 9.52145C15.5801 9.71671 15.5801 10.0333 15.3848 10.2286L13.5098 12.1036C13.3145 12.2988 12.998 12.2988 12.8027 12.1036C12.6074 11.9083 12.6074 11.5917 12.8027 11.3964L14.3241 9.875L12.8027 8.35355C12.6074 8.15829 12.6074 7.84171 12.8027 7.64645Z" fill="#141414"/>
<path fill-rule="evenodd" clip-rule="evenodd" d="M0.46875 6.125C0.46875 5.84886 0.692608 5.625 0.96875 5.625H8.9375C9.21364 5.625 9.4375 5.84886 9.4375 6.125C9.4375 6.40114 9.21364 6.625 8.9375 6.625H0.96875C0.692608 6.625 0.46875 6.40114 0.46875 6.125Z" fill="#141414"/>
<path fill-rule="evenodd" clip-rule="evenodd" d="M3.1973 3.89645C3.39257 4.09171 3.39257 4.40829 3.1973 4.60355L1.67586 6.125L3.1973 7.64645C3.39257 7.84171 3.39257 8.15829 3.1973 8.35355C3.00204 8.54882 2.68546 8.54882 2.4902 8.35355L0.615197 6.47855C0.419934 6.28329 0.419934 5.96671 0.615197 5.77145L2.4902 3.89645C2.68546 3.70118 3.00204 3.70118 3.1973 3.89645Z" fill="#141414"/>
</svg>
