<svg width="16" height="16" viewBox="0 0 16 16" fill="none" xmlns="http://www.w3.org/2000/svg">
<g clip-path="url(#clip0)">
<path d="M12.5408 14.0191V14.0125C12.4947 14.5201 12.0662 14.9156 11.5519 14.9156H4.46821H4.46161C3.9408 14.9156 3.51228 14.5201 3.47273 14.0059L2.55635 3.04239H13.4341L12.5408 14.0191Z" fill="#FBEBEB"/>
<path fill-rule="evenodd" clip-rule="evenodd" d="M2.18837 2.70388C2.28305 2.60096 2.4165 2.54239 2.55635 2.54239H13.4341C13.5738 2.54239 13.7071 2.6008 13.8017 2.70348C13.8964 2.80616 13.9438 2.94375 13.9325 3.08295L13.0392 14.0596C13.0381 14.0727 13.0366 14.0856 13.0345 14.0983C12.9464 14.8424 12.3125 15.4156 11.5519 15.4156H4.46161C3.68264 15.4156 3.03499 14.8224 2.97434 14.046C2.97429 14.0454 2.97424 14.0448 2.9742 14.0442L2.05809 3.08404C2.04644 2.94467 2.09369 2.8068 2.18837 2.70388ZM12.0449 13.9488L12.8918 3.54239H3.09989L3.97126 13.9675C3.99059 14.2188 4.19956 14.4156 4.46161 14.4156H11.5519C11.8061 14.4156 12.02 14.2188 12.0429 13.9672C12.0434 13.961 12.0441 13.9549 12.0449 13.9488Z" fill="#B50B0B"/>
<path fill-rule="evenodd" clip-rule="evenodd" d="M0.592793 3.06216C0.592793 2.78602 0.81665 2.56216 1.09279 2.56216H14.9372C15.2134 2.56216 15.4372 2.78602 15.4372 3.06216C15.4372 3.33831 15.2134 3.56216 14.9372 3.56216H1.09279C0.81665 3.56216 0.592793 3.33831 0.592793 3.06216Z" fill="#B50B0B"/>
<path fill-rule="evenodd" clip-rule="evenodd" d="M5.03619 2.07327C5.03619 1.24994 5.70175 0.584381 6.52508 0.584381H9.49834C9.50173 0.584381 9.50512 0.584415 9.50849 0.584482C10.3048 0.593729 10.9627 1.23668 10.9796 2.04151C10.9803 2.05201 10.9806 2.0626 10.9806 2.07327V3.06216C10.9806 3.3383 10.7568 3.56216 10.4806 3.56216H5.53619C5.26005 3.56216 5.03619 3.3383 5.03619 3.06216V2.07327ZM9.98064 2.09916C9.9802 2.09059 9.97998 2.08196 9.97998 2.07327C9.97998 1.80439 9.75771 1.58438 9.49109 1.58438H6.52508C6.25404 1.58438 6.03619 1.80223 6.03619 2.07327V2.56216H9.98064V2.09916Z" fill="#B50B0B"/>
<path fill-rule="evenodd" clip-rule="evenodd" d="M6.53168 6.02325C6.80782 6.02325 7.03168 6.24711 7.03168 6.52325V11.4677C7.03168 11.7438 6.80782 11.9677 6.53168 11.9677C6.25553 11.9677 6.03168 11.7438 6.03168 11.4677V6.52325C6.03168 6.24711 6.25553 6.02325 6.53168 6.02325Z" fill="#B50B0B"/>
<path fill-rule="evenodd" clip-rule="evenodd" d="M9.49835 6.02325C9.77449 6.02325 9.99835 6.24711 9.99835 6.52325V11.4677C9.99835 11.7438 9.77449 11.9677 9.49835 11.9677C9.22221 11.9677 8.99835 11.7438 8.99835 11.4677V6.52325C8.99835 6.24711 9.22221 6.02325 9.49835 6.02325Z" fill="#B50B0B"/>
<path fill-rule="evenodd" clip-rule="evenodd" d="M2.18837 2.70388C2.28305 2.60096 2.4165 2.54239 2.55635 2.54239H13.4341C13.5738 2.54239 13.7071 2.6008 13.8017 2.70348C13.8964 2.80616 13.9438 2.94375 13.9325 3.08295L13.0392 14.0596C13.0381 14.0727 13.0366 14.0856 13.0345 14.0983C12.9464 14.8424 12.3125 15.4156 11.5519 15.4156H4.46161C3.68264 15.4156 3.03499 14.8224 2.97434 14.046C2.97429 14.0454 2.97424 14.0448 2.9742 14.0442L2.05809 3.08404C2.04644 2.94467 2.09369 2.8068 2.18837 2.70388ZM12.0449 13.9488L12.8918 3.54239H3.09989L3.97126 13.9675C3.99059 14.2188 4.19956 14.4156 4.46161 14.4156H11.5519C11.8061 14.4156 12.02 14.2188 12.0429 13.9672C12.0434 13.961 12.0441 13.9549 12.0449 13.9488Z" fill="#B50B0B"/>
</g>
<defs>
<clipPath id="clip0">
<rect width="16" height="16" fill="white" transform="translate(0.0150146)"/>
</clipPath>
</defs>
</svg>
