<svg width="8" height="12" viewBox="0 0 8 12" fill="none" xmlns="http://www.w3.org/2000/svg">
<path d="M7.71857 11.6069C7.30879 12.0759 6.59541 12.1348 6.11157 11.732L6.1076 11.7286L0.403953 6.84577L0.403012 6.84498C0.353176 6.80276 0.314246 6.7643 0.271411 6.71498L0.269128 6.71236C-0.119487 6.25652 -0.0837526 5.57628 0.353727 5.16507C0.367267 5.14898 0.382244 5.13391 0.398566 5.12007L6.11915 0.270785L6.12557 0.265463C6.33556 0.0952482 6.59 0.00742815 6.84806 0.000151633L6.85893 0C7.48826 5.50184e-08 8 0.501705 8 1.12099C8 1.14172 7.99827 1.16216 7.99493 1.18217L7.99493 10.8746C7.99493 11.139 7.90491 11.3987 7.71857 11.6069Z" fill="#4D4D4D"/>
</svg>
