<svg width="16" height="16" viewBox="0 0 16 16" fill="none" xmlns="http://www.w3.org/2000/svg">
<g clip-path="url(#clip0)">
<path fill-rule="evenodd" clip-rule="evenodd" d="M4.74267 0.487823C5.01882 0.487823 5.24267 0.711681 5.24267 0.987823V2.35775H10.7874V0.987823C10.7874 0.711681 11.0112 0.487823 11.2874 0.487823C11.5635 0.487823 11.7874 0.711681 11.7874 0.987823V2.35775H14.0922C14.8848 2.35775 15.5272 3.00021 15.5272 3.79271V6.59759V14.0773C15.5272 14.8698 14.8848 15.5122 14.0922 15.5122H1.93777C1.14527 15.5122 0.502815 14.8698 0.502815 14.0773V6.59759V3.79271C0.502815 3.00021 1.14527 2.35775 1.93777 2.35775H4.24267V0.987823C4.24267 0.711681 4.46653 0.487823 4.74267 0.487823ZM10.7874 3.35775V4.26018C10.7874 4.53632 11.0112 4.76018 11.2874 4.76018C11.5635 4.76018 11.7874 4.53632 11.7874 4.26018V3.35775H14.0922C14.3325 3.35775 14.5272 3.55249 14.5272 3.79271V6.09759H1.50282V3.79271C1.50282 3.55249 1.69755 3.35775 1.93777 3.35775H4.24267V4.26018C4.24267 4.53632 4.46653 4.76018 4.74267 4.76018C5.01882 4.76018 5.24267 4.53632 5.24267 4.26018V3.35775H10.7874ZM14.5272 7.09759V14.0773C14.5272 14.3175 14.3325 14.5122 14.0922 14.5122H1.93777C1.69755 14.5122 1.50282 14.3175 1.50282 14.0773V7.09759H14.5272ZM4.59898 8.78284C4.24521 8.78284 3.96725 9.04879 3.95883 9.39784C3.95883 9.73027 4.22837 10.0128 4.58213 10.0128C4.91906 10.0128 5.20544 9.73027 5.20544 9.38953C5.20544 9.04047 4.91906 8.76622 4.57371 8.76622L4.59898 8.78284ZM4.5861 11.5775L4.59898 11.5773H4.57371L4.5861 11.5775ZM4.5861 11.5775C4.23849 11.5838 3.96715 11.8476 3.95883 12.2006C3.95883 12.5331 4.22837 12.824 4.58213 12.824C4.91906 12.824 5.20544 12.5414 5.20544 12.2006C5.20544 11.8558 4.92588 11.5839 4.5861 11.5775ZM8.01034 8.77245C7.66129 8.77245 7.38704 9.03839 7.38704 9.39575C7.38704 9.72818 7.65298 10.0191 8.01034 10.0191C8.34277 10.0191 8.63365 9.73649 8.63365 9.39575C8.63365 9.0467 8.35108 8.77245 8.01034 8.77245ZM7.38704 12.2006C7.38704 11.8433 7.66129 11.5773 8.01034 11.5773C8.35108 11.5773 8.63365 11.8516 8.63365 12.2006C8.63365 12.5414 8.34277 12.824 8.01034 12.824C7.65298 12.824 7.38704 12.5331 7.38704 12.2006ZM11.4385 8.77245C11.0894 8.77245 10.8152 9.03839 10.8152 9.39575C10.8152 9.72818 11.0811 10.0191 11.4385 10.0191C11.7709 10.0191 12.0618 9.73649 12.0618 9.39575C12.0618 9.0467 11.7792 8.77245 11.4385 8.77245ZM10.8152 12.2006C10.8152 11.8433 11.0894 11.5773 11.4385 11.5773C11.7792 11.5773 12.0618 11.8516 12.0618 12.2006C12.0618 12.5414 11.7709 12.824 11.4385 12.824C11.0811 12.824 10.8152 12.5331 10.8152 12.2006Z" fill="#141414"/>
</g>
<defs>
<clipPath id="clip0">
<rect width="16" height="16" fill="white" transform="translate(0.0150146)"/>
</clipPath>
</defs>
</svg>
