<svg width="16" height="16" viewBox="0 0 16 16" fill="none" xmlns="http://www.w3.org/2000/svg">
<g clip-path="url(#clip0)">
<path fill-rule="evenodd" clip-rule="evenodd" d="M2.87275 0.987823H13.1573C14.19 0.987823 15.0272 1.82501 15.0272 2.85774V13.1423C15.0272 14.175 14.19 15.0122 13.1573 15.0122H2.87275C1.84003 15.0122 1.00284 14.175 1.00284 13.1423V2.85774C1.00284 1.82501 1.84003 0.987823 2.87275 0.987823ZM6.61259 4.22763C6.4232 4.22763 6.25007 4.33463 6.16537 4.50402L5.83609 5.16259H4.73644C3.94295 5.16259 3.30148 5.80406 3.30148 6.59755V10.3284C3.2937 11.1201 3.9453 11.7661 4.73021 11.7661H11.2749L11.2841 11.766C12.0644 11.7576 12.7036 11.1132 12.7036 10.3311V6.59131C12.7036 5.79566 12.0538 5.15635 11.2687 5.15635L10.1933 5.16119L9.86467 4.50402C9.77998 4.33463 9.60685 4.22763 9.41746 4.22763H6.61259Z" fill="#F1EDF7"/>
<path fill-rule="evenodd" clip-rule="evenodd" d="M6.16538 4.50405C6.25008 4.33466 6.42321 4.22766 6.6126 4.22766H9.41747C9.60686 4.22766 9.77999 4.33466 9.86468 4.50405L10.1933 5.16122L11.2687 5.15638C12.0538 5.15639 12.7036 5.79569 12.7036 6.59134V10.3312C12.7036 11.1133 12.0644 11.7576 11.2841 11.766C11.2811 11.7661 11.278 11.7661 11.2749 11.7661H4.73022C3.9453 11.7661 3.29371 11.1201 3.30149 10.3285V6.59758C3.30149 5.80409 3.94296 5.16262 4.73645 5.16262H5.8361L6.16538 4.50405ZM4.30149 10.3374C4.30149 10.3399 4.30147 10.3425 4.30143 10.345C4.30307 10.5708 4.49668 10.7661 4.73022 10.7661H11.2687C11.5037 10.7661 11.7036 10.5661 11.7036 10.3312V6.59134C11.7036 6.35261 11.5063 6.15688 11.2696 6.15639C11.2693 6.15639 11.2699 6.15639 11.2696 6.15639L9.8872 6.16261C9.69701 6.16347 9.5228 6.05634 9.43774 5.88623L9.10845 5.22766H6.92161L6.59233 5.88623C6.50764 6.05562 6.33451 6.16262 6.14512 6.16262H4.73645C4.49525 6.16262 4.30149 6.35638 4.30149 6.59758V10.3374Z" fill="#522974"/>
<path fill-rule="evenodd" clip-rule="evenodd" d="M6.83508 7.05378C7.14802 6.74084 7.57246 6.56503 8.01503 6.56503C8.45759 6.56503 8.88203 6.74084 9.19497 7.05378C9.50792 7.36672 9.68372 7.79116 9.68372 8.23373C9.68372 8.6763 9.50792 9.10074 9.19497 9.41368C8.88203 9.72662 8.45759 9.90243 8.01503 9.90243C7.57246 9.90243 7.14802 9.72662 6.83508 9.41368C6.52214 9.10074 6.34633 8.6763 6.34633 8.23373C6.34633 7.79116 6.52214 7.36672 6.83508 7.05378ZM8.01503 7.56503C7.83768 7.56503 7.66759 7.63548 7.54219 7.76089C7.41678 7.88629 7.34633 8.05638 7.34633 8.23373C7.34633 8.41108 7.41678 8.58117 7.54219 8.70657C7.66759 8.83198 7.83768 8.90243 8.01503 8.90243C8.19238 8.90243 8.36246 8.83198 8.48787 8.70657C8.61327 8.58117 8.68372 8.41108 8.68372 8.23373C8.68372 8.05638 8.61327 7.88629 8.48787 7.76089C8.36246 7.63548 8.19238 7.56503 8.01503 7.56503Z" fill="#522974"/>
<path fill-rule="evenodd" clip-rule="evenodd" d="M2.87275 1.48782C2.11617 1.48782 1.50284 2.10116 1.50284 2.85774V13.1423C1.50284 13.8989 2.11617 14.5122 2.87275 14.5122H13.1573C13.9139 14.5122 14.5272 13.8989 14.5272 13.1423V2.85774C14.5272 2.10116 13.9139 1.48782 13.1573 1.48782H2.87275ZM0.502838 2.85774C0.502838 1.54887 1.56389 0.487823 2.87275 0.487823H13.1573C14.4662 0.487823 15.5272 1.54887 15.5272 2.85774V13.1423C15.5272 14.4511 14.4662 15.5122 13.1573 15.5122H2.87275C1.56389 15.5122 0.502838 14.4511 0.502838 13.1423V2.85774Z" fill="#522974"/>
</g>
<defs>
<clipPath id="clip0">
<rect width="16" height="16" fill="white" transform="translate(0.0150146)"/>
</clipPath>
</defs>
</svg>
