<svg width="16" height="16" viewBox="0 0 16 16" fill="none" xmlns="http://www.w3.org/2000/svg">
<path fill-rule="evenodd" clip-rule="evenodd" d="M9.71534 15.3331C9.9373 15.4225 10.1753 15.4652 10.4146 15.4586L10.5646 15.4786C11.0182 15.4552 11.4444 15.2544 11.7512 14.9195C12.0581 14.5846 12.2209 14.1425 12.2046 13.6886L12.1546 12.7486C12.1586 12.6547 12.1819 12.5628 12.2233 12.4784C12.2646 12.3941 12.3229 12.3192 12.3946 12.2586C12.5194 12.1422 12.6839 12.0778 12.8546 12.0786H12.9146L13.7846 12.1286C14.0405 12.146 14.2971 12.1046 14.5345 12.0075C14.772 11.9105 14.9841 11.7603 15.1546 11.5686C15.4542 11.2285 15.6084 10.7845 15.5841 10.332C15.5598 9.87945 15.3589 9.45451 15.0246 9.14855L14.3346 8.51855C14.2073 8.38317 14.1364 8.20436 14.1364 8.01855C14.1364 7.83275 14.2073 7.65393 14.3346 7.51855L14.9846 6.93855C15.1718 6.77048 15.3199 6.56338 15.4184 6.33185C15.5168 6.10032 15.5633 5.85 15.5546 5.59855C15.5457 5.373 15.4917 5.15151 15.3959 4.94716C15.3 4.7428 15.1642 4.55972 14.9964 4.40872C14.8286 4.25771 14.6323 4.14185 14.419 4.06797C14.2057 3.99409 13.9798 3.96369 13.7546 3.97855H12.8546C12.6757 3.96874 12.5069 3.89261 12.3812 3.76502C12.2554 3.63743 12.1817 3.46755 12.1746 3.28855C12.1792 3.26883 12.1792 3.24828 12.1746 3.22855V2.35855C12.1862 2.10472 12.1421 1.85143 12.0453 1.61647C11.9486 1.38152 11.8015 1.1706 11.6146 0.998552C11.2721 0.699783 10.8288 0.54248 10.3746 0.558552C10.147 0.550383 9.92007 0.587749 9.70714 0.668458C9.4942 0.749167 9.29953 0.871593 9.13455 1.02855C9.13168 1.04845 9.13168 1.06865 9.13455 1.08855L8.54455 1.72855C8.47938 1.79507 8.40158 1.84792 8.31573 1.88399C8.22987 1.92007 8.13768 1.93865 8.04455 1.93865C7.95143 1.93865 7.85923 1.92007 7.77338 1.88399C7.68752 1.84792 7.60973 1.79507 7.54455 1.72855L6.78455 0.938552C6.61113 0.759157 6.40014 0.620388 6.16673 0.532209C5.93331 0.444031 5.68327 0.408631 5.43455 0.428552C4.99695 0.464265 4.58985 0.666933 4.29758 0.994575C4.00531 1.32222 3.85026 1.74973 3.86455 2.18855V2.25855V3.14855C3.86078 3.24229 3.8382 3.33431 3.79816 3.41915C3.75812 3.50399 3.70143 3.57991 3.63147 3.64241C3.56151 3.70491 3.4797 3.75271 3.3909 3.78297C3.3021 3.81323 3.20812 3.82533 3.11455 3.81855H2.23455C1.98301 3.80908 1.73248 3.85525 1.50085 3.95379C1.26921 4.05232 1.06219 4.20077 0.894554 4.38855C0.734662 4.54983 0.609566 4.74221 0.527003 4.95378C0.44444 5.16534 0.406168 5.3916 0.414554 5.61855C0.423572 5.8467 0.478729 6.07066 0.576696 6.27691C0.674663 6.48316 0.813407 6.66741 0.984554 6.81855L1.69455 7.47855C1.81759 7.61915 1.88116 7.80207 1.87183 7.98867C1.8625 8.17526 1.781 8.35093 1.64455 8.47855C1.64032 8.49495 1.64032 8.51215 1.64455 8.52855L1.04455 9.05855C0.85647 9.22974 0.708689 9.44051 0.611855 9.67568C0.515021 9.91084 0.471544 10.1646 0.484554 10.4186C0.51291 10.8607 0.712725 11.2742 1.04145 11.5712C1.37018 11.8682 1.80185 12.0251 2.24455 12.0086H3.19455C3.38467 12.0214 3.56221 12.1081 3.68927 12.2501C3.81632 12.3921 3.88282 12.5782 3.87455 12.7686V13.6386C3.82761 14.0054 3.90018 14.3777 4.0815 14.7C4.26282 15.0224 4.54322 15.2777 4.88112 15.4282C5.21901 15.5786 5.5964 15.6161 5.95729 15.5351C6.31818 15.4541 6.64334 15.2589 6.88455 14.9786V14.9286L7.53455 14.2286C7.67641 14.1068 7.86007 14.0449 8.0467 14.0561C8.23333 14.0673 8.40828 14.1507 8.53455 14.2886L9.12455 14.9386C9.29226 15.1093 9.49337 15.2436 9.71534 15.3331ZM8.68792 13.1441C8.46596 13.0478 8.22652 12.9982 7.98455 12.9986C7.56552 13.0225 7.17014 13.2006 6.87455 13.4986L6.73455 13.6386L6.18455 14.2386H6.13455C6.03515 14.3468 5.90498 14.4221 5.76155 14.4542C5.61812 14.4863 5.46829 14.4738 5.33219 14.4183C5.1961 14.3627 5.08026 14.2669 5.00024 14.1436C4.92021 14.0203 4.87985 13.8755 4.88455 13.7286L4.93455 12.8486C4.95656 12.4014 4.80237 11.9635 4.50509 11.6289C4.2078 11.2942 3.79113 11.0894 3.34455 11.0586C3.27192 11.0443 3.19719 11.0443 3.12455 11.0586H2.24455C2.05628 11.0569 1.87533 10.9854 1.73676 10.8579C1.5982 10.7304 1.51189 10.556 1.49455 10.3686C1.487 10.2623 1.50379 10.1557 1.54364 10.057C1.5835 9.95818 1.64538 9.8698 1.72455 9.79855L2.37455 9.21855L2.42455 9.15855C2.73599 8.8483 2.91597 8.43002 2.92715 7.99057C2.93832 7.55111 2.77982 7.12423 2.48455 6.79855L2.36455 6.66855L1.70455 6.06855C1.6326 6.00596 1.57419 5.92932 1.53292 5.84334C1.49165 5.75735 1.46839 5.66385 1.46455 5.56855C1.45748 5.47486 1.47081 5.38075 1.50361 5.29271C1.53641 5.20466 1.58791 5.12478 1.65455 5.05855C1.72126 4.97855 1.80571 4.9152 1.90118 4.87353C1.99666 4.83187 2.10053 4.81305 2.20455 4.81855H3.07455C3.30129 4.82929 3.52791 4.79504 3.74135 4.71777C3.95479 4.64051 4.15082 4.52177 4.31815 4.36838C4.48548 4.215 4.62079 4.03001 4.71628 3.82408C4.81178 3.61816 4.86557 3.39537 4.87455 3.16855C4.88094 3.11541 4.88094 3.06169 4.87455 3.00855V2.13855V2.07855C4.87843 1.90879 4.94219 1.74586 5.05455 1.61855C5.11766 1.54796 5.19461 1.49111 5.28063 1.45154C5.36665 1.41197 5.45989 1.39053 5.55455 1.38855C5.6608 1.381 5.76737 1.39779 5.86615 1.43764C5.96493 1.4775 6.0533 1.53937 6.12455 1.61855L6.89455 2.41855C7.20015 2.75081 7.62411 2.94961 8.07498 2.97206C8.52585 2.99451 8.96746 2.83881 9.30455 2.53855L9.42455 2.40855L10.0146 1.75855C10.1348 1.63881 10.2951 1.5676 10.4646 1.55855C10.6544 1.5505 10.8403 1.61484 10.9846 1.73855C11.0501 1.82076 11.0981 1.91552 11.1256 2.01699C11.1531 2.11846 11.1596 2.2245 11.1446 2.32855V3.11855C11.1488 3.14505 11.1488 3.17206 11.1446 3.19855C11.1256 3.65582 11.2885 4.10197 11.5978 4.43934C11.907 4.7767 12.3374 4.97778 12.7946 4.99855L13.7946 4.93855C13.888 4.94263 13.9794 4.96713 14.0623 5.01032C14.1452 5.05351 14.2177 5.11435 14.2746 5.18855C14.4065 5.32153 14.4805 5.50125 14.4805 5.68855C14.4805 5.87586 14.4065 6.05557 14.2746 6.18855L13.6746 6.72855C13.5039 6.87952 13.3653 7.06325 13.2671 7.26883C13.1689 7.47441 13.113 7.69764 13.1027 7.92525C13.0924 8.15286 13.128 8.38022 13.2074 8.5938C13.2867 8.80739 13.4082 9.00284 13.5646 9.16855L14.3046 9.85855C14.3753 9.92 14.433 9.99503 14.4743 10.0792C14.5155 10.1634 14.5394 10.255 14.5446 10.3486C14.5521 10.5353 14.4876 10.7179 14.3646 10.8586C14.2909 10.9353 14.2024 10.9962 14.1044 11.0375C14.0063 11.0787 13.9009 11.0995 13.7946 11.0986L12.9846 11.0486H12.8646C12.4196 11.0262 11.9833 11.1773 11.6476 11.4702C11.3119 11.763 11.1028 12.1747 11.0646 12.6186C11.06 12.6952 11.06 12.772 11.0646 12.8486L11.1146 13.7086C11.1186 13.8018 11.1042 13.8949 11.0722 13.9826C11.0402 14.0703 10.9912 14.1508 10.928 14.2196C10.8648 14.2883 10.7888 14.3439 10.7041 14.3832C10.6194 14.4225 10.5278 14.4447 10.4346 14.4486C10.3282 14.4569 10.2214 14.4404 10.1225 14.4005C10.0236 14.3606 9.93533 14.2983 9.86455 14.2186L9.27455 13.5586C9.10958 13.3815 8.90987 13.2405 8.68792 13.1441ZM5.76753 10.3826C6.38554 10.9988 7.22188 11.3459 8.09456 11.3485C8.95562 11.3384 9.77815 10.99 10.3846 10.3785C10.6981 10.0785 10.9482 9.71856 11.12 9.32003C11.2918 8.9215 11.3817 8.49252 11.3846 8.05855C11.3756 7.41498 11.1787 6.78807 10.818 6.255C10.4573 5.72194 9.94858 5.30599 9.35449 5.05836C8.7604 4.81073 8.10686 4.74224 7.47434 4.86132C6.84182 4.9804 6.25793 5.28185 5.79456 5.72855C5.16701 6.34296 4.80759 7.1804 4.79456 8.05855C4.79982 8.93122 5.14951 9.76649 5.76753 10.3826ZM6.46821 6.4322C6.89954 6.00087 7.48456 5.75855 8.09456 5.75855C8.70183 5.75926 9.28418 6.00011 9.71456 6.42855C10.1409 6.8644 10.3811 7.44888 10.3846 8.05855C10.3838 8.66582 10.143 9.24818 9.71456 9.67855C9.27651 10.092 8.69693 10.3224 8.09456 10.3224C7.49218 10.3224 6.9126 10.092 6.47456 9.67855C6.25925 9.46725 6.08823 9.21516 5.97147 8.937C5.85472 8.65885 5.79457 8.36021 5.79456 8.05855C5.79456 7.44855 6.03688 6.86354 6.46821 6.4322Z" fill="#141414"/>
</svg>
