<svg width="16" height="16" viewBox="0 0 16 16" fill="none" xmlns="http://www.w3.org/2000/svg">
<path fill-rule="evenodd" clip-rule="evenodd" d="M9.51948 1.78188L8.98071 3.47004H5.2212L5.06756 3.00911C5.05891 2.94936 5.0397 2.89303 5.01188 2.84207L4.65848 1.78188H9.51948ZM3.87087 2.58134L3.68809 2.03299C3.51686 1.53671 3.77712 1.00744 4.26787 0.83666C4.38722 0.790256 4.5003 0.781878 4.57869 0.781878H9.59118C10.1307 0.772706 10.531 1.21578 10.5431 1.71076L10.5434 1.72295H10.5432C10.5432 1.8456 10.5134 1.95093 10.5001 1.9974L10.4957 2.01206L10.3157 2.57597H12.0233C12.786 2.57597 13.4173 3.19702 13.4173 3.97004V5.75817C13.4173 6.03431 13.1935 6.25817 12.9173 6.25817C12.6412 6.25817 12.4173 6.03431 12.4173 5.75817V3.97004C12.4173 3.75363 12.2381 3.57597 12.0233 3.57597H9.9966L9.91933 3.81807C9.91718 3.82482 9.91488 3.83153 9.91244 3.83818C9.77872 4.20287 9.43186 4.47004 9.01385 4.47004H5.18666L5.17151 4.46981C4.77367 4.45775 4.42241 4.21091 4.28629 3.8273L4.28307 3.81824L4.28316 3.81821L4.20421 3.58134H2.18856C1.96999 3.58134 1.79449 3.75683 1.79449 3.97541V13.8101C1.79449 14.0249 1.97215 14.2042 2.18856 14.2042H5.76482C6.04096 14.2042 6.26482 14.4281 6.26482 14.7042C6.26482 14.9803 6.04096 15.2042 5.76482 15.2042H2.18856C1.41554 15.2042 0.794495 14.5729 0.794495 13.8101V3.97541C0.794495 3.20455 1.4177 2.58134 2.18856 2.58134H3.87087ZM8.44702 8.05167C8.22938 8.05167 8.05295 8.2281 8.05295 8.44573V13.8101C8.05295 14.0278 8.22938 14.2042 8.44702 14.2042H13.8114C14.029 14.2042 14.2055 14.0278 14.2055 13.8101V8.44573C14.2055 8.2281 14.029 8.05167 13.8114 8.05167H8.44702ZM7.05295 8.44573C7.05295 7.67581 7.6771 7.05167 8.44702 7.05167H13.8114C14.5813 7.05167 15.2055 7.67581 15.2055 8.44573V13.8101C15.2055 14.58 14.5813 15.2042 13.8114 15.2042H8.44702C7.6771 15.2042 7.05295 14.58 7.05295 13.8101V8.44573ZM8.84108 9.34038C8.84108 9.06424 9.06494 8.84038 9.34108 8.84038H12.9173C13.1935 8.84038 13.4173 9.06424 13.4173 9.34038C13.4173 9.61652 13.1935 9.84038 12.9173 9.84038H9.34108C9.06494 9.84038 8.84108 9.61652 8.84108 9.34038ZM8.84108 11.1285C8.84108 10.8524 9.06494 10.6285 9.34108 10.6285H12.9173C13.1935 10.6285 13.4173 10.8524 13.4173 11.1285C13.4173 11.4047 13.1935 11.6285 12.9173 11.6285H9.34108C9.06494 11.6285 8.84108 11.4047 8.84108 11.1285ZM8.84108 12.9166C8.84108 12.6405 9.06494 12.4166 9.34108 12.4166H10.6822C10.9583 12.4166 11.1822 12.6405 11.1822 12.9166C11.1822 13.1928 10.9583 13.4166 10.6822 13.4166H9.34108C9.06494 13.4166 8.84108 13.1928 8.84108 12.9166Z" fill="#141414"/>
</svg>
