<svg width="16" height="16" viewBox="0 0 16 16" fill="none" xmlns="http://www.w3.org/2000/svg">
<path d="M6.57819 3.6962V5.13079C6.57819 5.39221 6.78859 5.60262 7.05639 5.60262H8.96281C9.22423 5.60262 9.44101 5.38583 9.44101 5.12441L9.44581 3.68982H14.2103C14.7331 3.68982 15.1667 4.11701 15.1667 4.64622V13.2538C15.1667 13.7767 14.7331 14.2102 14.2103 14.2102H1.78344C1.26061 14.2102 0.827037 13.7767 0.833413 13.2538V12.2869H3.13443C3.25738 12.7664 3.63361 13.1402 4.11312 13.2656C4.84345 13.4549 5.58853 13.0172 5.77787 12.2869H5.93525C6.52787 12.2869 7 11.7976 7 11.2049V10.5041C7 10.0221 6.67787 9.59674 6.21312 9.46887L4.38115 8.96723L3.28197 7.52871C3.02624 7.19428 2.62788 7.00002 2.20738 7.00002H0.833413V4.6526C0.833413 4.12339 1.26061 3.6962 1.78981 3.6962H6.57819Z" fill="#F1EDF7"/>
<path fill-rule="evenodd" clip-rule="evenodd" d="M8.92827 3.6898C8.92827 3.41366 9.15213 3.1898 9.42827 3.1898H14.2103C15.0071 3.1898 15.6667 3.83869 15.6667 4.64621V13.2538C15.6667 14.0476 15.0178 14.7016 14.2259 14.7101C14.2228 14.7102 14.2197 14.7102 14.2167 14.7102H1.78344C0.986803 14.7102 0.325483 14.0545 0.333414 13.2511V4.65258C0.333414 3.84723 0.984464 3.19618 1.78982 3.19618H6.5782C6.85434 3.19618 7.0782 3.42004 7.0782 3.69618C7.0782 3.97232 6.85434 4.19618 6.5782 4.19618H1.78982C1.53675 4.19618 1.33341 4.39952 1.33341 4.65258V13.2602C1.33341 13.2628 1.33339 13.2653 1.33336 13.2679C1.33499 13.5053 1.53827 13.7102 1.78344 13.7102H14.2103C14.457 13.7102 14.6667 13.5005 14.6667 13.2538V4.64621C14.6667 4.3953 14.4591 4.1898 14.2103 4.1898H9.42827C9.15213 4.1898 8.92827 3.96595 8.92827 3.6898Z" fill="#522974"/>
<path d="M8.98501 6.16961H7.04501C6.77979 6.16961 6.52544 6.06426 6.3379 5.87672C6.15037 5.68918 6.04501 5.43483 6.04501 5.16961V3.28961C6.02589 3.02381 6.06174 2.75691 6.15032 2.50557C6.2389 2.25424 6.37831 2.02384 6.55986 1.82876C6.74141 1.63368 6.96121 1.47809 7.20555 1.37171C7.44988 1.26532 7.71352 1.21042 7.98001 1.21042C8.2465 1.21042 8.51013 1.26532 8.75447 1.37171C8.99881 1.47809 9.2186 1.63368 9.40016 1.82876C9.58171 2.02384 9.72112 2.25424 9.8097 2.50557C9.89828 2.75691 9.93413 3.02381 9.91501 3.28961V5.19961C9.90816 5.44792 9.80914 5.6848 9.63722 5.86411C9.46531 6.04341 9.23281 6.15232 8.98501 6.16961ZM7.98501 2.34961C7.86165 2.34824 7.73928 2.3717 7.62517 2.41858C7.51106 2.46546 7.40755 2.53481 7.32078 2.62251C7.23402 2.7102 7.16578 2.81445 7.12012 2.92906C7.07446 3.04366 7.05232 3.16628 7.05501 3.28961V5.19961H8.91501H8.98501V3.28961C8.98527 3.16095 8.95912 3.03361 8.90817 2.91547C8.85723 2.79733 8.78257 2.69091 8.68883 2.60279C8.59508 2.51467 8.48425 2.44673 8.36318 2.40318C8.24212 2.35963 8.1134 2.3414 7.98501 2.34961Z" fill="#522974"/>
<path fill-rule="evenodd" clip-rule="evenodd" d="M8.94739 8.4782C8.94739 8.20205 9.17125 7.9782 9.44739 7.9782H12.3166C12.5927 7.9782 12.8166 8.20205 12.8166 8.4782C12.8166 8.75434 12.5927 8.9782 12.3166 8.9782H9.44739C9.17125 8.9782 8.94739 8.75434 8.94739 8.4782Z" fill="#522974"/>
<path fill-rule="evenodd" clip-rule="evenodd" d="M8.94739 10.391C8.94739 10.1149 9.17125 9.89101 9.44739 9.89101H13.273C13.5491 9.89101 13.773 10.1149 13.773 10.391C13.773 10.6671 13.5491 10.891 13.273 10.891H9.44739C9.17125 10.891 8.94739 10.6671 8.94739 10.391Z" fill="#522974"/>
<mask id="mask0_3302_13049" style="mask-type:alpha" maskUnits="userSpaceOnUse" x="1" y="6" width="7" height="8">
<path d="M0.999992 6H7.99999V14H0.999992V6Z" fill="#C4C4C4"/>
</mask>
<g mask="url(#mask0_3302_13049)">
<path fill-rule="evenodd" clip-rule="evenodd" d="M3.39167 7.19826C3.10213 6.81964 2.65143 6.60003 2.17628 6.60003L-1.50422 6.60003C-2.03016 6.59724 -2.52037 6.86739 -2.79872 7.31274L-3.63792 8.65154L-4.57433 9.07913C-5.01703 9.28192 -5.30283 9.72756 -5.29997 10.216V11.0268C-5.29997 11.7116 -4.75026 12.2818 -4.06245 12.2818H-3.87518C-3.70794 12.7665 -3.30917 13.1397 -2.80823 13.2707C-2.02493 13.4738 -1.22353 13.0341 -0.963593 12.2818H3.00543C3.17267 12.7665 3.57144 13.1397 4.07237 13.2707C4.85568 13.4738 5.65708 13.0341 5.91701 12.2818H5.96248C6.65029 12.2818 7.2 11.7116 7.2 11.0268V10.315C7.2 9.75595 6.82574 9.26155 6.28613 9.11309L4.47613 8.61744L3.39167 7.19826ZM-1.50567 7.41167H2.17628C2.40075 7.41167 2.61223 7.51441 2.74993 7.69112L3.91142 9.21402C3.96682 9.28997 4.04554 9.33811 4.12643 9.36122L4.12726 9.36147L6.07252 9.89336C6.26398 9.94727 6.3927 10.1162 6.39086 10.3136L6.39081 11.0268C6.39081 11.272 6.20698 11.4683 5.96779 11.4699C5.83556 10.821 5.30172 10.3174 4.63071 10.2448C3.8325 10.1561 3.10579 10.6976 2.94997 11.4701H-0.912708C-1.04483 10.8211 -1.57878 10.3174 -2.24989 10.2448C-3.0481 10.1561 -3.77481 10.6976 -3.93063 11.4701H-4.06243C-4.29416 11.4701 -4.47282 11.2867 -4.48579 11.0532V10.2134C-4.48762 10.0426 -4.38931 9.88938 -4.23399 9.81727L-3.19011 9.34025L-3.18928 9.33986C-3.12273 9.30854 -3.0594 9.25914 -3.01522 9.18525L-2.11175 7.74264C-1.98364 7.53522 -1.75166 7.40962 -1.50567 7.41167ZM3.73097 11.7736C3.73097 11.3685 4.0564 11.043 4.46149 11.043C4.86659 11.043 5.19201 11.3685 5.19201 11.7736C5.19201 12.1785 4.86679 12.5038 4.46188 12.504C4.05362 12.5017 3.72891 12.176 3.73097 11.7744V11.7736ZM-3.14963 11.7736C-3.14963 11.3685 -2.8242 11.043 -2.41911 11.043C-2.01401 11.043 -1.68859 11.3685 -1.68859 11.7736C-1.68859 12.1785 -2.01381 12.5038 -2.41872 12.504C-2.82698 12.5017 -3.15169 12.176 -3.14963 11.7744V11.7736Z" fill="#522974"/>
</g>
</svg>
