<svg width="100" height="100" viewBox="0 0 100 100" fill="none" xmlns="http://www.w3.org/2000/svg">
<path d="M90.5 50C90.5 72.091 72.592 90 50.5 90C28.409 90 10.5 72.091 10.5 50C10.5 27.909 28.409 10 50.5 10C72.592 10 90.5 27.909 90.5 50Z" fill="#F1EDF7"/>
<path d="M86.9492 66.5H14.0522C16.6182 72.16 20.4652 77.117 25.2202 81H25.2212C32.1112 86.625 40.9122 90 50.5012 90C60.0902 90 68.8893 86.625 75.7803 81H75.7793C80.5363 77.117 84.3832 72.16 86.9492 66.5Z" fill="white"/>
<path d="M11.5 66.5H89.5" stroke="#522974" stroke-linecap="round" stroke-linejoin="round"/>
<path d="M7 66.5H9.5" stroke="#522974" stroke-linecap="round" stroke-linejoin="round"/>
<path d="M91.5 66.5H94" stroke="#522974" stroke-linecap="round" stroke-linejoin="round"/>
<path d="M35.2256 26.6H43.6756V32.375H34.2256V27.6C34.2256 27.048 34.6726 26.6 35.2256 26.6Z" fill="white"/>
<path d="M34.2251 66.5H43.6751V35H34.2251V66.5Z" fill="white"/>
<path d="M76.7504 17.6746H38.9504L35.2754 26.5996H80.4264L76.7504 17.6746Z" fill="#E8D9EC"/>
<path d="M76.7504 17.6746H38.9504L35.2754 26.5996H80.4264L76.7504 17.6746Z" stroke="#522974" stroke-linecap="round" stroke-linejoin="round"/>
<path d="M72.0258 32.375H43.6758V26.6L56.5538 15.63C57.3008 14.993 58.4008 14.993 59.1478 15.63L72.0258 26.6V32.375Z" fill="white"/>
<path d="M72.0258 32.375H43.6758V26.6L56.5538 15.63C57.3008 14.993 58.4008 14.993 59.1478 15.63L72.0258 26.6V32.375Z" stroke="#522974" stroke-linecap="round" stroke-linejoin="round"/>
<path d="M72.0253 53.9H43.6753V66.5H72.0253V53.9Z" fill="white"/>
<path d="M72.0253 53.9H43.6753V66.5H72.0253V53.9Z" stroke="#522974" stroke-linecap="round" stroke-linejoin="round"/>
<path d="M72.0253 53.8999H43.6753V32.3749H72.0253V53.8999Z" fill="white"/>
<path d="M72.0253 53.8999H43.6753V32.3749H72.0253V53.8999Z" stroke="#522974" stroke-linecap="round" stroke-linejoin="round"/>
<path d="M72.0253 56.5249H43.6753V53.8999H72.0253V56.5249Z" fill="white"/>
<path d="M72.0253 56.5249H43.6753V53.8999H72.0253V56.5249Z" stroke="#522974" stroke-linecap="round" stroke-linejoin="round"/>
<path d="M57.8508 20.825C54.3718 20.825 51.5508 23.646 51.5508 27.125V32.375H64.1508V27.125C64.1508 23.646 61.3298 20.825 57.8508 20.825Z" fill="white"/>
<path d="M57.8508 20.825C54.3718 20.825 51.5508 23.646 51.5508 27.125V32.375H64.1508V27.125C64.1508 23.646 61.3298 20.825 57.8508 20.825Z" stroke="#522974" stroke-linecap="round" stroke-linejoin="round"/>
<path d="M34.2256 66.5H43.6756V26.6H35.2256C34.6726 26.6 34.2256 27.048 34.2256 27.6V66.5Z" stroke="#522974" stroke-linecap="round" stroke-linejoin="round"/>
<path d="M34.2251 56.5249H43.6751V53.8999H34.2251V56.5249Z" fill="white"/>
<path d="M34.2251 56.5249H43.6751V53.8999H34.2251V56.5249Z" stroke="#522974" stroke-linecap="round" stroke-linejoin="round"/>
<path d="M72.0253 35H43.6753V32.375H72.0253V35Z" fill="white"/>
<path d="M72.0253 35H43.6753V32.375H72.0253V35Z" stroke="#522974" stroke-linecap="round" stroke-linejoin="round"/>
<path d="M43.6761 35H34.2261V32.375H43.6761V35Z" fill="white"/>
<path d="M43.6761 35H34.2261V32.375H43.6761V35Z" stroke="#522974" stroke-linecap="round" stroke-linejoin="round"/>
<path d="M38.9504 28.7C38.3704 28.7 37.9004 29.17 37.9004 29.75V32.375H40.0004V29.75C40.0004 29.17 39.5304 28.7 38.9504 28.7Z" fill="#E8D9EC"/>
<path d="M38.9504 28.7C38.3704 28.7 37.9004 29.17 37.9004 29.75V32.375H40.0004V29.75C40.0004 29.17 39.5304 28.7 38.9504 28.7Z" stroke="#522974" stroke-linecap="round" stroke-linejoin="round"/>
<path d="M47.3508 28.7C46.7708 28.7 46.3008 29.17 46.3008 29.75V32.375H48.4008V29.75C48.4008 29.17 47.9308 28.7 47.3508 28.7Z" fill="#E8D9EC"/>
<path d="M47.3508 28.7C46.7708 28.7 46.3008 29.17 46.3008 29.75V32.375H48.4008V29.75C48.4008 29.17 47.9308 28.7 47.3508 28.7Z" stroke="#522974" stroke-linecap="round" stroke-linejoin="round"/>
<path d="M68.3508 28.7C67.7708 28.7 67.3008 29.17 67.3008 29.75V32.375H69.4008V29.75C69.4008 29.17 68.9308 28.7 68.3508 28.7Z" fill="#E8D9EC"/>
<path d="M68.3508 28.7C67.7708 28.7 67.3008 29.17 67.3008 29.75V32.375H69.4008V29.75C69.4008 29.17 68.9308 28.7 68.3508 28.7Z" stroke="#522974" stroke-linecap="round" stroke-linejoin="round"/>
<path d="M40.0004 41.3H37.9004V37.1001H40.0004V41.3Z" fill="#E8D9EC"/>
<path d="M40.0004 41.3H37.9004V37.1001H40.0004V41.3Z" stroke="#522974" stroke-linecap="round" stroke-linejoin="round"/>
<path d="M40.0004 47.5999H37.9004V43.3999H40.0004V47.5999Z" fill="#E8D9EC"/>
<path d="M40.0004 47.5999H37.9004V43.3999H40.0004V47.5999Z" stroke="#522974" stroke-linecap="round" stroke-linejoin="round"/>
<path d="M40.0004 53.8999H37.9004V49.7H40.0004V53.8999Z" fill="#E8D9EC"/>
<path d="M40.0004 53.8999H37.9004V49.7H40.0004V53.8999Z" stroke="#522974" stroke-linecap="round" stroke-linejoin="round"/>
<path d="M40.0004 62.825H37.9004V58.625H40.0004V62.825Z" fill="#E8D9EC"/>
<path d="M40.0004 62.825H37.9004V58.625H40.0004V62.825Z" stroke="#522974" stroke-linecap="round" stroke-linejoin="round"/>
<path d="M72.0254 66.5H81.4754V35H72.0254V66.5Z" fill="white"/>
<path d="M81.4759 27.6C81.4759 27.048 81.0279 26.6 80.4759 26.6H72.0259V32.375H81.4759V27.6Z" fill="white"/>
<path d="M72.0254 66.5H81.4754V27.6C81.4754 27.048 81.0274 26.6 80.4754 26.6H72.0254V66.5Z" stroke="#522974" stroke-linecap="round" stroke-linejoin="round"/>
<path d="M72.0254 56.5249H81.4754V53.8999H72.0254V56.5249Z" fill="white"/>
<path d="M72.0254 56.5249H81.4754V53.8999H72.0254V56.5249Z" stroke="#522974" stroke-linecap="round" stroke-linejoin="round"/>
<path d="M81.4754 35H72.0254V32.375H81.4754V35Z" fill="white"/>
<path d="M81.4754 35H72.0254V32.375H81.4754V35Z" stroke="#522974" stroke-linecap="round" stroke-linejoin="round"/>
<path d="M76.7502 28.7C76.1712 28.7 75.7002 29.17 75.7002 29.75V32.375H77.8012V29.75C77.8012 29.17 77.3302 28.7 76.7502 28.7Z" fill="#E8D9EC"/>
<path d="M76.7502 28.7C76.1712 28.7 75.7002 29.17 75.7002 29.75V32.375H77.8012V29.75C77.8012 29.17 77.3302 28.7 76.7502 28.7Z" stroke="#522974" stroke-linecap="round" stroke-linejoin="round"/>
<path d="M77.8012 41.3H75.7002V37.1001H77.8012V41.3Z" fill="#E8D9EC"/>
<path d="M77.8012 41.3H75.7002V37.1001H77.8012V41.3Z" stroke="#522974" stroke-linecap="round" stroke-linejoin="round"/>
<path d="M77.8012 47.5999H75.7002V43.3999H77.8012V47.5999Z" fill="#E8D9EC"/>
<path d="M77.8012 47.5999H75.7002V43.3999H77.8012V47.5999Z" stroke="#522974" stroke-linecap="round" stroke-linejoin="round"/>
<path d="M77.8012 53.8999H75.7002V49.7H77.8012V53.8999Z" fill="#E8D9EC"/>
<path d="M77.8012 53.8999H75.7002V49.7H77.8012V53.8999Z" stroke="#522974" stroke-linecap="round" stroke-linejoin="round"/>
<path d="M77.8012 62.825H75.7002V58.625H77.8012V62.825Z" fill="#E8D9EC"/>
<path d="M77.8012 62.825H75.7002V58.625H77.8012V62.825Z" stroke="#522974" stroke-linecap="round" stroke-linejoin="round"/>
<path d="M48.4003 41.3H46.3003V37.1001H48.4003V41.3Z" fill="#E8D9EC"/>
<path d="M48.4003 41.3H46.3003V37.1001H48.4003V41.3Z" stroke="#522974" stroke-linecap="round" stroke-linejoin="round"/>
<path d="M48.4003 47.5999H46.3003V43.3999H48.4003V47.5999Z" fill="#E8D9EC"/>
<path d="M48.4003 47.5999H46.3003V43.3999H48.4003V47.5999Z" stroke="#522974" stroke-linecap="round" stroke-linejoin="round"/>
<path d="M48.4003 53.8999H46.3003V49.7H48.4003V53.8999Z" fill="#E8D9EC"/>
<path d="M48.4003 53.8999H46.3003V49.7H48.4003V53.8999Z" stroke="#522974" stroke-linecap="round" stroke-linejoin="round"/>
<path d="M69.4003 41.3H67.3003V37.1001H69.4003V41.3Z" fill="#E8D9EC"/>
<path d="M69.4003 41.3H67.3003V37.1001H69.4003V41.3Z" stroke="#522974" stroke-linecap="round" stroke-linejoin="round"/>
<path d="M69.4003 47.5999H67.3003V43.3999H69.4003V47.5999Z" fill="#E8D9EC"/>
<path d="M69.4003 47.5999H67.3003V43.3999H69.4003V47.5999Z" stroke="#522974" stroke-linecap="round" stroke-linejoin="round"/>
<path d="M61.5253 42.3499H59.4253V38.1499H61.5253V42.3499Z" fill="#E8D9EC"/>
<path d="M61.5253 42.3499H59.4253V38.1499H61.5253V42.3499Z" stroke="#522974" stroke-linecap="round" stroke-linejoin="round"/>
<path d="M61.5253 48.6499H59.4253V44.45H61.5253V48.6499Z" fill="#E8D9EC"/>
<path d="M61.5253 48.6499H59.4253V44.45H61.5253V48.6499Z" stroke="#522974" stroke-linecap="round" stroke-linejoin="round"/>
<path d="M56.2753 42.3499H54.1753V38.1499H56.2753V42.3499Z" fill="#E8D9EC"/>
<path d="M56.2753 42.3499H54.1753V38.1499H56.2753V42.3499Z" stroke="#522974" stroke-linecap="round" stroke-linejoin="round"/>
<path d="M56.2753 48.6499H54.1753V44.45H56.2753V48.6499Z" fill="#E8D9EC"/>
<path d="M56.2753 48.6499H54.1753V44.45H56.2753V48.6499Z" stroke="#522974" stroke-linecap="round" stroke-linejoin="round"/>
<path d="M69.4003 53.8999H67.3003V49.7H69.4003V53.8999Z" fill="#E8D9EC"/>
<path d="M69.4003 53.8999H67.3003V49.7H69.4003V53.8999Z" stroke="#522974" stroke-linecap="round" stroke-linejoin="round"/>
<path d="M42.6252 14.525H38.9502V17.675H42.6252V14.525Z" fill="white"/>
<path d="M42.6252 14.525H38.9502V17.675H42.6252V14.525Z" stroke="#522974" stroke-linecap="round" stroke-linejoin="round"/>
<path d="M42.6251 14.5249H38.9501L38.5831 13.9929C38.3721 13.6879 38.3481 13.2899 38.5211 12.9609C38.6931 12.6309 39.0341 12.4249 39.4061 12.4249H42.1501C42.5181 12.4249 42.8551 12.6269 43.0301 12.9499C43.2051 13.2729 43.1881 13.6659 42.9871 13.9729L42.6251 14.5249Z" fill="white"/>
<path d="M42.6251 14.5249H38.9501L38.5831 13.9929C38.3721 13.6879 38.3481 13.2899 38.5211 12.9609C38.6931 12.6309 39.0341 12.4249 39.4061 12.4249H42.1501C42.5181 12.4249 42.8551 12.6269 43.0301 12.9499C43.2051 13.2729 43.1881 13.6659 42.9871 13.9729L42.6251 14.5249Z" stroke="#522974" stroke-linecap="round" stroke-linejoin="round"/>
<path d="M76.7502 14.525H73.0752V17.675H76.7502V14.525Z" fill="white"/>
<path d="M76.7502 14.525H73.0752V17.675H76.7502V14.525Z" stroke="#522974" stroke-linecap="round" stroke-linejoin="round"/>
<path d="M76.75 14.5249H73.075L72.7 14.0249C72.473 13.7219 72.437 13.3169 72.606 12.9779C72.775 12.6389 73.122 12.4249 73.5 12.4249H76.241C76.602 12.4249 76.933 12.6179 77.11 12.9309C77.288 13.2429 77.285 13.6279 77.101 13.9369L76.75 14.5249Z" fill="white"/>
<path d="M76.75 14.5249H73.075L72.7 14.0249C72.473 13.7219 72.437 13.3169 72.606 12.9779C72.775 12.6389 73.122 12.4249 73.5 12.4249H76.241C76.602 12.4249 76.933 12.6179 77.11 12.9309C77.288 13.2429 77.285 13.6279 77.101 13.9369L76.75 14.5249Z" stroke="#522974" stroke-linecap="round" stroke-linejoin="round"/>
<path d="M51.5508 34.9999V48.6499" stroke="#522974" stroke-linecap="round" stroke-linejoin="round"/>
<path d="M64.1504 34.9999V48.6499" stroke="#522974" stroke-linecap="round" stroke-linejoin="round"/>
<path d="M63.6252 53.9H52.0752V66.5H63.6252V53.9Z" fill="white"/>
<path d="M63.6252 53.9H52.0752V66.5H63.6252V53.9Z" stroke="#522974" stroke-linecap="round" stroke-linejoin="round"/>
<path d="M54.1762 66.5H52.0752V56.525H54.1762V66.5Z" fill="white"/>
<path d="M54.1762 66.5H52.0752V56.525H54.1762V66.5Z" stroke="#522974" stroke-linecap="round" stroke-linejoin="round"/>
<path d="M63.6254 66.5H61.5254V56.525H63.6254V66.5Z" fill="white"/>
<path d="M63.6254 66.5H61.5254V56.525H63.6254V66.5Z" fill="white"/>
<path d="M63.6254 66.5H61.5254V56.525H63.6254V66.5Z" stroke="#522974" stroke-linecap="round" stroke-linejoin="round"/>
<path d="M61.5253 66.5H54.1753V56.525H61.5253V66.5Z" fill="#E8D9EC"/>
<path d="M60.4758 56.5248H54.1758V66.4998H56.3958L60.4758 56.5248Z" fill="white"/>
<path d="M61.5251 66.5H57.8501V56.525H61.5251V66.5Z" stroke="#522974" stroke-linecap="round" stroke-linejoin="round"/>
<path d="M43.6761 53.8999H33.2261" stroke="#522974" stroke-linecap="round" stroke-linejoin="round"/>
<path d="M43.6761 32.375H33.2261" stroke="#522974" stroke-linecap="round" stroke-linejoin="round"/>
<path d="M82.4759 53.8999H72.0259" stroke="#522974" stroke-linecap="round" stroke-linejoin="round"/>
<path d="M82.4759 32.375H72.0259" stroke="#522974" stroke-linecap="round" stroke-linejoin="round"/>
<path d="M57.8503 66.5H54.1753V56.525H57.8503V66.5Z" stroke="#522974" stroke-linecap="round" stroke-linejoin="round"/>
<path d="M51 78.2898C51 79.2498 45.292 80.0278 38.25 80.0278C31.209 80.0278 25.5 79.2498 25.5 78.2898C25.5 77.3298 31.209 76.5508 38.25 76.5508C45.292 76.5508 51 77.3298 51 78.2898Z" fill="#F1EDF7"/>
<path d="M49.8417 77.1309H47.0107V59.1779C47.6837 58.0239 49.1677 58.0239 49.8417 59.1779V77.1309Z" fill="white"/>
<path d="M49.8417 77.1309H47.0107V59.1779C47.6837 58.0239 49.1677 58.0239 49.8417 59.1779V77.1309Z" stroke="#522974" stroke-linecap="round" stroke-linejoin="round"/>
<path d="M47.0114 77.1309H30.0273V60.3198H47.0114V77.1309Z" fill="#E8D9EC"/>
<path d="M47.0114 77.1309H30.0273V60.3198H47.0114V77.1309Z" stroke="#522974" stroke-linecap="round" stroke-linejoin="round"/>
<path d="M47.3762 59.125H49.4772C50.1372 58.755 50.5892 58.057 50.5892 57.246C50.5892 56.051 49.6202 55.083 48.4262 55.083C47.2312 55.083 46.2642 56.051 46.2642 57.246C46.2642 58.057 46.7152 58.755 47.3762 59.125Z" fill="white"/>
<path d="M47.3762 59.125H49.4772C50.1372 58.755 50.5892 58.057 50.5892 57.246C50.5892 56.051 49.6202 55.083 48.4262 55.083C47.2312 55.083 46.2642 56.051 46.2642 57.246C46.2642 58.057 46.7152 58.755 47.3762 59.125Z" stroke="#522974" stroke-linecap="round" stroke-linejoin="round"/>
<path d="M30.0498 77.1309H27.2188V59.1779C27.8928 58.0239 29.3758 58.0239 30.0498 59.1779V77.1309Z" fill="white"/>
<path d="M30.0498 77.1309H27.2188V59.1779C27.8928 58.0239 29.3758 58.0239 30.0498 59.1779V77.1309Z" stroke="#522974" stroke-linecap="round" stroke-linejoin="round"/>
<path d="M27.5842 59.125H29.6852C30.3462 58.755 30.7972 58.057 30.7972 57.246C30.7972 56.051 29.8292 55.083 28.6352 55.083C27.4402 55.083 26.4722 56.051 26.4722 57.246C26.4722 58.057 26.9242 58.755 27.5842 59.125Z" fill="white"/>
<path d="M27.5842 59.125H29.6852C30.3462 58.755 30.7972 58.057 30.7972 57.246C30.7972 56.051 29.8292 55.083 28.6352 55.083C27.4402 55.083 26.4722 56.051 26.4722 57.246C26.4722 58.057 26.9242 58.755 27.5842 59.125Z" stroke="#522974" stroke-linecap="round" stroke-linejoin="round"/>
<path d="M38.4696 62.8988C38.3396 62.8008 38.1606 62.8008 38.0316 62.8988C36.8886 63.7568 35.5076 64.3588 33.9956 64.5708C33.8156 64.5968 33.6816 64.7508 33.6816 64.9328V68.1288C33.6816 71.0888 35.4926 73.6498 38.1126 74.7228C38.1996 74.7588 38.2996 74.7588 38.3886 74.7228C41.0066 73.6498 42.8196 71.0898 42.8196 68.1288V64.9328C42.8196 64.7508 42.6846 64.5968 42.5036 64.5708C40.9926 64.3588 39.6126 63.7568 38.4696 62.8988Z" fill="white"/>
<path d="M38.4696 62.8988C38.3396 62.8008 38.1606 62.8008 38.0316 62.8988C36.8886 63.7568 35.5076 64.3588 33.9956 64.5708C33.8156 64.5968 33.6816 64.7508 33.6816 64.9328V68.1288C33.6816 71.0888 35.4926 73.6498 38.1126 74.7228C38.1996 74.7588 38.2996 74.7588 38.3886 74.7228C41.0066 73.6498 42.8196 71.0898 42.8196 68.1288V64.9328C42.8196 64.7508 42.6846 64.5968 42.5036 64.5708C40.9926 64.3588 39.6126 63.7568 38.4696 62.8988Z" stroke="#522974" stroke-miterlimit="10"/>
<path d="M38.6536 63.0193L33.6816 67.9903V68.1293C33.6816 68.9753 33.8446 69.7823 34.1176 70.5383L40.5936 64.0613C39.8966 63.7923 39.2456 63.4413 38.6536 63.0193Z" fill="#E8D9EC"/>
<path d="M42.8195 64.9429L35.2305 72.5309C35.6695 73.0859 36.1865 73.5699 36.7705 73.9749L42.8195 67.9259V64.9429Z" fill="#E8D9EC"/>
<path d="M38.4696 62.8988C38.3396 62.8008 38.1606 62.8008 38.0316 62.8988C36.8886 63.7568 35.5076 64.3588 33.9956 64.5708C33.8156 64.5968 33.6816 64.7508 33.6816 64.9328V68.1288C33.6816 71.0888 35.4926 73.6498 38.1126 74.7228C38.1996 74.7588 38.2996 74.7588 38.3886 74.7228C41.0066 73.6498 42.8196 71.0898 42.8196 68.1288V64.9328C42.8196 64.7508 42.6846 64.5968 42.5036 64.5708C40.9926 64.3588 39.6126 63.7568 38.4696 62.8988Z" stroke="#522974" stroke-miterlimit="10"/>
</svg>
