<svg width="16" height="16" viewBox="0 0 16 16" fill="none" xmlns="http://www.w3.org/2000/svg">
<path d="M7.88703 13.0008C5.0141 13.0008 2.14784 11.0011 0.414757 9.08138C0.147761 8.78509 0 8.40038 0 8.00153C0 7.60269 0.147761 7.21798 0.414757 6.92169C2.16784 4.99529 5.08076 2.92226 8.00035 3.00224C10.9333 2.94892 13.8329 5.00196 15.5859 6.92169C15.8525 7.2169 16 7.60048 16 7.9982C16 8.39592 15.8525 8.77951 15.5859 9.07472C13.8329 11.0078 10.9199 13.0741 7.99368 13.0008H7.88703ZM7.88703 4.0021C5.33406 4.0021 2.74109 5.84851 1.15465 7.59493C1.05394 7.70641 0.998193 7.8513 0.998193 8.00153C0.998193 8.15177 1.05394 8.29666 1.15465 8.40814C2.76109 10.1746 5.38738 12.041 8.00035 12.001C10.6133 11.961 13.2463 10.1746 14.8527 8.40814C14.952 8.29599 15.0069 8.15135 15.0069 8.00153C15.0069 7.85171 14.952 7.70708 14.8527 7.59493C13.2396 5.82851 10.5933 3.92878 8.00035 4.0021H7.8937H7.88703Z" fill="#141414"/>
<path fill-rule="evenodd" clip-rule="evenodd" d="M7.99815 10.0012C7.46859 10.0007 6.96085 9.79004 6.58635 9.41554C6.21134 9.04052 6.00065 8.53189 6.00065 8.00153C6.00065 7.47117 6.21134 6.96253 6.58635 6.58751C6.96085 6.21302 7.46859 6.0024 7.99815 6.00181C7.99889 6.00181 7.99963 6.00181 8.00037 6.00181C8.53073 6.00181 9.03936 6.21249 9.41438 6.58751C9.78888 6.96201 9.9995 7.46975 10.0001 7.99931C10.0001 8.00005 10.0001 8.00079 10.0001 8.00153C10.0001 8.00227 10.0001 8.003 10.0001 8.00374C9.9995 8.5333 9.78888 9.04104 9.41438 9.41554C9.03936 9.79056 8.53073 10.0012 8.00037 10.0012C7.99963 10.0012 7.99889 10.0012 7.99815 10.0012ZM8.00037 11.0011C7.20483 11.0011 6.44188 10.6851 5.87935 10.1225C5.31682 9.56002 5.00079 8.79706 5.00079 8.00153C5.00079 7.20599 5.31682 6.44304 5.87935 5.88051C6.44188 5.31798 7.20483 5.00195 8.00037 5.00195C8.79536 5.00371 9.55729 5.3203 10.1194 5.88245C10.6816 6.4446 10.9982 7.20653 10.9999 8.00153C10.9982 8.79652 10.6816 9.55845 10.1194 10.1206C9.55729 10.6828 8.79536 10.9993 8.00037 11.0011Z" fill="#141414"/>
</svg>
