<svg width="16" height="16" viewBox="0 0 16 16" fill="none" xmlns="http://www.w3.org/2000/svg">
<path fill-rule="evenodd" clip-rule="evenodd" d="M8.99315 1.41582L14.523 7.6872L14.5319 7.69698C14.6894 7.86643 14.6893 8.13814 14.5287 8.30758C14.5246 8.31191 14.5206 8.3163 14.5167 8.32077L8.97659 14.6037C8.97576 14.6045 8.97493 14.6052 8.97411 14.6059V12.2697C8.97411 11.9935 8.75025 11.7697 8.47411 11.7697H1.80614C1.5492 11.7653 1.35137 11.5588 1.35044 11.3192L1.37798 8.04694H3.74375C4.54041 8.04694 5.19592 7.39143 5.19592 6.59477V4.23193H8.49315C8.76929 4.23193 8.99315 4.00808 8.99315 3.73193V1.41582ZM4.19591 4.26789C2.76457 4.4805 1.6305 5.61292 1.418 7.04694H3.74375C3.98812 7.04694 4.19591 6.83915 4.19591 6.59477V4.26789ZM9.59 15.3978C9.22092 15.7084 8.66432 15.7189 8.29164 15.3711L8.29083 15.3703C8.0948 15.1866 7.97411 14.9301 7.97411 14.6501V12.7697H1.79657C1.0016 12.7601 0.350433 12.1175 0.350433 11.3175V11.3133L0.382168 7.5455C0.376582 5.16233 2.30796 3.23193 4.68449 3.23193H7.99315V1.35645C7.98403 0.813889 8.42002 0.375783 8.95069 0.369164C9.24095 0.358786 9.4996 0.490468 9.67678 0.679464L9.68704 0.690748L15.2692 7.02138C15.7773 7.57343 15.778 8.43542 15.2614 8.98815L9.68069 15.3172C9.65342 15.3482 9.6229 15.3751 9.59 15.3978Z" fill="#141414"/>
</svg>
