<svg width="16" height="16" viewBox="0 0 16 16" fill="none" xmlns="http://www.w3.org/2000/svg">
<path d="M14.205 14.7796H1.765C1.38825 14.7726 1.02923 14.6183 0.765001 14.3496C0.502651 14.082 0.352415 13.7243 0.345001 13.3496V4.7196C0.347526 4.33926 0.498376 3.97492 0.765449 3.70411C1.03252 3.4333 1.39473 3.2774 1.775 3.2696H6.565C6.69761 3.2696 6.82479 3.32228 6.91855 3.41604C7.01232 3.50981 7.065 3.63699 7.065 3.7696C7.06244 3.9014 7.00894 4.0271 6.91572 4.12032C6.8225 4.21354 6.69681 4.26704 6.565 4.2696H1.785C1.72459 4.26827 1.66451 4.27886 1.60819 4.30076C1.55187 4.32266 1.50042 4.35544 1.45677 4.39722C1.41313 4.43901 1.37814 4.48899 1.35381 4.54431C1.32949 4.59962 1.3163 4.65919 1.315 4.7196V13.3296C1.31714 13.4428 1.36386 13.5506 1.445 13.6296C1.48632 13.6731 1.53591 13.7079 1.59086 13.7319C1.64582 13.756 1.70502 13.7688 1.765 13.7696H14.195C14.3162 13.767 14.4317 13.7178 14.5174 13.632C14.6032 13.5463 14.6524 13.4308 14.655 13.3096V4.7196C14.655 4.5976 14.6065 4.4806 14.5203 4.39433C14.434 4.30806 14.317 4.2596 14.195 4.2596H9.415C9.28239 4.2596 9.15522 4.20692 9.06145 4.11315C8.96768 4.01938 8.915 3.89221 8.915 3.7596C8.915 3.62699 8.96768 3.49981 9.06145 3.40604C9.15522 3.31228 9.28239 3.2596 9.415 3.2596H14.195C14.5822 3.2596 14.9536 3.41342 15.2274 3.68722C15.5012 3.96102 15.655 4.33238 15.655 4.7196V13.3196C15.655 13.7034 15.504 14.0717 15.2345 14.345C14.965 14.6182 14.5987 14.7743 14.215 14.7796H14.205Z" fill="#141414"/>
<path d="M8.985 6.1696H7.045C6.77978 6.1696 6.52543 6.06424 6.33789 5.8767C6.15036 5.68917 6.045 5.43481 6.045 5.1696V3.2896C6.02588 3.02379 6.06173 2.7569 6.15031 2.50556C6.23889 2.25422 6.3783 2.02383 6.55985 1.82874C6.74141 1.63366 6.9612 1.47808 7.20554 1.37169C7.44988 1.26531 7.71351 1.2104 7.98 1.2104C8.24649 1.2104 8.51013 1.26531 8.75446 1.37169C8.9988 1.47808 9.2186 1.63366 9.40015 1.82874C9.5817 2.02383 9.72111 2.25422 9.80969 2.50556C9.89827 2.7569 9.93412 3.02379 9.915 3.2896V5.1996C9.90815 5.44791 9.80913 5.68478 9.63721 5.86409C9.4653 6.0434 9.2328 6.1523 8.985 6.1696ZM7.985 2.3496C7.86164 2.34823 7.73927 2.37168 7.62516 2.41856C7.51105 2.46544 7.40754 2.53479 7.32077 2.62249C7.23401 2.71019 7.16577 2.81444 7.12011 2.92904C7.07445 3.04365 7.05231 3.16626 7.055 3.2896V5.1996H8.915H8.985V3.2896C8.98526 3.16094 8.95911 3.0336 8.90817 2.91546C8.85722 2.79732 8.78256 2.69089 8.68882 2.60277C8.59507 2.51465 8.48424 2.44671 8.36318 2.40317C8.24211 2.35962 8.1134 2.34139 7.985 2.3496Z" fill="#141414"/>
<path d="M5.60501 11.4396C5.02736 11.4377 4.47384 11.2077 4.06501 10.7996C3.8637 10.5991 3.70432 10.3606 3.59615 10.0979C3.48799 9.83526 3.43321 9.55366 3.43501 9.26959C3.43299 8.98399 3.48763 8.70083 3.59577 8.43649C3.70391 8.17215 3.8634 7.93188 4.06501 7.72959C4.48102 7.33573 5.03213 7.11624 5.60501 7.11624C6.17788 7.11624 6.72899 7.33573 7.14501 7.72959C7.34797 7.93139 7.50901 8.17135 7.61885 8.43565C7.72869 8.69995 7.78516 8.98337 7.78501 9.26959C7.78494 9.55429 7.72833 9.83614 7.61847 10.0988C7.5086 10.3614 7.34767 10.5996 7.14501 10.7996C6.9432 11.0026 6.70324 11.1636 6.43894 11.2734C6.17464 11.3833 5.89122 11.4397 5.60501 11.4396ZM5.60501 8.06959C5.29294 8.07191 4.99451 8.19776 4.77501 8.41959C4.66608 8.52844 4.57991 8.6579 4.52154 8.8004C4.46316 8.9429 4.43375 9.0956 4.43501 9.24959C4.43833 9.55654 4.56015 9.85034 4.77501 10.0696C5.00172 10.2769 5.2978 10.3918 5.60501 10.3918C5.91221 10.3918 6.20829 10.2769 6.43501 10.0696C6.648 9.85634 6.77295 9.57075 6.78501 9.26959C6.78496 9.11489 6.75397 8.96177 6.69386 8.81923C6.63375 8.67669 6.54574 8.54761 6.43501 8.43959C6.3298 8.32383 6.20171 8.23117 6.05884 8.16748C5.91597 8.10379 5.76143 8.07045 5.60501 8.06959Z" fill="#141414"/>
<path d="M2.735 14.7896C2.60319 14.787 2.4775 14.7335 2.38428 14.6403C2.29106 14.5471 2.23756 14.4214 2.235 14.2896C2.23236 13.8458 2.31765 13.4059 2.48594 12.9953C2.65424 12.5847 2.90221 12.2115 3.21554 11.8972C3.52887 11.583 3.90135 11.3339 4.31147 11.1644C4.72159 10.9949 5.16123 10.9083 5.605 10.9096C6.49329 10.93 7.34057 11.2875 7.975 11.9096C8.29068 12.2169 8.54244 12.5837 8.71578 12.9887C8.88912 13.3937 8.98062 13.829 8.985 14.2696C8.98633 14.3348 8.97464 14.3996 8.95061 14.4602C8.92658 14.5208 8.8907 14.576 8.84507 14.6226C8.79943 14.6691 8.74496 14.7061 8.68485 14.7314C8.62474 14.7566 8.5602 14.7696 8.495 14.7696H2.755L2.735 14.7896ZM5.615 11.9096C5.07009 11.9089 4.54144 12.0952 4.11737 12.4373C3.69329 12.7795 3.39947 13.2568 3.285 13.7896H7.915C7.8219 13.3449 7.5992 12.9378 7.275 12.6196C6.83702 12.1732 6.24034 11.918 5.615 11.9096Z" fill="#141414"/>
<path d="M12.305 9.0696H9.43501C9.3024 9.0696 9.17522 9.01692 9.08145 8.92315C8.98768 8.82938 8.93501 8.7022 8.93501 8.5696C8.93501 8.43699 8.98768 8.30981 9.08145 8.21604C9.17522 8.12227 9.3024 8.0696 9.43501 8.0696H12.305C12.4376 8.0696 12.5648 8.12227 12.6586 8.21604C12.7523 8.30981 12.805 8.43699 12.805 8.5696C12.8024 8.7014 12.7489 8.8271 12.6557 8.92032C12.5625 9.01353 12.4368 9.06704 12.305 9.0696Z" fill="#141414"/>
<path d="M13.255 10.9596H9.43501C9.3024 10.9596 9.17522 10.9069 9.08145 10.8131C8.98768 10.7194 8.93501 10.5922 8.93501 10.4596C8.93501 10.327 8.98768 10.1998 9.08145 10.106C9.17522 10.0123 9.3024 9.95959 9.43501 9.95959H13.255C13.3876 9.95959 13.5148 10.0123 13.6086 10.106C13.7023 10.1998 13.755 10.327 13.755 10.4596C13.755 10.5922 13.7023 10.7194 13.6086 10.8131C13.5148 10.9069 13.3876 10.9596 13.255 10.9596Z" fill="#141414"/>
</svg>
