<svg width="16" height="16" viewBox="0 0 16 16" fill="none" xmlns="http://www.w3.org/2000/svg">
<path fill-rule="evenodd" clip-rule="evenodd" d="M7.99997 0.500763C6.01105 0.500763 4.10359 1.29086 2.69721 2.69724C1.29083 4.10362 0.500732 6.01108 0.500732 8.00001C0.500732 9.98893 1.29083 11.8964 2.69721 13.3028C4.10359 14.7092 6.01105 15.4992 7.99997 15.4992C9.9889 15.4992 11.8964 14.7092 13.3027 13.3028C14.7091 11.8964 15.4992 9.98893 15.4992 8.00001C15.4992 6.01108 14.7091 4.10362 13.3027 2.69724C11.8964 1.29086 9.9889 0.500763 7.99997 0.500763ZM3.40432 3.40435C4.62316 2.1855 6.27627 1.50076 7.99997 1.50076C9.72368 1.50076 11.3768 2.1855 12.5956 3.40435C13.8145 4.62319 14.4992 6.2763 14.4992 8.00001C14.4992 9.72371 13.8145 11.3768 12.5956 12.5957C11.3768 13.8145 9.72368 14.4992 7.99997 14.4992C6.27627 14.4992 4.62316 13.8145 3.40432 12.5957C2.18547 11.3768 1.50073 9.72371 1.50073 8.00001C1.50073 6.2763 2.18547 4.62319 3.40432 3.40435ZM7.56218 4.26041C7.62044 4.23663 7.6842 4.22353 7.75101 4.22353C8.15039 4.22353 8.48441 4.54574 8.48441 4.95692V4.95755C8.48441 5.37737 8.14642 5.67507 7.77909 5.69343C7.77078 5.69385 7.76245 5.69406 7.75412 5.69406C7.33851 5.69406 7.02384 5.35554 7.02384 4.96377C7.02384 4.61359 7.26056 4.34384 7.56218 4.26041ZM6.56034 7.06596C6.56034 6.78982 6.78419 6.56596 7.06034 6.56596H7.52695C8.05382 6.56596 8.49357 6.99079 8.49357 7.53257V9.86566V9.86628C8.49357 10.0963 8.68328 10.2952 8.93036 10.2995H8.93302H9.39964C9.67578 10.2995 9.89964 10.5234 9.89964 10.7995C9.89964 11.0757 9.67578 11.2995 9.39964 11.2995H8.93302H8.9268H8.92078L8.92078 11.2995C8.13628 11.29 7.49357 10.6559 7.49357 9.86628V9.86566V7.56596H7.06034C6.78419 7.56596 6.56034 7.3421 6.56034 7.06596Z" fill="#141414"/>
</svg>
