<svg width="16" height="16" viewBox="0 0 16 16" fill="none" xmlns="http://www.w3.org/2000/svg">
<path d="M12.7315 7.47742L11.7694 6.69999C11.5547 6.52643 11.2398 6.55984 11.0663 6.77463C10.8927 6.98941 10.9261 7.30422 11.1409 7.47778L12.997 8.97766C13.1002 9.06101 13.2322 9.09997 13.3641 9.08597C13.4959 9.07197 13.6168 9.00616 13.7002 8.90302L15.2 7.04693C15.3736 6.83214 15.3402 6.51733 15.1254 6.34377C14.9106 6.17021 14.5958 6.20362 14.4223 6.41841L13.718 7.28991C13.364 3.91462 10.5138 1.28882 7.04385 1.28882C3.34074 1.28882 0.332672 4.28985 0.332672 8C0.332672 11.7034 3.34041 14.7112 7.04385 14.7112C7.31999 14.7112 7.54385 14.4873 7.54385 14.2112C7.54385 13.935 7.31999 13.7112 7.04385 13.7112C3.8927 13.7112 1.33267 11.1511 1.33267 8C1.33267 4.84281 3.89236 2.28882 7.04385 2.28882C10.0252 2.28882 12.4682 4.56545 12.7315 7.47742Z" fill="black"/>
<path d="M7.6445 3.67575C7.36836 3.67575 7.1445 3.89961 7.1445 4.17575V7.9758H4.30002C4.02388 7.9758 3.80002 8.19966 3.80002 8.4758C3.80002 8.75194 4.02388 8.9758 4.30002 8.9758H7.6445C7.92064 8.9758 8.1445 8.75194 8.1445 8.4758V4.17575C8.1445 3.89961 7.92064 3.67575 7.6445 3.67575Z" fill="black"/>
<path d="M13.2752 10.4025C13.374 10.1446 13.2452 9.85546 12.9873 9.75659C12.7295 9.65772 12.4403 9.78658 12.3415 10.0444C12.3151 10.1132 12.2874 10.1814 12.2584 10.249C12.1497 10.5028 12.2673 10.7968 12.5211 10.9055C12.7749 11.0143 13.0688 10.8967 13.1776 10.6429C13.2116 10.5635 13.2442 10.4833 13.2752 10.4025Z" fill="black"/>
<path d="M11.7253 12.7739C11.9218 12.5798 11.9237 12.2632 11.7297 12.0668C11.5356 11.8703 11.2191 11.8684 11.0226 12.0624C10.9703 12.1141 10.9169 12.1648 10.8625 12.2145C10.8081 12.2642 10.7529 12.3128 10.6967 12.3603C10.4858 12.5386 10.4594 12.8541 10.6377 13.065C10.816 13.2758 11.1315 13.3022 11.3424 13.124C11.4083 13.0682 11.4733 13.011 11.5372 12.9526C11.6011 12.8942 11.6639 12.8346 11.7253 12.7739Z" fill="black"/>
<path d="M9.08988 14.3795C9.35242 14.2939 9.49587 14.0117 9.41027 13.7492C9.32468 13.4866 9.04246 13.3432 8.77992 13.4288C8.71 13.4516 8.63958 13.473 8.56869 13.4931C8.30304 13.5685 8.14879 13.845 8.22417 14.1106C8.29955 14.3763 8.57601 14.5305 8.84167 14.4552C8.92497 14.4315 9.00772 14.4063 9.08988 14.3795Z" fill="black"/>
</svg>
