<svg width="16" height="16" viewBox="0 0 16 16" fill="none" xmlns="http://www.w3.org/2000/svg">
<path fill-rule="evenodd" clip-rule="evenodd" d="M2.50006 3.49999C2.50006 3.22386 2.72392 3 3.00006 3H13C13.2761 3 13.5 3.22386 13.5 3.49999C13.5 3.77613 13.2761 3.99999 13 3.99999H3.00006C2.72392 3.99999 2.50006 3.77613 2.50006 3.49999Z" fill="#141414"/>
<path fill-rule="evenodd" clip-rule="evenodd" d="M2.5 9.49999C2.5 9.22386 2.72386 9 2.99999 9H12.9999C13.276 9 13.4999 9.22386 13.4999 9.49999C13.4999 9.77613 13.276 9.99999 12.9999 9.99999H2.99999C2.72386 9.99999 2.5 9.77613 2.5 9.49999Z" fill="#141414"/>
<path fill-rule="evenodd" clip-rule="evenodd" d="M2.5 6.49999C2.5 6.22386 2.72386 6 2.99999 6H12.9999C13.276 6 13.4999 6.22386 13.4999 6.49999C13.4999 6.77613 13.276 6.99999 12.9999 6.99999H2.99999C2.72386 6.99999 2.5 6.77613 2.5 6.49999Z" fill="#141414"/>
<path fill-rule="evenodd" clip-rule="evenodd" d="M2.50006 12.5C2.50006 12.2239 2.72392 12 3.00006 12H13C13.2761 12 13.5 12.2239 13.5 12.5C13.5 12.7761 13.2761 13 13 13H3.00006C2.72392 13 2.50006 12.7761 2.50006 12.5Z" fill="#141414"/>
</svg>
