<svg width="16" height="16" viewBox="0 0 16 16" fill="none" xmlns="http://www.w3.org/2000/svg">
<path d="M12.11 6.63001H3.89C3.65124 6.6378 3.42487 6.73815 3.25877 6.90985C3.09267 7.08155 2.99987 7.31112 3 7.55001V13.94C3 14.184 3.09693 14.418 3.26946 14.5905C3.442 14.7631 3.676 14.86 3.92 14.86H12.14C12.384 14.86 12.618 14.7631 12.7905 14.5905C12.9631 14.418 13.06 14.184 13.06 13.94V7.55001C13.0601 7.42662 13.0353 7.30449 12.9872 7.19087C12.9391 7.07725 12.8687 6.97446 12.78 6.88863C12.6914 6.80279 12.5864 6.73566 12.4713 6.69123C12.3562 6.64681 12.2333 6.62598 12.11 6.63001Z" fill="#F1EDF7"/>
<path d="M12.11 15.36H3.89C3.5142 15.3574 3.15454 15.2069 2.8888 14.9412C2.62307 14.6755 2.47262 14.3158 2.47 13.94V7.55C2.47262 7.17421 2.62307 6.81454 2.8888 6.54881C3.15454 6.28307 3.5142 6.13262 3.89 6.13H12.11C12.4858 6.13262 12.8455 6.28307 13.1112 6.54881C13.3769 6.81454 13.5274 7.17421 13.53 7.55V13.94C13.5274 14.3158 13.3769 14.6755 13.1112 14.9412C12.8455 15.2069 12.4858 15.3574 12.11 15.36ZM3.89 7.13C3.77861 7.13 3.67178 7.17425 3.59302 7.25302C3.51425 7.33179 3.47 7.43861 3.47 7.55V13.94C3.47 14.0514 3.51425 14.1582 3.59302 14.237C3.67178 14.3158 3.77861 14.36 3.89 14.36H12.11C12.2214 14.36 12.3282 14.3158 12.407 14.237C12.4858 14.1582 12.53 14.0514 12.53 13.94V7.55C12.53 7.43861 12.4858 7.33179 12.407 7.25302C12.3282 7.17425 12.2214 7.13 12.11 7.13H3.89Z" fill="#522974"/>
<path d="M4.8 7.13C4.66739 7.13 4.54022 7.07732 4.44645 6.98355C4.35268 6.88978 4.3 6.76261 4.3 6.63V4.35C4.29869 3.86327 4.39342 3.38106 4.57877 2.931C4.76413 2.48094 5.03646 2.07187 5.38016 1.72724C5.72387 1.3826 6.1322 1.10917 6.58176 0.922599C7.03132 0.736031 7.51327 0.639998 8 0.639999C8.97783 0.645285 9.91381 1.03744 10.6034 1.73075C11.2929 2.42406 11.68 3.36215 11.68 4.34V6.62C11.68 6.75261 11.6273 6.87978 11.5336 6.97355C11.4398 7.06732 11.3126 7.12 11.18 7.12C11.0474 7.12 10.9202 7.06732 10.8264 6.97355C10.7327 6.87978 10.68 6.75261 10.68 6.62V4.34C10.6821 3.98597 10.6142 3.63501 10.4804 3.30725C10.3465 2.97949 10.1493 2.68137 9.9 2.43C9.65163 2.17874 9.3557 1.97948 9.02948 1.84384C8.70327 1.7082 8.35329 1.6389 8 1.64C7.283 1.64265 6.59627 1.92933 6.0902 2.43727C5.58414 2.9452 5.3 3.63299 5.3 4.35V6.63C5.3 6.76261 5.24732 6.88978 5.15355 6.98355C5.05979 7.07732 4.93261 7.13 4.8 7.13Z" fill="#522974"/>
<path d="M8 12.16C7.86739 12.16 7.74021 12.1073 7.64645 12.0136C7.55268 11.9198 7.5 11.7926 7.5 11.66V9.83C7.5 9.69739 7.55268 9.57022 7.64645 9.47645C7.74021 9.38268 7.86739 9.33 8 9.33C8.13261 9.33 8.25979 9.38268 8.35355 9.47645C8.44732 9.57022 8.5 9.69739 8.5 9.83V11.66C8.5 11.7926 8.44732 11.9198 8.35355 12.0136C8.25979 12.1073 8.13261 12.16 8 12.16Z" fill="#522974"/>
</svg>
