<svg width="16" height="16" viewBox="0 0 16 16" fill="none" xmlns="http://www.w3.org/2000/svg">
<g clip-path="url(#clip0)">
<path fill-rule="evenodd" clip-rule="evenodd" d="M1.63635 1.61682V8.88212H2.50914C2.68971 7.70495 3.49813 6.73734 4.58297 6.33199C4.45806 6.25144 4.3411 6.15729 4.23443 6.0505C3.83963 5.65529 3.61793 5.11939 3.61793 4.56071C3.61793 4.00202 3.83963 3.46612 4.23443 3.07091C4.62924 2.67569 5.16483 2.45356 5.7234 2.45356C6.28197 2.45356 6.81756 2.67569 7.21238 3.07091C7.60717 3.46612 7.82887 4.00202 7.82887 4.56071C7.82887 5.11939 7.60717 5.65529 7.21238 6.0505C7.10543 6.15755 6.98816 6.25191 6.8629 6.33258C7.94568 6.73822 8.75636 7.70521 8.93753 8.88212H9.81045V1.61682H1.63635ZM2.96838 9.88212C2.96931 9.88212 2.97024 9.88213 2.97117 9.88213H8.47564C8.47657 9.88213 8.4775 9.88212 8.47843 9.88212H9.81045V11.6372H1.63635V9.88212H2.96838ZM7.92012 8.88212C7.69268 7.87572 6.79337 7.12702 5.7234 7.12702C4.64872 7.12702 3.75272 7.87529 3.52638 8.88212H7.92012ZM0.636353 1.57601V9.38212V11.678C0.636353 12.2073 1.06509 12.6372 1.59506 12.6372H9.85175C10.3817 12.6372 10.8105 12.2073 10.8105 11.678V9.38212V1.57601C10.8105 1.04675 10.3817 0.616821 9.85175 0.616821H1.59506C1.06509 0.616821 0.636353 1.04675 0.636353 1.57601ZM12.3066 3.99764C12.0447 3.91021 11.7615 4.05168 11.674 4.31362C11.5866 4.57556 11.7281 4.85877 11.99 4.9462L14.3757 5.74247L11.4993 14.3687L7.69508 13.0993C7.43313 13.0119 7.14993 13.1533 7.06252 13.4153C6.97512 13.6772 7.11661 13.9604 7.37855 14.0478L11.1618 15.3102C11.1804 15.3192 11.1997 15.327 11.2194 15.3336C11.7237 15.5018 12.2548 15.227 12.4294 14.7403L12.4295 14.7403L12.4331 14.7297L15.3147 6.0878C15.3263 6.06532 15.3362 6.04175 15.3444 6.01723C15.511 5.51695 15.2415 4.97655 14.7408 4.80946C14.7331 4.80692 14.7255 4.80456 14.7178 4.80239L12.3066 3.99764ZM11.5284 14.3832L11.5183 14.4136L11.5256 14.4162L11.536 14.385L11.5316 14.3838L11.5284 14.3832ZM11.5038 14.4571L11.5149 14.4235L11.5223 14.426L11.5121 14.4565L11.5038 14.4571ZM5.7234 3.45356C5.43038 3.45356 5.14926 3.57008 4.9419 3.77765C4.73453 3.98524 4.61793 4.2669 4.61793 4.56071C4.61793 4.85451 4.73453 5.13617 4.9419 5.34376C5.14926 5.55133 5.43038 5.66785 5.7234 5.66785C6.01642 5.66785 6.29755 5.55133 6.5049 5.34376C6.71227 5.13617 6.82887 4.85451 6.82887 4.56071C6.82887 4.2669 6.71227 3.98524 6.5049 3.77765C6.29755 3.57008 6.01642 3.45356 5.7234 3.45356Z" fill="#141414"/>
</g>
<defs>
<clipPath id="clip0">
<rect width="16" height="16" fill="white" transform="translate(0.0150146)"/>
</clipPath>
</defs>
</svg>
