<svg width="16" height="16" viewBox="0 0 16 16" fill="none" xmlns="http://www.w3.org/2000/svg">
<path fill-rule="evenodd" clip-rule="evenodd" d="M8.00279 2.36911C8.07058 2.36911 8.13522 2.3826 8.19416 2.40704C8.25313 2.43143 8.30837 2.46759 8.35631 2.51552L11.1556 5.31419C11.3509 5.50943 11.3509 5.82601 11.1557 6.0213C10.9604 6.21658 10.6439 6.21661 10.4486 6.02137L8.50279 4.07603V10.3322C8.50279 10.6084 8.27893 10.8322 8.00279 10.8322C7.72665 10.8322 7.50279 10.6084 7.50279 10.3322V4.07622L5.55768 6.02133C5.36241 6.2166 5.04583 6.2166 4.85057 6.02133C4.65531 5.82607 4.65531 5.50949 4.85057 5.31423L7.64836 2.51644L7.65582 2.50909C7.70188 2.46467 7.75435 2.43083 7.8102 2.40755C7.86947 2.38279 7.93453 2.36911 8.00279 2.36911ZM1.49988 10.331C1.49988 10.0548 1.27602 9.83098 0.999878 9.83098C0.723736 9.83098 0.499878 10.0548 0.499878 10.331V11.2639V11.2645C0.499878 12.562 1.54759 13.6119 2.84315 13.6301C2.85271 13.6306 2.86229 13.6309 2.87188 13.6309H13.1343C14.4366 13.6309 15.5001 12.5674 15.5001 11.2651V10.3322C15.5001 10.0561 15.2762 9.83223 15.0001 9.83223C14.7239 9.83223 14.5001 10.0561 14.5001 10.3322V11.2651C14.5001 12.0152 13.8843 12.6309 13.1343 12.6309H2.89058C2.88328 12.6305 2.87598 12.6303 2.86867 12.6303C2.1084 12.6257 1.49988 12.0129 1.49988 11.2645V11.2639V10.331Z" fill="#141414"/>
</svg>
