<svg width="16" height="16" viewBox="0 0 16 16" fill="none" xmlns="http://www.w3.org/2000/svg">
<path fill-rule="evenodd" clip-rule="evenodd" d="M5.91307 2.14958C5.30351 2.17573 4.70783 2.30415 4.14945 2.52675L3.33264 5.39891C3.82026 5.26622 4.32301 5.19215 4.83185 5.17599C4.84101 5.1757 4.85018 5.17566 4.85934 5.17588C5.53454 5.19158 6.1936 5.36301 6.79008 5.67485L7.68496 2.60872C7.14269 2.30473 6.53175 2.14646 5.91307 2.14958ZM5.89728 1.14966C6.84223 1.14266 7.77161 1.4296 8.5544 1.97476C8.67424 2.05823 8.75161 2.18992 8.76616 2.33524L8.76678 2.34147C8.77318 2.40531 8.76723 2.46979 8.74925 2.53138L7.5651 6.58864C7.51925 6.74573 7.39943 6.87045 7.24429 6.92254C7.08915 6.97464 6.91834 6.94751 6.78697 6.84992C6.21863 6.42773 5.54462 6.1949 4.84965 6.17595C4.13294 6.20046 3.43663 6.3599 2.79288 6.65354C2.61552 6.73444 2.40731 6.70489 2.25947 6.57783C2.11163 6.45077 2.05112 6.24937 2.10445 6.06186L3.2419 2.06223C3.27327 1.90597 3.37814 1.77163 3.52712 1.70466C4.26461 1.37313 5.06261 1.18386 5.88034 1.15007L5.89728 1.14966ZM10.1332 2.60722C10.2905 2.5558 10.463 2.58555 10.5941 2.68668C11.2135 3.16482 11.9814 3.42156 12.7738 3.41702C13.4851 3.39937 14.1897 3.23971 14.8363 2.94479C15.0141 2.8637 15.2228 2.8936 15.3707 3.02134C15.5185 3.14908 15.5784 3.35125 15.524 3.53893L14.3586 7.55879C14.3192 7.69453 14.2243 7.80728 14.0972 7.86913C13.3291 8.24297 12.4908 8.44803 11.6428 8.46171C11.6395 8.46176 11.6363 8.46178 11.633 8.46177C11.6189 8.46276 11.6047 8.46317 11.5903 8.46297C10.6019 8.44915 9.63341 8.14455 8.82217 7.58986C8.64398 7.46802 8.5641 7.24558 8.62407 7.03822L9.80821 2.94357C9.85419 2.78458 9.97586 2.65864 10.1332 2.60722ZM11.5995 7.463C11.6085 7.46237 11.6176 7.46198 11.6267 7.46184C12.253 7.45173 12.8772 7.31455 13.4617 7.06098L14.2911 4.20023C13.8026 4.33209 13.2991 4.4047 12.7935 4.41684L12.7849 4.41704V4.41697C12.0117 4.4223 11.2533 4.23277 10.5818 3.86823L9.68994 6.95215C10.2686 7.27513 10.9278 7.45281 11.5995 7.463ZM4.43859 7.5005C4.45406 7.49966 4.46957 7.49954 4.48505 7.50014C5.38834 7.53515 6.25545 7.83577 6.99444 8.36561C7.1664 8.4889 7.24214 8.70709 7.18354 8.91041L5.9888 13.0562C5.94314 13.2146 5.82232 13.3403 5.66583 13.3923C5.50934 13.4442 5.33732 13.4156 5.206 13.3159C4.61772 12.8693 3.91327 12.6205 3.1916 12.6076C2.50355 12.6259 1.82897 12.7844 1.19681 13.0635C1.01932 13.1419 0.812525 13.1105 0.666291 12.983C0.520058 12.8554 0.460789 12.6548 0.514241 12.4683L1.67346 8.42355C1.71387 8.28254 1.81417 8.16638 1.94779 8.10585C2.73467 7.74941 3.57399 7.54742 4.43859 7.5005ZM4.46925 8.50036C3.81084 8.53859 3.17289 8.68121 2.56946 8.92689L1.74185 11.8146C2.20752 11.6907 2.68832 11.6197 3.17701 11.6077C3.18359 11.6075 3.19018 11.6075 3.19676 11.6076C3.90447 11.6181 4.59441 11.8026 5.21346 12.1354L6.12015 8.98916C5.6146 8.69398 5.05112 8.52663 4.46925 8.50036ZM8.46687 8.97803C8.62425 8.92574 8.79731 8.95489 8.92887 9.05583C9.5615 9.54121 10.3406 9.79654 11.1412 9.77476L11.1507 9.7745L11.1507 9.77459C11.8472 9.76884 12.5447 9.64217 13.2083 9.39981C13.3849 9.33532 13.5827 9.37533 13.7203 9.50337C13.858 9.63142 13.9122 9.82585 13.8606 10.0066L12.7388 13.9392C12.6982 14.0814 12.5968 14.1984 12.4617 14.2587C11.6505 14.6207 10.7715 14.829 9.88368 14.8626C9.79812 14.8659 9.71677 14.8474 9.64493 14.8122C8.78538 14.6823 7.95848 14.3803 7.22032 13.9221C7.03101 13.8046 6.9423 13.5761 7.00276 13.3616L8.14328 9.31683C8.18829 9.15722 8.3095 9.03031 8.46687 8.97803ZM9.99968 13.8555C10.6293 13.8148 11.2538 13.6715 11.8427 13.4351L12.6506 10.6031C12.1615 10.7124 11.6628 10.7701 11.1637 10.7745C10.3758 10.7951 9.60466 10.6073 8.92222 10.2391L8.07102 13.2578C8.6483 13.5625 9.28026 13.761 9.933 13.8425C9.95581 13.8454 9.97806 13.8497 9.99968 13.8555Z" fill="#141414"/>
</svg>
