<svg width="8" height="12" viewBox="0 0 8 12" fill="none" xmlns="http://www.w3.org/2000/svg">
<path d="M0.28143 0.393146C0.691206 -0.0758627 1.40459 -0.134827 1.88843 0.268017L1.8924 0.27137L7.59605 5.15423L7.59699 5.15502C7.64682 5.19724 7.68575 5.2357 7.72859 5.28502L7.73087 5.28764C8.11949 5.74348 8.08375 6.42372 7.64627 6.83493C7.63273 6.85102 7.61776 6.86609 7.60143 6.87993L1.88085 11.7292L1.87443 11.7345C1.66444 11.9048 1.41 11.9926 1.15194 11.9998L1.14107 12C0.511737 12 0 11.4983 0 10.879C0 10.8583 0.00172711 10.8378 0.00507143 10.8178V1.12538C0.00507143 0.860962 0.0950857 0.601308 0.28143 0.393146Z" fill="#4D4D4D"/>
</svg>
