<svg width="16" height="16" viewBox="0 0 16 16" fill="none" xmlns="http://www.w3.org/2000/svg">
<path fill-rule="evenodd" clip-rule="evenodd" d="M0.850311 8.09918C0.850311 7.82304 1.07417 7.59918 1.35031 7.59918H14.5498C14.826 7.59918 15.0498 7.82304 15.0498 8.09918C15.0498 8.37532 14.826 8.59918 14.5498 8.59918H1.35031C1.07417 8.59918 0.850311 8.37532 0.850311 8.09918Z" fill="black"/>
<path fill-rule="evenodd" clip-rule="evenodd" d="M6.65319 2.79662C6.84845 2.99189 6.84845 3.30847 6.65319 3.50373L2.05693 8.09999L6.65319 12.6963C6.84845 12.8915 6.84845 13.2081 6.65319 13.4034C6.45793 13.5986 6.14135 13.5986 5.94608 13.4034L0.99627 8.45355C0.801008 8.25828 0.801007 7.9417 0.99627 7.74644L5.94608 2.79662C6.14135 2.60136 6.45793 2.60136 6.65319 2.79662Z" fill="black"/>
</svg>
