<svg width="16" height="16" viewBox="0 0 16 16" fill="none" xmlns="http://www.w3.org/2000/svg">
<path fill-rule="evenodd" clip-rule="evenodd" d="M8.5 1C8.5 0.723858 8.27614 0.5 8 0.5C7.72386 0.5 7.5 0.723858 7.5 1V6.78899L3.40701 2.69324C3.21181 2.49791 2.89523 2.4978 2.6999 2.693C2.50457 2.8882 2.50446 3.20478 2.69966 3.40011L6.79679 7.5H1C0.723858 7.5 0.5 7.72386 0.5 8C0.5 8.27614 0.723858 8.5 1 8.5H6.79014L2.69966 12.5932C2.50446 12.7886 2.50457 13.1051 2.6999 13.3003C2.89523 13.4955 3.21181 13.4954 3.40701 13.3001L7.5 9.20435V15C7.5 15.2761 7.72386 15.5 8 15.5C8.27614 15.5 8.5 15.2761 8.5 15V9.20435L12.593 13.3001C12.7882 13.4954 13.1048 13.4955 13.3001 13.3003C13.4954 13.1051 13.4955 12.7886 13.3003 12.5932L9.20986 8.5H15C15.2761 8.5 15.5 8.27614 15.5 8C15.5 7.72386 15.2761 7.5 15 7.5H9.20321L13.3003 3.40011C13.4955 3.20478 13.4954 2.8882 13.3001 2.693C13.1048 2.4978 12.7882 2.49791 12.593 2.69324L8.5 6.78899V1Z" fill="#141414"/>
</svg>
