<svg width="16" height="16" viewBox="0 0 16 16" fill="none" xmlns="http://www.w3.org/2000/svg">
<g id="Color=Purple">
<g id="Outlined">
<path id="secondary" d="M3.12655 11.1H12.8735C12.7711 10.951 12.6658 10.7814 12.5611 10.5894C12.0165 9.59102 11.5 8.00701 11.5 5.60001C11.5 4.67175 11.1313 3.78151 10.4749 3.12513C9.8185 2.46876 8.92826 2.10001 8 2.10001C7.07174 2.10001 6.1815 2.46876 5.52513 3.12513C4.86875 3.78151 4.5 4.67175 4.5 5.60001C4.5 8.00701 3.98353 9.59102 3.43895 10.5894C3.33423 10.7814 3.22887 10.951 3.12655 11.1Z" fill="#F5EFF9"/>
<path id="primary" fill-rule="evenodd" clip-rule="evenodd" d="M4.81802 2.41803C5.66193 1.57411 6.80653 1.10001 8 1.10001C9.19348 1.10001 10.3381 1.57411 11.182 2.41803C12.0259 3.26194 12.5 4.40653 12.5 5.60001C12.5 7.85967 12.9835 9.27565 13.4389 10.1106C13.6673 10.5293 13.8914 10.807 14.0505 10.9749C14.1302 11.059 14.1939 11.1159 14.2342 11.1495C14.2543 11.1663 14.2686 11.1772 14.2761 11.1828L14.2819 11.187C14.462 11.31 14.5419 11.5358 14.4785 11.7449C14.4147 11.9558 14.2203 12.1 14 12.1H2C1.77967 12.1 1.5853 11.9558 1.52145 11.7449C1.45813 11.5358 1.53799 11.31 1.71814 11.187L1.72389 11.1828C1.7314 11.1772 1.7457 11.1663 1.76585 11.1495C1.80613 11.1159 1.86985 11.059 1.94952 10.9749C2.10861 10.807 2.33266 10.5293 2.56105 10.1106C3.01647 9.27565 3.5 7.85967 3.5 5.60001C3.5 4.40653 3.97411 3.26194 4.81802 2.41803ZM3.12655 11.1H12.8735C12.7711 10.951 12.6658 10.7814 12.5611 10.5894C12.0165 9.59102 11.5 8.00701 11.5 5.60001C11.5 4.67175 11.1313 3.78151 10.4749 3.12513C9.8185 2.46876 8.92826 2.10001 8 2.10001C7.07174 2.10001 6.1815 2.46876 5.52513 3.12513C4.86875 3.78151 4.5 4.67175 4.5 5.60001C4.5 8.00701 3.98353 9.59102 3.43895 10.5894C3.33423 10.7814 3.22887 10.951 3.12655 11.1Z" fill="#8449BF"/>
<path id="primary_2" fill-rule="evenodd" clip-rule="evenodd" d="M6.59579 13.3342C6.83466 13.1956 7.14062 13.2769 7.27918 13.5158C7.35243 13.6421 7.45758 13.7469 7.58409 13.8197C7.71059 13.8926 7.85402 13.931 8.00001 13.931C8.14601 13.931 8.28943 13.8926 8.41594 13.8197C8.54245 13.7469 8.64759 13.6421 8.72085 13.5158C8.85941 13.2769 9.16537 13.1956 9.40423 13.3342C9.6431 13.4727 9.72441 13.7787 9.58585 14.0175C9.42469 14.2954 9.19337 14.526 8.91505 14.6863C8.63674 14.8466 8.32119 14.931 8.00001 14.931C7.67883 14.931 7.36329 14.8466 7.08497 14.6863C6.80666 14.526 6.57534 14.2954 6.41418 14.0175C6.27562 13.7787 6.35693 13.4727 6.59579 13.3342Z" fill="#8449BF"/>
</g>
</g>
</svg>
