<svg width="16" height="16" viewBox="0 0 16 16" fill="none" xmlns="http://www.w3.org/2000/svg">
<path fill-rule="evenodd" clip-rule="evenodd" d="M7.99997 0.499908C6.01082 0.499908 4.10315 1.29009 2.6966 2.69664C1.29006 4.10318 0.499878 6.01085 0.499878 8C0.499878 9.98915 1.29006 11.8968 2.6966 13.3034C4.10315 14.7099 6.01082 15.5001 7.99997 15.5001C9.98912 15.5001 11.8968 14.7099 13.3033 13.3034C14.7099 11.8968 15.5001 9.98915 15.5001 8C15.5001 6.01085 14.7099 4.10318 13.3033 2.69664C11.8968 1.29009 9.98912 0.499908 7.99997 0.499908ZM3.40371 3.40374C4.62272 2.18474 6.27604 1.49991 7.99997 1.49991C9.55647 1.49991 11.0554 2.05817 12.2291 3.06381L12.1464 3.14645L3.06378 12.2291C2.05814 11.0554 1.49988 9.5565 1.49988 8C1.49988 6.27607 2.18471 4.62275 3.40371 3.40374ZM3.77089 12.9362C4.94456 13.9418 6.44349 14.5001 7.99997 14.5001C9.7239 14.5001 11.3772 13.8153 12.5962 12.5963C13.8152 11.3773 14.5001 9.72394 14.5001 8C14.5001 6.44352 13.9418 4.94459 12.9362 3.77092L12.8536 3.85355L3.77089 12.9362Z" fill="#161616"/>
</svg>
