<svg width="16" height="16" viewBox="0 0 16 16" fill="none" xmlns="http://www.w3.org/2000/svg">
<path fill-rule="evenodd" clip-rule="evenodd" d="M11.5 0.9H4.5C3.89249 0.9 3.4 1.39249 3.4 2V14C3.4 14.6075 3.89249 15.1 4.5 15.1H11.5C12.1075 15.1 12.6 14.6075 12.6 14V2C12.6 1.39249 12.1075 0.9 11.5 0.9ZM4.5 0C3.39543 0 2.5 0.895431 2.5 2V14C2.5 15.1046 3.39543 16 4.5 16H11.5C12.6046 16 13.5 15.1046 13.5 14V2C13.5 0.895431 12.6046 0 11.5 0H4.5Z" fill="#161616"/>
<path fill-rule="evenodd" clip-rule="evenodd" d="M5.3 7.8V9.2H6.7V7.8H5.3ZM5 7C4.72386 7 4.5 7.22386 4.5 7.5V9.5C4.5 9.77614 4.72386 10 5 10H7C7.27614 10 7.5 9.77614 7.5 9.5V7.5C7.5 7.22386 7.27614 7 7 7H5Z" fill="#161616"/>
<path fill-rule="evenodd" clip-rule="evenodd" d="M9.3 7.8V9.2H10.7V7.8H9.3ZM9 7C8.72386 7 8.5 7.22386 8.5 7.5V9.5C8.5 9.77614 8.72386 10 9 10H11C11.2761 10 11.5 9.77614 11.5 9.5V7.5C11.5 7.22386 11.2761 7 11 7H9Z" fill="#161616"/>
<path fill-rule="evenodd" clip-rule="evenodd" d="M9.3 11.8V13.2H10.7V11.8H9.3ZM9 11C8.72386 11 8.5 11.2239 8.5 11.5V13.5C8.5 13.7761 8.72386 14 9 14H11C11.2761 14 11.5 13.7761 11.5 13.5V11.5C11.5 11.2239 11.2761 11 11 11H9Z" fill="#161616"/>
<path fill-rule="evenodd" clip-rule="evenodd" d="M5.3 11.8V13.2H6.7V11.8H5.3ZM5 11C4.72386 11 4.5 11.2239 4.5 11.5V13.5C4.5 13.7761 4.72386 14 5 14H7C7.27614 14 7.5 13.7761 7.5 13.5V11.5C7.5 11.2239 7.27614 11 7 11H5Z" fill="#161616"/>
<path fill-rule="evenodd" clip-rule="evenodd" d="M5.3 2.8V5.2H10.7V2.8H5.3ZM5 2C4.72386 2 4.5 2.22386 4.5 2.5V5.5C4.5 5.77614 4.72386 6 5 6H11C11.2761 6 11.5 5.77614 11.5 5.5V2.5C11.5 2.22386 11.2761 2 11 2H5Z" fill="#161616"/>
</svg>
