<svg width="16" height="16" viewBox="0 0 16 16" fill="none" xmlns="http://www.w3.org/2000/svg">
<g id="Color=Purple" clip-path="url(#clip0_1096_782)">
<g id="Outlined">
<path id="secondary" d="M14.0922 2.85773H1.93777C1.4214 2.85773 1.00281 3.27632 1.00281 3.79269V14.0772C1.00281 14.5936 1.4214 15.0122 1.93777 15.0122H14.0922C14.6086 15.0122 15.0272 14.5936 15.0272 14.0772V3.79269C15.0272 3.27632 14.6086 2.85773 14.0922 2.85773Z" fill="#F5EFF9"/>
<path id="primary" fill-rule="evenodd" clip-rule="evenodd" d="M1.93777 3.35773C1.69755 3.35773 1.50281 3.55246 1.50281 3.79269V14.0772C1.50281 14.3175 1.69755 14.5122 1.93777 14.5122H14.0922C14.3325 14.5122 14.5272 14.3175 14.5272 14.0772V3.79269C14.5272 3.55247 14.3325 3.35773 14.0922 3.35773H1.93777ZM0.502808 3.79269C0.502808 3.00018 1.14526 2.35773 1.93777 2.35773H14.0922C14.8847 2.35773 15.5272 3.00018 15.5272 3.79269V14.0772C15.5272 14.8697 14.8847 15.5122 14.0922 15.5122H1.93777C1.14526 15.5122 0.502808 14.8697 0.502808 14.0772V3.79269Z" fill="#8449BF"/>
<path id="primary_2" fill-rule="evenodd" clip-rule="evenodd" d="M1.93777 3.3577C1.69755 3.3577 1.50281 3.55243 1.50281 3.79266V14.0772C1.50281 14.3174 1.69755 14.5122 1.93777 14.5122H14.0922C14.3325 14.5122 14.5272 14.3174 14.5272 14.0772V3.79266C14.5272 3.55243 14.3325 3.3577 14.0922 3.3577H1.93777ZM0.502808 3.79266C0.502808 3.00015 1.14526 2.3577 1.93777 2.3577H14.0922C14.8847 2.3577 15.5272 3.00015 15.5272 3.79266V14.0772C15.5272 14.8697 14.8847 15.5122 14.0922 15.5122H1.93777C1.14526 15.5122 0.502808 14.8697 0.502808 14.0772V3.79266Z" fill="#8449BF"/>
<path id="primary_3" fill-rule="evenodd" clip-rule="evenodd" d="M0.502808 6.59756C0.502808 6.32142 0.726665 6.09756 1.00281 6.09756H15.0272C15.3033 6.09756 15.5272 6.32142 15.5272 6.59756C15.5272 6.87371 15.3033 7.09756 15.0272 7.09756H1.00281C0.726665 7.09756 0.502808 6.87371 0.502808 6.59756Z" fill="#8449BF"/>
<path id="primary_4" fill-rule="evenodd" clip-rule="evenodd" d="M4.74264 0.487793C5.01878 0.487793 5.24264 0.711651 5.24264 0.987793V4.26015C5.24264 4.53629 5.01878 4.76015 4.74264 4.76015C4.4665 4.76015 4.24264 4.53629 4.24264 4.26015V0.987793C4.24264 0.711651 4.4665 0.487793 4.74264 0.487793Z" fill="#8449BF"/>
<path id="primary_5" fill-rule="evenodd" clip-rule="evenodd" d="M11.2874 0.487793C11.5635 0.487793 11.7874 0.711651 11.7874 0.987793V4.26015C11.7874 4.53629 11.5635 4.76015 11.2874 4.76015C11.0112 4.76015 10.7874 4.53629 10.7874 4.26015V0.987793C10.7874 0.711651 11.0112 0.487793 11.2874 0.487793Z" fill="#8449BF"/>
<path id="primary_6" d="M4.59899 8.78283C4.24522 8.78283 3.96726 9.04877 3.95884 9.39782C3.95884 9.73025 4.22838 10.0128 4.58215 10.0128C4.91907 10.0128 5.20545 9.73025 5.20545 9.38951C5.20545 9.04046 4.91907 8.7662 4.57372 8.7662" fill="#8449BF"/>
<path id="primary_7" d="M4.59899 11.5773C4.24522 11.5773 3.96726 11.8432 3.95884 12.2006C3.95884 12.533 4.22838 12.8239 4.58215 12.8239C4.91907 12.8239 5.20545 12.5413 5.20545 12.2006C5.20545 11.8516 4.91907 11.5773 4.57372 11.5773" fill="#8449BF"/>
<path id="primary_8" d="M8.01033 8.77243C7.66128 8.77243 7.38702 9.03837 7.38702 9.39574C7.38702 9.72817 7.65297 10.019 8.01033 10.019C8.34276 10.019 8.63364 9.73648 8.63364 9.39574C8.63364 9.04669 8.35107 8.77243 8.01033 8.77243Z" fill="#8449BF"/>
<path id="primary_9" d="M8.01033 11.5773C7.66128 11.5773 7.38702 11.8432 7.38702 12.2006C7.38702 12.533 7.65297 12.8239 8.01033 12.8239C8.34276 12.8239 8.63364 12.5413 8.63364 12.2006C8.63364 11.8516 8.35107 11.5773 8.01033 11.5773Z" fill="#8449BF"/>
<path id="primary_10" d="M11.4385 8.77243C11.0894 8.77243 10.8152 9.03837 10.8152 9.39574C10.8152 9.72817 11.0811 10.019 11.4385 10.019C11.7709 10.019 12.0618 9.73648 12.0618 9.39574C12.0618 9.04669 11.7792 8.77243 11.4385 8.77243Z" fill="#8449BF"/>
<path id="primary_11" d="M11.4385 11.5773C11.0894 11.5773 10.8152 11.8432 10.8152 12.2006C10.8152 12.533 11.0811 12.8239 11.4385 12.8239C11.7709 12.8239 12.0618 12.5413 12.0618 12.2006C12.0618 11.8516 11.7792 11.5773 11.4385 11.5773Z" fill="#8449BF"/>
</g>
</g>
<defs>
<clipPath id="clip0_1096_782">
<rect width="16" height="16" fill="white" transform="translate(0.0150146)"/>
</clipPath>
</defs>
</svg>
