<svg width="16" height="16" viewBox="0 0 16 16" fill="none" xmlns="http://www.w3.org/2000/svg">
<path fill-rule="evenodd" clip-rule="evenodd" d="M13.1765 14.6174V6.61756C13.1765 6.3578 13.3873 6.14698 13.6471 6.14698C13.9069 6.14698 14.1177 6.3578 14.1177 6.61756V14.6174H15.5294C15.7892 14.6174 16 14.8283 16 15.088C16 15.3478 15.7892 15.5586 15.5294 15.5586H0.470817C0.211056 15.5586 0.000235372 15.3478 0.000235372 15.088C0.000235372 14.8283 0.211056 14.6174 0.470817 14.6174H1.88256V9.44104C1.88256 9.18128 2.09338 8.97046 2.35314 8.97046C2.6129 8.97046 2.82372 9.18128 2.82372 9.44104V14.6174H4.70605V7.55872C4.70605 7.29896 4.91687 7.08814 5.17663 7.08814C5.43639 7.08814 5.64721 7.29896 5.64721 7.55872V14.6174H7.52954V10.3822C7.52954 10.1224 7.74036 9.91163 8.00012 9.91163C8.25988 9.91163 8.4707 10.1224 8.4707 10.3822V14.6174H10.353V9.44104C10.353 9.18128 10.5638 8.97046 10.8236 8.97046C11.0834 8.97046 11.2942 9.18128 11.2942 9.44104V14.6174H13.1765ZM14.3934 1.44116H13.6471C13.3873 1.44116 13.1765 1.23034 13.1765 0.970581C13.1765 0.71082 13.3873 0.5 13.6471 0.5H15.5294C15.7892 0.5 16 0.71082 16 0.970581V2.85291C16 3.11267 15.7892 3.32349 15.5294 3.32349C15.2697 3.32349 15.0588 3.11267 15.0588 2.85291V2.10656L9.27445 7.89189C9.08998 8.07542 8.79258 8.07542 8.60811 7.89189L5.17663 4.45947L0.803988 8.83305C0.61952 9.01658 0.322113 9.01658 0.137645 8.83305C-0.0458817 8.64859 -0.0458817 8.35118 0.137645 8.16671L4.84346 3.4609C5.02793 3.27737 5.32533 3.27737 5.5098 3.4609L8.94128 6.89332L14.3934 1.44116Z" fill="#161616"/>
</svg>
