<svg width="16" height="16" viewBox="0 0 16 16" fill="none" xmlns="http://www.w3.org/2000/svg">
<g id="Color=Purple">
<g id="Outlined">
<circle id="secondary" cx="8" cy="8" r="7.5" fill="#F5EFF9"/>
<g id="primary">
<path fill-rule="evenodd" clip-rule="evenodd" d="M8 14.5C11.5899 14.5 14.5 11.5899 14.5 8C14.5 4.41015 11.5899 1.5 8 1.5C4.41015 1.5 1.5 4.41015 1.5 8C1.5 11.5899 4.41015 14.5 8 14.5ZM8 15.5C12.1421 15.5 15.5 12.1421 15.5 8C15.5 3.85786 12.1421 0.5 8 0.5C3.85786 0.5 0.5 3.85786 0.5 8C0.5 12.1421 3.85786 15.5 8 15.5Z" fill="#8449BF"/>
<path d="M8 3C5.23858 3 3 5.23858 3 8C3 10.7614 5.23858 13 8 13V3Z" fill="#8449BF"/>
</g>
</g>
</g>
</svg>
