<svg width="16" height="16" viewBox="0 0 16 16" fill="none" xmlns="http://www.w3.org/2000/svg">
<path fill-rule="evenodd" clip-rule="evenodd" d="M9.48012 1.41508C9.08553 0.607956 8.109 0.273599 7.30643 0.667666C6.97862 0.823617 6.71934 1.08611 6.55996 1.40486L6.55995 1.40485L6.55844 1.40793L0.687008 13.3552C0.674043 13.3739 0.662262 13.3936 0.651799 13.4142C0.285735 14.1367 0.597181 15.0021 1.30506 15.3521C1.50654 15.4526 1.7273 15.4977 1.94468 15.4977H14.0561C14.8553 15.4977 15.5026 14.8504 15.5026 14.0512C15.5026 13.8175 15.4441 13.6012 15.3544 13.4128L15.3544 13.4128L15.352 13.4079L9.48012 1.41508ZM7.7456 1.56607C8.05067 1.41525 8.42902 1.54192 8.58174 1.85429L8.58187 1.85456L14.4525 13.8448C14.4867 13.9173 14.5026 13.9867 14.5026 14.0512C14.5026 14.2981 14.303 14.4977 14.0561 14.4977H1.94468C1.86359 14.4977 1.79836 14.4807 1.75109 14.4571L1.74869 14.4559C1.53915 14.3525 1.44965 14.114 1.5242 13.9113C1.53462 13.8951 1.54417 13.8783 1.55278 13.8607L7.45439 1.85207L7.45506 1.85074C7.51922 1.72313 7.61933 1.62579 7.73752 1.56998L7.73755 1.57005L7.7456 1.56607ZM8.02215 5.17597C8.2983 5.17597 8.52215 5.39983 8.52215 5.67597V10.3462C8.52215 10.6223 8.2983 10.8462 8.02215 10.8462C7.74601 10.8462 7.52215 10.6223 7.52215 10.3462V5.67597C7.52215 5.39983 7.74601 5.17597 8.02215 5.17597ZM7.99162 11.705C8.41009 11.6951 8.74015 12.0339 8.74015 12.4384C8.74015 12.8583 8.40211 13.156 8.03472 13.1744C8.0264 13.1748 8.01808 13.175 8.00975 13.175C7.59408 13.175 7.27935 12.8365 7.27935 12.4446C7.27935 12.0964 7.51348 11.8276 7.81273 11.7426C7.86798 11.7198 7.92829 11.7066 7.99162 11.705Z" fill="#141414"/>
</svg>
