<svg width="16" height="16" viewBox="0 0 16 16" fill="none" xmlns="http://www.w3.org/2000/svg">
<path fill-rule="evenodd" clip-rule="evenodd" d="M8.56507 15.7243L13.5281 6.74674L13.5391 6.73573C13.6537 6.56978 13.6537 6.35027 13.5391 6.18426C13.4521 6.01474 13.2775 5.90825 13.0869 5.90856H8.78561L9.02828 0.559458C9.03619 0.316321 8.88384 0.09676 8.65332 0.0190577C8.4109 -0.0469607 8.155 0.0626908 8.03568 0.283752L3.07266 9.32745C2.97578 9.49061 2.97578 9.69369 3.07266 9.85684C3.17037 10.0129 3.34077 10.1085 3.52486 10.1105H7.82615L7.57246 15.4596C7.56078 15.7038 7.71458 15.9254 7.94743 16H8.10185C8.29567 16.0019 8.47434 15.8955 8.56507 15.7243ZM8.66788 13.4714L12.296 6.90856H7.73922L7.93733 2.54154L4.33239 9.11053H8.8747L8.66788 13.4714Z" fill="black"/>
</svg>
