<svg width="16" height="16" viewBox="0 0 16 16" fill="none" xmlns="http://www.w3.org/2000/svg">
<g clip-path="url(#clip0)">
<path fill-rule="evenodd" clip-rule="evenodd" d="M13.6546 1.47458L13.6478 1.47463H13.6416H7.09078C6.59324 1.47463 6.18791 1.87993 6.19193 2.38195L6.19196 2.38595H6.19194V6.59576C6.19212 6.6034 6.19212 6.61102 6.19194 6.61863V8.55371C6.8184 8.23745 7.59912 8.40679 8.03527 8.98552C8.04282 8.99555 8.05 9.00586 8.05677 9.01642L8.0673 9.03129C8.07207 9.03822 8.07859 9.04798 8.08594 9.0601C8.4089 9.55327 8.40348 10.197 8.06909 10.6903L8.0683 10.6915L7.03744 12.2256C7.02242 12.2479 7.00577 12.2688 6.98769 12.2882C6.76421 12.6021 6.48897 12.8764 6.17321 13.0975V13.6072C6.17321 14.1109 6.57394 14.5145 7.08229 14.5186C7.08928 14.5186 7.09627 14.5188 7.10325 14.5192H13.6416C14.1398 14.5192 14.5466 14.1123 14.5466 13.6141V2.37346C14.5466 1.8775 14.1448 1.47555 13.6546 1.47458ZM5.19194 2.3878V6.27749L3.2874 7.09221C3.27263 7.09686 3.25806 7.1022 3.24374 7.10823C2.45311 7.44073 1.83578 8.06753 1.49888 8.84385L1.49833 8.84513L0.790375 10.489C0.778248 10.5084 0.767365 10.5288 0.757857 10.5501C0.571444 10.9677 0.483368 11.4123 0.483368 11.8593V15.0254C0.483368 15.3016 0.707226 15.5254 0.983368 15.5254C1.25951 15.5254 1.48337 15.3016 1.48337 15.0254V11.8593C1.48337 11.5668 1.53669 11.2831 1.64511 11.0183C1.65823 10.9972 1.66988 10.975 1.6799 10.9517L2.41623 9.24194L2.41649 9.24134C2.64885 8.7063 3.06662 8.27898 3.59494 8.04574C3.61036 8.04085 3.62555 8.03521 3.64047 8.02883L5.19194 7.36514V9.28384L4.92279 9.48655C4.70221 9.65268 4.65807 9.96617 4.8242 10.1867C4.99033 10.4073 5.30382 10.4515 5.5244 10.2853L6.56915 9.4985C6.58295 9.48811 6.59612 9.47707 6.60864 9.46544C6.8097 9.34313 7.07416 9.38665 7.22579 9.57348L7.2296 9.57908L7.24013 9.59394L7.24615 9.6031C7.34978 9.75707 7.35205 9.96621 7.24108 10.1296L7.23969 10.1316L6.24555 11.6111C6.23015 11.6281 6.21582 11.6463 6.20272 11.6656C6.00819 11.9516 5.75552 12.1916 5.46182 12.3678C5.43607 12.3798 5.4115 12.394 5.38836 12.41C5.30565 12.4556 5.21993 12.4963 5.13157 12.5316L3.6016 13.1436C3.3452 13.2462 3.2205 13.5371 3.32305 13.7935C3.42561 14.0499 3.7166 14.1746 3.97299 14.0721L5.17321 13.592V13.6072C5.17321 14.6581 6.01089 15.4996 7.05463 15.5183C7.06458 15.5189 7.07456 15.5192 7.08453 15.5192H13.6416C14.6921 15.5192 15.5466 14.6646 15.5466 13.6141V2.37346C15.5466 1.32447 14.6931 0.467312 13.6397 0.474625H7.09078C6.04031 0.474625 5.18464 1.32961 5.19194 2.3878ZM7.72525 7.57578C7.9681 7.57578 8.17052 7.40264 8.21579 7.17306C8.5026 6.42576 9.14203 5.91076 9.87554 5.75008V7.5125H8.97046C8.69432 7.5125 8.47046 7.73636 8.47046 8.0125C8.47046 8.28865 8.69432 8.5125 8.97046 8.5125H9.87554V10.2611C9.78177 10.2409 9.68825 10.2147 9.59543 10.1822C9.33483 10.0909 9.04953 10.2281 8.95821 10.4887C8.86689 10.7493 9.00412 11.0346 9.26472 11.1259C9.59734 11.2425 9.93624 11.3027 10.271 11.3117C10.3047 11.3189 10.3397 11.3227 10.3755 11.3227C10.4134 11.3227 10.4503 11.3185 10.4858 11.3105C11.8022 11.2599 13.0183 10.4226 13.4856 9.11075L13.4858 9.11012C13.6021 8.78228 13.6635 8.44802 13.6747 8.1175C13.6819 8.08365 13.6857 8.04852 13.6857 8.0125C13.6857 7.97727 13.6821 7.94289 13.6751 7.90972C13.6361 6.5829 12.7956 5.35194 11.4698 4.88691C9.74834 4.27686 7.85048 5.18133 7.24692 6.91105C7.19356 7.06396 7.21757 7.23325 7.31135 7.36529C7.40513 7.49733 7.55705 7.57578 7.719 7.57578H7.72525ZM12.6227 7.5125C12.457 6.75789 11.9172 6.1033 11.1382 5.83032L11.1364 5.82969C11.0499 5.79903 10.9629 5.77385 10.8755 5.75397V7.5125H12.6227ZM10.8755 8.5125V10.2541C11.6222 10.083 12.2687 9.54642 12.5434 8.77562C12.5743 8.68843 12.5997 8.60059 12.6196 8.5125H10.8755Z" fill="#141414"/>
</g>
<defs>
<clipPath id="clip0">
<rect width="16" height="16" fill="white" transform="translate(0.0150146)"/>
</clipPath>
</defs>
</svg>
