<svg width="16" height="16" viewBox="0 0 16 16" fill="none" xmlns="http://www.w3.org/2000/svg">
<path fill-rule="evenodd" clip-rule="evenodd" d="M1.44573 10.5326C1.38084 10.5975 1.33751 10.6758 1.31575 10.7586L-0.00729957 15.3892C-0.0571854 15.5638 -0.0084911 15.7517 0.119908 15.8801C0.248308 16.0085 0.436227 16.0572 0.610825 16.0073L5.24748 14.6825C5.26221 14.6784 5.27673 14.6737 5.291 14.6682C5.35657 14.6434 5.41683 14.6048 5.46737 14.5542L15.6066 4.41503C16.167 3.85464 16.1662 2.94268 15.606 2.38254L13.6174 0.393935C13.0573 -0.166201 12.1453 -0.16703 11.585 0.393357L10.262 1.7163L10.2586 1.71968L10.2552 1.72309L1.44573 10.5326ZM4.15939 13.9534L2.04662 11.8406L1.20148 14.7985L4.15939 13.9534ZM10.6122 2.78035L2.50639 10.8861L5.11384 13.4936L13.2196 5.38781L10.6122 2.78035ZM13.9267 4.6807L14.8995 3.70792C15.0688 3.53862 15.0691 3.25982 14.8989 3.08965L12.9103 1.10101C12.7401 0.930856 12.4613 0.931184 12.2921 1.10046L11.3193 2.07325L13.9267 4.6807Z" fill="#161616"/>
</svg>
