<svg width="16" height="16" viewBox="0 0 16 16" fill="none" xmlns="http://www.w3.org/2000/svg">
<g id="Color=Purple" clip-path="url(#clip0_1050_46)">
<g id="Outlined">
<path id="secondary" fill-rule="evenodd" clip-rule="evenodd" d="M1.59506 1.06351H9.85175C10.1051 1.06351 10.3105 1.26909 10.3105 1.52269V11.6247C10.3105 11.8783 10.1051 12.0839 9.85175 12.0839H1.59506C1.34172 12.0839 1.13635 11.8783 1.13635 11.6247V1.52269C1.13635 1.26909 1.34172 1.06351 1.59506 1.06351ZM4.23439 3.01685C4.6293 2.62152 5.16491 2.39943 5.7234 2.39943C6.28189 2.39943 6.8175 2.62152 7.21241 3.01685C7.60732 3.41217 7.82918 3.94834 7.82918 4.50741C7.82918 5.06648 7.60732 5.60265 7.21241 5.99798C7.10591 6.10459 6.98917 6.19861 6.86451 6.27907C8.09634 6.74132 8.97595 7.93034 8.97595 9.32881C8.97595 9.60541 8.75195 9.82965 8.47563 9.82965H2.97117C2.69486 9.82965 2.47086 9.60541 2.47086 9.32881C2.47086 7.93021 3.34721 6.7404 4.58136 6.27846C4.45705 6.19814 4.34063 6.10433 4.23439 5.99798C3.83948 5.60265 3.61762 5.06648 3.61762 4.50741C3.61762 3.94834 3.83948 3.41217 4.23439 3.01685Z" fill="#F5EFF9"/>
<path id="primary" fill-rule="evenodd" clip-rule="evenodd" d="M1.63635 1.56351V11.5839H9.81045V1.56351H1.63635ZM0.636353 1.52269C0.636353 0.99344 1.06509 0.563507 1.59506 0.563507H9.85175C10.3817 0.563507 10.8105 0.99344 10.8105 1.52269V11.6247C10.8105 12.154 10.3817 12.5839 9.85175 12.5839H1.59506C1.06509 12.5839 0.636353 12.154 0.636353 11.6247V1.52269Z" fill="#8449BF"/>
<path id="primary_2" fill-rule="evenodd" clip-rule="evenodd" d="M0.636353 9.32883C0.636353 9.05268 0.86021 8.82883 1.13635 8.82883H10.3105C10.5866 8.82883 10.8105 9.05268 10.8105 9.32883C10.8105 9.60497 10.5866 9.82883 10.3105 9.82883H1.13635C0.86021 9.82883 0.636353 9.60497 0.636353 9.32883Z" fill="#8449BF"/>
<path id="primary_3" fill-rule="evenodd" clip-rule="evenodd" d="M11.6741 4.26029C11.7615 3.99836 12.0447 3.85689 12.3066 3.94431L14.7178 4.74906C14.7255 4.75123 14.7331 4.75359 14.7408 4.75614C15.2415 4.92322 15.511 5.46362 15.3444 5.96391C15.3362 5.98843 15.3263 6.01199 15.3147 6.03447L12.4295 14.687C12.255 15.1738 11.7237 15.4485 11.2194 15.2802C11.1997 15.2736 11.1804 15.2658 11.1618 15.2569L7.37856 13.9945C7.11661 13.9071 6.97512 13.6239 7.06253 13.362C7.14993 13.1 7.43314 12.9585 7.69508 13.0459L11.4993 14.3153L14.3757 5.68914L11.99 4.89287C11.7281 4.80545 11.5866 4.52223 11.6741 4.26029ZM11.5183 14.3602L11.5284 14.3299C11.5309 14.3302 11.5335 14.3308 11.536 14.3316L11.5256 14.3629L11.5183 14.3602ZM11.5149 14.3702L11.5038 14.4037C11.5065 14.4035 11.5093 14.4033 11.5121 14.4032L11.5223 14.3727L11.5149 14.3702Z" fill="#8449BF"/>
<path id="primary_4" fill-rule="evenodd" clip-rule="evenodd" d="M4.23441 3.01762C4.62922 2.6224 5.16482 2.40027 5.72339 2.40027C6.28196 2.40027 6.81755 2.6224 7.21236 3.01762C7.60716 3.41283 7.82886 3.94873 7.82886 4.50741C7.82886 5.06609 7.60716 5.602 7.21236 5.9972C6.81755 6.39243 6.28196 6.61455 5.72339 6.61455C5.16482 6.61455 4.62922 6.39243 4.23441 5.9972C3.83962 5.602 3.61792 5.06609 3.61792 4.50741C3.61792 3.94873 3.83962 3.41283 4.23441 3.01762ZM5.72339 3.40027C5.43037 3.40027 5.14924 3.51679 4.94189 3.72436C4.73452 3.93195 4.61792 4.21361 4.61792 4.50741C4.61792 4.80121 4.73452 5.08287 4.94189 5.29046C5.14924 5.49804 5.43037 5.61455 5.72339 5.61455C6.01641 5.61455 6.29753 5.49804 6.50489 5.29046C6.71226 5.08287 6.82886 4.80121 6.82886 4.50741C6.82886 4.21361 6.71226 3.93195 6.50489 3.72436C6.29753 3.51679 6.01641 3.40027 5.72339 3.40027Z" fill="#8449BF"/>
<path id="primary_5" fill-rule="evenodd" clip-rule="evenodd" d="M3.52636 8.82883H7.92011C7.69267 7.82243 6.79336 7.07373 5.72339 7.07373C4.6487 7.07373 3.7527 7.822 3.52636 8.82883ZM2.47116 9.32883C2.47116 7.52869 3.92386 6.07373 5.72339 6.07373C7.51609 6.07373 8.97562 7.52797 8.97562 9.32883C8.97562 9.60497 8.75176 9.82883 8.47562 9.82883H2.97116C2.69502 9.82883 2.47116 9.60497 2.47116 9.32883Z" fill="#8449BF"/>
</g>
</g>
<defs>
<clipPath id="clip0_1050_46">
<rect width="16" height="16" fill="white" transform="translate(0.0150146 -0.0800171)"/>
</clipPath>
</defs>
</svg>
