<svg width="16" height="16" viewBox="0 0 16 16" fill="none" xmlns="http://www.w3.org/2000/svg">
<path d="M16 9.333C16 9.20039 15.9967 9.06812 15.9902 8.9363C15.9942 9.01837 15.997 9.10061 15.9986 9.183C15.9995 9.23295 16 9.28295 16 9.333Z" fill="#161616"/>
<path d="M14.815 9.183C14.7765 7.42944 14.0631 5.75586 12.8201 4.51289C11.5417 3.23451 9.80789 2.51634 8 2.51634C6.1921 2.51634 4.45827 3.23451 3.1799 4.51289C1.93693 5.75586 1.22353 7.42944 1.18498 9.183H0.151428C0.190135 7.15535 1.01243 5.21899 2.4492 3.78222C3.92136 2.31006 5.91805 1.483 8 1.483C10.0819 1.483 12.0786 2.31006 13.5508 3.78222C14.9876 5.21899 15.8099 7.15535 15.8486 9.183H14.815Z" fill="#161616"/>
<path fill-rule="evenodd" clip-rule="evenodd" d="M8.37799 9.91102L8.51398 10.0026L8.59315 9.85904C8.60126 9.84433 8.61076 9.83049 8.6215 9.81772L11.5872 7.14735C11.6891 7.05567 11.8232 7.00819 11.96 7.01536C12.0968 7.02253 12.2252 7.08376 12.3169 7.1856C12.4086 7.28743 12.4561 7.4215 12.4489 7.55835C12.4417 7.69519 12.3805 7.82358 12.2787 7.91527L9.31293 10.5856C9.29911 10.595 9.28435 10.603 9.26888 10.6095L9.1178 10.6732L9.19469 10.8181C9.48273 11.3606 9.56245 11.9897 9.4188 12.5869C9.27515 13.184 8.91805 13.7081 8.4148 14.0602C7.91156 14.4124 7.2969 14.5683 6.68664 14.4987C6.07639 14.4291 5.51266 14.1387 5.10167 13.6822C4.69068 13.2258 4.4608 12.6348 4.45535 12.0206C4.4499 11.4064 4.66925 10.8114 5.07208 10.3477C5.47491 9.88406 6.03338 9.58369 6.6423 9.50325C7.25122 9.4228 7.86857 9.56785 8.37799 9.91102ZM5.87633 12.9847C6.07263 13.2027 6.32919 13.3577 6.61353 13.4299C6.89788 13.5021 7.19726 13.4884 7.47381 13.3904C7.75037 13.2925 7.99165 13.1147 8.16717 12.8797C8.34271 12.6446 8.44459 12.3628 8.45995 12.0698C8.4753 11.7768 8.40345 11.4859 8.25345 11.2338C8.10345 10.9817 7.88204 10.7796 7.61724 10.6533C7.35245 10.527 7.05614 10.4821 6.7658 10.5242C6.47546 10.5663 6.20413 10.6935 5.98611 10.8899C5.69375 11.1531 5.51796 11.5217 5.49737 11.9146C5.47678 12.3074 5.61309 12.6924 5.87633 12.9847Z" fill="#161616"/>
<path d="M9.40646 10.7033C9.40143 10.7069 9.39632 10.7104 9.39113 10.7138C9.37571 10.7238 9.35962 10.7328 9.34297 10.7407C9.36521 10.7301 9.38647 10.7176 9.40646 10.7033Z" fill="#161616"/>
</svg>
