<svg width="16" height="16" viewBox="0 0 16 16" fill="none" xmlns="http://www.w3.org/2000/svg">
<g id="Color=Purple">
<g id="Outlined">
<path id="secondary" fill-rule="evenodd" clip-rule="evenodd" d="M8.00001 0.783356C8.20935 0.783356 8.40054 0.902195 8.4932 1.08991L10.4254 5.00425L14.7462 5.63581C14.9533 5.66608 15.1253 5.81128 15.1899 6.01039C15.2544 6.20949 15.2004 6.42798 15.0504 6.57402L11.9243 9.61884L12.6621 13.9204C12.6975 14.1267 12.6126 14.3353 12.4433 14.4583C12.2739 14.5814 12.0493 14.5976 11.864 14.5001L8.00001 12.4681L4.13601 14.5001C3.9507 14.5976 3.72614 14.5814 3.55675 14.4583C3.38737 14.3353 3.30253 14.1267 3.33792 13.9204L4.07569 9.61884L0.949588 6.57402C0.799648 6.42798 0.745598 6.20949 0.810156 6.01039C0.874714 5.81128 1.04669 5.66608 1.2538 5.63581L5.57466 5.00425L7.50682 1.08991C7.59948 0.902195 7.79067 0.783356 8.00001 0.783356Z" fill="#F5EFF9"/>
<path id="primary" fill-rule="evenodd" clip-rule="evenodd" d="M8.00001 0.783356C8.20935 0.783356 8.40054 0.902195 8.4932 1.08991L10.4254 5.00425L14.7462 5.63581C14.9533 5.66608 15.1253 5.81128 15.1899 6.01039C15.2544 6.20949 15.2004 6.42798 15.0504 6.57402L11.9243 9.61884L12.6621 13.9204C12.6975 14.1267 12.6126 14.3353 12.4433 14.4583C12.2739 14.5814 12.0493 14.5976 11.864 14.5001L8.00001 12.4681L4.13601 14.5001C3.9507 14.5976 3.72614 14.5814 3.55675 14.4583C3.38737 14.3353 3.30253 14.1267 3.33792 13.9204L4.07569 9.61884L0.949588 6.57402C0.799648 6.42798 0.745598 6.20949 0.810156 6.01039C0.874714 5.81128 1.04669 5.66608 1.2538 5.63581L5.57466 5.00425L7.50682 1.08991C7.59948 0.902195 7.79067 0.783356 8.00001 0.783356ZM8.00001 2.57595L6.4332 5.75013C6.35315 5.9123 6.1985 6.02475 6.01955 6.05091L2.51497 6.56315L5.05043 9.03269C5.18016 9.15905 5.23937 9.34117 5.20876 9.51966L4.61051 13.0078L7.74401 11.3599C7.90427 11.2756 8.09575 11.2756 8.25601 11.3599L11.3895 13.0078L10.7913 9.51966C10.7606 9.34117 10.8199 9.15905 10.9496 9.03269L13.485 6.56315L9.98046 6.05091C9.80152 6.02475 9.64687 5.9123 9.56682 5.75013L8.00001 2.57595Z" fill="#8449BF"/>
</g>
</g>
</svg>
