<svg width="16" height="16" viewBox="0 0 16 16" fill="none" xmlns="http://www.w3.org/2000/svg">
<path d="M8 1C6.14348 1 4.36301 1.7375 3.05025 3.05025C1.7375 4.36301 1 6.14348 1 8C1 9.85652 1.7375 11.637 3.05025 12.9497C4.36301 14.2625 6.14348 15 8 15C9.85652 15 11.637 14.2625 12.9497 12.9497C14.2625 11.637 15 9.85652 15 8C15 6.14348 14.2625 4.36301 12.9497 3.05025C11.637 1.7375 9.85652 1 8 1V1Z" stroke="#141414" stroke-width="0.99999" stroke-linecap="round" stroke-linejoin="round"/>
<path d="M8.44178 4.53422L9.4 6.6H11.2667C11.5156 6.58755 11.7271 6.78666 11.7396 7.03555C11.7396 7.16622 11.6836 7.30311 11.584 7.39022L9.96622 8.98311L10.8622 11.0427C10.9618 11.2916 10.8436 11.5778 10.5947 11.6773C10.4516 11.7333 10.2898 11.7209 10.1591 11.6462L7.98942 10.4204L5.81164 11.64C5.5752 11.7707 5.27653 11.6898 5.13964 11.4596C5.05875 11.3227 5.05253 11.1671 5.10853 11.024L6.00453 8.95822L4.38675 7.35911C4.19386 7.19111 4.1752 6.89867 4.3432 6.712C4.43031 6.60622 4.56098 6.55022 4.69786 6.55644H6.56453L7.52275 4.48444C7.6472 4.23555 7.94586 4.14222 8.18853 4.27289C8.27564 4.31644 8.35031 4.39111 8.39386 4.47822L8.44178 4.53422Z" stroke="#141414" stroke-width="0.99999" stroke-linecap="round" stroke-linejoin="round"/>
<path fill-rule="evenodd" clip-rule="evenodd" d="M2.6967 2.6967C4.10322 1.29018 6.01087 0.5 8 0.5C9.98912 0.5 11.8968 1.29018 13.3033 2.6967C14.7098 4.10322 15.5 6.01087 15.5 8C15.5 9.98912 14.7098 11.8968 13.3033 13.3033C11.8968 14.7098 9.98912 15.5 8 15.5C6.01087 15.5 4.10322 14.7098 2.6967 13.3033C1.29018 11.8968 0.5 9.98912 0.5 8C0.5 6.01087 1.29018 4.10322 2.6967 2.6967ZM8 1.49999C6.27609 1.49999 4.62278 2.18481 3.4038 3.4038C2.18481 4.62278 1.49999 6.27609 1.49999 8C1.49999 9.7239 2.18481 11.3772 3.4038 12.5962C4.62278 13.8152 6.27609 14.5 8 14.5C9.7239 14.5 11.3772 13.8152 12.5962 12.5962C13.8152 11.3772 14.5 9.7239 14.5 8C14.5 6.27609 13.8152 4.62278 12.5962 3.4038C11.3772 2.18481 9.7239 1.49999 8 1.49999Z" fill="#141414"/>
<path fill-rule="evenodd" clip-rule="evenodd" d="M7.96087 4.72825L7.01834 6.76632C6.93654 6.9432 6.75941 7.05644 6.56453 7.05644H4.79178L6.35602 8.60263C6.50274 8.74766 6.54533 8.96791 6.46323 9.15718L5.5782 11.1977L7.74512 9.98419C7.89748 9.89887 8.08332 9.89922 8.23536 9.98512L10.3853 11.1997L9.50773 9.18257C9.42521 8.99288 9.46802 8.77196 9.61542 8.62683L11.1661 7.09999H9.39999C9.20532 7.09999 9.02834 6.987 8.94642 6.81039L8.01714 4.80701L8.01394 4.80327C7.99397 4.77993 7.97621 4.75481 7.96087 4.72825ZM5.56863 11.203C5.56871 11.203 5.56951 11.2025 5.56957 11.2025L5.5782 11.1977M5.56863 11.203L5.56757 11.2036L5.56863 11.203ZM7.9647 4.71998C7.96477 4.72002 7.96462 4.71995 7.9647 4.71998V4.71998ZM8.41906 3.82918C7.92953 3.57014 7.3252 3.76152 7.07554 4.26084L7.06893 4.27457L6.24488 6.05645H4.70712C4.42659 6.04767 4.15177 6.16343 3.96432 6.38564C3.61803 6.77921 3.66037 7.37617 4.04448 7.72382L5.40964 9.07323L4.64982 10.825C4.64742 10.8306 4.64511 10.8362 4.64291 10.8418C4.53564 11.1159 4.54366 11.4338 4.70918 11.7139L4.70988 11.7151C4.98558 12.1788 5.58215 12.3381 6.05348 12.0776L7.98834 10.9941L9.91104 12.0803C9.91147 12.0806 9.91189 12.0808 9.91232 12.0811C10.1742 12.2302 10.4936 12.2538 10.7769 12.1429L10.7804 12.1416C11.2928 11.9366 11.5257 11.3551 11.3265 10.857L11.3207 10.8432L10.5617 9.09849L11.9264 7.75479C12.1362 7.56392 12.2395 7.29051 12.2395 7.03555C12.2395 7.02723 12.2393 7.0189 12.2389 7.01059C12.2135 6.5022 11.7858 6.08159 11.2564 6.1H9.71923L8.89535 4.32383C8.87614 4.28243 8.85136 4.24385 8.82169 4.20918L8.80601 4.19084C8.71389 4.03767 8.57824 3.91044 8.41906 3.82918Z" fill="#141414"/>
</svg>
