<svg width="100" height="100" viewBox="0 0 100 100" fill="none" xmlns="http://www.w3.org/2000/svg">
<path d="M49.344 13.0117C49.1153 13.0273 48.9068 13.1035 48.6832 13.1319C41.1995 13.4523 34.8026 15.9409 30.2685 20.4918C29.7349 21.0273 29.3044 21.6535 28.8566 22.2641C28.5209 21.8127 28.2088 21.341 27.7752 20.9724C26.3033 19.7214 24.4498 19.0499 22.5181 19.0499C20.5864 19.0499 18.7028 19.7214 17.231 20.9724C16.1563 21.8859 15.4712 23.112 15.008 24.427C14.8389 24.3916 14.6702 24.3369 14.4973 24.337C13.0416 24.337 11.6515 24.9298 10.6222 25.9591C9.59283 26.9885 9 28.3786 9 29.8343C9 31.29 9.59283 32.6802 10.6222 33.7095C11.6515 34.7388 13.0416 35.3317 14.4973 35.3317H23.3292C23.0903 36.9933 22.9086 38.6944 22.9086 40.4986C22.9086 45.7336 25.2573 51.7017 29.3973 57.8618C32.7342 62.8268 37.115 67.6747 41.3233 71.3198L42.5249 74.8646H42.0743C41.2519 74.8646 40.5722 75.5142 40.5722 76.3365C40.5722 77.1589 41.2519 77.8385 42.0743 77.8386H43.0656V83.8467C43.0656 85.1256 43.5732 86.3367 44.4775 87.2412C45.3819 88.145 46.6233 88.653 47.902 88.6531H52.8888C54.1674 88.6531 55.409 88.1449 56.3133 87.2412C57.2177 86.3367 57.7252 85.1256 57.7252 83.8467C57.7252 83.8385 57.7255 83.8247 57.7252 83.8166L57.6351 77.8386H58.7165C59.5389 77.8386 60.2186 77.1589 60.2186 76.3365C60.2186 75.5142 59.5389 74.8646 58.7165 74.8646H58.266L59.4375 71.3198C63.6476 67.6747 68.0566 62.8271 71.3936 57.8618C75.5337 51.7016 77.8822 45.7336 77.8823 40.4986C77.8823 32.1915 75.3047 25.322 70.4923 20.4918C65.8201 15.8023 59.2275 13.2317 51.4469 13.0418C51.4166 13.0396 51.3871 13.0438 51.3567 13.0418C51.336 13.0413 51.3173 13.0422 51.2966 13.0418C51.0265 13.0297 50.7558 13.0321 50.4856 13.0418C50.4666 13.0413 50.4445 13.0421 50.4254 13.0418C50.4159 13.0417 50.405 13.0418 50.3954 13.0418C50.4032 13.042 50.3876 13.0114 50.3954 13.0117C50.3751 13.0117 50.3555 13.0114 50.3353 13.0117C50.0122 12.9972 49.6987 12.9953 49.3741 13.0117C49.3653 13.0121 49.3528 13.0112 49.344 13.0117ZM50.3654 16.0158C50.3754 16.0161 50.3852 16.0158 50.3954 16.0158C50.6918 16.0158 51.081 16.3049 51.567 17.0672C52.1955 18.0531 52.7881 19.6036 53.2793 21.6633C54.3315 26.0761 54.8999 32.5398 54.9015 40.4986C54.9015 40.5068 54.9012 40.5205 54.9015 40.5286C54.7767 45.5154 54.3582 50.4695 53.6698 55.3985C53.6684 55.4084 53.6712 55.4187 53.6698 55.4285C53.031 59.9944 52.0872 64.5256 50.9662 69.0067H49.8246C47.4841 59.6588 46.0961 50.1047 45.8593 40.4686C45.861 32.5141 46.4552 26.0484 47.5116 21.6333C48.0043 19.574 48.594 18.0233 49.2238 17.0372C49.6979 16.295 50.0718 16.031 50.3654 16.0158ZM54.631 16.8569C56.2262 17.4965 57.683 18.4471 58.9568 19.8309C59.6657 20.6004 60.3414 21.4788 60.9396 22.4745C60.9439 22.4818 60.9352 22.4972 60.9396 22.5044C61.5754 23.5663 62.1632 24.731 62.6518 26.0192C63.1482 27.3228 63.5458 28.7337 63.8834 30.2549C64.2188 31.7668 64.4632 33.3795 64.6345 35.0913C64.8078 36.8126 64.9048 38.6168 64.9049 40.5286C64.9022 42.8551 64.5743 45.3958 63.9436 48.0687C63.9411 48.0792 63.946 48.0882 63.9436 48.0987C63.3104 50.7745 62.368 53.5756 61.1799 56.45C61.176 56.4592 61.1838 56.4707 61.1799 56.48C60.1734 58.9118 58.9859 61.3257 57.7552 63.5695C57.7511 63.5772 57.7595 63.5918 57.7552 63.5995C56.6526 65.6083 55.4928 67.3914 54.3607 69.0067H54.0002C56.2797 59.6838 57.6375 50.1565 57.8754 40.5587C57.8757 40.5502 57.8755 40.537 57.8754 40.5286C57.8757 40.5201 57.8755 40.507 57.8754 40.4986C57.8754 36.4158 57.712 32.7181 57.4248 29.4438C57.4239 29.4324 57.4258 29.4251 57.4248 29.4138C57.1372 26.1443 56.718 23.3068 56.1631 20.9724C56.1604 20.9612 56.1658 20.9537 56.1631 20.9424C55.7459 19.1929 55.1953 18.0217 54.631 16.8569ZM46.0396 17.0372C45.4971 18.1751 44.9377 19.2673 44.5375 20.9424C43.4206 25.619 42.8253 32.308 42.8253 40.4986C42.8253 40.507 42.825 40.5202 42.8253 40.5286C43.0613 50.1366 44.4217 59.6733 46.7004 69.0067H46.4301C44.0254 65.5757 41.524 61.0775 39.6109 56.45C37.2269 50.6826 35.8859 45.1664 35.8859 40.4986C35.8859 38.6017 35.9578 36.8032 36.1263 35.0913C36.6332 29.9586 37.9017 25.6833 39.8213 22.4745C40.7563 20.9114 41.8558 19.624 43.0656 18.6293C43.967 17.8892 45.0073 17.4649 46.0396 17.0372ZM60.9996 17.8483C63.8555 18.956 66.34 20.5376 68.3896 22.5946C72.6173 26.8381 74.9082 32.9451 74.9082 40.4986C74.9082 45.038 72.7401 50.4662 68.9002 56.1796C65.9556 60.561 62.1445 64.7881 58.4162 68.1656C59.077 67.1105 59.7293 66.1718 60.3688 65.0114C61.661 62.6681 62.8929 60.1603 63.9436 57.6215C63.9474 57.6122 63.9398 57.6007 63.9436 57.5914C65.2003 54.5513 66.1889 51.5637 66.8575 48.6995C66.8599 48.6891 66.8551 48.6799 66.8575 48.6695C67.5237 45.8079 67.8762 43.0759 67.8788 40.5286C67.8788 40.5201 67.8791 40.507 67.8788 40.4986C67.8779 38.4732 67.7963 36.5398 67.6084 34.7009C67.4228 32.8721 67.133 31.1359 66.7673 29.5039C66.7652 29.4941 66.7696 29.4837 66.7673 29.4738C66.4008 27.8435 65.927 26.3261 65.3855 24.9077C65.3821 24.8989 65.3889 24.8865 65.3855 24.8777C64.8431 23.4609 64.2056 22.1619 63.493 20.9724C63.4886 20.9652 63.4973 20.9496 63.493 20.9424C63.4496 20.8703 63.3868 20.8331 63.3428 20.7622C62.6482 19.6469 61.8427 18.7068 60.9996 17.8483ZM39.3406 18.2388C38.5967 19.043 37.8804 19.9184 37.2679 20.9424C35.1195 24.5337 33.7145 29.1864 33.1523 34.7009C32.9656 36.5398 32.882 38.4764 32.8819 40.4986C32.8819 45.6088 34.3262 51.4926 36.8472 57.5914C38.4314 61.4236 40.4187 65.019 42.4348 68.2258C38.6815 64.8401 34.8221 60.5861 31.8607 56.1796C28.0208 50.4662 25.8826 45.038 25.8826 40.4986C25.8826 37.6203 26.2937 35.0332 26.9341 32.598C27.6274 30.0331 28.604 27.6768 29.9681 25.6587C29.9739 25.6501 29.9624 25.6374 29.9681 25.6286C29.9738 25.6191 29.9628 25.6083 29.9681 25.5986C30.6903 24.5228 31.4657 23.5036 32.3713 22.5946C34.2817 20.677 36.7039 19.3133 39.3406 18.2388ZM22.5181 22.0238C23.7432 22.0238 24.9191 22.4622 25.8526 23.2555C26.3618 23.6884 26.6818 24.2882 26.994 24.8777C26.3268 25.9799 25.6876 27.0986 25.1916 28.3323C25.1882 28.3406 25.1952 28.354 25.1916 28.3623C25.1115 28.5626 25.0572 28.7897 24.9814 28.9931C24.5639 30.0688 24.2199 31.1941 23.93 32.3576H14.4973C13.8314 32.3576 13.1958 32.0775 12.725 31.6067C12.2541 31.1358 12.004 30.5002 12.004 29.8343C12.004 29.1684 12.2541 28.5329 12.725 28.0619C13.1959 27.5911 13.8314 27.341 14.4973 27.341C14.8062 27.3409 15.1115 27.3779 15.3986 27.4912C15.8175 27.6566 16.2986 27.6235 16.6903 27.4011C17.082 27.1786 17.3387 26.7942 17.4113 26.3496C17.6087 25.1406 18.2502 24.0489 19.1836 23.2555C20.1171 22.4622 21.293 22.0238 22.5181 22.0238ZM44.6878 71.9807H45.5289C45.5831 71.9867 45.6247 71.9852 45.6791 71.9807H52.1377C52.1613 71.9818 52.1741 72.0107 52.1978 72.0107H55.1719C55.1861 72.0107 55.1876 71.9811 55.2019 71.9807C55.2102 71.9803 55.2237 71.9815 55.2318 71.9807H56.1031L55.1418 74.8646H45.6491L44.6878 71.9807ZM46.0396 77.8386H54.6611L54.7212 83.8467C54.7212 84.3358 54.5262 84.7929 54.1805 85.1384C53.8348 85.4841 53.3781 85.6791 52.8888 85.6791H47.902C47.4126 85.6791 46.9259 85.4841 46.5803 85.1384C46.2346 84.7929 46.0395 84.3358 46.0396 83.8467V77.8386ZM85.5425 65.8825C83.6493 65.8825 81.8036 66.5374 80.3455 67.7451C79.2669 68.6385 78.5671 69.8391 78.0925 71.1396C77.7939 71.0808 77.4965 70.9992 77.1913 71.0194C76.3853 71.073 75.5846 71.3189 74.8782 71.7104C74.1718 72.1019 73.5784 72.6477 73.1058 73.3025C72.6332 73.9574 72.2934 74.7017 72.1445 75.4954C71.9955 76.2892 72.0316 77.117 72.2347 77.8986C72.4377 78.6803 72.7997 79.3805 73.3162 80.0015C73.8325 80.6223 74.507 81.1313 75.2387 81.4734C75.9703 81.8155 76.7442 81.9859 77.5518 81.9841H93.5034C94.9588 81.9841 96.3497 81.4213 97.3783 80.392C98.4079 79.3625 99.001 77.9723 99 76.5169C99 75.0614 98.4079 73.6411 97.3783 72.6115C96.3497 71.5822 94.9597 71.0194 93.5034 71.0194C93.3053 71.0196 93.1227 71.1004 92.9324 71.1396C92.4594 69.8421 91.7855 68.6363 90.7094 67.7451C89.2518 66.5375 87.4352 65.8825 85.5425 65.8825ZM85.5425 68.8565C86.7413 68.8565 87.8927 69.293 88.8169 70.0582C89.7404 70.8233 90.3663 71.8841 90.5892 73.0622L90.7395 73.9033C90.8293 74.377 91.3424 74.6506 91.7904 74.4741L92.6017 74.1736C92.8901 74.0602 93.1929 73.9938 93.5034 73.9935C94.1695 73.9935 94.804 74.2732 95.276 74.7444C95.7336 75.214 95.996 75.8605 95.9969 76.5169C95.9969 77.1826 95.7461 77.8181 95.276 78.2892C94.804 78.7604 94.1695 79.0101 93.5034 79.0101H77.5518C77.1823 79.011 76.835 78.9263 76.5003 78.7698C76.1657 78.6133 75.8655 78.393 75.6292 78.1089C75.3929 77.8248 75.2114 77.5052 75.1186 77.1477C75.0256 76.7901 75.0203 76.3993 75.0885 76.0362C75.1566 75.6729 75.2929 75.3443 75.509 75.0448C75.7251 74.7453 75.997 74.4729 76.3202 74.2938C76.6433 74.1148 77.0029 74.018 77.3715 73.9935C77.7403 73.9689 78.109 74.0389 78.453 74.1736L79.264 74.4741C79.7126 74.6497 80.2259 74.3766 80.3155 73.9033L80.4656 73.0622C80.6887 71.8839 81.3145 70.8232 82.238 70.0582C83.1619 69.293 84.343 68.8565 85.5425 68.8565Z" fill="url(#paint0_linear_4400_21300)"/>
<defs>
<linearGradient id="paint0_linear_4400_21300" x1="12.0368" y1="13.0001" x2="80.7103" y2="100.609" gradientUnits="userSpaceOnUse">
<stop stop-color="#9D24D9"/>
<stop offset="0.5" stop-color="#5283CE"/>
<stop offset="1" stop-color="#00EEC4"/>
</linearGradient>
</defs>
</svg>
